<?xml version="1.0" encoding="utf-8" standalone="no"?>
<!DOCTYPE svg PUBLIC "-//W3C//DTD SVG 1.1//EN"
  "http://www.w3.org/Graphics/SVG/1.1/DTD/svg11.dtd">
<!-- Created with matplotlib (https://matplotlib.org/) -->
<svg height="288pt" version="1.1" viewBox="0 0 432 288" width="432pt" xmlns="http://www.w3.org/2000/svg" xmlns:xlink="http://www.w3.org/1999/xlink">
 <metadata>
  <rdf:RDF xmlns:cc="http://creativecommons.org/ns#" xmlns:dc="http://purl.org/dc/elements/1.1/" xmlns:rdf="http://www.w3.org/1999/02/22-rdf-syntax-ns#">
   <cc:Work>
    <dc:type rdf:resource="http://purl.org/dc/dcmitype/StillImage"/>
    <dc:date>2021-10-11T21:10:37.059050</dc:date>
    <dc:format>image/svg+xml</dc:format>
    <dc:creator>
     <cc:Agent>
      <dc:title>Matplotlib v3.3.4, https://matplotlib.org/</dc:title>
     </cc:Agent>
    </dc:creator>
   </cc:Work>
  </rdf:RDF>
 </metadata>
 <defs>
  <style type="text/css">*{stroke-linecap:butt;stroke-linejoin:round;}</style>
 </defs>
 <g id="figure_1">
  <g id="patch_1">
   <path d="M 0 288 
L 432 288 
L 432 0 
L 0 0 
z
" style="fill:none;"/>
  </g>
  <g id="axes_1">
   <g id="patch_2">
    <path d="M 54 252 
L 388.8 252 
L 388.8 34.56 
L 54 34.56 
z
" style="fill:#ffffff;"/>
   </g>
   <g id="PolyCollection_1">
    <path clip-path="url(#p59ae405a38)" d="M 54 40.29377 
L 54 173.506144 
L 62.37 129.417208 
L 70.74 125.200425 
L 79.11 104.231881 
L 87.48 106.887526 
L 95.85 116.934908 
L 104.22 116.341131 
L 112.59 114.438891 
L 120.96 114.72147 
L 129.33 111.104776 
L 137.7 110.275307 
L 146.07 109.729402 
L 154.44 109.153677 
L 162.81 109.357821 
L 171.18 108.06844 
L 179.55 112.909079 
L 187.92 108.872608 
L 196.29 109.064597 
L 204.66 110.09199 
L 213.03 115.13886 
L 221.4 110.643485 
L 229.77 108.949597 
L 238.14 109.157134 
L 246.51 104.393785 
L 254.88 107.193734 
L 263.25 108.389753 
L 271.62 107.269068 
L 279.99 106.564171 
L 288.36 106.656977 
L 296.73 106.838894 
L 305.1 106.43857 
L 313.47 106.363382 
L 321.84 106.319652 
L 330.21 105.713968 
L 338.58 105.342312 
L 346.95 105.560089 
L 355.32 105.55177 
L 363.69 104.816576 
L 372.06 104.514788 
L 380.43 104.243829 
L 388.8 104.55237 
L 397.17 105.011804 
L 405.54 105.053314 
L 413.91 104.96941 
L 422.28 105.219377 
L 430.65 105.433174 
L 439.02 105.661998 
L 447.39 105.235667 
L 455.76 105.150719 
L 464.13 105.354194 
L 472.5 105.616124 
L 480.87 105.522829 
L 489.24 106.048084 
L 497.61 106.380661 
L 505.98 106.534209 
L 514.35 113.676048 
L 522.72 106.025353 
L 531.09 106.057001 
L 539.46 105.732941 
L 547.83 105.428033 
L 556.2 112.332276 
L 564.57 105.606692 
L 572.94 105.281408 
L 581.31 105.223549 
L 589.68 105.63036 
L 598.05 105.838237 
L 606.42 105.95881 
L 614.79 105.821792 
L 614.79 52.111903 
L 614.79 52.111903 
L 606.42 46.478176 
L 598.05 52.051517 
L 589.68 52.025012 
L 581.31 46.403711 
L 572.94 51.976532 
L 564.57 51.950185 
L 556.2 51.934929 
L 547.83 51.902211 
L 539.46 51.888563 
L 531.09 51.851221 
L 522.72 51.899912 
L 514.35 51.856756 
L 505.98 51.757666 
L 497.61 46.143188 
L 489.24 51.525666 
L 480.87 51.620141 
L 472.5 51.558796 
L 464.13 51.566592 
L 455.76 51.455347 
L 447.39 51.427647 
L 439.02 45.874213 
L 430.65 51.370865 
L 422.28 51.188182 
L 413.91 45.782265 
L 405.54 51.351947 
L 397.17 51.245424 
L 388.8 51.287782 
L 380.43 51.317079 
L 372.06 51.194336 
L 363.69 51.251088 
L 355.32 51.176424 
L 346.95 51.017248 
L 338.58 51.110395 
L 330.21 51.137791 
L 321.84 51.070233 
L 313.47 51.179223 
L 305.1 51.278585 
L 296.73 51.230246 
L 288.36 51.273489 
L 279.99 51.254581 
L 271.62 51.24983 
L 263.25 51.289684 
L 254.88 51.162871 
L 246.51 51.031365 
L 238.14 50.704418 
L 229.77 50.664038 
L 221.4 50.405328 
L 213.03 50.134291 
L 204.66 50.158078 
L 196.29 50.00132 
L 187.92 49.948075 
L 179.55 49.762896 
L 171.18 49.623893 
L 162.81 49.337859 
L 154.44 49.360132 
L 146.07 49.312508 
L 137.7 45.268388 
L 129.33 49.150032 
L 120.96 49.124569 
L 112.59 48.752357 
L 104.22 48.680667 
L 95.85 48.109624 
L 87.48 47.865617 
L 79.11 47.11618 
L 70.74 48.193727 
L 62.37 49.591764 
L 54 40.29377 
z
" style="fill:#696969;fill-opacity:0.2;stroke:#696969;stroke-opacity:0.2;"/>
   </g>
   <g id="PolyCollection_2">
    <path clip-path="url(#p59ae405a38)" d="M 54 84.113375 
L 54 145.844595 
L 62.37 112.280983 
L 70.74 96.417879 
L 79.11 102.143212 
L 87.48 103.579285 
L 95.85 99.652707 
L 104.22 102.379828 
L 112.59 104.045296 
L 120.96 105.067611 
L 129.33 100.599529 
L 137.7 100.167257 
L 146.07 101.146497 
L 154.44 104.477904 
L 162.81 100.322799 
L 171.18 100.345043 
L 179.55 99.520885 
L 187.92 99.543766 
L 196.29 99.16698 
L 204.66 99.218317 
L 213.03 99.406185 
L 221.4 99.348044 
L 229.77 98.415588 
L 238.14 101.211351 
L 246.51 98.021752 
L 254.88 97.428317 
L 263.25 97.343453 
L 271.62 99.429774 
L 279.99 96.910577 
L 288.36 99.137575 
L 296.73 97.14313 
L 305.1 97.262913 
L 313.47 96.440396 
L 321.84 99.091577 
L 330.21 96.647453 
L 338.58 96.590625 
L 346.95 97.045828 
L 355.32 97.143887 
L 363.69 97.079839 
L 372.06 97.168274 
L 380.43 97.354143 
L 388.8 97.558673 
L 397.17 97.594552 
L 405.54 97.621374 
L 413.91 97.977731 
L 422.28 98.270195 
L 430.65 98.577988 
L 439.02 98.536825 
L 447.39 98.559319 
L 455.76 98.578732 
L 464.13 98.542466 
L 472.5 98.566572 
L 480.87 98.600097 
L 489.24 99.964187 
L 497.61 99.904277 
L 505.98 98.705996 
L 514.35 98.671631 
L 522.72 98.652274 
L 531.09 98.662964 
L 539.46 99.992074 
L 547.83 98.619525 
L 556.2 98.660523 
L 564.57 100.141891 
L 572.94 98.873491 
L 581.31 98.833235 
L 589.68 98.934668 
L 598.05 98.962541 
L 606.42 99.112398 
L 614.79 98.950414 
L 614.79 73.438938 
L 614.79 73.438938 
L 606.42 73.336613 
L 598.05 73.212193 
L 589.68 73.157039 
L 581.31 73.137314 
L 572.94 73.093165 
L 564.57 73.023829 
L 556.2 71.187548 
L 547.83 72.778854 
L 539.46 72.636812 
L 531.09 72.395439 
L 522.72 72.410609 
L 514.35 72.347243 
L 505.98 72.253683 
L 497.61 72.110992 
L 489.24 71.986815 
L 480.87 71.974686 
L 472.5 71.997833 
L 464.13 71.979248 
L 455.76 71.958289 
L 447.39 71.8823 
L 439.02 71.958117 
L 430.65 72.087962 
L 422.28 71.867644 
L 413.91 71.77507 
L 405.54 71.856276 
L 397.17 71.937285 
L 388.8 71.828198 
L 380.43 71.883537 
L 372.06 71.919202 
L 363.69 71.832453 
L 355.32 71.825259 
L 346.95 71.835489 
L 338.58 71.897013 
L 330.21 71.872829 
L 321.84 71.766019 
L 313.47 71.730133 
L 305.1 69.531575 
L 296.73 71.752226 
L 288.36 71.525418 
L 279.99 71.446118 
L 271.62 71.289639 
L 263.25 71.30394 
L 254.88 71.134555 
L 246.51 70.998057 
L 238.14 71.136298 
L 229.77 68.371716 
L 221.4 68.290354 
L 213.03 71.244329 
L 204.66 71.461501 
L 196.29 71.35193 
L 187.92 71.176091 
L 179.55 71.313969 
L 171.18 68.709155 
L 162.81 71.884613 
L 154.44 72.543567 
L 146.07 72.016796 
L 137.7 72.221084 
L 129.33 72.542659 
L 120.96 72.709376 
L 112.59 71.509293 
L 104.22 71.153739 
L 95.85 70.610297 
L 87.48 71.332474 
L 79.11 66.87526 
L 70.74 69.55564 
L 62.37 73.917081 
L 54 84.113375 
z
" style="fill:#006400;fill-opacity:0.2;stroke:#006400;stroke-opacity:0.2;"/>
   </g>
   <g id="PolyCollection_3">
    <path clip-path="url(#p59ae405a38)" d="M 54 74.345814 
L 54 108.273407 
L 62.37 88.218924 
L 70.74 81.251419 
L 79.11 77.692411 
L 87.48 74.240479 
L 95.85 73.160795 
L 104.22 71.760667 
L 112.59 71.017445 
L 120.96 70.671293 
L 129.33 70.255404 
L 137.7 68.770459 
L 146.07 68.449394 
L 154.44 68.224452 
L 162.81 68.060067 
L 171.18 67.851834 
L 179.55 67.747761 
L 187.92 67.220285 
L 196.29 67.822459 
L 204.66 67.524259 
L 213.03 67.350594 
L 221.4 67.520359 
L 229.77 67.711139 
L 238.14 67.277427 
L 246.51 67.669566 
L 254.88 67.511511 
L 263.25 67.700574 
L 271.62 67.567617 
L 279.99 67.838102 
L 288.36 67.289738 
L 296.73 67.846987 
L 305.1 67.780745 
L 313.47 67.632316 
L 321.84 68.030762 
L 330.21 68.084143 
L 338.58 68.150807 
L 346.95 68.169398 
L 355.32 68.186814 
L 363.69 68.19292 
L 372.06 68.196764 
L 380.43 68.408911 
L 388.8 68.5286 
L 397.17 68.691758 
L 405.54 68.70617 
L 413.91 68.785158 
L 422.28 68.894669 
L 430.65 68.944202 
L 439.02 69.040379 
L 447.39 69.045784 
L 455.76 69.181188 
L 464.13 69.283261 
L 472.5 69.323737 
L 480.87 69.862405 
L 489.24 69.450234 
L 497.61 69.484574 
L 505.98 69.591062 
L 514.35 69.724466 
L 522.72 69.677488 
L 531.09 69.768537 
L 539.46 69.952455 
L 547.83 69.964302 
L 556.2 70.020663 
L 564.57 70.11576 
L 572.94 69.880216 
L 581.31 69.936903 
L 589.68 70.103562 
L 598.05 70.191776 
L 606.42 70.407828 
L 614.79 70.409216 
L 614.79 61.109576 
L 614.79 61.109576 
L 606.42 60.957319 
L 598.05 60.924649 
L 589.68 60.823361 
L 581.31 60.9106 
L 572.94 60.453423 
L 564.57 60.897121 
L 556.2 60.845858 
L 547.83 60.79507 
L 539.46 60.670298 
L 531.09 60.720305 
L 522.72 60.519184 
L 514.35 60.209713 
L 505.98 60.52949 
L 497.61 60.4025 
L 489.24 60.497414 
L 480.87 60.385909 
L 472.5 60.258879 
L 464.13 60.108337 
L 455.76 60.07448 
L 447.39 60.030431 
L 439.02 59.682285 
L 430.65 59.959213 
L 422.28 60.122338 
L 413.91 59.686698 
L 405.54 60.008847 
L 397.17 59.596943 
L 388.8 60.072337 
L 380.43 60.023677 
L 372.06 59.537182 
L 363.69 59.848825 
L 355.32 59.744097 
L 346.95 59.776438 
L 338.58 59.81016 
L 330.21 59.204291 
L 321.84 59.197126 
L 313.47 59.609988 
L 305.1 59.569885 
L 296.73 60.123773 
L 288.36 59.323576 
L 279.99 59.38786 
L 271.62 60.096695 
L 263.25 59.225713 
L 254.88 59.021518 
L 246.51 58.924653 
L 238.14 58.817085 
L 229.77 58.824109 
L 221.4 58.908592 
L 213.03 58.735586 
L 204.66 58.815044 
L 196.29 58.797501 
L 187.92 58.711217 
L 179.55 58.553811 
L 171.18 58.607359 
L 162.81 58.800369 
L 154.44 58.64324 
L 146.07 59.043394 
L 137.7 59.525726 
L 129.33 59.64098 
L 120.96 60.098678 
L 112.59 60.256117 
L 104.22 60.667613 
L 95.85 61.65709 
L 87.48 61.403692 
L 79.11 61.555617 
L 70.74 63.668991 
L 62.37 64.79156 
L 54 74.345814 
z
" style="fill:#0000ff;fill-opacity:0.2;stroke:#0000ff;stroke-opacity:0.2;"/>
   </g>
   <g id="PolyCollection_4">
    <path clip-path="url(#p59ae405a38)" d="M 54 64.158426 
L 54 125.190145 
L 62.37 86.196247 
L 70.74 81.095423 
L 79.11 75.284659 
L 87.48 74.504536 
L 95.85 75.080287 
L 104.22 74.384194 
L 112.59 74.99349 
L 120.96 75.547655 
L 129.33 76.089256 
L 137.7 75.885579 
L 146.07 76.215954 
L 154.44 76.784179 
L 162.81 77.019116 
L 171.18 77.405246 
L 179.55 76.929386 
L 187.92 77.476039 
L 196.29 77.420789 
L 204.66 77.974996 
L 213.03 77.835833 
L 221.4 78.377745 
L 229.77 78.08867 
L 238.14 77.937459 
L 246.51 78.504838 
L 254.88 78.429399 
L 263.25 78.514328 
L 271.62 78.341723 
L 279.99 78.979724 
L 288.36 79.090947 
L 296.73 78.940538 
L 305.1 79.194861 
L 313.47 79.750541 
L 321.84 78.926252 
L 330.21 79.414226 
L 338.58 79.544166 
L 346.95 79.522264 
L 355.32 78.162703 
L 363.69 79.135224 
L 372.06 79.237381 
L 380.43 79.211578 
L 388.8 79.381168 
L 397.17 80.161541 
L 405.54 80.279095 
L 413.91 80.657636 
L 422.28 81.360642 
L 430.65 80.856821 
L 439.02 80.428443 
L 447.39 82.135969 
L 455.76 80.502833 
L 464.13 80.536648 
L 472.5 81.234865 
L 480.87 81.232515 
L 489.24 81.394984 
L 497.61 80.926421 
L 505.98 81.175662 
L 514.35 81.377574 
L 522.72 82.211091 
L 531.09 80.13879 
L 539.46 83.644188 
L 547.83 81.99162 
L 556.2 81.986973 
L 564.57 82.358053 
L 572.94 82.451017 
L 581.31 82.75606 
L 589.68 82.911962 
L 598.05 82.975073 
L 606.42 83.032889 
L 614.79 83.765828 
L 614.79 57.949143 
L 614.79 57.949143 
L 606.42 57.813072 
L 598.05 57.834854 
L 589.68 57.756156 
L 581.31 57.562327 
L 572.94 57.686744 
L 564.57 57.558983 
L 556.2 57.407375 
L 547.83 57.43759 
L 539.46 57.265092 
L 531.09 57.498921 
L 522.72 57.112232 
L 514.35 56.953557 
L 505.98 56.955749 
L 497.61 56.370001 
L 489.24 56.990434 
L 480.87 56.839095 
L 472.5 56.780957 
L 464.13 56.663696 
L 455.76 56.660258 
L 447.39 56.58973 
L 439.02 56.575069 
L 430.65 56.481201 
L 422.28 56.991943 
L 413.91 56.789464 
L 405.54 56.503634 
L 397.17 56.852604 
L 388.8 56.225593 
L 380.43 56.277469 
L 372.06 56.121134 
L 363.69 56.668263 
L 355.32 56.236652 
L 346.95 56.126974 
L 338.58 56.076194 
L 330.21 56.59978 
L 321.84 55.936307 
L 313.47 55.947936 
L 305.1 55.993718 
L 296.73 55.485417 
L 288.36 55.79694 
L 279.99 55.850484 
L 271.62 55.798435 
L 263.25 55.658601 
L 254.88 55.852009 
L 246.51 55.435882 
L 238.14 55.569353 
L 229.77 55.53115 
L 221.4 55.453992 
L 213.03 55.222638 
L 204.66 55.19273 
L 196.29 55.080862 
L 187.92 55.004165 
L 179.55 54.76378 
L 171.18 54.933899 
L 162.81 54.740065 
L 154.44 54.703114 
L 146.07 54.551035 
L 137.7 54.410447 
L 129.33 54.380678 
L 120.96 54.130971 
L 112.59 53.94255 
L 104.22 53.963116 
L 95.85 54.252152 
L 87.48 54.532951 
L 79.11 55.102503 
L 70.74 56.215256 
L 62.37 59.779956 
L 54 64.158426 
z
" style="fill:#9400d3;fill-opacity:0.2;stroke:#9400d3;stroke-opacity:0.2;"/>
   </g>
   <g id="matplotlib.axis_1">
    <g id="xtick_1">
     <g id="line2d_1">
      <defs>
       <path d="M 0 0 
L 0 3.5 
" id="m0cce003c13" style="stroke:#000000;stroke-width:0.8;"/>
      </defs>
      <g>
       <use style="stroke:#000000;stroke-width:0.8;" x="54" xlink:href="#m0cce003c13" y="252"/>
      </g>
     </g>
     <g id="text_1">
      <!-- 0 -->
      <g transform="translate(50.81875 266.598437)scale(0.1 -0.1)">
       <defs>
        <path d="M 31.78125 66.40625 
Q 24.171875 66.40625 20.328125 58.90625 
Q 16.5 51.421875 16.5 36.375 
Q 16.5 21.390625 20.328125 13.890625 
Q 24.171875 6.390625 31.78125 6.390625 
Q 39.453125 6.390625 43.28125 13.890625 
Q 47.125 21.390625 47.125 36.375 
Q 47.125 51.421875 43.28125 58.90625 
Q 39.453125 66.40625 31.78125 66.40625 
z
M 31.78125 74.21875 
Q 44.046875 74.21875 50.515625 64.515625 
Q 56.984375 54.828125 56.984375 36.375 
Q 56.984375 17.96875 50.515625 8.265625 
Q 44.046875 -1.421875 31.78125 -1.421875 
Q 19.53125 -1.421875 13.0625 8.265625 
Q 6.59375 17.96875 6.59375 36.375 
Q 6.59375 54.828125 13.0625 64.515625 
Q 19.53125 74.21875 31.78125 74.21875 
z
" id="DejaVuSans-48"/>
       </defs>
       <use xlink:href="#DejaVuSans-48"/>
      </g>
     </g>
    </g>
    <g id="xtick_2">
     <g id="line2d_2">
      <g>
       <use style="stroke:#000000;stroke-width:0.8;" x="95.85" xlink:href="#m0cce003c13" y="252"/>
      </g>
     </g>
     <g id="text_2">
      <!-- 5 -->
      <g transform="translate(92.66875 266.598437)scale(0.1 -0.1)">
       <defs>
        <path d="M 10.796875 72.90625 
L 49.515625 72.90625 
L 49.515625 64.59375 
L 19.828125 64.59375 
L 19.828125 46.734375 
Q 21.96875 47.46875 24.109375 47.828125 
Q 26.265625 48.1875 28.421875 48.1875 
Q 40.625 48.1875 47.75 41.5 
Q 54.890625 34.8125 54.890625 23.390625 
Q 54.890625 11.625 47.5625 5.09375 
Q 40.234375 -1.421875 26.90625 -1.421875 
Q 22.3125 -1.421875 17.546875 -0.640625 
Q 12.796875 0.140625 7.71875 1.703125 
L 7.71875 11.625 
Q 12.109375 9.234375 16.796875 8.0625 
Q 21.484375 6.890625 26.703125 6.890625 
Q 35.15625 6.890625 40.078125 11.328125 
Q 45.015625 15.765625 45.015625 23.390625 
Q 45.015625 31 40.078125 35.4375 
Q 35.15625 39.890625 26.703125 39.890625 
Q 22.75 39.890625 18.8125 39.015625 
Q 14.890625 38.140625 10.796875 36.28125 
z
" id="DejaVuSans-53"/>
       </defs>
       <use xlink:href="#DejaVuSans-53"/>
      </g>
     </g>
    </g>
    <g id="xtick_3">
     <g id="line2d_3">
      <g>
       <use style="stroke:#000000;stroke-width:0.8;" x="137.7" xlink:href="#m0cce003c13" y="252"/>
      </g>
     </g>
     <g id="text_3">
      <!-- 10 -->
      <g transform="translate(131.3375 266.598437)scale(0.1 -0.1)">
       <defs>
        <path d="M 12.40625 8.296875 
L 28.515625 8.296875 
L 28.515625 63.921875 
L 10.984375 60.40625 
L 10.984375 69.390625 
L 28.421875 72.90625 
L 38.28125 72.90625 
L 38.28125 8.296875 
L 54.390625 8.296875 
L 54.390625 0 
L 12.40625 0 
z
" id="DejaVuSans-49"/>
       </defs>
       <use xlink:href="#DejaVuSans-49"/>
       <use x="63.623047" xlink:href="#DejaVuSans-48"/>
      </g>
     </g>
    </g>
    <g id="xtick_4">
     <g id="line2d_4">
      <g>
       <use style="stroke:#000000;stroke-width:0.8;" x="179.55" xlink:href="#m0cce003c13" y="252"/>
      </g>
     </g>
     <g id="text_4">
      <!-- 15 -->
      <g transform="translate(173.1875 266.598437)scale(0.1 -0.1)">
       <use xlink:href="#DejaVuSans-49"/>
       <use x="63.623047" xlink:href="#DejaVuSans-53"/>
      </g>
     </g>
    </g>
    <g id="xtick_5">
     <g id="line2d_5">
      <g>
       <use style="stroke:#000000;stroke-width:0.8;" x="221.4" xlink:href="#m0cce003c13" y="252"/>
      </g>
     </g>
     <g id="text_5">
      <!-- 20 -->
      <g transform="translate(215.0375 266.598437)scale(0.1 -0.1)">
       <defs>
        <path d="M 19.1875 8.296875 
L 53.609375 8.296875 
L 53.609375 0 
L 7.328125 0 
L 7.328125 8.296875 
Q 12.9375 14.109375 22.625 23.890625 
Q 32.328125 33.6875 34.8125 36.53125 
Q 39.546875 41.84375 41.421875 45.53125 
Q 43.3125 49.21875 43.3125 52.78125 
Q 43.3125 58.59375 39.234375 62.25 
Q 35.15625 65.921875 28.609375 65.921875 
Q 23.96875 65.921875 18.8125 64.3125 
Q 13.671875 62.703125 7.8125 59.421875 
L 7.8125 69.390625 
Q 13.765625 71.78125 18.9375 73 
Q 24.125 74.21875 28.421875 74.21875 
Q 39.75 74.21875 46.484375 68.546875 
Q 53.21875 62.890625 53.21875 53.421875 
Q 53.21875 48.921875 51.53125 44.890625 
Q 49.859375 40.875 45.40625 35.40625 
Q 44.1875 33.984375 37.640625 27.21875 
Q 31.109375 20.453125 19.1875 8.296875 
z
" id="DejaVuSans-50"/>
       </defs>
       <use xlink:href="#DejaVuSans-50"/>
       <use x="63.623047" xlink:href="#DejaVuSans-48"/>
      </g>
     </g>
    </g>
    <g id="xtick_6">
     <g id="line2d_6">
      <g>
       <use style="stroke:#000000;stroke-width:0.8;" x="263.25" xlink:href="#m0cce003c13" y="252"/>
      </g>
     </g>
     <g id="text_6">
      <!-- 25 -->
      <g transform="translate(256.8875 266.598437)scale(0.1 -0.1)">
       <use xlink:href="#DejaVuSans-50"/>
       <use x="63.623047" xlink:href="#DejaVuSans-53"/>
      </g>
     </g>
    </g>
    <g id="xtick_7">
     <g id="line2d_7">
      <g>
       <use style="stroke:#000000;stroke-width:0.8;" x="305.1" xlink:href="#m0cce003c13" y="252"/>
      </g>
     </g>
     <g id="text_7">
      <!-- 30 -->
      <g transform="translate(298.7375 266.598437)scale(0.1 -0.1)">
       <defs>
        <path d="M 40.578125 39.3125 
Q 47.65625 37.796875 51.625 33 
Q 55.609375 28.21875 55.609375 21.1875 
Q 55.609375 10.40625 48.1875 4.484375 
Q 40.765625 -1.421875 27.09375 -1.421875 
Q 22.515625 -1.421875 17.65625 -0.515625 
Q 12.796875 0.390625 7.625 2.203125 
L 7.625 11.71875 
Q 11.71875 9.328125 16.59375 8.109375 
Q 21.484375 6.890625 26.8125 6.890625 
Q 36.078125 6.890625 40.9375 10.546875 
Q 45.796875 14.203125 45.796875 21.1875 
Q 45.796875 27.640625 41.28125 31.265625 
Q 36.765625 34.90625 28.71875 34.90625 
L 20.21875 34.90625 
L 20.21875 43.015625 
L 29.109375 43.015625 
Q 36.375 43.015625 40.234375 45.921875 
Q 44.09375 48.828125 44.09375 54.296875 
Q 44.09375 59.90625 40.109375 62.90625 
Q 36.140625 65.921875 28.71875 65.921875 
Q 24.65625 65.921875 20.015625 65.03125 
Q 15.375 64.15625 9.8125 62.3125 
L 9.8125 71.09375 
Q 15.4375 72.65625 20.34375 73.4375 
Q 25.25 74.21875 29.59375 74.21875 
Q 40.828125 74.21875 47.359375 69.109375 
Q 53.90625 64.015625 53.90625 55.328125 
Q 53.90625 49.265625 50.4375 45.09375 
Q 46.96875 40.921875 40.578125 39.3125 
z
" id="DejaVuSans-51"/>
       </defs>
       <use xlink:href="#DejaVuSans-51"/>
       <use x="63.623047" xlink:href="#DejaVuSans-48"/>
      </g>
     </g>
    </g>
    <g id="xtick_8">
     <g id="line2d_8">
      <g>
       <use style="stroke:#000000;stroke-width:0.8;" x="346.95" xlink:href="#m0cce003c13" y="252"/>
      </g>
     </g>
     <g id="text_8">
      <!-- 35 -->
      <g transform="translate(340.5875 266.598437)scale(0.1 -0.1)">
       <use xlink:href="#DejaVuSans-51"/>
       <use x="63.623047" xlink:href="#DejaVuSans-53"/>
      </g>
     </g>
    </g>
    <g id="xtick_9">
     <g id="line2d_9">
      <g>
       <use style="stroke:#000000;stroke-width:0.8;" x="388.8" xlink:href="#m0cce003c13" y="252"/>
      </g>
     </g>
     <g id="text_9">
      <!-- 40 -->
      <g transform="translate(382.4375 266.598437)scale(0.1 -0.1)">
       <defs>
        <path d="M 37.796875 64.3125 
L 12.890625 25.390625 
L 37.796875 25.390625 
z
M 35.203125 72.90625 
L 47.609375 72.90625 
L 47.609375 25.390625 
L 58.015625 25.390625 
L 58.015625 17.1875 
L 47.609375 17.1875 
L 47.609375 0 
L 37.796875 0 
L 37.796875 17.1875 
L 4.890625 17.1875 
L 4.890625 26.703125 
z
" id="DejaVuSans-52"/>
       </defs>
       <use xlink:href="#DejaVuSans-52"/>
       <use x="63.623047" xlink:href="#DejaVuSans-48"/>
      </g>
     </g>
    </g>
    <g id="text_10">
     <!-- Dimensions -->
     <g transform="translate(186.3825 281.79625)scale(0.12 -0.12)">
      <defs>
       <path d="M 19.671875 64.796875 
L 19.671875 8.109375 
L 31.59375 8.109375 
Q 46.6875 8.109375 53.6875 14.9375 
Q 60.6875 21.78125 60.6875 36.53125 
Q 60.6875 51.171875 53.6875 57.984375 
Q 46.6875 64.796875 31.59375 64.796875 
z
M 9.8125 72.90625 
L 30.078125 72.90625 
Q 51.265625 72.90625 61.171875 64.09375 
Q 71.09375 55.28125 71.09375 36.53125 
Q 71.09375 17.671875 61.125 8.828125 
Q 51.171875 0 30.078125 0 
L 9.8125 0 
z
" id="DejaVuSans-68"/>
       <path d="M 9.421875 54.6875 
L 18.40625 54.6875 
L 18.40625 0 
L 9.421875 0 
z
M 9.421875 75.984375 
L 18.40625 75.984375 
L 18.40625 64.59375 
L 9.421875 64.59375 
z
" id="DejaVuSans-105"/>
       <path d="M 52 44.1875 
Q 55.375 50.25 60.0625 53.125 
Q 64.75 56 71.09375 56 
Q 79.640625 56 84.28125 50.015625 
Q 88.921875 44.046875 88.921875 33.015625 
L 88.921875 0 
L 79.890625 0 
L 79.890625 32.71875 
Q 79.890625 40.578125 77.09375 44.375 
Q 74.3125 48.1875 68.609375 48.1875 
Q 61.625 48.1875 57.5625 43.546875 
Q 53.515625 38.921875 53.515625 30.90625 
L 53.515625 0 
L 44.484375 0 
L 44.484375 32.71875 
Q 44.484375 40.625 41.703125 44.40625 
Q 38.921875 48.1875 33.109375 48.1875 
Q 26.21875 48.1875 22.15625 43.53125 
Q 18.109375 38.875 18.109375 30.90625 
L 18.109375 0 
L 9.078125 0 
L 9.078125 54.6875 
L 18.109375 54.6875 
L 18.109375 46.1875 
Q 21.1875 51.21875 25.484375 53.609375 
Q 29.78125 56 35.6875 56 
Q 41.65625 56 45.828125 52.96875 
Q 50 49.953125 52 44.1875 
z
" id="DejaVuSans-109"/>
       <path d="M 56.203125 29.59375 
L 56.203125 25.203125 
L 14.890625 25.203125 
Q 15.484375 15.921875 20.484375 11.0625 
Q 25.484375 6.203125 34.421875 6.203125 
Q 39.59375 6.203125 44.453125 7.46875 
Q 49.3125 8.734375 54.109375 11.28125 
L 54.109375 2.78125 
Q 49.265625 0.734375 44.1875 -0.34375 
Q 39.109375 -1.421875 33.890625 -1.421875 
Q 20.796875 -1.421875 13.15625 6.1875 
Q 5.515625 13.8125 5.515625 26.8125 
Q 5.515625 40.234375 12.765625 48.109375 
Q 20.015625 56 32.328125 56 
Q 43.359375 56 49.78125 48.890625 
Q 56.203125 41.796875 56.203125 29.59375 
z
M 47.21875 32.234375 
Q 47.125 39.59375 43.09375 43.984375 
Q 39.0625 48.390625 32.421875 48.390625 
Q 24.90625 48.390625 20.390625 44.140625 
Q 15.875 39.890625 15.1875 32.171875 
z
" id="DejaVuSans-101"/>
       <path d="M 54.890625 33.015625 
L 54.890625 0 
L 45.90625 0 
L 45.90625 32.71875 
Q 45.90625 40.484375 42.875 44.328125 
Q 39.84375 48.1875 33.796875 48.1875 
Q 26.515625 48.1875 22.3125 43.546875 
Q 18.109375 38.921875 18.109375 30.90625 
L 18.109375 0 
L 9.078125 0 
L 9.078125 54.6875 
L 18.109375 54.6875 
L 18.109375 46.1875 
Q 21.34375 51.125 25.703125 53.5625 
Q 30.078125 56 35.796875 56 
Q 45.21875 56 50.046875 50.171875 
Q 54.890625 44.34375 54.890625 33.015625 
z
" id="DejaVuSans-110"/>
       <path d="M 44.28125 53.078125 
L 44.28125 44.578125 
Q 40.484375 46.53125 36.375 47.5 
Q 32.28125 48.484375 27.875 48.484375 
Q 21.1875 48.484375 17.84375 46.4375 
Q 14.5 44.390625 14.5 40.28125 
Q 14.5 37.15625 16.890625 35.375 
Q 19.28125 33.59375 26.515625 31.984375 
L 29.59375 31.296875 
Q 39.15625 29.25 43.1875 25.515625 
Q 47.21875 21.78125 47.21875 15.09375 
Q 47.21875 7.46875 41.1875 3.015625 
Q 35.15625 -1.421875 24.609375 -1.421875 
Q 20.21875 -1.421875 15.453125 -0.5625 
Q 10.6875 0.296875 5.421875 2 
L 5.421875 11.28125 
Q 10.40625 8.6875 15.234375 7.390625 
Q 20.0625 6.109375 24.8125 6.109375 
Q 31.15625 6.109375 34.5625 8.28125 
Q 37.984375 10.453125 37.984375 14.40625 
Q 37.984375 18.0625 35.515625 20.015625 
Q 33.0625 21.96875 24.703125 23.78125 
L 21.578125 24.515625 
Q 13.234375 26.265625 9.515625 29.90625 
Q 5.8125 33.546875 5.8125 39.890625 
Q 5.8125 47.609375 11.28125 51.796875 
Q 16.75 56 26.8125 56 
Q 31.78125 56 36.171875 55.265625 
Q 40.578125 54.546875 44.28125 53.078125 
z
" id="DejaVuSans-115"/>
       <path d="M 30.609375 48.390625 
Q 23.390625 48.390625 19.1875 42.75 
Q 14.984375 37.109375 14.984375 27.296875 
Q 14.984375 17.484375 19.15625 11.84375 
Q 23.34375 6.203125 30.609375 6.203125 
Q 37.796875 6.203125 41.984375 11.859375 
Q 46.1875 17.53125 46.1875 27.296875 
Q 46.1875 37.015625 41.984375 42.703125 
Q 37.796875 48.390625 30.609375 48.390625 
z
M 30.609375 56 
Q 42.328125 56 49.015625 48.375 
Q 55.71875 40.765625 55.71875 27.296875 
Q 55.71875 13.875 49.015625 6.21875 
Q 42.328125 -1.421875 30.609375 -1.421875 
Q 18.84375 -1.421875 12.171875 6.21875 
Q 5.515625 13.875 5.515625 27.296875 
Q 5.515625 40.765625 12.171875 48.375 
Q 18.84375 56 30.609375 56 
z
" id="DejaVuSans-111"/>
      </defs>
      <use xlink:href="#DejaVuSans-68"/>
      <use x="77.001953" xlink:href="#DejaVuSans-105"/>
      <use x="104.785156" xlink:href="#DejaVuSans-109"/>
      <use x="202.197266" xlink:href="#DejaVuSans-101"/>
      <use x="263.720703" xlink:href="#DejaVuSans-110"/>
      <use x="327.099609" xlink:href="#DejaVuSans-115"/>
      <use x="379.199219" xlink:href="#DejaVuSans-105"/>
      <use x="406.982422" xlink:href="#DejaVuSans-111"/>
      <use x="468.164062" xlink:href="#DejaVuSans-110"/>
      <use x="531.542969" xlink:href="#DejaVuSans-115"/>
     </g>
    </g>
   </g>
   <g id="matplotlib.axis_2">
    <g id="ytick_1">
     <g id="line2d_10">
      <defs>
       <path d="M 0 0 
L -3.5 0 
" id="me88c8a2c6d" style="stroke:#000000;stroke-width:0.8;"/>
      </defs>
      <g>
       <use style="stroke:#000000;stroke-width:0.8;" x="54" xlink:href="#me88c8a2c6d" y="252"/>
      </g>
     </g>
     <g id="text_11">
      <!-- −1.00 -->
      <g transform="translate(16.354687 255.799219)scale(0.1 -0.1)">
       <defs>
        <path d="M 10.59375 35.5 
L 73.1875 35.5 
L 73.1875 27.203125 
L 10.59375 27.203125 
z
" id="DejaVuSans-8722"/>
        <path d="M 10.6875 12.40625 
L 21 12.40625 
L 21 0 
L 10.6875 0 
z
" id="DejaVuSans-46"/>
       </defs>
       <use xlink:href="#DejaVuSans-8722"/>
       <use x="83.789062" xlink:href="#DejaVuSans-49"/>
       <use x="147.412109" xlink:href="#DejaVuSans-46"/>
       <use x="179.199219" xlink:href="#DejaVuSans-48"/>
       <use x="242.822266" xlink:href="#DejaVuSans-48"/>
      </g>
     </g>
    </g>
    <g id="ytick_2">
     <g id="line2d_11">
      <g>
       <use style="stroke:#000000;stroke-width:0.8;" x="54" xlink:href="#me88c8a2c6d" y="224.82"/>
      </g>
     </g>
     <g id="text_12">
      <!-- −0.75 -->
      <g transform="translate(16.354687 228.619219)scale(0.1 -0.1)">
       <defs>
        <path d="M 8.203125 72.90625 
L 55.078125 72.90625 
L 55.078125 68.703125 
L 28.609375 0 
L 18.3125 0 
L 43.21875 64.59375 
L 8.203125 64.59375 
z
" id="DejaVuSans-55"/>
       </defs>
       <use xlink:href="#DejaVuSans-8722"/>
       <use x="83.789062" xlink:href="#DejaVuSans-48"/>
       <use x="147.412109" xlink:href="#DejaVuSans-46"/>
       <use x="179.199219" xlink:href="#DejaVuSans-55"/>
       <use x="242.822266" xlink:href="#DejaVuSans-53"/>
      </g>
     </g>
    </g>
    <g id="ytick_3">
     <g id="line2d_12">
      <g>
       <use style="stroke:#000000;stroke-width:0.8;" x="54" xlink:href="#me88c8a2c6d" y="197.64"/>
      </g>
     </g>
     <g id="text_13">
      <!-- −0.50 -->
      <g transform="translate(16.354687 201.439219)scale(0.1 -0.1)">
       <use xlink:href="#DejaVuSans-8722"/>
       <use x="83.789062" xlink:href="#DejaVuSans-48"/>
       <use x="147.412109" xlink:href="#DejaVuSans-46"/>
       <use x="179.199219" xlink:href="#DejaVuSans-53"/>
       <use x="242.822266" xlink:href="#DejaVuSans-48"/>
      </g>
     </g>
    </g>
    <g id="ytick_4">
     <g id="line2d_13">
      <g>
       <use style="stroke:#000000;stroke-width:0.8;" x="54" xlink:href="#me88c8a2c6d" y="170.46"/>
      </g>
     </g>
     <g id="text_14">
      <!-- −0.25 -->
      <g transform="translate(16.354687 174.259219)scale(0.1 -0.1)">
       <use xlink:href="#DejaVuSans-8722"/>
       <use x="83.789062" xlink:href="#DejaVuSans-48"/>
       <use x="147.412109" xlink:href="#DejaVuSans-46"/>
       <use x="179.199219" xlink:href="#DejaVuSans-50"/>
       <use x="242.822266" xlink:href="#DejaVuSans-53"/>
      </g>
     </g>
    </g>
    <g id="ytick_5">
     <g id="line2d_14">
      <g>
       <use style="stroke:#000000;stroke-width:0.8;" x="54" xlink:href="#me88c8a2c6d" y="143.28"/>
      </g>
     </g>
     <g id="text_15">
      <!-- 0.00 -->
      <g transform="translate(24.734375 147.079219)scale(0.1 -0.1)">
       <use xlink:href="#DejaVuSans-48"/>
       <use x="63.623047" xlink:href="#DejaVuSans-46"/>
       <use x="95.410156" xlink:href="#DejaVuSans-48"/>
       <use x="159.033203" xlink:href="#DejaVuSans-48"/>
      </g>
     </g>
    </g>
    <g id="ytick_6">
     <g id="line2d_15">
      <g>
       <use style="stroke:#000000;stroke-width:0.8;" x="54" xlink:href="#me88c8a2c6d" y="116.1"/>
      </g>
     </g>
     <g id="text_16">
      <!-- 0.25 -->
      <g transform="translate(24.734375 119.899219)scale(0.1 -0.1)">
       <use xlink:href="#DejaVuSans-48"/>
       <use x="63.623047" xlink:href="#DejaVuSans-46"/>
       <use x="95.410156" xlink:href="#DejaVuSans-50"/>
       <use x="159.033203" xlink:href="#DejaVuSans-53"/>
      </g>
     </g>
    </g>
    <g id="ytick_7">
     <g id="line2d_16">
      <g>
       <use style="stroke:#000000;stroke-width:0.8;" x="54" xlink:href="#me88c8a2c6d" y="88.92"/>
      </g>
     </g>
     <g id="text_17">
      <!-- 0.50 -->
      <g transform="translate(24.734375 92.719219)scale(0.1 -0.1)">
       <use xlink:href="#DejaVuSans-48"/>
       <use x="63.623047" xlink:href="#DejaVuSans-46"/>
       <use x="95.410156" xlink:href="#DejaVuSans-53"/>
       <use x="159.033203" xlink:href="#DejaVuSans-48"/>
      </g>
     </g>
    </g>
    <g id="ytick_8">
     <g id="line2d_17">
      <g>
       <use style="stroke:#000000;stroke-width:0.8;" x="54" xlink:href="#me88c8a2c6d" y="61.74"/>
      </g>
     </g>
     <g id="text_18">
      <!-- 0.75 -->
      <g transform="translate(24.734375 65.539219)scale(0.1 -0.1)">
       <use xlink:href="#DejaVuSans-48"/>
       <use x="63.623047" xlink:href="#DejaVuSans-46"/>
       <use x="95.410156" xlink:href="#DejaVuSans-55"/>
       <use x="159.033203" xlink:href="#DejaVuSans-53"/>
      </g>
     </g>
    </g>
    <g id="ytick_9">
     <g id="line2d_18">
      <g>
       <use style="stroke:#000000;stroke-width:0.8;" x="54" xlink:href="#me88c8a2c6d" y="34.56"/>
      </g>
     </g>
     <g id="text_19">
      <!-- 1.00 -->
      <g transform="translate(24.734375 38.359219)scale(0.1 -0.1)">
       <use xlink:href="#DejaVuSans-49"/>
       <use x="63.623047" xlink:href="#DejaVuSans-46"/>
       <use x="95.410156" xlink:href="#DejaVuSans-48"/>
       <use x="159.033203" xlink:href="#DejaVuSans-48"/>
      </g>
     </g>
    </g>
    <g id="text_20">
     <!-- Causal Influence -->
     <g transform="translate(9.859062 192.964687)rotate(-90)scale(0.12 -0.12)">
      <defs>
       <path d="M 64.40625 67.28125 
L 64.40625 56.890625 
Q 59.421875 61.53125 53.78125 63.8125 
Q 48.140625 66.109375 41.796875 66.109375 
Q 29.296875 66.109375 22.65625 58.46875 
Q 16.015625 50.828125 16.015625 36.375 
Q 16.015625 21.96875 22.65625 14.328125 
Q 29.296875 6.6875 41.796875 6.6875 
Q 48.140625 6.6875 53.78125 8.984375 
Q 59.421875 11.28125 64.40625 15.921875 
L 64.40625 5.609375 
Q 59.234375 2.09375 53.4375 0.328125 
Q 47.65625 -1.421875 41.21875 -1.421875 
Q 24.65625 -1.421875 15.125 8.703125 
Q 5.609375 18.84375 5.609375 36.375 
Q 5.609375 53.953125 15.125 64.078125 
Q 24.65625 74.21875 41.21875 74.21875 
Q 47.75 74.21875 53.53125 72.484375 
Q 59.328125 70.75 64.40625 67.28125 
z
" id="DejaVuSans-67"/>
       <path d="M 34.28125 27.484375 
Q 23.390625 27.484375 19.1875 25 
Q 14.984375 22.515625 14.984375 16.5 
Q 14.984375 11.71875 18.140625 8.90625 
Q 21.296875 6.109375 26.703125 6.109375 
Q 34.1875 6.109375 38.703125 11.40625 
Q 43.21875 16.703125 43.21875 25.484375 
L 43.21875 27.484375 
z
M 52.203125 31.203125 
L 52.203125 0 
L 43.21875 0 
L 43.21875 8.296875 
Q 40.140625 3.328125 35.546875 0.953125 
Q 30.953125 -1.421875 24.3125 -1.421875 
Q 15.921875 -1.421875 10.953125 3.296875 
Q 6 8.015625 6 15.921875 
Q 6 25.140625 12.171875 29.828125 
Q 18.359375 34.515625 30.609375 34.515625 
L 43.21875 34.515625 
L 43.21875 35.40625 
Q 43.21875 41.609375 39.140625 45 
Q 35.0625 48.390625 27.6875 48.390625 
Q 23 48.390625 18.546875 47.265625 
Q 14.109375 46.140625 10.015625 43.890625 
L 10.015625 52.203125 
Q 14.9375 54.109375 19.578125 55.046875 
Q 24.21875 56 28.609375 56 
Q 40.484375 56 46.34375 49.84375 
Q 52.203125 43.703125 52.203125 31.203125 
z
" id="DejaVuSans-97"/>
       <path d="M 8.5 21.578125 
L 8.5 54.6875 
L 17.484375 54.6875 
L 17.484375 21.921875 
Q 17.484375 14.15625 20.5 10.265625 
Q 23.53125 6.390625 29.59375 6.390625 
Q 36.859375 6.390625 41.078125 11.03125 
Q 45.3125 15.671875 45.3125 23.6875 
L 45.3125 54.6875 
L 54.296875 54.6875 
L 54.296875 0 
L 45.3125 0 
L 45.3125 8.40625 
Q 42.046875 3.421875 37.71875 1 
Q 33.40625 -1.421875 27.6875 -1.421875 
Q 18.265625 -1.421875 13.375 4.4375 
Q 8.5 10.296875 8.5 21.578125 
z
M 31.109375 56 
z
" id="DejaVuSans-117"/>
       <path d="M 9.421875 75.984375 
L 18.40625 75.984375 
L 18.40625 0 
L 9.421875 0 
z
" id="DejaVuSans-108"/>
       <path id="DejaVuSans-32"/>
       <path d="M 9.8125 72.90625 
L 19.671875 72.90625 
L 19.671875 0 
L 9.8125 0 
z
" id="DejaVuSans-73"/>
       <path d="M 37.109375 75.984375 
L 37.109375 68.5 
L 28.515625 68.5 
Q 23.6875 68.5 21.796875 66.546875 
Q 19.921875 64.59375 19.921875 59.515625 
L 19.921875 54.6875 
L 34.71875 54.6875 
L 34.71875 47.703125 
L 19.921875 47.703125 
L 19.921875 0 
L 10.890625 0 
L 10.890625 47.703125 
L 2.296875 47.703125 
L 2.296875 54.6875 
L 10.890625 54.6875 
L 10.890625 58.5 
Q 10.890625 67.625 15.140625 71.796875 
Q 19.390625 75.984375 28.609375 75.984375 
z
" id="DejaVuSans-102"/>
       <path d="M 48.78125 52.59375 
L 48.78125 44.1875 
Q 44.96875 46.296875 41.140625 47.34375 
Q 37.3125 48.390625 33.40625 48.390625 
Q 24.65625 48.390625 19.8125 42.84375 
Q 14.984375 37.3125 14.984375 27.296875 
Q 14.984375 17.28125 19.8125 11.734375 
Q 24.65625 6.203125 33.40625 6.203125 
Q 37.3125 6.203125 41.140625 7.25 
Q 44.96875 8.296875 48.78125 10.40625 
L 48.78125 2.09375 
Q 45.015625 0.34375 40.984375 -0.53125 
Q 36.96875 -1.421875 32.421875 -1.421875 
Q 20.0625 -1.421875 12.78125 6.34375 
Q 5.515625 14.109375 5.515625 27.296875 
Q 5.515625 40.671875 12.859375 48.328125 
Q 20.21875 56 33.015625 56 
Q 37.15625 56 41.109375 55.140625 
Q 45.0625 54.296875 48.78125 52.59375 
z
" id="DejaVuSans-99"/>
      </defs>
      <use xlink:href="#DejaVuSans-67"/>
      <use x="69.824219" xlink:href="#DejaVuSans-97"/>
      <use x="131.103516" xlink:href="#DejaVuSans-117"/>
      <use x="194.482422" xlink:href="#DejaVuSans-115"/>
      <use x="246.582031" xlink:href="#DejaVuSans-97"/>
      <use x="307.861328" xlink:href="#DejaVuSans-108"/>
      <use x="335.644531" xlink:href="#DejaVuSans-32"/>
      <use x="367.431641" xlink:href="#DejaVuSans-73"/>
      <use x="396.923828" xlink:href="#DejaVuSans-110"/>
      <use x="460.302734" xlink:href="#DejaVuSans-102"/>
      <use x="495.507812" xlink:href="#DejaVuSans-108"/>
      <use x="523.291016" xlink:href="#DejaVuSans-117"/>
      <use x="586.669922" xlink:href="#DejaVuSans-101"/>
      <use x="648.193359" xlink:href="#DejaVuSans-110"/>
      <use x="711.572266" xlink:href="#DejaVuSans-99"/>
      <use x="766.552734" xlink:href="#DejaVuSans-101"/>
     </g>
    </g>
   </g>
   <g id="line2d_19">
    <path clip-path="url(#p59ae405a38)" d="M 54 106.646277 
L 62.37 85.274453 
L 70.74 81.256286 
L 79.11 72.636068 
L 87.48 74.252494 
L 95.85 78.253467 
L 104.22 79.294366 
L 112.59 78.081966 
L 120.96 78.518227 
L 129.33 76.778115 
L 137.7 76.601797 
L 146.07 76.517876 
L 154.44 76.373137 
L 162.81 76.439357 
L 171.18 76.297191 
L 179.55 76.50451 
L 187.92 76.845521 
L 196.29 76.989909 
L 204.66 77.464112 
L 213.03 77.604362 
L 221.4 77.835881 
L 229.77 77.535443 
L 238.14 77.659201 
L 246.51 77.69686 
L 254.88 77.563401 
L 263.25 78.059686 
L 271.62 77.892323 
L 279.99 77.683305 
L 288.36 77.733404 
L 296.73 77.942429 
L 305.1 77.843964 
L 313.47 77.874623 
L 321.84 78.036544 
L 330.21 77.896721 
L 338.58 77.811109 
L 346.95 77.917862 
L 355.32 77.984617 
L 363.69 77.942398 
L 372.06 77.854562 
L 380.43 77.694238 
L 388.8 77.826907 
L 397.17 78.023051 
L 405.54 78.202631 
L 413.91 78.094999 
L 422.28 78.199577 
L 430.65 78.32055 
L 433 78.34487 
" style="fill:none;stroke:#696969;stroke-linecap:square;stroke-width:1.5;"/>
   </g>
   <g id="line2d_20">
    <path clip-path="url(#p59ae405a38)" d="M 54 117.442679 
L 62.37 92.370132 
L 70.74 82.689164 
L 79.11 87.892513 
L 87.48 89.634922 
L 95.85 86.606891 
L 104.22 87.34218 
L 112.59 86.659375 
L 120.96 87.535125 
L 129.33 86.785946 
L 137.7 86.19417 
L 146.07 86.581647 
L 154.44 86.931181 
L 162.81 86.011804 
L 171.18 86.072072 
L 179.55 85.454121 
L 187.92 85.359929 
L 196.29 85.259455 
L 204.66 85.339909 
L 213.03 85.325257 
L 221.4 85.260896 
L 229.77 84.83929 
L 238.14 84.810284 
L 246.51 84.47403 
L 254.88 84.281436 
L 263.25 84.323697 
L 271.62 84.263392 
L 279.99 84.178348 
L 288.36 84.33766 
L 296.73 84.447678 
L 305.1 84.534808 
L 313.47 84.085265 
L 321.84 84.235733 
L 330.21 84.260141 
L 338.58 84.243819 
L 346.95 84.440658 
L 355.32 84.484573 
L 363.69 84.456146 
L 372.06 84.52178 
L 380.43 84.597182 
L 388.8 84.693436 
L 397.17 84.765919 
L 405.54 84.738825 
L 413.91 84.8764 
L 422.28 85.068919 
L 430.65 85.332975 
L 433 85.308968 
" style="fill:none;stroke:#006400;stroke-linecap:square;stroke-width:1.5;"/>
   </g>
   <g id="line2d_21">
    <path clip-path="url(#p59ae405a38)" d="M 54 93.281876 
L 62.37 76.158595 
L 70.74 72.886793 
L 79.11 69.630505 
L 87.48 67.824172 
L 95.85 67.496186 
L 104.22 66.125442 
L 112.59 65.698721 
L 120.96 65.479403 
L 129.33 65.048465 
L 137.7 64.523974 
L 146.07 64.182528 
L 154.44 63.794556 
L 162.81 63.643726 
L 171.18 63.527328 
L 179.55 63.465399 
L 187.92 63.651572 
L 196.29 63.620362 
L 204.66 63.575793 
L 213.03 63.500944 
L 221.4 63.45003 
L 229.77 63.469607 
L 238.14 63.495711 
L 246.51 63.620284 
L 254.88 63.652849 
L 263.25 63.691635 
L 271.62 63.703604 
L 279.99 63.710187 
L 288.36 63.712273 
L 296.73 63.831441 
L 305.1 63.85958 
L 313.47 63.934972 
L 321.84 63.960568 
L 330.21 64.042811 
L 338.58 64.132593 
L 346.95 64.140375 
L 355.32 64.173169 
L 363.69 64.207611 
L 372.06 64.309264 
L 380.43 64.40181 
L 388.8 64.46583 
L 397.17 64.490723 
L 405.54 64.532939 
L 413.91 64.624582 
L 422.28 64.635892 
L 430.65 64.605965 
L 433 64.632864 
" style="fill:none;stroke:#0000ff;stroke-linecap:square;stroke-width:1.5;"/>
   </g>
   <g id="line2d_22">
    <path clip-path="url(#p59ae405a38)" d="M 54 92.420307 
L 62.37 72.584462 
L 70.74 66.665296 
L 79.11 63.63196 
L 87.48 62.652364 
L 95.85 62.473592 
L 104.22 62.263983 
L 112.59 62.372988 
L 120.96 62.731761 
L 129.33 63.048139 
L 137.7 62.960085 
L 146.07 63.137374 
L 154.44 63.453054 
L 162.81 63.77214 
L 171.18 63.872386 
L 179.55 63.799445 
L 187.92 63.980965 
L 196.29 64.026298 
L 204.66 64.088995 
L 213.03 64.276943 
L 221.4 64.360583 
L 229.77 64.590882 
L 238.14 64.642777 
L 246.51 64.800142 
L 254.88 64.89591 
L 263.25 64.934259 
L 271.62 65.066743 
L 279.99 65.234435 
L 288.36 65.324671 
L 296.73 65.30049 
L 305.1 65.484018 
L 313.47 65.560574 
L 321.84 65.666775 
L 330.21 65.750195 
L 338.58 65.828837 
L 346.95 65.885094 
L 355.32 65.90543 
L 363.69 66.009817 
L 372.06 66.129369 
L 380.43 66.210092 
L 388.8 66.31819 
L 397.17 66.444223 
L 405.54 66.55654 
L 413.91 66.720529 
L 422.28 66.779987 
L 430.65 66.856796 
L 433 66.886848 
" style="fill:none;stroke:#9400d3;stroke-linecap:square;stroke-width:1.5;"/>
   </g>
   <g id="line2d_23"/>
   <g id="line2d_24"/>
   <g id="line2d_25"/>
   <g id="line2d_26"/>
   <g id="patch_3">
    <path d="M 54 252 
L 54 34.56 
" style="fill:none;stroke:#000000;stroke-linecap:square;stroke-linejoin:miter;stroke-width:0.8;"/>
   </g>
   <g id="patch_4">
    <path d="M 54 252 
L 388.8 252 
" style="fill:none;stroke:#000000;stroke-linecap:square;stroke-linejoin:miter;stroke-width:0.8;"/>
   </g>
   <g id="text_21">
    <!-- Body to Head -->
    <g transform="translate(180.724688 28.56)scale(0.12 -0.12)">
     <defs>
      <path d="M 19.671875 34.8125 
L 19.671875 8.109375 
L 35.5 8.109375 
Q 43.453125 8.109375 47.28125 11.40625 
Q 51.125 14.703125 51.125 21.484375 
Q 51.125 28.328125 47.28125 31.5625 
Q 43.453125 34.8125 35.5 34.8125 
z
M 19.671875 64.796875 
L 19.671875 42.828125 
L 34.28125 42.828125 
Q 41.5 42.828125 45.03125 45.53125 
Q 48.578125 48.25 48.578125 53.8125 
Q 48.578125 59.328125 45.03125 62.0625 
Q 41.5 64.796875 34.28125 64.796875 
z
M 9.8125 72.90625 
L 35.015625 72.90625 
Q 46.296875 72.90625 52.390625 68.21875 
Q 58.5 63.53125 58.5 54.890625 
Q 58.5 48.1875 55.375 44.234375 
Q 52.25 40.28125 46.1875 39.3125 
Q 53.46875 37.75 57.5 32.78125 
Q 61.53125 27.828125 61.53125 20.40625 
Q 61.53125 10.640625 54.890625 5.3125 
Q 48.25 0 35.984375 0 
L 9.8125 0 
z
" id="DejaVuSans-66"/>
      <path d="M 45.40625 46.390625 
L 45.40625 75.984375 
L 54.390625 75.984375 
L 54.390625 0 
L 45.40625 0 
L 45.40625 8.203125 
Q 42.578125 3.328125 38.25 0.953125 
Q 33.9375 -1.421875 27.875 -1.421875 
Q 17.96875 -1.421875 11.734375 6.484375 
Q 5.515625 14.40625 5.515625 27.296875 
Q 5.515625 40.1875 11.734375 48.09375 
Q 17.96875 56 27.875 56 
Q 33.9375 56 38.25 53.625 
Q 42.578125 51.265625 45.40625 46.390625 
z
M 14.796875 27.296875 
Q 14.796875 17.390625 18.875 11.75 
Q 22.953125 6.109375 30.078125 6.109375 
Q 37.203125 6.109375 41.296875 11.75 
Q 45.40625 17.390625 45.40625 27.296875 
Q 45.40625 37.203125 41.296875 42.84375 
Q 37.203125 48.484375 30.078125 48.484375 
Q 22.953125 48.484375 18.875 42.84375 
Q 14.796875 37.203125 14.796875 27.296875 
z
" id="DejaVuSans-100"/>
      <path d="M 32.171875 -5.078125 
Q 28.375 -14.84375 24.75 -17.8125 
Q 21.140625 -20.796875 15.09375 -20.796875 
L 7.90625 -20.796875 
L 7.90625 -13.28125 
L 13.1875 -13.28125 
Q 16.890625 -13.28125 18.9375 -11.515625 
Q 21 -9.765625 23.484375 -3.21875 
L 25.09375 0.875 
L 2.984375 54.6875 
L 12.5 54.6875 
L 29.59375 11.921875 
L 46.6875 54.6875 
L 56.203125 54.6875 
z
" id="DejaVuSans-121"/>
      <path d="M 18.3125 70.21875 
L 18.3125 54.6875 
L 36.8125 54.6875 
L 36.8125 47.703125 
L 18.3125 47.703125 
L 18.3125 18.015625 
Q 18.3125 11.328125 20.140625 9.421875 
Q 21.96875 7.515625 27.59375 7.515625 
L 36.8125 7.515625 
L 36.8125 0 
L 27.59375 0 
Q 17.1875 0 13.234375 3.875 
Q 9.28125 7.765625 9.28125 18.015625 
L 9.28125 47.703125 
L 2.6875 47.703125 
L 2.6875 54.6875 
L 9.28125 54.6875 
L 9.28125 70.21875 
z
" id="DejaVuSans-116"/>
      <path d="M 9.8125 72.90625 
L 19.671875 72.90625 
L 19.671875 43.015625 
L 55.515625 43.015625 
L 55.515625 72.90625 
L 65.375 72.90625 
L 65.375 0 
L 55.515625 0 
L 55.515625 34.71875 
L 19.671875 34.71875 
L 19.671875 0 
L 9.8125 0 
z
" id="DejaVuSans-72"/>
     </defs>
     <use xlink:href="#DejaVuSans-66"/>
     <use x="68.603516" xlink:href="#DejaVuSans-111"/>
     <use x="129.785156" xlink:href="#DejaVuSans-100"/>
     <use x="193.261719" xlink:href="#DejaVuSans-121"/>
     <use x="252.441406" xlink:href="#DejaVuSans-32"/>
     <use x="284.228516" xlink:href="#DejaVuSans-116"/>
     <use x="323.4375" xlink:href="#DejaVuSans-111"/>
     <use x="384.619141" xlink:href="#DejaVuSans-32"/>
     <use x="416.40625" xlink:href="#DejaVuSans-72"/>
     <use x="491.601562" xlink:href="#DejaVuSans-101"/>
     <use x="553.125" xlink:href="#DejaVuSans-97"/>
     <use x="614.404297" xlink:href="#DejaVuSans-100"/>
    </g>
   </g>
   <g id="legend_1">
    <g id="line2d_27">
     <path d="M 63 193.385938 
L 83 193.385938 
" style="fill:none;stroke:#696969;stroke-linecap:square;stroke-width:1.5;"/>
    </g>
    <g id="line2d_28"/>
    <g id="text_22">
     <!-- SKF -->
     <g transform="translate(91 196.885938)scale(0.1 -0.1)">
      <defs>
       <path d="M 53.515625 70.515625 
L 53.515625 60.890625 
Q 47.90625 63.578125 42.921875 64.890625 
Q 37.9375 66.21875 33.296875 66.21875 
Q 25.25 66.21875 20.875 63.09375 
Q 16.5 59.96875 16.5 54.203125 
Q 16.5 49.359375 19.40625 46.890625 
Q 22.3125 44.4375 30.421875 42.921875 
L 36.375 41.703125 
Q 47.40625 39.59375 52.65625 34.296875 
Q 57.90625 29 57.90625 20.125 
Q 57.90625 9.515625 50.796875 4.046875 
Q 43.703125 -1.421875 29.984375 -1.421875 
Q 24.8125 -1.421875 18.96875 -0.25 
Q 13.140625 0.921875 6.890625 3.21875 
L 6.890625 13.375 
Q 12.890625 10.015625 18.65625 8.296875 
Q 24.421875 6.59375 29.984375 6.59375 
Q 38.421875 6.59375 43.015625 9.90625 
Q 47.609375 13.234375 47.609375 19.390625 
Q 47.609375 24.75 44.3125 27.78125 
Q 41.015625 30.8125 33.5 32.328125 
L 27.484375 33.5 
Q 16.453125 35.6875 11.515625 40.375 
Q 6.59375 45.0625 6.59375 53.421875 
Q 6.59375 63.09375 13.40625 68.65625 
Q 20.21875 74.21875 32.171875 74.21875 
Q 37.3125 74.21875 42.625 73.28125 
Q 47.953125 72.359375 53.515625 70.515625 
z
" id="DejaVuSans-83"/>
       <path d="M 9.8125 72.90625 
L 19.671875 72.90625 
L 19.671875 42.09375 
L 52.390625 72.90625 
L 65.09375 72.90625 
L 28.90625 38.921875 
L 67.671875 0 
L 54.6875 0 
L 19.671875 35.109375 
L 19.671875 0 
L 9.8125 0 
z
" id="DejaVuSans-75"/>
       <path d="M 9.8125 72.90625 
L 51.703125 72.90625 
L 51.703125 64.59375 
L 19.671875 64.59375 
L 19.671875 43.109375 
L 48.578125 43.109375 
L 48.578125 34.8125 
L 19.671875 34.8125 
L 19.671875 0 
L 9.8125 0 
z
" id="DejaVuSans-70"/>
      </defs>
      <use xlink:href="#DejaVuSans-83"/>
      <use x="63.476562" xlink:href="#DejaVuSans-75"/>
      <use x="129.052734" xlink:href="#DejaVuSans-70"/>
     </g>
    </g>
    <g id="line2d_29">
     <path d="M 63 208.064063 
L 83 208.064063 
" style="fill:none;stroke:#006400;stroke-linecap:square;stroke-width:1.5;"/>
    </g>
    <g id="line2d_30"/>
    <g id="text_23">
     <!-- D1A -->
     <g transform="translate(91 211.564063)scale(0.1 -0.1)">
      <defs>
       <path d="M 34.1875 63.1875 
L 20.796875 26.90625 
L 47.609375 26.90625 
z
M 28.609375 72.90625 
L 39.796875 72.90625 
L 67.578125 0 
L 57.328125 0 
L 50.6875 18.703125 
L 17.828125 18.703125 
L 11.1875 0 
L 0.78125 0 
z
" id="DejaVuSans-65"/>
      </defs>
      <use xlink:href="#DejaVuSans-68"/>
      <use x="77.001953" xlink:href="#DejaVuSans-49"/>
      <use x="140.625" xlink:href="#DejaVuSans-65"/>
     </g>
    </g>
    <g id="line2d_31">
     <path d="M 63 222.742188 
L 83 222.742188 
" style="fill:none;stroke:#0000ff;stroke-linecap:square;stroke-width:1.5;"/>
    </g>
    <g id="line2d_32"/>
    <g id="text_24">
     <!-- D2A -->
     <g transform="translate(91 226.242188)scale(0.1 -0.1)">
      <use xlink:href="#DejaVuSans-68"/>
      <use x="77.001953" xlink:href="#DejaVuSans-50"/>
      <use x="140.625" xlink:href="#DejaVuSans-65"/>
     </g>
    </g>
    <g id="line2d_33">
     <path d="M 63 237.420312 
L 83 237.420312 
" style="fill:none;stroke:#9400d3;stroke-linecap:square;stroke-width:1.5;"/>
    </g>
    <g id="line2d_34"/>
    <g id="text_25">
     <!-- LID -->
     <g transform="translate(91 240.920312)scale(0.1 -0.1)">
      <defs>
       <path d="M 9.8125 72.90625 
L 19.671875 72.90625 
L 19.671875 8.296875 
L 55.171875 8.296875 
L 55.171875 0 
L 9.8125 0 
z
" id="DejaVuSans-76"/>
      </defs>
      <use xlink:href="#DejaVuSans-76"/>
      <use x="55.712891" xlink:href="#DejaVuSans-73"/>
      <use x="85.205078" xlink:href="#DejaVuSans-68"/>
     </g>
    </g>
   </g>
  </g>
 </g>
 <defs>
  <clipPath id="p59ae405a38">
   <rect height="217.44" width="334.8" x="54" y="34.56"/>
  </clipPath>
 </defs>
</svg>
