<?xml version="1.0" encoding="utf-8" standalone="no"?>
<!DOCTYPE svg PUBLIC "-//W3C//DTD SVG 1.1//EN"
  "http://www.w3.org/Graphics/SVG/1.1/DTD/svg11.dtd">
<!-- Created with matplotlib (https://matplotlib.org/) -->
<svg height="504pt" version="1.1" viewBox="0 0 504 504" width="504pt" xmlns="http://www.w3.org/2000/svg" xmlns:xlink="http://www.w3.org/1999/xlink">
 <metadata>
  <rdf:RDF xmlns:cc="http://creativecommons.org/ns#" xmlns:dc="http://purl.org/dc/elements/1.1/" xmlns:rdf="http://www.w3.org/1999/02/22-rdf-syntax-ns#">
   <cc:Work>
    <dc:type rdf:resource="http://purl.org/dc/dcmitype/StillImage"/>
    <dc:date>2021-08-15T15:11:42.004819</dc:date>
    <dc:format>image/svg+xml</dc:format>
    <dc:creator>
     <cc:Agent>
      <dc:title>Matplotlib v3.3.4, https://matplotlib.org/</dc:title>
     </cc:Agent>
    </dc:creator>
   </cc:Work>
  </rdf:RDF>
 </metadata>
 <defs>
  <style type="text/css">*{stroke-linecap:butt;stroke-linejoin:round;}</style>
 </defs>
 <g id="figure_1">
  <g id="patch_1">
   <path d="M 0 504 
L 504 504 
L 504 0 
L 0 0 
z
" style="fill:none;"/>
  </g>
  <g id="axes_1">
   <g id="patch_2">
    <path d="M 63 233.443636 
L 453.6 233.443636 
L 453.6 60.48 
L 63 60.48 
z
" style="fill:#ffffff;"/>
   </g>
   <g id="matplotlib.axis_1"/>
   <g id="matplotlib.axis_2"/>
   <g id="line2d_1">
    <path clip-path="url(#p3cb898cfce)" d="M 80.754545 148.677542 
L 84.323298 165.081554 
L 86.107675 169.371782 
L 87.892051 169.493753 
L 89.676428 164.108094 
L 91.460804 156.596117 
L 93.24518 150.477511 
L 95.029557 145.608911 
L 96.813933 148.868484 
L 98.59831 160.212424 
L 100.382686 169.38739 
L 102.167063 169.342282 
L 103.951439 160.832054 
L 105.735815 149.127437 
L 107.520192 138.884933 
L 109.304568 134.805215 
L 111.088945 132.244102 
L 112.873321 134.072822 
L 116.442074 146.043844 
L 118.22645 156.495031 
L 120.010827 156.712567 
L 121.795203 138.338167 
L 123.57958 103.435009 
L 125.363956 84.416699 
L 127.148333 74.48595 
L 128.932709 68.341983 
L 130.717085 94.301539 
L 132.501462 127.101638 
L 134.285838 132.263345 
L 136.070215 134.787228 
L 137.854591 141.921243 
L 139.638968 137.926666 
L 141.423344 128.172114 
L 143.20772 148.475063 
L 144.992097 174.075057 
L 146.776473 193.518241 
L 148.56085 218.470898 
L 150.345226 225.581653 
L 153.913979 172.746704 
L 155.698355 164.99305 
L 157.482732 162.370627 
L 159.267108 156.526319 
L 161.051485 153.117742 
L 162.835861 149.138563 
L 164.620238 144.878294 
L 166.404614 143.519876 
L 168.18899 143.015687 
L 169.973367 142.04858 
L 171.757743 143.178079 
L 173.54212 138.823616 
L 175.326496 135.017211 
L 177.110873 138.294811 
L 178.895249 139.791886 
L 180.679625 142.931421 
L 184.248378 155.231307 
L 186.032755 159.178704 
L 187.817131 162.09756 
L 189.601508 162.456033 
L 191.385884 155.161671 
L 193.17026 152.535654 
L 194.954637 152.29713 
L 196.739013 148.247427 
L 198.52339 149.847677 
L 200.307766 152.471428 
L 202.092143 156.542441 
L 203.876519 165.476211 
L 205.660895 170.908833 
L 207.445272 167.444227 
L 209.229648 159.788121 
L 211.014025 152.670275 
L 212.798401 144.01743 
L 214.582778 137.376751 
L 216.367154 136.83813 
L 218.15153 139.245202 
L 219.935907 143.882239 
L 221.720283 151.611182 
L 223.50466 155.605482 
L 225.289036 154.234162 
L 227.073413 154.093925 
L 228.857789 154.924303 
L 230.642165 152.887467 
L 234.210918 145.612379 
L 237.779671 136.458406 
L 239.564048 136.10432 
L 243.1328 143.89596 
L 244.917177 149.190797 
L 246.701553 156.53911 
L 248.48593 159.563076 
L 250.270306 155.37647 
L 252.054683 149.386259 
L 253.839059 144.270638 
L 255.623435 136.92591 
L 257.407812 131.73198 
L 259.192188 133.969683 
L 260.976565 135.905645 
L 262.760941 141.636535 
L 264.545317 151.20746 
L 266.329694 153.677942 
L 268.11407 151.61044 
L 269.898447 148.31696 
L 271.682823 144.328017 
L 273.4672 140.695999 
L 275.251576 139.950152 
L 277.035952 141.595574 
L 278.820329 142.054886 
L 280.604705 141.456905 
L 282.389082 137.284164 
L 284.173458 134.810402 
L 285.957835 138.447313 
L 287.742211 143.294195 
L 289.526587 147.350813 
L 291.310964 152.687831 
L 293.09534 158.490207 
L 294.879717 161.511001 
L 296.664093 162.592068 
L 300.232846 157.314388 
L 302.017222 158.303241 
L 303.801599 159.580967 
L 305.585975 158.966194 
L 307.370352 153.383837 
L 309.154728 145.844986 
L 310.939105 141.383437 
L 312.723481 139.846452 
L 314.507857 139.810822 
L 316.292234 137.504611 
L 318.07661 134.394982 
L 319.860987 135.681715 
L 321.645363 138.774975 
L 323.42974 141.383239 
L 325.214116 146.405199 
L 326.998492 153.603564 
L 328.782869 159.43446 
L 330.567245 162.137495 
L 332.351622 161.757038 
L 334.135998 154.270473 
L 335.920375 143.895499 
L 337.704751 141.324242 
L 339.489127 141.672972 
L 341.273504 138.942127 
L 343.05788 138.865246 
L 344.842257 144.852935 
L 346.626633 148.650039 
L 348.41101 148.291363 
L 350.195386 149.936221 
L 351.979762 151.073645 
L 353.764139 151.62582 
L 355.548515 155.523782 
L 357.332892 158.676026 
L 359.117268 156.634647 
L 360.901645 153.569943 
L 362.686021 152.986467 
L 364.470397 151.146138 
L 366.254774 148.124039 
L 368.03915 147.230399 
L 369.823527 149.527834 
L 371.607903 152.328019 
L 373.39228 153.541771 
L 375.176656 152.683743 
L 376.961032 149.664173 
L 378.745409 144.220146 
L 380.529785 138.18263 
L 382.314162 135.251002 
L 384.098538 134.544937 
L 385.882915 135.425898 
L 387.667291 140.459731 
L 389.451667 147.363341 
L 391.236044 152.096875 
L 393.02042 155.211603 
L 394.804797 156.793918 
L 396.589173 152.523788 
L 398.37355 146.240224 
L 400.157926 144.516496 
L 403.726679 150.840327 
L 405.511055 154.42097 
L 407.295432 160.098833 
L 409.079808 163.549721 
L 410.864185 168.086151 
L 412.648561 174.365079 
L 414.432937 176.720137 
L 416.217314 171.841406 
L 418.00169 163.278179 
L 419.786067 159.783745 
L 421.570443 153.401027 
L 423.35482 143.694639 
L 425.139196 140.840373 
L 426.923572 139.675173 
L 428.707949 139.825145 
L 430.492325 140.722686 
L 432.276702 139.091573 
L 435.845455 126.131571 
L 435.845455 126.131571 
" style="fill:none;stroke:#008000;stroke-linecap:square;stroke-width:1.5;"/>
   </g>
   <g id="legend_1">
    <g id="line2d_2">
     <path d="M 385.789062 73.578438 
L 405.789062 73.578438 
" style="fill:none;stroke:#008000;stroke-linecap:square;stroke-width:1.5;"/>
    </g>
    <g id="line2d_3"/>
    <g id="text_1">
     <!-- Cause -->
     <g transform="translate(413.789062 77.078438)scale(0.1 -0.1)">
      <defs>
       <path d="M 64.40625 67.28125 
L 64.40625 56.890625 
Q 59.421875 61.53125 53.78125 63.8125 
Q 48.140625 66.109375 41.796875 66.109375 
Q 29.296875 66.109375 22.65625 58.46875 
Q 16.015625 50.828125 16.015625 36.375 
Q 16.015625 21.96875 22.65625 14.328125 
Q 29.296875 6.6875 41.796875 6.6875 
Q 48.140625 6.6875 53.78125 8.984375 
Q 59.421875 11.28125 64.40625 15.921875 
L 64.40625 5.609375 
Q 59.234375 2.09375 53.4375 0.328125 
Q 47.65625 -1.421875 41.21875 -1.421875 
Q 24.65625 -1.421875 15.125 8.703125 
Q 5.609375 18.84375 5.609375 36.375 
Q 5.609375 53.953125 15.125 64.078125 
Q 24.65625 74.21875 41.21875 74.21875 
Q 47.75 74.21875 53.53125 72.484375 
Q 59.328125 70.75 64.40625 67.28125 
z
" id="DejaVuSans-67"/>
       <path d="M 34.28125 27.484375 
Q 23.390625 27.484375 19.1875 25 
Q 14.984375 22.515625 14.984375 16.5 
Q 14.984375 11.71875 18.140625 8.90625 
Q 21.296875 6.109375 26.703125 6.109375 
Q 34.1875 6.109375 38.703125 11.40625 
Q 43.21875 16.703125 43.21875 25.484375 
L 43.21875 27.484375 
z
M 52.203125 31.203125 
L 52.203125 0 
L 43.21875 0 
L 43.21875 8.296875 
Q 40.140625 3.328125 35.546875 0.953125 
Q 30.953125 -1.421875 24.3125 -1.421875 
Q 15.921875 -1.421875 10.953125 3.296875 
Q 6 8.015625 6 15.921875 
Q 6 25.140625 12.171875 29.828125 
Q 18.359375 34.515625 30.609375 34.515625 
L 43.21875 34.515625 
L 43.21875 35.40625 
Q 43.21875 41.609375 39.140625 45 
Q 35.0625 48.390625 27.6875 48.390625 
Q 23 48.390625 18.546875 47.265625 
Q 14.109375 46.140625 10.015625 43.890625 
L 10.015625 52.203125 
Q 14.9375 54.109375 19.578125 55.046875 
Q 24.21875 56 28.609375 56 
Q 40.484375 56 46.34375 49.84375 
Q 52.203125 43.703125 52.203125 31.203125 
z
" id="DejaVuSans-97"/>
       <path d="M 8.5 21.578125 
L 8.5 54.6875 
L 17.484375 54.6875 
L 17.484375 21.921875 
Q 17.484375 14.15625 20.5 10.265625 
Q 23.53125 6.390625 29.59375 6.390625 
Q 36.859375 6.390625 41.078125 11.03125 
Q 45.3125 15.671875 45.3125 23.6875 
L 45.3125 54.6875 
L 54.296875 54.6875 
L 54.296875 0 
L 45.3125 0 
L 45.3125 8.40625 
Q 42.046875 3.421875 37.71875 1 
Q 33.40625 -1.421875 27.6875 -1.421875 
Q 18.265625 -1.421875 13.375 4.4375 
Q 8.5 10.296875 8.5 21.578125 
z
M 31.109375 56 
z
" id="DejaVuSans-117"/>
       <path d="M 44.28125 53.078125 
L 44.28125 44.578125 
Q 40.484375 46.53125 36.375 47.5 
Q 32.28125 48.484375 27.875 48.484375 
Q 21.1875 48.484375 17.84375 46.4375 
Q 14.5 44.390625 14.5 40.28125 
Q 14.5 37.15625 16.890625 35.375 
Q 19.28125 33.59375 26.515625 31.984375 
L 29.59375 31.296875 
Q 39.15625 29.25 43.1875 25.515625 
Q 47.21875 21.78125 47.21875 15.09375 
Q 47.21875 7.46875 41.1875 3.015625 
Q 35.15625 -1.421875 24.609375 -1.421875 
Q 20.21875 -1.421875 15.453125 -0.5625 
Q 10.6875 0.296875 5.421875 2 
L 5.421875 11.28125 
Q 10.40625 8.6875 15.234375 7.390625 
Q 20.0625 6.109375 24.8125 6.109375 
Q 31.15625 6.109375 34.5625 8.28125 
Q 37.984375 10.453125 37.984375 14.40625 
Q 37.984375 18.0625 35.515625 20.015625 
Q 33.0625 21.96875 24.703125 23.78125 
L 21.578125 24.515625 
Q 13.234375 26.265625 9.515625 29.90625 
Q 5.8125 33.546875 5.8125 39.890625 
Q 5.8125 47.609375 11.28125 51.796875 
Q 16.75 56 26.8125 56 
Q 31.78125 56 36.171875 55.265625 
Q 40.578125 54.546875 44.28125 53.078125 
z
" id="DejaVuSans-115"/>
       <path d="M 56.203125 29.59375 
L 56.203125 25.203125 
L 14.890625 25.203125 
Q 15.484375 15.921875 20.484375 11.0625 
Q 25.484375 6.203125 34.421875 6.203125 
Q 39.59375 6.203125 44.453125 7.46875 
Q 49.3125 8.734375 54.109375 11.28125 
L 54.109375 2.78125 
Q 49.265625 0.734375 44.1875 -0.34375 
Q 39.109375 -1.421875 33.890625 -1.421875 
Q 20.796875 -1.421875 13.15625 6.1875 
Q 5.515625 13.8125 5.515625 26.8125 
Q 5.515625 40.234375 12.765625 48.109375 
Q 20.015625 56 32.328125 56 
Q 43.359375 56 49.78125 48.890625 
Q 56.203125 41.796875 56.203125 29.59375 
z
M 47.21875 32.234375 
Q 47.125 39.59375 43.09375 43.984375 
Q 39.0625 48.390625 32.421875 48.390625 
Q 24.90625 48.390625 20.390625 44.140625 
Q 15.875 39.890625 15.1875 32.171875 
z
" id="DejaVuSans-101"/>
      </defs>
      <use xlink:href="#DejaVuSans-67"/>
      <use x="69.824219" xlink:href="#DejaVuSans-97"/>
      <use x="131.103516" xlink:href="#DejaVuSans-117"/>
      <use x="194.482422" xlink:href="#DejaVuSans-115"/>
      <use x="246.582031" xlink:href="#DejaVuSans-101"/>
     </g>
    </g>
   </g>
  </g>
  <g id="axes_2">
   <g id="patch_3">
    <path d="M 63 441 
L 453.6 441 
L 453.6 268.036364 
L 63 268.036364 
z
" style="fill:#ffffff;"/>
   </g>
   <g id="matplotlib.axis_3">
    <g id="text_2">
     <!-- Time(sec) -->
     <g transform="translate(233.734375 452.598437)scale(0.1 -0.1)">
      <defs>
       <path d="M -0.296875 72.90625 
L 61.375 72.90625 
L 61.375 64.59375 
L 35.5 64.59375 
L 35.5 0 
L 25.59375 0 
L 25.59375 64.59375 
L -0.296875 64.59375 
z
" id="DejaVuSans-84"/>
       <path d="M 9.421875 54.6875 
L 18.40625 54.6875 
L 18.40625 0 
L 9.421875 0 
z
M 9.421875 75.984375 
L 18.40625 75.984375 
L 18.40625 64.59375 
L 9.421875 64.59375 
z
" id="DejaVuSans-105"/>
       <path d="M 52 44.1875 
Q 55.375 50.25 60.0625 53.125 
Q 64.75 56 71.09375 56 
Q 79.640625 56 84.28125 50.015625 
Q 88.921875 44.046875 88.921875 33.015625 
L 88.921875 0 
L 79.890625 0 
L 79.890625 32.71875 
Q 79.890625 40.578125 77.09375 44.375 
Q 74.3125 48.1875 68.609375 48.1875 
Q 61.625 48.1875 57.5625 43.546875 
Q 53.515625 38.921875 53.515625 30.90625 
L 53.515625 0 
L 44.484375 0 
L 44.484375 32.71875 
Q 44.484375 40.625 41.703125 44.40625 
Q 38.921875 48.1875 33.109375 48.1875 
Q 26.21875 48.1875 22.15625 43.53125 
Q 18.109375 38.875 18.109375 30.90625 
L 18.109375 0 
L 9.078125 0 
L 9.078125 54.6875 
L 18.109375 54.6875 
L 18.109375 46.1875 
Q 21.1875 51.21875 25.484375 53.609375 
Q 29.78125 56 35.6875 56 
Q 41.65625 56 45.828125 52.96875 
Q 50 49.953125 52 44.1875 
z
" id="DejaVuSans-109"/>
       <path d="M 31 75.875 
Q 24.46875 64.65625 21.28125 53.65625 
Q 18.109375 42.671875 18.109375 31.390625 
Q 18.109375 20.125 21.3125 9.0625 
Q 24.515625 -2 31 -13.1875 
L 23.1875 -13.1875 
Q 15.875 -1.703125 12.234375 9.375 
Q 8.59375 20.453125 8.59375 31.390625 
Q 8.59375 42.28125 12.203125 53.3125 
Q 15.828125 64.359375 23.1875 75.875 
z
" id="DejaVuSans-40"/>
       <path d="M 48.78125 52.59375 
L 48.78125 44.1875 
Q 44.96875 46.296875 41.140625 47.34375 
Q 37.3125 48.390625 33.40625 48.390625 
Q 24.65625 48.390625 19.8125 42.84375 
Q 14.984375 37.3125 14.984375 27.296875 
Q 14.984375 17.28125 19.8125 11.734375 
Q 24.65625 6.203125 33.40625 6.203125 
Q 37.3125 6.203125 41.140625 7.25 
Q 44.96875 8.296875 48.78125 10.40625 
L 48.78125 2.09375 
Q 45.015625 0.34375 40.984375 -0.53125 
Q 36.96875 -1.421875 32.421875 -1.421875 
Q 20.0625 -1.421875 12.78125 6.34375 
Q 5.515625 14.109375 5.515625 27.296875 
Q 5.515625 40.671875 12.859375 48.328125 
Q 20.21875 56 33.015625 56 
Q 37.15625 56 41.109375 55.140625 
Q 45.0625 54.296875 48.78125 52.59375 
z
" id="DejaVuSans-99"/>
       <path d="M 8.015625 75.875 
L 15.828125 75.875 
Q 23.140625 64.359375 26.78125 53.3125 
Q 30.421875 42.28125 30.421875 31.390625 
Q 30.421875 20.453125 26.78125 9.375 
Q 23.140625 -1.703125 15.828125 -13.1875 
L 8.015625 -13.1875 
Q 14.5 -2 17.703125 9.0625 
Q 20.90625 20.125 20.90625 31.390625 
Q 20.90625 42.671875 17.703125 53.65625 
Q 14.5 64.65625 8.015625 75.875 
z
" id="DejaVuSans-41"/>
      </defs>
      <use xlink:href="#DejaVuSans-84"/>
      <use x="57.958984" xlink:href="#DejaVuSans-105"/>
      <use x="85.742188" xlink:href="#DejaVuSans-109"/>
      <use x="183.154297" xlink:href="#DejaVuSans-101"/>
      <use x="244.677734" xlink:href="#DejaVuSans-40"/>
      <use x="283.691406" xlink:href="#DejaVuSans-115"/>
      <use x="335.791016" xlink:href="#DejaVuSans-101"/>
      <use x="397.314453" xlink:href="#DejaVuSans-99"/>
      <use x="452.294922" xlink:href="#DejaVuSans-41"/>
     </g>
    </g>
   </g>
   <g id="matplotlib.axis_4">
    <g id="text_3">
     <!-- Dim-1 -->
     <g transform="translate(56.920312 369.612713)rotate(-90)scale(0.1 -0.1)">
      <defs>
       <path d="M 19.671875 64.796875 
L 19.671875 8.109375 
L 31.59375 8.109375 
Q 46.6875 8.109375 53.6875 14.9375 
Q 60.6875 21.78125 60.6875 36.53125 
Q 60.6875 51.171875 53.6875 57.984375 
Q 46.6875 64.796875 31.59375 64.796875 
z
M 9.8125 72.90625 
L 30.078125 72.90625 
Q 51.265625 72.90625 61.171875 64.09375 
Q 71.09375 55.28125 71.09375 36.53125 
Q 71.09375 17.671875 61.125 8.828125 
Q 51.171875 0 30.078125 0 
L 9.8125 0 
z
" id="DejaVuSans-68"/>
       <path d="M 4.890625 31.390625 
L 31.203125 31.390625 
L 31.203125 23.390625 
L 4.890625 23.390625 
z
" id="DejaVuSans-45"/>
       <path d="M 12.40625 8.296875 
L 28.515625 8.296875 
L 28.515625 63.921875 
L 10.984375 60.40625 
L 10.984375 69.390625 
L 28.421875 72.90625 
L 38.28125 72.90625 
L 38.28125 8.296875 
L 54.390625 8.296875 
L 54.390625 0 
L 12.40625 0 
z
" id="DejaVuSans-49"/>
      </defs>
      <use xlink:href="#DejaVuSans-68"/>
      <use x="77.001953" xlink:href="#DejaVuSans-105"/>
      <use x="104.785156" xlink:href="#DejaVuSans-109"/>
      <use x="202.197266" xlink:href="#DejaVuSans-45"/>
      <use x="238.28125" xlink:href="#DejaVuSans-49"/>
     </g>
    </g>
   </g>
   <g id="line2d_4">
    <path clip-path="url(#p5ef07d5c69)" d="M 80.754545 431.293347 
L 82.538922 433.138017 
L 84.323298 414.083639 
L 86.107675 375.173338 
L 87.892051 330.758804 
L 89.676428 294.200629 
L 91.460804 275.898347 
L 93.24518 278.608858 
L 95.029557 298.104202 
L 96.813933 324.350812 
L 98.59831 353.968984 
L 100.382686 377.26908 
L 102.167063 381.005504 
L 103.951439 367.909624 
L 107.520192 325.673969 
L 109.304568 316.269682 
L 111.088945 319.320877 
L 112.873321 328.133621 
L 114.657698 339.868788 
L 116.442074 353.389668 
L 118.22645 364.368513 
L 120.010827 374.065617 
L 121.795203 383.021813 
L 125.363956 388.904803 
L 127.148333 394.20518 
L 128.932709 392.91465 
L 130.717085 383.256357 
L 134.285838 358.300121 
L 136.070215 351.323809 
L 137.854591 353.320721 
L 139.638968 358.226934 
L 143.20772 375.640952 
L 144.992097 372.134404 
L 146.776473 358.180873 
L 150.345226 322.488593 
L 152.129603 310.7992 
L 153.913979 307.079112 
L 155.698355 308.957294 
L 157.482732 314.408386 
L 159.267108 327.384515 
L 161.051485 341.982793 
L 162.835861 353.58856 
L 164.620238 363.923174 
L 166.404614 372.250605 
L 168.18899 376.650261 
L 169.973367 379.207607 
L 171.757743 379.299581 
L 177.110873 371.154294 
L 178.895249 369.187067 
L 180.679625 375.148657 
L 182.464002 387.165765 
L 184.248378 395.596557 
L 186.032755 393.367148 
L 187.817131 383.398249 
L 189.601508 369.156091 
L 191.385884 350.17487 
L 193.17026 333.643223 
L 194.954637 324.585802 
L 196.739013 321.093286 
L 198.52339 328.259468 
L 200.307766 342.394139 
L 202.092143 355.151799 
L 203.876519 361.721164 
L 205.660895 361.861925 
L 207.445272 359.556001 
L 209.229648 351.930165 
L 212.798401 329.565102 
L 214.582778 317.132832 
L 216.367154 308.383631 
L 218.15153 306.312833 
L 219.935907 312.78244 
L 221.720283 330.00262 
L 225.289036 378.239574 
L 227.073413 396.687179 
L 228.857789 409.217814 
L 230.642165 418.154222 
L 232.426542 419.351544 
L 234.210918 414.346273 
L 235.995295 401.593584 
L 239.564048 363.455184 
L 241.348424 347.100853 
L 243.1328 332.864874 
L 244.917177 316.866427 
L 246.701553 304.927392 
L 248.48593 304.337686 
L 250.270306 316.399509 
L 252.054683 336.652271 
L 253.839059 351.131316 
L 255.623435 360.08135 
L 257.407812 364.847885 
L 259.192188 366.717074 
L 260.976565 369.03314 
L 262.760941 365.301342 
L 264.545317 356.833518 
L 266.329694 353.900541 
L 268.11407 362.703291 
L 269.898447 374.750875 
L 271.682823 380.629303 
L 273.4672 382.073193 
L 277.035952 378.236397 
L 278.820329 373.893296 
L 280.604705 362.576499 
L 282.389082 349.875132 
L 284.173458 343.120333 
L 285.957835 342.519558 
L 287.742211 345.57598 
L 289.526587 351.057683 
L 291.310964 357.424101 
L 293.09534 362.760747 
L 294.879717 365.329154 
L 296.664093 361.063663 
L 298.44847 353.882959 
L 300.232846 347.864932 
L 303.801599 338.283919 
L 305.585975 335.801755 
L 307.370352 336.28259 
L 309.154728 340.203565 
L 310.939105 347.849341 
L 312.723481 356.060033 
L 316.292234 367.759251 
L 318.07661 372.110754 
L 319.860987 372.323128 
L 321.645363 368.581245 
L 323.42974 363.669361 
L 325.214116 358.030086 
L 326.998492 349.360031 
L 332.351622 316.155468 
L 334.135998 310.01802 
L 335.920375 309.64697 
L 337.704751 318.771048 
L 343.05788 363.707722 
L 344.842257 374.091183 
L 346.626633 381.494193 
L 348.41101 385.137097 
L 350.195386 385.361029 
L 351.979762 383.019464 
L 353.764139 379.308365 
L 355.548515 379.316325 
L 357.332892 380.176033 
L 359.117268 379.099812 
L 360.901645 378.956723 
L 362.686021 383.496719 
L 364.470397 389.039839 
L 366.254774 387.530988 
L 368.03915 376.230003 
L 373.39228 319.457535 
L 375.176656 307.375085 
L 376.961032 303.275655 
L 378.745409 311.645279 
L 380.529785 332.282319 
L 382.314162 356.091805 
L 384.098538 376.818168 
L 385.882915 389.362924 
L 387.667291 391.914681 
L 389.451667 387.795846 
L 391.236044 376.580938 
L 393.02042 361.590768 
L 394.804797 349.949326 
L 396.589173 345.051807 
L 398.37355 344.980013 
L 400.157926 347.31318 
L 401.942302 351.811362 
L 405.511055 362.968486 
L 407.295432 367.019333 
L 409.079808 368.286372 
L 410.864185 368.20755 
L 412.648561 367.220603 
L 414.432937 363.04468 
L 416.217314 357.401072 
L 418.00169 354.018892 
L 419.786067 355.121738 
L 421.570443 360.424676 
L 423.35482 367.787198 
L 425.139196 373.143458 
L 426.923572 374.17227 
L 428.707949 369.636088 
L 430.492325 359.003994 
L 432.276702 345.50553 
L 434.061078 334.491446 
L 435.845455 330.13315 
L 435.845455 330.13315 
" style="fill:none;stroke:#1f77b4;stroke-linecap:square;stroke-width:1.5;"/>
   </g>
   <g id="line2d_5">
    <path clip-path="url(#p5ef07d5c69)" d="M 80.754545 359.834355 
L 82.538922 348.668517 
L 84.323298 382.14828 
L 86.107675 366.515632 
L 87.892051 317.312367 
L 89.676428 335.937191 
L 91.460804 345.825967 
L 95.029557 360.628185 
L 96.813933 350.982071 
L 98.59831 342.267436 
L 100.382686 349.559719 
L 102.167063 345.555541 
L 103.951439 341.132802 
L 105.735815 341.813253 
L 107.520192 336.472965 
L 109.304568 332.023339 
L 111.088945 342.5101 
L 114.657698 341.094333 
L 116.442074 364.307339 
L 118.22645 349.740217 
L 120.010827 347.589374 
L 121.795203 355.55554 
L 123.57958 381.749402 
L 125.363956 374.829063 
L 127.148333 377.417145 
L 128.932709 377.9435 
L 130.717085 370.347168 
L 132.501462 367.8973 
L 134.285838 363.034816 
L 136.070215 364.37327 
L 137.854591 358.089412 
L 139.638968 354.981036 
L 141.423344 374.454384 
L 143.20772 370.518183 
L 144.992097 364.370508 
L 146.776473 356.258304 
L 148.56085 354.451591 
L 150.345226 331.661676 
L 152.129603 335.599908 
L 153.913979 337.896581 
L 155.698355 367.35027 
L 157.482732 350.921676 
L 159.267108 338.516576 
L 161.051485 368.96498 
L 162.835861 356.946637 
L 164.620238 337.536892 
L 166.404614 347.083995 
L 168.18899 367.499788 
L 169.973367 362.946095 
L 171.757743 372.814787 
L 173.54212 362.57612 
L 175.326496 359.70942 
L 177.110873 354.051544 
L 178.895249 360.954473 
L 180.679625 357.150625 
L 182.464002 357.54992 
L 184.248378 376.848586 
L 186.032755 373.689446 
L 187.817131 352.19444 
L 189.601508 336.645385 
L 193.17026 353.639891 
L 194.954637 346.764244 
L 196.739013 351.826404 
L 198.52339 358.984145 
L 200.307766 346.480113 
L 202.092143 331.538465 
L 203.876519 329.373213 
L 205.660895 356.945156 
L 207.445272 337.620391 
L 209.229648 337.163195 
L 211.014025 317.185591 
L 212.798401 314.570669 
L 214.582778 337.277907 
L 216.367154 343.348607 
L 218.15153 351.180114 
L 219.935907 349.48875 
L 221.720283 341.51953 
L 223.50466 366.321784 
L 225.289036 372.478298 
L 227.073413 365.208838 
L 228.857789 374.06793 
L 230.642165 377.681985 
L 232.426542 402.166007 
L 234.210918 384.288197 
L 235.995295 385.810993 
L 237.779671 375.614472 
L 239.564048 361.079625 
L 241.348424 356.357473 
L 243.1328 355.006091 
L 244.917177 350.219367 
L 246.701553 353.749682 
L 248.48593 372.578699 
L 250.270306 345.304753 
L 252.054683 347.085016 
L 253.839059 364.554532 
L 255.623435 360.134802 
L 257.407812 355.379534 
L 259.192188 348.489786 
L 260.976565 352.828066 
L 262.760941 361.95101 
L 264.545317 360.962441 
L 266.329694 354.801937 
L 268.11407 350.699497 
L 269.898447 348.620646 
L 271.682823 337.913029 
L 273.4672 337.478221 
L 275.251576 360.471055 
L 277.035952 366.413373 
L 278.820329 373.304098 
L 280.604705 367.23739 
L 282.389082 361.586882 
L 284.173458 357.675055 
L 285.957835 363.014247 
L 287.742211 361.784906 
L 289.526587 366.690362 
L 291.310964 379.433701 
L 293.09534 378.334016 
L 294.879717 363.602845 
L 296.664093 343.70993 
L 298.44847 362.149381 
L 300.232846 366.659553 
L 302.017222 357.492475 
L 303.801599 368.744254 
L 305.585975 366.16453 
L 307.370352 362.299062 
L 309.154728 353.041611 
L 310.939105 350.983616 
L 312.723481 362.860134 
L 314.507857 363.268931 
L 316.292234 363.423005 
L 318.07661 330.48889 
L 319.860987 344.90508 
L 321.645363 349.422575 
L 323.42974 374.156028 
L 325.214116 383.296139 
L 326.998492 387.414378 
L 328.782869 380.54939 
L 330.567245 344.84542 
L 332.351622 332.576703 
L 334.135998 342.235111 
L 335.920375 331.151578 
L 337.704751 351.051068 
L 339.489127 364.692051 
L 341.273504 374.236929 
L 343.05788 373.164637 
L 344.842257 370.527742 
L 346.626633 370.277406 
L 348.41101 366.471247 
L 350.195386 373.142064 
L 351.979762 360.105939 
L 353.764139 367.061543 
L 355.548515 361.322941 
L 357.332892 344.52582 
L 359.117268 332.597395 
L 360.901645 340.090283 
L 362.686021 342.026665 
L 364.470397 385.822748 
L 366.254774 372.245077 
L 368.03915 378.381105 
L 369.823527 327.497136 
L 371.607903 342.807076 
L 373.39228 336.580525 
L 375.176656 366.871745 
L 376.961032 371.321178 
L 378.745409 364.362025 
L 380.529785 351.838921 
L 382.314162 374.693826 
L 384.098538 369.046205 
L 385.882915 373.204903 
L 387.667291 376.290734 
L 389.451667 377.923483 
L 391.236044 376.284644 
L 393.02042 375.395894 
L 394.804797 344.339153 
L 396.589173 338.600313 
L 398.37355 330.494848 
L 400.157926 352.502095 
L 401.942302 342.47479 
L 403.726679 347.916865 
L 405.511055 354.559416 
L 407.295432 351.273161 
L 409.079808 350.955184 
L 410.864185 363.13732 
L 412.648561 357.391166 
L 414.432937 362.131986 
L 416.217314 364.667872 
L 418.00169 354.513814 
L 419.786067 361.256501 
L 421.570443 351.794417 
L 423.35482 353.612087 
L 425.139196 340.18819 
L 426.923572 351.490484 
L 428.707949 361.447857 
L 430.492325 385.147365 
L 432.276702 396.950107 
L 434.061078 379.977569 
L 435.845455 376.575943 
L 435.845455 376.575943 
" style="fill:none;stroke:#ff7f0e;stroke-linecap:square;stroke-width:1.5;"/>
   </g>
   <g id="legend_2">
    <g id="line2d_6">
     <path d="M 341.7625 411.742187 
L 361.7625 411.742187 
" style="fill:none;stroke:#1f77b4;stroke-linecap:square;stroke-width:1.5;"/>
    </g>
    <g id="line2d_7"/>
    <g id="text_4">
     <!-- Effect -->
     <g transform="translate(369.7625 415.242187)scale(0.1 -0.1)">
      <defs>
       <path d="M 9.8125 72.90625 
L 55.90625 72.90625 
L 55.90625 64.59375 
L 19.671875 64.59375 
L 19.671875 43.015625 
L 54.390625 43.015625 
L 54.390625 34.71875 
L 19.671875 34.71875 
L 19.671875 8.296875 
L 56.78125 8.296875 
L 56.78125 0 
L 9.8125 0 
z
" id="DejaVuSans-69"/>
       <path d="M 37.109375 75.984375 
L 37.109375 68.5 
L 28.515625 68.5 
Q 23.6875 68.5 21.796875 66.546875 
Q 19.921875 64.59375 19.921875 59.515625 
L 19.921875 54.6875 
L 34.71875 54.6875 
L 34.71875 47.703125 
L 19.921875 47.703125 
L 19.921875 0 
L 10.890625 0 
L 10.890625 47.703125 
L 2.296875 47.703125 
L 2.296875 54.6875 
L 10.890625 54.6875 
L 10.890625 58.5 
Q 10.890625 67.625 15.140625 71.796875 
Q 19.390625 75.984375 28.609375 75.984375 
z
" id="DejaVuSans-102"/>
       <path d="M 18.3125 70.21875 
L 18.3125 54.6875 
L 36.8125 54.6875 
L 36.8125 47.703125 
L 18.3125 47.703125 
L 18.3125 18.015625 
Q 18.3125 11.328125 20.140625 9.421875 
Q 21.96875 7.515625 27.59375 7.515625 
L 36.8125 7.515625 
L 36.8125 0 
L 27.59375 0 
Q 17.1875 0 13.234375 3.875 
Q 9.28125 7.765625 9.28125 18.015625 
L 9.28125 47.703125 
L 2.6875 47.703125 
L 2.6875 54.6875 
L 9.28125 54.6875 
L 9.28125 70.21875 
z
" id="DejaVuSans-116"/>
      </defs>
      <use xlink:href="#DejaVuSans-69"/>
      <use x="63.183594" xlink:href="#DejaVuSans-102"/>
      <use x="98.388672" xlink:href="#DejaVuSans-102"/>
      <use x="133.59375" xlink:href="#DejaVuSans-101"/>
      <use x="195.117188" xlink:href="#DejaVuSans-99"/>
      <use x="250.097656" xlink:href="#DejaVuSans-116"/>
     </g>
    </g>
    <g id="line2d_8">
     <path d="M 341.7625 426.420312 
L 361.7625 426.420312 
" style="fill:none;stroke:#ff7f0e;stroke-linecap:square;stroke-width:1.5;"/>
    </g>
    <g id="line2d_9"/>
    <g id="text_5">
     <!-- Reconstruction -->
     <g transform="translate(369.7625 429.920312)scale(0.1 -0.1)">
      <defs>
       <path d="M 44.390625 34.1875 
Q 47.5625 33.109375 50.5625 29.59375 
Q 53.5625 26.078125 56.59375 19.921875 
L 66.609375 0 
L 56 0 
L 46.6875 18.703125 
Q 43.0625 26.03125 39.671875 28.421875 
Q 36.28125 30.8125 30.421875 30.8125 
L 19.671875 30.8125 
L 19.671875 0 
L 9.8125 0 
L 9.8125 72.90625 
L 32.078125 72.90625 
Q 44.578125 72.90625 50.734375 67.671875 
Q 56.890625 62.453125 56.890625 51.90625 
Q 56.890625 45.015625 53.6875 40.46875 
Q 50.484375 35.9375 44.390625 34.1875 
z
M 19.671875 64.796875 
L 19.671875 38.921875 
L 32.078125 38.921875 
Q 39.203125 38.921875 42.84375 42.21875 
Q 46.484375 45.515625 46.484375 51.90625 
Q 46.484375 58.296875 42.84375 61.546875 
Q 39.203125 64.796875 32.078125 64.796875 
z
" id="DejaVuSans-82"/>
       <path d="M 30.609375 48.390625 
Q 23.390625 48.390625 19.1875 42.75 
Q 14.984375 37.109375 14.984375 27.296875 
Q 14.984375 17.484375 19.15625 11.84375 
Q 23.34375 6.203125 30.609375 6.203125 
Q 37.796875 6.203125 41.984375 11.859375 
Q 46.1875 17.53125 46.1875 27.296875 
Q 46.1875 37.015625 41.984375 42.703125 
Q 37.796875 48.390625 30.609375 48.390625 
z
M 30.609375 56 
Q 42.328125 56 49.015625 48.375 
Q 55.71875 40.765625 55.71875 27.296875 
Q 55.71875 13.875 49.015625 6.21875 
Q 42.328125 -1.421875 30.609375 -1.421875 
Q 18.84375 -1.421875 12.171875 6.21875 
Q 5.515625 13.875 5.515625 27.296875 
Q 5.515625 40.765625 12.171875 48.375 
Q 18.84375 56 30.609375 56 
z
" id="DejaVuSans-111"/>
       <path d="M 54.890625 33.015625 
L 54.890625 0 
L 45.90625 0 
L 45.90625 32.71875 
Q 45.90625 40.484375 42.875 44.328125 
Q 39.84375 48.1875 33.796875 48.1875 
Q 26.515625 48.1875 22.3125 43.546875 
Q 18.109375 38.921875 18.109375 30.90625 
L 18.109375 0 
L 9.078125 0 
L 9.078125 54.6875 
L 18.109375 54.6875 
L 18.109375 46.1875 
Q 21.34375 51.125 25.703125 53.5625 
Q 30.078125 56 35.796875 56 
Q 45.21875 56 50.046875 50.171875 
Q 54.890625 44.34375 54.890625 33.015625 
z
" id="DejaVuSans-110"/>
       <path d="M 41.109375 46.296875 
Q 39.59375 47.171875 37.8125 47.578125 
Q 36.03125 48 33.890625 48 
Q 26.265625 48 22.1875 43.046875 
Q 18.109375 38.09375 18.109375 28.8125 
L 18.109375 0 
L 9.078125 0 
L 9.078125 54.6875 
L 18.109375 54.6875 
L 18.109375 46.1875 
Q 20.953125 51.171875 25.484375 53.578125 
Q 30.03125 56 36.53125 56 
Q 37.453125 56 38.578125 55.875 
Q 39.703125 55.765625 41.0625 55.515625 
z
" id="DejaVuSans-114"/>
      </defs>
      <use xlink:href="#DejaVuSans-82"/>
      <use x="64.982422" xlink:href="#DejaVuSans-101"/>
      <use x="126.505859" xlink:href="#DejaVuSans-99"/>
      <use x="181.486328" xlink:href="#DejaVuSans-111"/>
      <use x="242.667969" xlink:href="#DejaVuSans-110"/>
      <use x="306.046875" xlink:href="#DejaVuSans-115"/>
      <use x="358.146484" xlink:href="#DejaVuSans-116"/>
      <use x="397.355469" xlink:href="#DejaVuSans-114"/>
      <use x="438.46875" xlink:href="#DejaVuSans-117"/>
      <use x="501.847656" xlink:href="#DejaVuSans-99"/>
      <use x="556.828125" xlink:href="#DejaVuSans-116"/>
      <use x="596.037109" xlink:href="#DejaVuSans-105"/>
      <use x="623.820312" xlink:href="#DejaVuSans-111"/>
      <use x="685.001953" xlink:href="#DejaVuSans-110"/>
     </g>
    </g>
   </g>
  </g>
 </g>
 <defs>
  <clipPath id="p3cb898cfce">
   <rect height="172.963636" width="390.6" x="63" y="60.48"/>
  </clipPath>
  <clipPath id="p5ef07d5c69">
   <rect height="172.963636" width="390.6" x="63" y="268.036364"/>
  </clipPath>
 </defs>
</svg>
