<?xml version="1.0" encoding="utf-8" standalone="no"?>
<!DOCTYPE svg PUBLIC "-//W3C//DTD SVG 1.1//EN"
  "http://www.w3.org/Graphics/SVG/1.1/DTD/svg11.dtd">
<!-- Created with matplotlib (https://matplotlib.org/) -->
<svg height="288pt" version="1.1" viewBox="0 0 432 288" width="432pt" xmlns="http://www.w3.org/2000/svg" xmlns:xlink="http://www.w3.org/1999/xlink">
 <metadata>
  <rdf:RDF xmlns:cc="http://creativecommons.org/ns#" xmlns:dc="http://purl.org/dc/elements/1.1/" xmlns:rdf="http://www.w3.org/1999/02/22-rdf-syntax-ns#">
   <cc:Work>
    <dc:type rdf:resource="http://purl.org/dc/dcmitype/StillImage"/>
    <dc:date>2021-10-11T21:10:28.182288</dc:date>
    <dc:format>image/svg+xml</dc:format>
    <dc:creator>
     <cc:Agent>
      <dc:title>Matplotlib v3.3.4, https://matplotlib.org/</dc:title>
     </cc:Agent>
    </dc:creator>
   </cc:Work>
  </rdf:RDF>
 </metadata>
 <defs>
  <style type="text/css">*{stroke-linecap:butt;stroke-linejoin:round;}</style>
 </defs>
 <g id="figure_1">
  <g id="patch_1">
   <path d="M 0 288 
L 432 288 
L 432 0 
L 0 0 
z
" style="fill:none;"/>
  </g>
  <g id="axes_1">
   <g id="patch_2">
    <path d="M 54 252 
L 388.8 252 
L 388.8 34.56 
L 54 34.56 
z
" style="fill:#ffffff;"/>
   </g>
   <g id="PolyCollection_1">
    <path clip-path="url(#p4eedb24725)" d="M 54 115.622212 
L 54 135.710072 
L 62.37 111.1422 
L 70.74 103.329774 
L 79.11 104.353885 
L 87.48 107.04981 
L 95.85 109.330406 
L 104.22 110.938786 
L 112.59 112.129718 
L 120.96 111.805858 
L 129.33 112.066154 
L 137.7 111.609077 
L 146.07 111.699309 
L 154.44 111.76283 
L 162.81 111.968213 
L 171.18 112.449993 
L 179.55 112.366333 
L 187.92 112.827113 
L 196.29 113.110345 
L 204.66 113.111447 
L 213.03 113.018871 
L 221.4 112.560932 
L 229.77 112.715146 
L 238.14 113.065056 
L 246.51 114.208366 
L 254.88 114.042264 
L 263.25 113.833345 
L 271.62 114.073093 
L 279.99 114.420959 
L 288.36 114.499482 
L 296.73 114.302466 
L 305.1 114.279944 
L 313.47 114.780904 
L 321.84 114.324609 
L 330.21 114.809692 
L 338.58 115.192255 
L 346.95 114.625069 
L 355.32 115.328479 
L 363.69 115.859327 
L 372.06 115.187679 
L 380.43 115.202867 
L 388.8 115.405006 
L 397.17 116.414899 
L 405.54 115.902394 
L 413.91 116.328106 
L 422.28 116.360544 
L 430.65 116.161585 
L 439.02 115.928401 
L 447.39 116.215048 
L 455.76 116.954975 
L 464.13 117.127906 
L 472.5 117.512985 
L 480.87 117.341862 
L 489.24 118.27631 
L 497.61 117.372262 
L 505.98 118.53712 
L 514.35 118.353525 
L 522.72 118.837357 
L 531.09 119.175042 
L 539.46 119.088711 
L 547.83 119.139981 
L 556.2 120.109608 
L 564.57 119.331782 
L 572.94 119.361872 
L 581.31 120.236174 
L 589.68 119.580451 
L 598.05 120.121023 
L 606.42 120.292787 
L 614.79 119.465377 
L 614.79 104.610791 
L 614.79 104.610791 
L 606.42 104.320095 
L 598.05 104.893235 
L 589.68 104.219094 
L 581.31 104.880274 
L 572.94 104.502268 
L 564.57 104.161246 
L 556.2 104.86898 
L 547.83 104.173959 
L 539.46 104.348845 
L 531.09 103.775084 
L 522.72 103.760198 
L 514.35 103.421324 
L 505.98 103.417543 
L 497.61 103.265442 
L 489.24 103.436734 
L 480.87 103.661892 
L 472.5 103.419018 
L 464.13 103.035519 
L 455.76 103.065587 
L 447.39 102.908538 
L 439.02 102.197043 
L 430.65 102.570839 
L 422.28 102.43793 
L 413.91 102.522406 
L 405.54 102.208749 
L 397.17 101.444183 
L 388.8 101.801272 
L 380.43 101.94059 
L 372.06 101.235461 
L 363.69 101.628867 
L 355.32 101.116154 
L 346.95 100.522139 
L 338.58 100.135497 
L 330.21 100.610258 
L 321.84 100.599423 
L 313.47 100.56952 
L 305.1 100.115352 
L 296.73 100.25536 
L 288.36 100.130928 
L 279.99 100.450132 
L 271.62 99.636919 
L 263.25 99.657335 
L 254.88 99.972949 
L 246.51 99.557543 
L 238.14 99.494729 
L 229.77 99.193578 
L 221.4 99.647022 
L 213.03 99.152139 
L 204.66 99.042559 
L 196.29 98.779058 
L 187.92 98.378602 
L 179.55 97.765829 
L 171.18 98.034128 
L 162.81 98.00022 
L 154.44 97.838044 
L 146.07 97.078126 
L 137.7 97.122918 
L 129.33 96.825073 
L 120.96 96.3673 
L 112.59 96.800382 
L 104.22 95.941742 
L 95.85 94.885991 
L 87.48 93.054803 
L 79.11 90.17649 
L 70.74 90.322406 
L 62.37 97.694987 
L 54 115.622212 
z
" style="fill:#9b59b6;fill-opacity:0.2;stroke:#9b59b6;stroke-opacity:0.2;"/>
   </g>
   <g id="PolyCollection_2">
    <path clip-path="url(#p4eedb24725)" d="M 54 126.865724 
L 54 169.111278 
L 62.37 140.974813 
L 70.74 133.031603 
L 79.11 127.025609 
L 87.48 122.40308 
L 95.85 123.69115 
L 104.22 124.033828 
L 112.59 124.45447 
L 120.96 124.91536 
L 129.33 125.122325 
L 137.7 125.108502 
L 146.07 125.210758 
L 154.44 124.851473 
L 162.81 125.281151 
L 171.18 125.631226 
L 179.55 126.706169 
L 187.92 126.723232 
L 196.29 126.803821 
L 204.66 126.914848 
L 213.03 126.989475 
L 221.4 128.192963 
L 229.77 128.205503 
L 238.14 128.604274 
L 246.51 127.910481 
L 254.88 127.701736 
L 263.25 130.796428 
L 271.62 131.677118 
L 279.99 131.773244 
L 288.36 132.276571 
L 296.73 131.874204 
L 305.1 131.71059 
L 313.47 131.859286 
L 321.84 131.10506 
L 330.21 132.15952 
L 338.58 131.96773 
L 346.95 132.081629 
L 355.32 131.763885 
L 363.69 131.468711 
L 372.06 132.299716 
L 380.43 130.486786 
L 388.8 132.231904 
L 397.17 130.409741 
L 405.54 132.017603 
L 413.91 132.017164 
L 422.28 132.69016 
L 430.65 135.303302 
L 439.02 137.430602 
L 447.39 139.285926 
L 455.76 140.052786 
L 464.13 138.41384 
L 472.5 137.922025 
L 480.87 137.446887 
L 489.24 137.436624 
L 497.61 138.125213 
L 505.98 137.975239 
L 514.35 136.792791 
L 522.72 136.672246 
L 531.09 136.730482 
L 539.46 136.997817 
L 547.83 136.186064 
L 556.2 137.1429 
L 564.57 136.901664 
L 572.94 136.266082 
L 581.31 136.184593 
L 589.68 136.721327 
L 598.05 136.434924 
L 606.42 136.691432 
L 614.79 137.18344 
L 614.79 117.975845 
L 614.79 117.975845 
L 606.42 117.538997 
L 598.05 116.902264 
L 589.68 117.649362 
L 581.31 117.325426 
L 572.94 118.010084 
L 564.57 117.252411 
L 556.2 117.172061 
L 547.83 116.875804 
L 539.46 116.904292 
L 531.09 116.646517 
L 522.72 116.715647 
L 514.35 115.994511 
L 505.98 116.376436 
L 497.61 117.110846 
L 489.24 116.984109 
L 480.87 116.657932 
L 472.5 117.517959 
L 464.13 115.86297 
L 455.76 116.902773 
L 447.39 115.195611 
L 439.02 115.165105 
L 430.65 114.675177 
L 422.28 113.642547 
L 413.91 112.830716 
L 405.54 113.195559 
L 397.17 111.340624 
L 388.8 111.619368 
L 380.43 112.564169 
L 372.06 111.976887 
L 363.69 110.551842 
L 355.32 111.283115 
L 346.95 109.957908 
L 338.58 111.747921 
L 330.21 109.677359 
L 321.84 109.11999 
L 313.47 109.189018 
L 305.1 109.396677 
L 296.73 110.163595 
L 288.36 110.516488 
L 279.99 109.185357 
L 271.62 109.320134 
L 263.25 108.35042 
L 254.88 107.436516 
L 246.51 107.647631 
L 238.14 107.467759 
L 229.77 106.71515 
L 221.4 106.980459 
L 213.03 106.25544 
L 204.66 105.57738 
L 196.29 105.892199 
L 187.92 105.571909 
L 179.55 104.804382 
L 171.18 105.536541 
L 162.81 104.884378 
L 154.44 104.046858 
L 146.07 103.831495 
L 137.7 103.63125 
L 129.33 103.265803 
L 120.96 103.162563 
L 112.59 103.068407 
L 104.22 103.688943 
L 95.85 101.601532 
L 87.48 98.400679 
L 79.11 93.606788 
L 70.74 93.028065 
L 62.37 104.72076 
L 54 126.865724 
z
" style="fill:#3498db;fill-opacity:0.2;stroke:#3498db;stroke-opacity:0.2;"/>
   </g>
   <g id="PolyCollection_3">
    <path clip-path="url(#p4eedb24725)" d="M 54 187.122683 
L 54 224.654256 
L 62.37 178.92181 
L 70.74 166.893763 
L 79.11 158.698749 
L 87.48 157.140423 
L 95.85 156.671688 
L 104.22 154.229531 
L 112.59 152.083621 
L 120.96 151.596827 
L 129.33 150.671677 
L 137.7 149.236144 
L 146.07 147.903707 
L 154.44 147.045524 
L 162.81 146.031079 
L 171.18 144.855926 
L 179.55 144.444169 
L 187.92 144.132661 
L 196.29 143.94669 
L 204.66 143.895894 
L 213.03 143.118749 
L 221.4 142.789255 
L 229.77 142.478884 
L 238.14 142.697825 
L 246.51 142.30408 
L 254.88 142.945469 
L 263.25 142.792616 
L 271.62 143.183914 
L 279.99 142.817457 
L 288.36 143.202534 
L 296.73 142.765509 
L 305.1 142.34663 
L 313.47 142.357837 
L 321.84 141.77979 
L 330.21 141.938572 
L 338.58 142.583094 
L 346.95 143.74533 
L 355.32 144.506318 
L 363.69 145.208296 
L 372.06 145.762737 
L 380.43 146.64183 
L 388.8 146.212072 
L 397.17 145.918295 
L 405.54 146.049755 
L 413.91 146.477611 
L 422.28 145.545057 
L 430.65 145.67131 
L 439.02 145.66375 
L 447.39 145.355527 
L 455.76 145.897816 
L 464.13 145.539645 
L 472.5 145.313883 
L 480.87 145.706496 
L 489.24 145.60949 
L 497.61 145.380568 
L 505.98 146.659353 
L 514.35 146.216901 
L 522.72 145.524109 
L 531.09 146.444185 
L 539.46 145.570432 
L 547.83 145.923654 
L 556.2 145.72582 
L 564.57 145.703965 
L 572.94 146.359011 
L 581.31 146.690454 
L 589.68 145.627079 
L 598.05 145.371188 
L 606.42 146.100063 
L 614.79 145.938534 
L 614.79 128.645224 
L 614.79 128.645224 
L 606.42 128.51631 
L 598.05 128.850677 
L 589.68 129.226002 
L 581.31 128.944829 
L 572.94 128.207368 
L 564.57 129.282785 
L 556.2 129.167841 
L 547.83 129.19748 
L 539.46 129.067929 
L 531.09 128.712253 
L 522.72 129.799972 
L 514.35 129.097726 
L 505.98 129.495142 
L 497.61 128.956741 
L 489.24 129.614533 
L 480.87 128.126985 
L 472.5 128.963832 
L 464.13 129.5079 
L 455.76 128.742548 
L 447.39 129.834253 
L 439.02 129.522356 
L 430.65 129.892664 
L 422.28 129.782902 
L 413.91 129.861119 
L 405.54 129.008888 
L 397.17 130.673104 
L 388.8 130.220676 
L 380.43 130.689586 
L 372.06 130.344135 
L 363.69 130.115156 
L 355.32 130.626684 
L 346.95 130.370409 
L 338.58 130.027645 
L 330.21 129.959645 
L 321.84 129.521143 
L 313.47 130.384748 
L 305.1 129.928724 
L 296.73 130.192656 
L 288.36 130.565231 
L 279.99 131.692953 
L 271.62 131.089306 
L 263.25 130.980616 
L 254.88 130.587811 
L 246.51 131.270903 
L 238.14 131.562606 
L 229.77 131.444359 
L 221.4 131.798718 
L 213.03 132.50195 
L 204.66 132.648997 
L 196.29 133.047577 
L 187.92 132.953821 
L 179.55 134.188646 
L 171.18 134.035944 
L 162.81 134.436206 
L 154.44 135.522685 
L 146.07 136.061651 
L 137.7 136.886774 
L 129.33 138.06138 
L 120.96 139.230711 
L 112.59 140.738408 
L 104.22 141.11443 
L 95.85 142.823814 
L 87.48 142.938139 
L 79.11 142.555748 
L 70.74 148.20016 
L 62.37 151.495401 
L 54 187.122683 
z
" style="fill:#a9a9a9;fill-opacity:0.2;stroke:#a9a9a9;stroke-opacity:0.2;"/>
   </g>
   <g id="matplotlib.axis_1">
    <g id="xtick_1">
     <g id="line2d_1">
      <defs>
       <path d="M 0 0 
L 0 3.5 
" id="mad9aef2a15" style="stroke:#000000;stroke-width:0.8;"/>
      </defs>
      <g>
       <use style="stroke:#000000;stroke-width:0.8;" x="54" xlink:href="#mad9aef2a15" y="252"/>
      </g>
     </g>
     <g id="text_1">
      <!-- 0 -->
      <g transform="translate(50.81875 266.598437)scale(0.1 -0.1)">
       <defs>
        <path d="M 31.78125 66.40625 
Q 24.171875 66.40625 20.328125 58.90625 
Q 16.5 51.421875 16.5 36.375 
Q 16.5 21.390625 20.328125 13.890625 
Q 24.171875 6.390625 31.78125 6.390625 
Q 39.453125 6.390625 43.28125 13.890625 
Q 47.125 21.390625 47.125 36.375 
Q 47.125 51.421875 43.28125 58.90625 
Q 39.453125 66.40625 31.78125 66.40625 
z
M 31.78125 74.21875 
Q 44.046875 74.21875 50.515625 64.515625 
Q 56.984375 54.828125 56.984375 36.375 
Q 56.984375 17.96875 50.515625 8.265625 
Q 44.046875 -1.421875 31.78125 -1.421875 
Q 19.53125 -1.421875 13.0625 8.265625 
Q 6.59375 17.96875 6.59375 36.375 
Q 6.59375 54.828125 13.0625 64.515625 
Q 19.53125 74.21875 31.78125 74.21875 
z
" id="DejaVuSans-48"/>
       </defs>
       <use xlink:href="#DejaVuSans-48"/>
      </g>
     </g>
    </g>
    <g id="xtick_2">
     <g id="line2d_2">
      <g>
       <use style="stroke:#000000;stroke-width:0.8;" x="95.85" xlink:href="#mad9aef2a15" y="252"/>
      </g>
     </g>
     <g id="text_2">
      <!-- 5 -->
      <g transform="translate(92.66875 266.598437)scale(0.1 -0.1)">
       <defs>
        <path d="M 10.796875 72.90625 
L 49.515625 72.90625 
L 49.515625 64.59375 
L 19.828125 64.59375 
L 19.828125 46.734375 
Q 21.96875 47.46875 24.109375 47.828125 
Q 26.265625 48.1875 28.421875 48.1875 
Q 40.625 48.1875 47.75 41.5 
Q 54.890625 34.8125 54.890625 23.390625 
Q 54.890625 11.625 47.5625 5.09375 
Q 40.234375 -1.421875 26.90625 -1.421875 
Q 22.3125 -1.421875 17.546875 -0.640625 
Q 12.796875 0.140625 7.71875 1.703125 
L 7.71875 11.625 
Q 12.109375 9.234375 16.796875 8.0625 
Q 21.484375 6.890625 26.703125 6.890625 
Q 35.15625 6.890625 40.078125 11.328125 
Q 45.015625 15.765625 45.015625 23.390625 
Q 45.015625 31 40.078125 35.4375 
Q 35.15625 39.890625 26.703125 39.890625 
Q 22.75 39.890625 18.8125 39.015625 
Q 14.890625 38.140625 10.796875 36.28125 
z
" id="DejaVuSans-53"/>
       </defs>
       <use xlink:href="#DejaVuSans-53"/>
      </g>
     </g>
    </g>
    <g id="xtick_3">
     <g id="line2d_3">
      <g>
       <use style="stroke:#000000;stroke-width:0.8;" x="137.7" xlink:href="#mad9aef2a15" y="252"/>
      </g>
     </g>
     <g id="text_3">
      <!-- 10 -->
      <g transform="translate(131.3375 266.598437)scale(0.1 -0.1)">
       <defs>
        <path d="M 12.40625 8.296875 
L 28.515625 8.296875 
L 28.515625 63.921875 
L 10.984375 60.40625 
L 10.984375 69.390625 
L 28.421875 72.90625 
L 38.28125 72.90625 
L 38.28125 8.296875 
L 54.390625 8.296875 
L 54.390625 0 
L 12.40625 0 
z
" id="DejaVuSans-49"/>
       </defs>
       <use xlink:href="#DejaVuSans-49"/>
       <use x="63.623047" xlink:href="#DejaVuSans-48"/>
      </g>
     </g>
    </g>
    <g id="xtick_4">
     <g id="line2d_4">
      <g>
       <use style="stroke:#000000;stroke-width:0.8;" x="179.55" xlink:href="#mad9aef2a15" y="252"/>
      </g>
     </g>
     <g id="text_4">
      <!-- 15 -->
      <g transform="translate(173.1875 266.598437)scale(0.1 -0.1)">
       <use xlink:href="#DejaVuSans-49"/>
       <use x="63.623047" xlink:href="#DejaVuSans-53"/>
      </g>
     </g>
    </g>
    <g id="xtick_5">
     <g id="line2d_5">
      <g>
       <use style="stroke:#000000;stroke-width:0.8;" x="221.4" xlink:href="#mad9aef2a15" y="252"/>
      </g>
     </g>
     <g id="text_5">
      <!-- 20 -->
      <g transform="translate(215.0375 266.598437)scale(0.1 -0.1)">
       <defs>
        <path d="M 19.1875 8.296875 
L 53.609375 8.296875 
L 53.609375 0 
L 7.328125 0 
L 7.328125 8.296875 
Q 12.9375 14.109375 22.625 23.890625 
Q 32.328125 33.6875 34.8125 36.53125 
Q 39.546875 41.84375 41.421875 45.53125 
Q 43.3125 49.21875 43.3125 52.78125 
Q 43.3125 58.59375 39.234375 62.25 
Q 35.15625 65.921875 28.609375 65.921875 
Q 23.96875 65.921875 18.8125 64.3125 
Q 13.671875 62.703125 7.8125 59.421875 
L 7.8125 69.390625 
Q 13.765625 71.78125 18.9375 73 
Q 24.125 74.21875 28.421875 74.21875 
Q 39.75 74.21875 46.484375 68.546875 
Q 53.21875 62.890625 53.21875 53.421875 
Q 53.21875 48.921875 51.53125 44.890625 
Q 49.859375 40.875 45.40625 35.40625 
Q 44.1875 33.984375 37.640625 27.21875 
Q 31.109375 20.453125 19.1875 8.296875 
z
" id="DejaVuSans-50"/>
       </defs>
       <use xlink:href="#DejaVuSans-50"/>
       <use x="63.623047" xlink:href="#DejaVuSans-48"/>
      </g>
     </g>
    </g>
    <g id="xtick_6">
     <g id="line2d_6">
      <g>
       <use style="stroke:#000000;stroke-width:0.8;" x="263.25" xlink:href="#mad9aef2a15" y="252"/>
      </g>
     </g>
     <g id="text_6">
      <!-- 25 -->
      <g transform="translate(256.8875 266.598437)scale(0.1 -0.1)">
       <use xlink:href="#DejaVuSans-50"/>
       <use x="63.623047" xlink:href="#DejaVuSans-53"/>
      </g>
     </g>
    </g>
    <g id="xtick_7">
     <g id="line2d_7">
      <g>
       <use style="stroke:#000000;stroke-width:0.8;" x="305.1" xlink:href="#mad9aef2a15" y="252"/>
      </g>
     </g>
     <g id="text_7">
      <!-- 30 -->
      <g transform="translate(298.7375 266.598437)scale(0.1 -0.1)">
       <defs>
        <path d="M 40.578125 39.3125 
Q 47.65625 37.796875 51.625 33 
Q 55.609375 28.21875 55.609375 21.1875 
Q 55.609375 10.40625 48.1875 4.484375 
Q 40.765625 -1.421875 27.09375 -1.421875 
Q 22.515625 -1.421875 17.65625 -0.515625 
Q 12.796875 0.390625 7.625 2.203125 
L 7.625 11.71875 
Q 11.71875 9.328125 16.59375 8.109375 
Q 21.484375 6.890625 26.8125 6.890625 
Q 36.078125 6.890625 40.9375 10.546875 
Q 45.796875 14.203125 45.796875 21.1875 
Q 45.796875 27.640625 41.28125 31.265625 
Q 36.765625 34.90625 28.71875 34.90625 
L 20.21875 34.90625 
L 20.21875 43.015625 
L 29.109375 43.015625 
Q 36.375 43.015625 40.234375 45.921875 
Q 44.09375 48.828125 44.09375 54.296875 
Q 44.09375 59.90625 40.109375 62.90625 
Q 36.140625 65.921875 28.71875 65.921875 
Q 24.65625 65.921875 20.015625 65.03125 
Q 15.375 64.15625 9.8125 62.3125 
L 9.8125 71.09375 
Q 15.4375 72.65625 20.34375 73.4375 
Q 25.25 74.21875 29.59375 74.21875 
Q 40.828125 74.21875 47.359375 69.109375 
Q 53.90625 64.015625 53.90625 55.328125 
Q 53.90625 49.265625 50.4375 45.09375 
Q 46.96875 40.921875 40.578125 39.3125 
z
" id="DejaVuSans-51"/>
       </defs>
       <use xlink:href="#DejaVuSans-51"/>
       <use x="63.623047" xlink:href="#DejaVuSans-48"/>
      </g>
     </g>
    </g>
    <g id="xtick_8">
     <g id="line2d_8">
      <g>
       <use style="stroke:#000000;stroke-width:0.8;" x="346.95" xlink:href="#mad9aef2a15" y="252"/>
      </g>
     </g>
     <g id="text_8">
      <!-- 35 -->
      <g transform="translate(340.5875 266.598437)scale(0.1 -0.1)">
       <use xlink:href="#DejaVuSans-51"/>
       <use x="63.623047" xlink:href="#DejaVuSans-53"/>
      </g>
     </g>
    </g>
    <g id="xtick_9">
     <g id="line2d_9">
      <g>
       <use style="stroke:#000000;stroke-width:0.8;" x="388.8" xlink:href="#mad9aef2a15" y="252"/>
      </g>
     </g>
     <g id="text_9">
      <!-- 40 -->
      <g transform="translate(382.4375 266.598437)scale(0.1 -0.1)">
       <defs>
        <path d="M 37.796875 64.3125 
L 12.890625 25.390625 
L 37.796875 25.390625 
z
M 35.203125 72.90625 
L 47.609375 72.90625 
L 47.609375 25.390625 
L 58.015625 25.390625 
L 58.015625 17.1875 
L 47.609375 17.1875 
L 47.609375 0 
L 37.796875 0 
L 37.796875 17.1875 
L 4.890625 17.1875 
L 4.890625 26.703125 
z
" id="DejaVuSans-52"/>
       </defs>
       <use xlink:href="#DejaVuSans-52"/>
       <use x="63.623047" xlink:href="#DejaVuSans-48"/>
      </g>
     </g>
    </g>
    <g id="text_10">
     <!-- Dimensions -->
     <g transform="translate(186.3825 281.79625)scale(0.12 -0.12)">
      <defs>
       <path d="M 19.671875 64.796875 
L 19.671875 8.109375 
L 31.59375 8.109375 
Q 46.6875 8.109375 53.6875 14.9375 
Q 60.6875 21.78125 60.6875 36.53125 
Q 60.6875 51.171875 53.6875 57.984375 
Q 46.6875 64.796875 31.59375 64.796875 
z
M 9.8125 72.90625 
L 30.078125 72.90625 
Q 51.265625 72.90625 61.171875 64.09375 
Q 71.09375 55.28125 71.09375 36.53125 
Q 71.09375 17.671875 61.125 8.828125 
Q 51.171875 0 30.078125 0 
L 9.8125 0 
z
" id="DejaVuSans-68"/>
       <path d="M 9.421875 54.6875 
L 18.40625 54.6875 
L 18.40625 0 
L 9.421875 0 
z
M 9.421875 75.984375 
L 18.40625 75.984375 
L 18.40625 64.59375 
L 9.421875 64.59375 
z
" id="DejaVuSans-105"/>
       <path d="M 52 44.1875 
Q 55.375 50.25 60.0625 53.125 
Q 64.75 56 71.09375 56 
Q 79.640625 56 84.28125 50.015625 
Q 88.921875 44.046875 88.921875 33.015625 
L 88.921875 0 
L 79.890625 0 
L 79.890625 32.71875 
Q 79.890625 40.578125 77.09375 44.375 
Q 74.3125 48.1875 68.609375 48.1875 
Q 61.625 48.1875 57.5625 43.546875 
Q 53.515625 38.921875 53.515625 30.90625 
L 53.515625 0 
L 44.484375 0 
L 44.484375 32.71875 
Q 44.484375 40.625 41.703125 44.40625 
Q 38.921875 48.1875 33.109375 48.1875 
Q 26.21875 48.1875 22.15625 43.53125 
Q 18.109375 38.875 18.109375 30.90625 
L 18.109375 0 
L 9.078125 0 
L 9.078125 54.6875 
L 18.109375 54.6875 
L 18.109375 46.1875 
Q 21.1875 51.21875 25.484375 53.609375 
Q 29.78125 56 35.6875 56 
Q 41.65625 56 45.828125 52.96875 
Q 50 49.953125 52 44.1875 
z
" id="DejaVuSans-109"/>
       <path d="M 56.203125 29.59375 
L 56.203125 25.203125 
L 14.890625 25.203125 
Q 15.484375 15.921875 20.484375 11.0625 
Q 25.484375 6.203125 34.421875 6.203125 
Q 39.59375 6.203125 44.453125 7.46875 
Q 49.3125 8.734375 54.109375 11.28125 
L 54.109375 2.78125 
Q 49.265625 0.734375 44.1875 -0.34375 
Q 39.109375 -1.421875 33.890625 -1.421875 
Q 20.796875 -1.421875 13.15625 6.1875 
Q 5.515625 13.8125 5.515625 26.8125 
Q 5.515625 40.234375 12.765625 48.109375 
Q 20.015625 56 32.328125 56 
Q 43.359375 56 49.78125 48.890625 
Q 56.203125 41.796875 56.203125 29.59375 
z
M 47.21875 32.234375 
Q 47.125 39.59375 43.09375 43.984375 
Q 39.0625 48.390625 32.421875 48.390625 
Q 24.90625 48.390625 20.390625 44.140625 
Q 15.875 39.890625 15.1875 32.171875 
z
" id="DejaVuSans-101"/>
       <path d="M 54.890625 33.015625 
L 54.890625 0 
L 45.90625 0 
L 45.90625 32.71875 
Q 45.90625 40.484375 42.875 44.328125 
Q 39.84375 48.1875 33.796875 48.1875 
Q 26.515625 48.1875 22.3125 43.546875 
Q 18.109375 38.921875 18.109375 30.90625 
L 18.109375 0 
L 9.078125 0 
L 9.078125 54.6875 
L 18.109375 54.6875 
L 18.109375 46.1875 
Q 21.34375 51.125 25.703125 53.5625 
Q 30.078125 56 35.796875 56 
Q 45.21875 56 50.046875 50.171875 
Q 54.890625 44.34375 54.890625 33.015625 
z
" id="DejaVuSans-110"/>
       <path d="M 44.28125 53.078125 
L 44.28125 44.578125 
Q 40.484375 46.53125 36.375 47.5 
Q 32.28125 48.484375 27.875 48.484375 
Q 21.1875 48.484375 17.84375 46.4375 
Q 14.5 44.390625 14.5 40.28125 
Q 14.5 37.15625 16.890625 35.375 
Q 19.28125 33.59375 26.515625 31.984375 
L 29.59375 31.296875 
Q 39.15625 29.25 43.1875 25.515625 
Q 47.21875 21.78125 47.21875 15.09375 
Q 47.21875 7.46875 41.1875 3.015625 
Q 35.15625 -1.421875 24.609375 -1.421875 
Q 20.21875 -1.421875 15.453125 -0.5625 
Q 10.6875 0.296875 5.421875 2 
L 5.421875 11.28125 
Q 10.40625 8.6875 15.234375 7.390625 
Q 20.0625 6.109375 24.8125 6.109375 
Q 31.15625 6.109375 34.5625 8.28125 
Q 37.984375 10.453125 37.984375 14.40625 
Q 37.984375 18.0625 35.515625 20.015625 
Q 33.0625 21.96875 24.703125 23.78125 
L 21.578125 24.515625 
Q 13.234375 26.265625 9.515625 29.90625 
Q 5.8125 33.546875 5.8125 39.890625 
Q 5.8125 47.609375 11.28125 51.796875 
Q 16.75 56 26.8125 56 
Q 31.78125 56 36.171875 55.265625 
Q 40.578125 54.546875 44.28125 53.078125 
z
" id="DejaVuSans-115"/>
       <path d="M 30.609375 48.390625 
Q 23.390625 48.390625 19.1875 42.75 
Q 14.984375 37.109375 14.984375 27.296875 
Q 14.984375 17.484375 19.15625 11.84375 
Q 23.34375 6.203125 30.609375 6.203125 
Q 37.796875 6.203125 41.984375 11.859375 
Q 46.1875 17.53125 46.1875 27.296875 
Q 46.1875 37.015625 41.984375 42.703125 
Q 37.796875 48.390625 30.609375 48.390625 
z
M 30.609375 56 
Q 42.328125 56 49.015625 48.375 
Q 55.71875 40.765625 55.71875 27.296875 
Q 55.71875 13.875 49.015625 6.21875 
Q 42.328125 -1.421875 30.609375 -1.421875 
Q 18.84375 -1.421875 12.171875 6.21875 
Q 5.515625 13.875 5.515625 27.296875 
Q 5.515625 40.765625 12.171875 48.375 
Q 18.84375 56 30.609375 56 
z
" id="DejaVuSans-111"/>
      </defs>
      <use xlink:href="#DejaVuSans-68"/>
      <use x="77.001953" xlink:href="#DejaVuSans-105"/>
      <use x="104.785156" xlink:href="#DejaVuSans-109"/>
      <use x="202.197266" xlink:href="#DejaVuSans-101"/>
      <use x="263.720703" xlink:href="#DejaVuSans-110"/>
      <use x="327.099609" xlink:href="#DejaVuSans-115"/>
      <use x="379.199219" xlink:href="#DejaVuSans-105"/>
      <use x="406.982422" xlink:href="#DejaVuSans-111"/>
      <use x="468.164062" xlink:href="#DejaVuSans-110"/>
      <use x="531.542969" xlink:href="#DejaVuSans-115"/>
     </g>
    </g>
   </g>
   <g id="matplotlib.axis_2">
    <g id="ytick_1">
     <g id="line2d_10">
      <defs>
       <path d="M 0 0 
L -3.5 0 
" id="mcf8dfb1930" style="stroke:#000000;stroke-width:0.8;"/>
      </defs>
      <g>
       <use style="stroke:#000000;stroke-width:0.8;" x="54" xlink:href="#mcf8dfb1930" y="252"/>
      </g>
     </g>
     <g id="text_11">
      <!-- −1.00 -->
      <g transform="translate(16.354687 255.799219)scale(0.1 -0.1)">
       <defs>
        <path d="M 10.59375 35.5 
L 73.1875 35.5 
L 73.1875 27.203125 
L 10.59375 27.203125 
z
" id="DejaVuSans-8722"/>
        <path d="M 10.6875 12.40625 
L 21 12.40625 
L 21 0 
L 10.6875 0 
z
" id="DejaVuSans-46"/>
       </defs>
       <use xlink:href="#DejaVuSans-8722"/>
       <use x="83.789062" xlink:href="#DejaVuSans-49"/>
       <use x="147.412109" xlink:href="#DejaVuSans-46"/>
       <use x="179.199219" xlink:href="#DejaVuSans-48"/>
       <use x="242.822266" xlink:href="#DejaVuSans-48"/>
      </g>
     </g>
    </g>
    <g id="ytick_2">
     <g id="line2d_11">
      <g>
       <use style="stroke:#000000;stroke-width:0.8;" x="54" xlink:href="#mcf8dfb1930" y="224.82"/>
      </g>
     </g>
     <g id="text_12">
      <!-- −0.75 -->
      <g transform="translate(16.354687 228.619219)scale(0.1 -0.1)">
       <defs>
        <path d="M 8.203125 72.90625 
L 55.078125 72.90625 
L 55.078125 68.703125 
L 28.609375 0 
L 18.3125 0 
L 43.21875 64.59375 
L 8.203125 64.59375 
z
" id="DejaVuSans-55"/>
       </defs>
       <use xlink:href="#DejaVuSans-8722"/>
       <use x="83.789062" xlink:href="#DejaVuSans-48"/>
       <use x="147.412109" xlink:href="#DejaVuSans-46"/>
       <use x="179.199219" xlink:href="#DejaVuSans-55"/>
       <use x="242.822266" xlink:href="#DejaVuSans-53"/>
      </g>
     </g>
    </g>
    <g id="ytick_3">
     <g id="line2d_12">
      <g>
       <use style="stroke:#000000;stroke-width:0.8;" x="54" xlink:href="#mcf8dfb1930" y="197.64"/>
      </g>
     </g>
     <g id="text_13">
      <!-- −0.50 -->
      <g transform="translate(16.354687 201.439219)scale(0.1 -0.1)">
       <use xlink:href="#DejaVuSans-8722"/>
       <use x="83.789062" xlink:href="#DejaVuSans-48"/>
       <use x="147.412109" xlink:href="#DejaVuSans-46"/>
       <use x="179.199219" xlink:href="#DejaVuSans-53"/>
       <use x="242.822266" xlink:href="#DejaVuSans-48"/>
      </g>
     </g>
    </g>
    <g id="ytick_4">
     <g id="line2d_13">
      <g>
       <use style="stroke:#000000;stroke-width:0.8;" x="54" xlink:href="#mcf8dfb1930" y="170.46"/>
      </g>
     </g>
     <g id="text_14">
      <!-- −0.25 -->
      <g transform="translate(16.354687 174.259219)scale(0.1 -0.1)">
       <use xlink:href="#DejaVuSans-8722"/>
       <use x="83.789062" xlink:href="#DejaVuSans-48"/>
       <use x="147.412109" xlink:href="#DejaVuSans-46"/>
       <use x="179.199219" xlink:href="#DejaVuSans-50"/>
       <use x="242.822266" xlink:href="#DejaVuSans-53"/>
      </g>
     </g>
    </g>
    <g id="ytick_5">
     <g id="line2d_14">
      <g>
       <use style="stroke:#000000;stroke-width:0.8;" x="54" xlink:href="#mcf8dfb1930" y="143.28"/>
      </g>
     </g>
     <g id="text_15">
      <!-- 0.00 -->
      <g transform="translate(24.734375 147.079219)scale(0.1 -0.1)">
       <use xlink:href="#DejaVuSans-48"/>
       <use x="63.623047" xlink:href="#DejaVuSans-46"/>
       <use x="95.410156" xlink:href="#DejaVuSans-48"/>
       <use x="159.033203" xlink:href="#DejaVuSans-48"/>
      </g>
     </g>
    </g>
    <g id="ytick_6">
     <g id="line2d_15">
      <g>
       <use style="stroke:#000000;stroke-width:0.8;" x="54" xlink:href="#mcf8dfb1930" y="116.1"/>
      </g>
     </g>
     <g id="text_16">
      <!-- 0.25 -->
      <g transform="translate(24.734375 119.899219)scale(0.1 -0.1)">
       <use xlink:href="#DejaVuSans-48"/>
       <use x="63.623047" xlink:href="#DejaVuSans-46"/>
       <use x="95.410156" xlink:href="#DejaVuSans-50"/>
       <use x="159.033203" xlink:href="#DejaVuSans-53"/>
      </g>
     </g>
    </g>
    <g id="ytick_7">
     <g id="line2d_16">
      <g>
       <use style="stroke:#000000;stroke-width:0.8;" x="54" xlink:href="#mcf8dfb1930" y="88.92"/>
      </g>
     </g>
     <g id="text_17">
      <!-- 0.50 -->
      <g transform="translate(24.734375 92.719219)scale(0.1 -0.1)">
       <use xlink:href="#DejaVuSans-48"/>
       <use x="63.623047" xlink:href="#DejaVuSans-46"/>
       <use x="95.410156" xlink:href="#DejaVuSans-53"/>
       <use x="159.033203" xlink:href="#DejaVuSans-48"/>
      </g>
     </g>
    </g>
    <g id="ytick_8">
     <g id="line2d_17">
      <g>
       <use style="stroke:#000000;stroke-width:0.8;" x="54" xlink:href="#mcf8dfb1930" y="61.74"/>
      </g>
     </g>
     <g id="text_18">
      <!-- 0.75 -->
      <g transform="translate(24.734375 65.539219)scale(0.1 -0.1)">
       <use xlink:href="#DejaVuSans-48"/>
       <use x="63.623047" xlink:href="#DejaVuSans-46"/>
       <use x="95.410156" xlink:href="#DejaVuSans-55"/>
       <use x="159.033203" xlink:href="#DejaVuSans-53"/>
      </g>
     </g>
    </g>
    <g id="ytick_9">
     <g id="line2d_18">
      <g>
       <use style="stroke:#000000;stroke-width:0.8;" x="54" xlink:href="#mcf8dfb1930" y="34.56"/>
      </g>
     </g>
     <g id="text_19">
      <!-- 1.00 -->
      <g transform="translate(24.734375 38.359219)scale(0.1 -0.1)">
       <use xlink:href="#DejaVuSans-49"/>
       <use x="63.623047" xlink:href="#DejaVuSans-46"/>
       <use x="95.410156" xlink:href="#DejaVuSans-48"/>
       <use x="159.033203" xlink:href="#DejaVuSans-48"/>
      </g>
     </g>
    </g>
    <g id="text_20">
     <!-- Causal Influence -->
     <g transform="translate(9.859062 192.964687)rotate(-90)scale(0.12 -0.12)">
      <defs>
       <path d="M 64.40625 67.28125 
L 64.40625 56.890625 
Q 59.421875 61.53125 53.78125 63.8125 
Q 48.140625 66.109375 41.796875 66.109375 
Q 29.296875 66.109375 22.65625 58.46875 
Q 16.015625 50.828125 16.015625 36.375 
Q 16.015625 21.96875 22.65625 14.328125 
Q 29.296875 6.6875 41.796875 6.6875 
Q 48.140625 6.6875 53.78125 8.984375 
Q 59.421875 11.28125 64.40625 15.921875 
L 64.40625 5.609375 
Q 59.234375 2.09375 53.4375 0.328125 
Q 47.65625 -1.421875 41.21875 -1.421875 
Q 24.65625 -1.421875 15.125 8.703125 
Q 5.609375 18.84375 5.609375 36.375 
Q 5.609375 53.953125 15.125 64.078125 
Q 24.65625 74.21875 41.21875 74.21875 
Q 47.75 74.21875 53.53125 72.484375 
Q 59.328125 70.75 64.40625 67.28125 
z
" id="DejaVuSans-67"/>
       <path d="M 34.28125 27.484375 
Q 23.390625 27.484375 19.1875 25 
Q 14.984375 22.515625 14.984375 16.5 
Q 14.984375 11.71875 18.140625 8.90625 
Q 21.296875 6.109375 26.703125 6.109375 
Q 34.1875 6.109375 38.703125 11.40625 
Q 43.21875 16.703125 43.21875 25.484375 
L 43.21875 27.484375 
z
M 52.203125 31.203125 
L 52.203125 0 
L 43.21875 0 
L 43.21875 8.296875 
Q 40.140625 3.328125 35.546875 0.953125 
Q 30.953125 -1.421875 24.3125 -1.421875 
Q 15.921875 -1.421875 10.953125 3.296875 
Q 6 8.015625 6 15.921875 
Q 6 25.140625 12.171875 29.828125 
Q 18.359375 34.515625 30.609375 34.515625 
L 43.21875 34.515625 
L 43.21875 35.40625 
Q 43.21875 41.609375 39.140625 45 
Q 35.0625 48.390625 27.6875 48.390625 
Q 23 48.390625 18.546875 47.265625 
Q 14.109375 46.140625 10.015625 43.890625 
L 10.015625 52.203125 
Q 14.9375 54.109375 19.578125 55.046875 
Q 24.21875 56 28.609375 56 
Q 40.484375 56 46.34375 49.84375 
Q 52.203125 43.703125 52.203125 31.203125 
z
" id="DejaVuSans-97"/>
       <path d="M 8.5 21.578125 
L 8.5 54.6875 
L 17.484375 54.6875 
L 17.484375 21.921875 
Q 17.484375 14.15625 20.5 10.265625 
Q 23.53125 6.390625 29.59375 6.390625 
Q 36.859375 6.390625 41.078125 11.03125 
Q 45.3125 15.671875 45.3125 23.6875 
L 45.3125 54.6875 
L 54.296875 54.6875 
L 54.296875 0 
L 45.3125 0 
L 45.3125 8.40625 
Q 42.046875 3.421875 37.71875 1 
Q 33.40625 -1.421875 27.6875 -1.421875 
Q 18.265625 -1.421875 13.375 4.4375 
Q 8.5 10.296875 8.5 21.578125 
z
M 31.109375 56 
z
" id="DejaVuSans-117"/>
       <path d="M 9.421875 75.984375 
L 18.40625 75.984375 
L 18.40625 0 
L 9.421875 0 
z
" id="DejaVuSans-108"/>
       <path id="DejaVuSans-32"/>
       <path d="M 9.8125 72.90625 
L 19.671875 72.90625 
L 19.671875 0 
L 9.8125 0 
z
" id="DejaVuSans-73"/>
       <path d="M 37.109375 75.984375 
L 37.109375 68.5 
L 28.515625 68.5 
Q 23.6875 68.5 21.796875 66.546875 
Q 19.921875 64.59375 19.921875 59.515625 
L 19.921875 54.6875 
L 34.71875 54.6875 
L 34.71875 47.703125 
L 19.921875 47.703125 
L 19.921875 0 
L 10.890625 0 
L 10.890625 47.703125 
L 2.296875 47.703125 
L 2.296875 54.6875 
L 10.890625 54.6875 
L 10.890625 58.5 
Q 10.890625 67.625 15.140625 71.796875 
Q 19.390625 75.984375 28.609375 75.984375 
z
" id="DejaVuSans-102"/>
       <path d="M 48.78125 52.59375 
L 48.78125 44.1875 
Q 44.96875 46.296875 41.140625 47.34375 
Q 37.3125 48.390625 33.40625 48.390625 
Q 24.65625 48.390625 19.8125 42.84375 
Q 14.984375 37.3125 14.984375 27.296875 
Q 14.984375 17.28125 19.8125 11.734375 
Q 24.65625 6.203125 33.40625 6.203125 
Q 37.3125 6.203125 41.140625 7.25 
Q 44.96875 8.296875 48.78125 10.40625 
L 48.78125 2.09375 
Q 45.015625 0.34375 40.984375 -0.53125 
Q 36.96875 -1.421875 32.421875 -1.421875 
Q 20.0625 -1.421875 12.78125 6.34375 
Q 5.515625 14.109375 5.515625 27.296875 
Q 5.515625 40.671875 12.859375 48.328125 
Q 20.21875 56 33.015625 56 
Q 37.15625 56 41.109375 55.140625 
Q 45.0625 54.296875 48.78125 52.59375 
z
" id="DejaVuSans-99"/>
      </defs>
      <use xlink:href="#DejaVuSans-67"/>
      <use x="69.824219" xlink:href="#DejaVuSans-97"/>
      <use x="131.103516" xlink:href="#DejaVuSans-117"/>
      <use x="194.482422" xlink:href="#DejaVuSans-115"/>
      <use x="246.582031" xlink:href="#DejaVuSans-97"/>
      <use x="307.861328" xlink:href="#DejaVuSans-108"/>
      <use x="335.644531" xlink:href="#DejaVuSans-32"/>
      <use x="367.431641" xlink:href="#DejaVuSans-73"/>
      <use x="396.923828" xlink:href="#DejaVuSans-110"/>
      <use x="460.302734" xlink:href="#DejaVuSans-102"/>
      <use x="495.507812" xlink:href="#DejaVuSans-108"/>
      <use x="523.291016" xlink:href="#DejaVuSans-117"/>
      <use x="586.669922" xlink:href="#DejaVuSans-101"/>
      <use x="648.193359" xlink:href="#DejaVuSans-110"/>
      <use x="711.572266" xlink:href="#DejaVuSans-99"/>
      <use x="766.552734" xlink:href="#DejaVuSans-101"/>
     </g>
    </g>
   </g>
   <g id="line2d_19">
    <path clip-path="url(#p4eedb24725)" d="M 54 126.068344 
L 62.37 104.29729 
L 70.74 96.614936 
L 79.11 97.294228 
L 87.48 100.041892 
L 95.85 102.3848 
L 104.22 103.672016 
L 112.59 104.192483 
L 120.96 104.325018 
L 129.33 104.37809 
L 137.7 104.478805 
L 146.07 104.742332 
L 154.44 104.752505 
L 162.81 104.93504 
L 171.18 105.056247 
L 179.55 105.149195 
L 187.92 105.379475 
L 196.29 105.570149 
L 204.66 105.780832 
L 213.03 105.960749 
L 221.4 106.090656 
L 229.77 106.275192 
L 238.14 106.362696 
L 246.51 106.637398 
L 254.88 106.817559 
L 263.25 106.947269 
L 271.62 107.080553 
L 279.99 107.172005 
L 288.36 107.253192 
L 296.73 107.351348 
L 305.1 107.43777 
L 313.47 107.565734 
L 321.84 107.674652 
L 330.21 107.76646 
L 338.58 107.879347 
L 346.95 107.984059 
L 355.32 108.1233 
L 363.69 108.324893 
L 372.06 108.425794 
L 380.43 108.55075 
L 388.8 108.709638 
L 397.17 108.821016 
L 405.54 108.949217 
L 413.91 109.086044 
L 422.28 109.192725 
L 430.65 109.36021 
L 433 109.426884 
" style="fill:none;stroke:#9b59b6;stroke-linecap:square;stroke-width:1.5;"/>
   </g>
   <g id="line2d_20">
    <path clip-path="url(#p4eedb24725)" d="M 54 146.610848 
L 62.37 120.779372 
L 70.74 111.028929 
L 79.11 108.601544 
L 87.48 110.408172 
L 95.85 113.116668 
L 104.22 113.263412 
L 112.59 113.55475 
L 120.96 114.056861 
L 129.33 114.086733 
L 137.7 114.131322 
L 146.07 114.476736 
L 154.44 114.746431 
L 162.81 115.009613 
L 171.18 115.51069 
L 179.55 115.86986 
L 187.92 116.140808 
L 196.29 116.181941 
L 204.66 116.40606 
L 213.03 117.370822 
L 221.4 117.439491 
L 229.77 117.450628 
L 238.14 117.720026 
L 246.51 118.013104 
L 254.88 117.713646 
L 263.25 119.6745 
L 271.62 120.387989 
L 279.99 120.578841 
L 288.36 120.812027 
L 296.73 120.757846 
L 305.1 120.574366 
L 313.47 120.691799 
L 321.84 120.720437 
L 330.21 120.84261 
L 338.58 120.892727 
L 346.95 121.038358 
L 355.32 121.275655 
L 363.69 121.394712 
L 372.06 121.454917 
L 380.43 121.583171 
L 388.8 121.627019 
L 397.17 121.675897 
L 405.54 122.242889 
L 413.91 123.088996 
L 422.28 123.213148 
L 430.65 125.896003 
L 433 126.202609 
" style="fill:none;stroke:#3498db;stroke-linecap:square;stroke-width:1.5;"/>
   </g>
   <g id="line2d_21">
    <path clip-path="url(#p4eedb24725)" d="M 54 204.520297 
L 62.37 164.764078 
L 70.74 157.332813 
L 79.11 150.632552 
L 87.48 149.635747 
L 95.85 149.209439 
L 104.22 147.607147 
L 112.59 146.36431 
L 120.96 145.409757 
L 129.33 144.283577 
L 137.7 142.961007 
L 146.07 142.124552 
L 154.44 141.234365 
L 162.81 140.365823 
L 171.18 139.871424 
L 179.55 139.206799 
L 187.92 138.782833 
L 196.29 138.543693 
L 204.66 138.434636 
L 213.03 137.974307 
L 221.4 137.526931 
L 229.77 137.491451 
L 238.14 137.402652 
L 246.51 137.193969 
L 254.88 137.258427 
L 263.25 137.431843 
L 271.62 137.537724 
L 279.99 137.456372 
L 288.36 137.289752 
L 296.73 137.133886 
L 305.1 136.861436 
L 313.47 136.697271 
L 321.84 136.681074 
L 330.21 136.556512 
L 338.58 136.791384 
L 346.95 137.414668 
L 355.32 137.73928 
L 363.69 137.966896 
L 372.06 138.228481 
L 380.43 138.476023 
L 388.8 138.516565 
L 397.17 138.479669 
L 405.54 138.560298 
L 413.91 138.432544 
L 422.28 138.19779 
L 430.65 138.205791 
L 433 138.190053 
" style="fill:none;stroke:#a9a9a9;stroke-linecap:square;stroke-width:1.5;"/>
   </g>
   <g id="line2d_22"/>
   <g id="line2d_23"/>
   <g id="line2d_24"/>
   <g id="patch_3">
    <path d="M 54 252 
L 54 34.56 
" style="fill:none;stroke:#000000;stroke-linecap:square;stroke-linejoin:miter;stroke-width:0.8;"/>
   </g>
   <g id="patch_4">
    <path d="M 54 252 
L 388.8 252 
" style="fill:none;stroke:#000000;stroke-linecap:square;stroke-linejoin:miter;stroke-width:0.8;"/>
   </g>
   <g id="text_21">
    <!-- Head to Body -->
    <g transform="translate(180.724688 28.56)scale(0.12 -0.12)">
     <defs>
      <path d="M 9.8125 72.90625 
L 19.671875 72.90625 
L 19.671875 43.015625 
L 55.515625 43.015625 
L 55.515625 72.90625 
L 65.375 72.90625 
L 65.375 0 
L 55.515625 0 
L 55.515625 34.71875 
L 19.671875 34.71875 
L 19.671875 0 
L 9.8125 0 
z
" id="DejaVuSans-72"/>
      <path d="M 45.40625 46.390625 
L 45.40625 75.984375 
L 54.390625 75.984375 
L 54.390625 0 
L 45.40625 0 
L 45.40625 8.203125 
Q 42.578125 3.328125 38.25 0.953125 
Q 33.9375 -1.421875 27.875 -1.421875 
Q 17.96875 -1.421875 11.734375 6.484375 
Q 5.515625 14.40625 5.515625 27.296875 
Q 5.515625 40.1875 11.734375 48.09375 
Q 17.96875 56 27.875 56 
Q 33.9375 56 38.25 53.625 
Q 42.578125 51.265625 45.40625 46.390625 
z
M 14.796875 27.296875 
Q 14.796875 17.390625 18.875 11.75 
Q 22.953125 6.109375 30.078125 6.109375 
Q 37.203125 6.109375 41.296875 11.75 
Q 45.40625 17.390625 45.40625 27.296875 
Q 45.40625 37.203125 41.296875 42.84375 
Q 37.203125 48.484375 30.078125 48.484375 
Q 22.953125 48.484375 18.875 42.84375 
Q 14.796875 37.203125 14.796875 27.296875 
z
" id="DejaVuSans-100"/>
      <path d="M 18.3125 70.21875 
L 18.3125 54.6875 
L 36.8125 54.6875 
L 36.8125 47.703125 
L 18.3125 47.703125 
L 18.3125 18.015625 
Q 18.3125 11.328125 20.140625 9.421875 
Q 21.96875 7.515625 27.59375 7.515625 
L 36.8125 7.515625 
L 36.8125 0 
L 27.59375 0 
Q 17.1875 0 13.234375 3.875 
Q 9.28125 7.765625 9.28125 18.015625 
L 9.28125 47.703125 
L 2.6875 47.703125 
L 2.6875 54.6875 
L 9.28125 54.6875 
L 9.28125 70.21875 
z
" id="DejaVuSans-116"/>
      <path d="M 19.671875 34.8125 
L 19.671875 8.109375 
L 35.5 8.109375 
Q 43.453125 8.109375 47.28125 11.40625 
Q 51.125 14.703125 51.125 21.484375 
Q 51.125 28.328125 47.28125 31.5625 
Q 43.453125 34.8125 35.5 34.8125 
z
M 19.671875 64.796875 
L 19.671875 42.828125 
L 34.28125 42.828125 
Q 41.5 42.828125 45.03125 45.53125 
Q 48.578125 48.25 48.578125 53.8125 
Q 48.578125 59.328125 45.03125 62.0625 
Q 41.5 64.796875 34.28125 64.796875 
z
M 9.8125 72.90625 
L 35.015625 72.90625 
Q 46.296875 72.90625 52.390625 68.21875 
Q 58.5 63.53125 58.5 54.890625 
Q 58.5 48.1875 55.375 44.234375 
Q 52.25 40.28125 46.1875 39.3125 
Q 53.46875 37.75 57.5 32.78125 
Q 61.53125 27.828125 61.53125 20.40625 
Q 61.53125 10.640625 54.890625 5.3125 
Q 48.25 0 35.984375 0 
L 9.8125 0 
z
" id="DejaVuSans-66"/>
      <path d="M 32.171875 -5.078125 
Q 28.375 -14.84375 24.75 -17.8125 
Q 21.140625 -20.796875 15.09375 -20.796875 
L 7.90625 -20.796875 
L 7.90625 -13.28125 
L 13.1875 -13.28125 
Q 16.890625 -13.28125 18.9375 -11.515625 
Q 21 -9.765625 23.484375 -3.21875 
L 25.09375 0.875 
L 2.984375 54.6875 
L 12.5 54.6875 
L 29.59375 11.921875 
L 46.6875 54.6875 
L 56.203125 54.6875 
z
" id="DejaVuSans-121"/>
     </defs>
     <use xlink:href="#DejaVuSans-72"/>
     <use x="75.195312" xlink:href="#DejaVuSans-101"/>
     <use x="136.71875" xlink:href="#DejaVuSans-97"/>
     <use x="197.998047" xlink:href="#DejaVuSans-100"/>
     <use x="261.474609" xlink:href="#DejaVuSans-32"/>
     <use x="293.261719" xlink:href="#DejaVuSans-116"/>
     <use x="332.470703" xlink:href="#DejaVuSans-111"/>
     <use x="393.652344" xlink:href="#DejaVuSans-32"/>
     <use x="425.439453" xlink:href="#DejaVuSans-66"/>
     <use x="494.042969" xlink:href="#DejaVuSans-111"/>
     <use x="555.224609" xlink:href="#DejaVuSans-100"/>
     <use x="618.701172" xlink:href="#DejaVuSans-121"/>
    </g>
   </g>
   <g id="legend_1">
    <g id="line2d_25">
     <path d="M 310.45625 47.658438 
L 330.45625 47.658438 
" style="fill:none;stroke:#9b59b6;stroke-linecap:square;stroke-width:1.5;"/>
    </g>
    <g id="line2d_26"/>
    <g id="text_22">
     <!-- LES -->
     <g transform="translate(338.45625 51.158438)scale(0.1 -0.1)">
      <defs>
       <path d="M 9.8125 72.90625 
L 19.671875 72.90625 
L 19.671875 8.296875 
L 55.171875 8.296875 
L 55.171875 0 
L 9.8125 0 
z
" id="DejaVuSans-76"/>
       <path d="M 9.8125 72.90625 
L 55.90625 72.90625 
L 55.90625 64.59375 
L 19.671875 64.59375 
L 19.671875 43.015625 
L 54.390625 43.015625 
L 54.390625 34.71875 
L 19.671875 34.71875 
L 19.671875 8.296875 
L 56.78125 8.296875 
L 56.78125 0 
L 9.8125 0 
z
" id="DejaVuSans-69"/>
       <path d="M 53.515625 70.515625 
L 53.515625 60.890625 
Q 47.90625 63.578125 42.921875 64.890625 
Q 37.9375 66.21875 33.296875 66.21875 
Q 25.25 66.21875 20.875 63.09375 
Q 16.5 59.96875 16.5 54.203125 
Q 16.5 49.359375 19.40625 46.890625 
Q 22.3125 44.4375 30.421875 42.921875 
L 36.375 41.703125 
Q 47.40625 39.59375 52.65625 34.296875 
Q 57.90625 29 57.90625 20.125 
Q 57.90625 9.515625 50.796875 4.046875 
Q 43.703125 -1.421875 29.984375 -1.421875 
Q 24.8125 -1.421875 18.96875 -0.25 
Q 13.140625 0.921875 6.890625 3.21875 
L 6.890625 13.375 
Q 12.890625 10.015625 18.65625 8.296875 
Q 24.421875 6.59375 29.984375 6.59375 
Q 38.421875 6.59375 43.015625 9.90625 
Q 47.609375 13.234375 47.609375 19.390625 
Q 47.609375 24.75 44.3125 27.78125 
Q 41.015625 30.8125 33.5 32.328125 
L 27.484375 33.5 
Q 16.453125 35.6875 11.515625 40.375 
Q 6.59375 45.0625 6.59375 53.421875 
Q 6.59375 63.09375 13.40625 68.65625 
Q 20.21875 74.21875 32.171875 74.21875 
Q 37.3125 74.21875 42.625 73.28125 
Q 47.953125 72.359375 53.515625 70.515625 
z
" id="DejaVuSans-83"/>
      </defs>
      <use xlink:href="#DejaVuSans-76"/>
      <use x="55.712891" xlink:href="#DejaVuSans-69"/>
      <use x="118.896484" xlink:href="#DejaVuSans-83"/>
     </g>
    </g>
    <g id="line2d_27">
     <path d="M 310.45625 62.336563 
L 330.45625 62.336563 
" style="fill:none;stroke:#3498db;stroke-linecap:square;stroke-width:1.5;"/>
    </g>
    <g id="line2d_28"/>
    <g id="text_23">
     <!-- SHM -->
     <g transform="translate(338.45625 65.836563)scale(0.1 -0.1)">
      <defs>
       <path d="M 9.8125 72.90625 
L 24.515625 72.90625 
L 43.109375 23.296875 
L 61.8125 72.90625 
L 76.515625 72.90625 
L 76.515625 0 
L 66.890625 0 
L 66.890625 64.015625 
L 48.09375 14.015625 
L 38.1875 14.015625 
L 19.390625 64.015625 
L 19.390625 0 
L 9.8125 0 
z
" id="DejaVuSans-77"/>
      </defs>
      <use xlink:href="#DejaVuSans-83"/>
      <use x="63.476562" xlink:href="#DejaVuSans-72"/>
      <use x="138.671875" xlink:href="#DejaVuSans-77"/>
     </g>
    </g>
    <g id="line2d_29">
     <path d="M 310.45625 77.014688 
L 330.45625 77.014688 
" style="fill:none;stroke:#a9a9a9;stroke-linecap:square;stroke-width:1.5;"/>
    </g>
    <g id="line2d_30"/>
    <g id="text_24">
     <!-- Shuffled -->
     <g transform="translate(338.45625 80.514688)scale(0.1 -0.1)">
      <defs>
       <path d="M 54.890625 33.015625 
L 54.890625 0 
L 45.90625 0 
L 45.90625 32.71875 
Q 45.90625 40.484375 42.875 44.328125 
Q 39.84375 48.1875 33.796875 48.1875 
Q 26.515625 48.1875 22.3125 43.546875 
Q 18.109375 38.921875 18.109375 30.90625 
L 18.109375 0 
L 9.078125 0 
L 9.078125 75.984375 
L 18.109375 75.984375 
L 18.109375 46.1875 
Q 21.34375 51.125 25.703125 53.5625 
Q 30.078125 56 35.796875 56 
Q 45.21875 56 50.046875 50.171875 
Q 54.890625 44.34375 54.890625 33.015625 
z
" id="DejaVuSans-104"/>
      </defs>
      <use xlink:href="#DejaVuSans-83"/>
      <use x="63.476562" xlink:href="#DejaVuSans-104"/>
      <use x="126.855469" xlink:href="#DejaVuSans-117"/>
      <use x="190.234375" xlink:href="#DejaVuSans-102"/>
      <use x="225.439453" xlink:href="#DejaVuSans-102"/>
      <use x="260.644531" xlink:href="#DejaVuSans-108"/>
      <use x="288.427734" xlink:href="#DejaVuSans-101"/>
      <use x="349.951172" xlink:href="#DejaVuSans-100"/>
     </g>
    </g>
   </g>
  </g>
 </g>
 <defs>
  <clipPath id="p4eedb24725">
   <rect height="217.44" width="334.8" x="54" y="34.56"/>
  </clipPath>
 </defs>
</svg>
