<?xml version="1.0" encoding="utf-8" standalone="no"?>
<!DOCTYPE svg PUBLIC "-//W3C//DTD SVG 1.1//EN"
  "http://www.w3.org/Graphics/SVG/1.1/DTD/svg11.dtd">
<!-- Created with matplotlib (https://matplotlib.org/) -->
<svg height="504pt" version="1.1" viewBox="0 0 504 504" width="504pt" xmlns="http://www.w3.org/2000/svg" xmlns:xlink="http://www.w3.org/1999/xlink">
 <metadata>
  <rdf:RDF xmlns:cc="http://creativecommons.org/ns#" xmlns:dc="http://purl.org/dc/elements/1.1/" xmlns:rdf="http://www.w3.org/1999/02/22-rdf-syntax-ns#">
   <cc:Work>
    <dc:type rdf:resource="http://purl.org/dc/dcmitype/StillImage"/>
    <dc:date>2021-08-15T15:17:33.166466</dc:date>
    <dc:format>image/svg+xml</dc:format>
    <dc:creator>
     <cc:Agent>
      <dc:title>Matplotlib v3.3.4, https://matplotlib.org/</dc:title>
     </cc:Agent>
    </dc:creator>
   </cc:Work>
  </rdf:RDF>
 </metadata>
 <defs>
  <style type="text/css">*{stroke-linecap:butt;stroke-linejoin:round;}</style>
 </defs>
 <g id="figure_1">
  <g id="patch_1">
   <path d="M 0 504 
L 504 504 
L 504 0 
L 0 0 
z
" style="fill:none;"/>
  </g>
  <g id="axes_1">
   <g id="patch_2">
    <path d="M 63 233.443636 
L 453.6 233.443636 
L 453.6 60.48 
L 63 60.48 
z
" style="fill:#ffffff;"/>
   </g>
   <g id="matplotlib.axis_1"/>
   <g id="matplotlib.axis_2"/>
   <g id="line2d_1">
    <path clip-path="url(#p7c8cf0335c)" d="M 80.754545 113.552174 
L 82.538922 113.268606 
L 84.323298 118.475032 
L 86.107675 128.385883 
L 87.892051 130.933181 
L 89.676428 131.358614 
L 91.460804 143.710106 
L 93.24518 159.672887 
L 95.029557 170.636674 
L 96.813933 176.906967 
L 98.59831 177.667973 
L 100.382686 170.880085 
L 102.167063 163.587836 
L 103.951439 163.808667 
L 107.520192 180.447925 
L 109.304568 179.120575 
L 111.088945 175.999857 
L 112.873321 176.432096 
L 114.657698 172.99476 
L 116.442074 169.018818 
L 118.22645 173.326199 
L 120.010827 169.739794 
L 121.795203 154.294591 
L 123.57958 139.929353 
L 125.363956 119.951715 
L 127.148333 103.311725 
L 128.932709 102.8973 
L 130.717085 106.618038 
L 132.501462 110.599555 
L 134.285838 111.358135 
L 136.070215 101.509778 
L 137.854591 90.418309 
L 139.638968 89.488667 
L 141.423344 93.852324 
L 143.20772 104.440222 
L 144.992097 112.809679 
L 146.776473 107.665622 
L 148.56085 104.501605 
L 150.345226 109.799773 
L 152.129603 119.531876 
L 155.698355 146.828099 
L 157.482732 152.321443 
L 159.267108 155.216755 
L 161.051485 163.747783 
L 162.835861 172.866699 
L 164.620238 176.229406 
L 166.404614 168.379077 
L 168.18899 154.628885 
L 169.973367 143.093079 
L 171.757743 135.768116 
L 173.54212 139.251278 
L 175.326496 146.37747 
L 177.110873 145.706795 
L 178.895249 135.373441 
L 180.679625 119.005853 
L 182.464002 103.960911 
L 184.248378 94.077276 
L 186.032755 90.603069 
L 187.817131 92.678746 
L 189.601508 91.059636 
L 191.385884 79.451111 
L 193.17026 71.78647 
L 194.954637 68.341983 
L 196.739013 69.467952 
L 200.307766 95.959727 
L 202.092143 102.548815 
L 203.876519 100.559512 
L 205.660895 92.031096 
L 207.445272 90.323759 
L 209.229648 98.769508 
L 211.014025 108.063297 
L 212.798401 120.066157 
L 214.582778 131.09852 
L 216.367154 136.284943 
L 219.935907 153.670782 
L 221.720283 158.641355 
L 223.50466 161.973654 
L 225.289036 154.189396 
L 227.073413 137.558263 
L 228.857789 125.609449 
L 230.642165 112.346174 
L 232.426542 97.318895 
L 234.210918 88.421078 
L 235.995295 84.545009 
L 237.779671 86.24464 
L 239.564048 92.320833 
L 241.348424 102.083076 
L 243.1328 114.143279 
L 244.917177 122.851215 
L 246.701553 130.195397 
L 248.48593 142.446402 
L 250.270306 150.599622 
L 252.054683 148.413918 
L 253.839059 143.863905 
L 255.623435 142.637202 
L 257.407812 142.27982 
L 259.192188 138.173745 
L 260.976565 131.859223 
L 262.760941 129.046927 
L 264.545317 127.25468 
L 266.329694 121.751292 
L 268.11407 119.762466 
L 269.898447 118.504964 
L 273.4672 104.111478 
L 275.251576 101.741052 
L 277.035952 106.892558 
L 278.820329 116.481935 
L 280.604705 119.823415 
L 282.389082 120.159626 
L 284.173458 123.478152 
L 285.957835 127.104738 
L 287.742211 135.113585 
L 289.526587 141.53113 
L 291.310964 140.352041 
L 293.09534 136.469288 
L 294.879717 129.826056 
L 296.664093 125.66657 
L 298.44847 128.521543 
L 300.232846 132.086502 
L 302.017222 133.471803 
L 303.801599 134.060932 
L 305.585975 134.841367 
L 309.154728 138.839294 
L 310.939105 140.522257 
L 312.723481 143.589952 
L 314.507857 144.675887 
L 316.292234 143.361874 
L 318.07661 143.221535 
L 319.860987 144.747314 
L 321.645363 145.069215 
L 323.42974 143.959313 
L 325.214116 145.772758 
L 326.998492 154.77033 
L 328.782869 168.196443 
L 330.567245 179.582991 
L 332.351622 186.496834 
L 334.135998 192.875684 
L 335.920375 205.456523 
L 337.704751 219.633095 
L 339.489127 225.581653 
L 341.273504 225.441915 
L 343.05788 223.133878 
L 344.842257 214.831436 
L 348.41101 187.977981 
L 351.979762 172.117565 
L 353.764139 157.693168 
L 355.548515 145.302059 
L 357.332892 139.166488 
L 359.117268 129.982024 
L 360.901645 119.614582 
L 362.686021 112.003739 
L 364.470397 106.585789 
L 366.254774 106.118161 
L 368.03915 107.34406 
L 369.823527 108.010303 
L 371.607903 111.36898 
L 373.39228 119.953015 
L 376.961032 144.042842 
L 378.745409 149.439464 
L 380.529785 149.998655 
L 382.314162 148.681862 
L 384.098538 143.387812 
L 385.882915 137.578594 
L 389.451667 132.956615 
L 391.236044 129.32908 
L 393.02042 128.2861 
L 394.804797 130.535998 
L 396.589173 134.352515 
L 398.37355 140.618189 
L 400.157926 147.330045 
L 401.942302 151.277961 
L 403.726679 151.835014 
L 409.079808 147.786113 
L 410.864185 147.589175 
L 412.648561 149.527506 
L 414.432937 151.871563 
L 416.217314 152.479209 
L 418.00169 151.672605 
L 419.786067 151.14315 
L 421.570443 150.914109 
L 423.35482 150.864087 
L 425.139196 150.271318 
L 426.923572 149.206073 
L 428.707949 148.836659 
L 430.492325 148.742548 
L 432.276702 148.293456 
L 434.061078 148.660547 
L 435.845455 149.618023 
L 435.845455 149.618023 
" style="fill:none;stroke:#9400d3;stroke-linecap:square;stroke-width:1.5;"/>
   </g>
   <g id="legend_1">
    <g id="line2d_2">
     <path d="M 385.789062 73.578438 
L 405.789062 73.578438 
" style="fill:none;stroke:#9400d3;stroke-linecap:square;stroke-width:1.5;"/>
    </g>
    <g id="line2d_3"/>
    <g id="text_1">
     <!-- Cause -->
     <g transform="translate(413.789062 77.078438)scale(0.1 -0.1)">
      <defs>
       <path d="M 64.40625 67.28125 
L 64.40625 56.890625 
Q 59.421875 61.53125 53.78125 63.8125 
Q 48.140625 66.109375 41.796875 66.109375 
Q 29.296875 66.109375 22.65625 58.46875 
Q 16.015625 50.828125 16.015625 36.375 
Q 16.015625 21.96875 22.65625 14.328125 
Q 29.296875 6.6875 41.796875 6.6875 
Q 48.140625 6.6875 53.78125 8.984375 
Q 59.421875 11.28125 64.40625 15.921875 
L 64.40625 5.609375 
Q 59.234375 2.09375 53.4375 0.328125 
Q 47.65625 -1.421875 41.21875 -1.421875 
Q 24.65625 -1.421875 15.125 8.703125 
Q 5.609375 18.84375 5.609375 36.375 
Q 5.609375 53.953125 15.125 64.078125 
Q 24.65625 74.21875 41.21875 74.21875 
Q 47.75 74.21875 53.53125 72.484375 
Q 59.328125 70.75 64.40625 67.28125 
z
" id="DejaVuSans-67"/>
       <path d="M 34.28125 27.484375 
Q 23.390625 27.484375 19.1875 25 
Q 14.984375 22.515625 14.984375 16.5 
Q 14.984375 11.71875 18.140625 8.90625 
Q 21.296875 6.109375 26.703125 6.109375 
Q 34.1875 6.109375 38.703125 11.40625 
Q 43.21875 16.703125 43.21875 25.484375 
L 43.21875 27.484375 
z
M 52.203125 31.203125 
L 52.203125 0 
L 43.21875 0 
L 43.21875 8.296875 
Q 40.140625 3.328125 35.546875 0.953125 
Q 30.953125 -1.421875 24.3125 -1.421875 
Q 15.921875 -1.421875 10.953125 3.296875 
Q 6 8.015625 6 15.921875 
Q 6 25.140625 12.171875 29.828125 
Q 18.359375 34.515625 30.609375 34.515625 
L 43.21875 34.515625 
L 43.21875 35.40625 
Q 43.21875 41.609375 39.140625 45 
Q 35.0625 48.390625 27.6875 48.390625 
Q 23 48.390625 18.546875 47.265625 
Q 14.109375 46.140625 10.015625 43.890625 
L 10.015625 52.203125 
Q 14.9375 54.109375 19.578125 55.046875 
Q 24.21875 56 28.609375 56 
Q 40.484375 56 46.34375 49.84375 
Q 52.203125 43.703125 52.203125 31.203125 
z
" id="DejaVuSans-97"/>
       <path d="M 8.5 21.578125 
L 8.5 54.6875 
L 17.484375 54.6875 
L 17.484375 21.921875 
Q 17.484375 14.15625 20.5 10.265625 
Q 23.53125 6.390625 29.59375 6.390625 
Q 36.859375 6.390625 41.078125 11.03125 
Q 45.3125 15.671875 45.3125 23.6875 
L 45.3125 54.6875 
L 54.296875 54.6875 
L 54.296875 0 
L 45.3125 0 
L 45.3125 8.40625 
Q 42.046875 3.421875 37.71875 1 
Q 33.40625 -1.421875 27.6875 -1.421875 
Q 18.265625 -1.421875 13.375 4.4375 
Q 8.5 10.296875 8.5 21.578125 
z
M 31.109375 56 
z
" id="DejaVuSans-117"/>
       <path d="M 44.28125 53.078125 
L 44.28125 44.578125 
Q 40.484375 46.53125 36.375 47.5 
Q 32.28125 48.484375 27.875 48.484375 
Q 21.1875 48.484375 17.84375 46.4375 
Q 14.5 44.390625 14.5 40.28125 
Q 14.5 37.15625 16.890625 35.375 
Q 19.28125 33.59375 26.515625 31.984375 
L 29.59375 31.296875 
Q 39.15625 29.25 43.1875 25.515625 
Q 47.21875 21.78125 47.21875 15.09375 
Q 47.21875 7.46875 41.1875 3.015625 
Q 35.15625 -1.421875 24.609375 -1.421875 
Q 20.21875 -1.421875 15.453125 -0.5625 
Q 10.6875 0.296875 5.421875 2 
L 5.421875 11.28125 
Q 10.40625 8.6875 15.234375 7.390625 
Q 20.0625 6.109375 24.8125 6.109375 
Q 31.15625 6.109375 34.5625 8.28125 
Q 37.984375 10.453125 37.984375 14.40625 
Q 37.984375 18.0625 35.515625 20.015625 
Q 33.0625 21.96875 24.703125 23.78125 
L 21.578125 24.515625 
Q 13.234375 26.265625 9.515625 29.90625 
Q 5.8125 33.546875 5.8125 39.890625 
Q 5.8125 47.609375 11.28125 51.796875 
Q 16.75 56 26.8125 56 
Q 31.78125 56 36.171875 55.265625 
Q 40.578125 54.546875 44.28125 53.078125 
z
" id="DejaVuSans-115"/>
       <path d="M 56.203125 29.59375 
L 56.203125 25.203125 
L 14.890625 25.203125 
Q 15.484375 15.921875 20.484375 11.0625 
Q 25.484375 6.203125 34.421875 6.203125 
Q 39.59375 6.203125 44.453125 7.46875 
Q 49.3125 8.734375 54.109375 11.28125 
L 54.109375 2.78125 
Q 49.265625 0.734375 44.1875 -0.34375 
Q 39.109375 -1.421875 33.890625 -1.421875 
Q 20.796875 -1.421875 13.15625 6.1875 
Q 5.515625 13.8125 5.515625 26.8125 
Q 5.515625 40.234375 12.765625 48.109375 
Q 20.015625 56 32.328125 56 
Q 43.359375 56 49.78125 48.890625 
Q 56.203125 41.796875 56.203125 29.59375 
z
M 47.21875 32.234375 
Q 47.125 39.59375 43.09375 43.984375 
Q 39.0625 48.390625 32.421875 48.390625 
Q 24.90625 48.390625 20.390625 44.140625 
Q 15.875 39.890625 15.1875 32.171875 
z
" id="DejaVuSans-101"/>
      </defs>
      <use xlink:href="#DejaVuSans-67"/>
      <use x="69.824219" xlink:href="#DejaVuSans-97"/>
      <use x="131.103516" xlink:href="#DejaVuSans-117"/>
      <use x="194.482422" xlink:href="#DejaVuSans-115"/>
      <use x="246.582031" xlink:href="#DejaVuSans-101"/>
     </g>
    </g>
   </g>
  </g>
  <g id="axes_2">
   <g id="patch_3">
    <path d="M 63 441 
L 453.6 441 
L 453.6 268.036364 
L 63 268.036364 
z
" style="fill:#ffffff;"/>
   </g>
   <g id="matplotlib.axis_3">
    <g id="text_2">
     <!-- Time(sec) -->
     <g transform="translate(233.734375 452.598437)scale(0.1 -0.1)">
      <defs>
       <path d="M -0.296875 72.90625 
L 61.375 72.90625 
L 61.375 64.59375 
L 35.5 64.59375 
L 35.5 0 
L 25.59375 0 
L 25.59375 64.59375 
L -0.296875 64.59375 
z
" id="DejaVuSans-84"/>
       <path d="M 9.421875 54.6875 
L 18.40625 54.6875 
L 18.40625 0 
L 9.421875 0 
z
M 9.421875 75.984375 
L 18.40625 75.984375 
L 18.40625 64.59375 
L 9.421875 64.59375 
z
" id="DejaVuSans-105"/>
       <path d="M 52 44.1875 
Q 55.375 50.25 60.0625 53.125 
Q 64.75 56 71.09375 56 
Q 79.640625 56 84.28125 50.015625 
Q 88.921875 44.046875 88.921875 33.015625 
L 88.921875 0 
L 79.890625 0 
L 79.890625 32.71875 
Q 79.890625 40.578125 77.09375 44.375 
Q 74.3125 48.1875 68.609375 48.1875 
Q 61.625 48.1875 57.5625 43.546875 
Q 53.515625 38.921875 53.515625 30.90625 
L 53.515625 0 
L 44.484375 0 
L 44.484375 32.71875 
Q 44.484375 40.625 41.703125 44.40625 
Q 38.921875 48.1875 33.109375 48.1875 
Q 26.21875 48.1875 22.15625 43.53125 
Q 18.109375 38.875 18.109375 30.90625 
L 18.109375 0 
L 9.078125 0 
L 9.078125 54.6875 
L 18.109375 54.6875 
L 18.109375 46.1875 
Q 21.1875 51.21875 25.484375 53.609375 
Q 29.78125 56 35.6875 56 
Q 41.65625 56 45.828125 52.96875 
Q 50 49.953125 52 44.1875 
z
" id="DejaVuSans-109"/>
       <path d="M 31 75.875 
Q 24.46875 64.65625 21.28125 53.65625 
Q 18.109375 42.671875 18.109375 31.390625 
Q 18.109375 20.125 21.3125 9.0625 
Q 24.515625 -2 31 -13.1875 
L 23.1875 -13.1875 
Q 15.875 -1.703125 12.234375 9.375 
Q 8.59375 20.453125 8.59375 31.390625 
Q 8.59375 42.28125 12.203125 53.3125 
Q 15.828125 64.359375 23.1875 75.875 
z
" id="DejaVuSans-40"/>
       <path d="M 48.78125 52.59375 
L 48.78125 44.1875 
Q 44.96875 46.296875 41.140625 47.34375 
Q 37.3125 48.390625 33.40625 48.390625 
Q 24.65625 48.390625 19.8125 42.84375 
Q 14.984375 37.3125 14.984375 27.296875 
Q 14.984375 17.28125 19.8125 11.734375 
Q 24.65625 6.203125 33.40625 6.203125 
Q 37.3125 6.203125 41.140625 7.25 
Q 44.96875 8.296875 48.78125 10.40625 
L 48.78125 2.09375 
Q 45.015625 0.34375 40.984375 -0.53125 
Q 36.96875 -1.421875 32.421875 -1.421875 
Q 20.0625 -1.421875 12.78125 6.34375 
Q 5.515625 14.109375 5.515625 27.296875 
Q 5.515625 40.671875 12.859375 48.328125 
Q 20.21875 56 33.015625 56 
Q 37.15625 56 41.109375 55.140625 
Q 45.0625 54.296875 48.78125 52.59375 
z
" id="DejaVuSans-99"/>
       <path d="M 8.015625 75.875 
L 15.828125 75.875 
Q 23.140625 64.359375 26.78125 53.3125 
Q 30.421875 42.28125 30.421875 31.390625 
Q 30.421875 20.453125 26.78125 9.375 
Q 23.140625 -1.703125 15.828125 -13.1875 
L 8.015625 -13.1875 
Q 14.5 -2 17.703125 9.0625 
Q 20.90625 20.125 20.90625 31.390625 
Q 20.90625 42.671875 17.703125 53.65625 
Q 14.5 64.65625 8.015625 75.875 
z
" id="DejaVuSans-41"/>
      </defs>
      <use xlink:href="#DejaVuSans-84"/>
      <use x="57.958984" xlink:href="#DejaVuSans-105"/>
      <use x="85.742188" xlink:href="#DejaVuSans-109"/>
      <use x="183.154297" xlink:href="#DejaVuSans-101"/>
      <use x="244.677734" xlink:href="#DejaVuSans-40"/>
      <use x="283.691406" xlink:href="#DejaVuSans-115"/>
      <use x="335.791016" xlink:href="#DejaVuSans-101"/>
      <use x="397.314453" xlink:href="#DejaVuSans-99"/>
      <use x="452.294922" xlink:href="#DejaVuSans-41"/>
     </g>
    </g>
   </g>
   <g id="matplotlib.axis_4">
    <g id="text_3">
     <!-- Dim-1 -->
     <g transform="translate(56.920312 369.612713)rotate(-90)scale(0.1 -0.1)">
      <defs>
       <path d="M 19.671875 64.796875 
L 19.671875 8.109375 
L 31.59375 8.109375 
Q 46.6875 8.109375 53.6875 14.9375 
Q 60.6875 21.78125 60.6875 36.53125 
Q 60.6875 51.171875 53.6875 57.984375 
Q 46.6875 64.796875 31.59375 64.796875 
z
M 9.8125 72.90625 
L 30.078125 72.90625 
Q 51.265625 72.90625 61.171875 64.09375 
Q 71.09375 55.28125 71.09375 36.53125 
Q 71.09375 17.671875 61.125 8.828125 
Q 51.171875 0 30.078125 0 
L 9.8125 0 
z
" id="DejaVuSans-68"/>
       <path d="M 4.890625 31.390625 
L 31.203125 31.390625 
L 31.203125 23.390625 
L 4.890625 23.390625 
z
" id="DejaVuSans-45"/>
       <path d="M 12.40625 8.296875 
L 28.515625 8.296875 
L 28.515625 63.921875 
L 10.984375 60.40625 
L 10.984375 69.390625 
L 28.421875 72.90625 
L 38.28125 72.90625 
L 38.28125 8.296875 
L 54.390625 8.296875 
L 54.390625 0 
L 12.40625 0 
z
" id="DejaVuSans-49"/>
      </defs>
      <use xlink:href="#DejaVuSans-68"/>
      <use x="77.001953" xlink:href="#DejaVuSans-105"/>
      <use x="104.785156" xlink:href="#DejaVuSans-109"/>
      <use x="202.197266" xlink:href="#DejaVuSans-45"/>
      <use x="238.28125" xlink:href="#DejaVuSans-49"/>
     </g>
    </g>
   </g>
   <g id="line2d_4">
    <path clip-path="url(#p39a170adee)" d="M 80.754545 417.860285 
L 82.538922 423.092114 
L 84.323298 427.96044 
L 86.107675 432.053388 
L 87.892051 433.138017 
L 89.676428 430.877705 
L 91.460804 429.161836 
L 93.24518 429.286666 
L 95.029557 429.82142 
L 96.813933 430.619212 
L 98.59831 430.233428 
L 100.382686 427.281119 
L 102.167063 421.186698 
L 105.735815 406.400867 
L 107.520192 400.132181 
L 109.304568 391.657065 
L 111.088945 380.804649 
L 112.873321 371.785882 
L 114.657698 363.924162 
L 116.442074 358.538344 
L 118.22645 355.177427 
L 120.010827 353.799132 
L 121.795203 354.705218 
L 123.57958 356.74569 
L 127.148333 361.941168 
L 128.932709 362.204559 
L 130.717085 356.721932 
L 132.501462 349.393436 
L 134.285838 342.903693 
L 136.070215 339.293209 
L 137.854591 337.573145 
L 139.638968 335.350634 
L 141.423344 334.132678 
L 143.20772 333.350145 
L 144.992097 335.808211 
L 146.776473 341.986844 
L 148.56085 350.10776 
L 150.345226 356.458202 
L 152.129603 358.930931 
L 153.913979 357.811149 
L 155.698355 353.703023 
L 157.482732 348.01738 
L 159.267108 343.111114 
L 161.051485 341.056846 
L 162.835861 338.597464 
L 164.620238 336.891791 
L 166.404614 337.535642 
L 168.18899 340.953305 
L 169.973367 346.458346 
L 171.757743 351.523388 
L 173.54212 353.694169 
L 175.326496 356.188088 
L 177.110873 357.593334 
L 178.895249 354.371523 
L 180.679625 348.983226 
L 182.464002 342.329303 
L 184.248378 334.674789 
L 186.032755 326.318551 
L 187.817131 318.533099 
L 189.601508 311.930292 
L 191.385884 308.501562 
L 193.17026 306.047722 
L 194.954637 305.056438 
L 196.739013 308.293015 
L 200.307766 319.503295 
L 202.092143 322.786285 
L 203.876519 323.321615 
L 205.660895 323.257306 
L 207.445272 323.590514 
L 209.229648 323.791376 
L 211.014025 325.690038 
L 212.798401 326.070682 
L 216.367154 323.392452 
L 218.15153 323.500045 
L 219.935907 327.840939 
L 221.720283 334.458697 
L 223.50466 351.888617 
L 225.289036 366.010968 
L 227.073413 368.472003 
L 228.857789 369.765062 
L 230.642165 369.365499 
L 232.426542 367.866418 
L 234.210918 366.100944 
L 235.995295 366.423388 
L 237.779671 368.500422 
L 239.564048 372.577849 
L 241.348424 366.271163 
L 243.1328 367.059696 
L 244.917177 368.257501 
L 246.701553 363.404273 
L 248.48593 371.652352 
L 250.270306 378.097106 
L 252.054683 385.145433 
L 255.623435 394.709777 
L 257.407812 392.92942 
L 259.192188 388.062866 
L 260.976565 381.025107 
L 262.760941 384.89578 
L 264.545317 391.597129 
L 266.329694 384.528522 
L 268.11407 374.507007 
L 269.898447 360.310369 
L 273.4672 329.814418 
L 275.251576 322.81004 
L 277.035952 319.654732 
L 280.604705 310.583032 
L 282.389082 305.551473 
L 284.173458 301.579476 
L 285.957835 302.167928 
L 287.742211 305.215321 
L 289.526587 307.933968 
L 291.310964 308.094373 
L 294.879717 303.498657 
L 296.664093 302.582114 
L 298.44847 301.95784 
L 302.017222 301.385764 
L 307.370352 300.629411 
L 309.154728 300.518278 
L 312.723481 300.491761 
L 316.292234 300.156794 
L 318.07661 300.24931 
L 326.998492 301.23052 
L 328.782869 301.304575 
L 330.567245 302.283532 
L 332.351622 307.003256 
L 337.704751 328.102709 
L 339.489127 332.422774 
L 341.273504 335.912455 
L 343.05788 338.651912 
L 344.842257 340.530974 
L 346.626633 342.066703 
L 348.41101 342.263772 
L 350.195386 338.822209 
L 351.979762 332.63527 
L 353.764139 324.195547 
L 355.548515 316.487513 
L 357.332892 311.191065 
L 359.117268 306.517379 
L 360.901645 302.577394 
L 364.470397 295.794269 
L 366.254774 292.966658 
L 368.03915 289.27166 
L 369.823527 285.01522 
L 375.176656 278.202407 
L 376.961032 276.586836 
L 378.745409 275.898347 
L 380.529785 276.770577 
L 382.314162 280.829636 
L 384.098538 286.704116 
L 385.882915 294.625045 
L 387.667291 304.353667 
L 389.451667 316.998526 
L 391.236044 330.934144 
L 393.02042 342.494347 
L 394.804797 350.889834 
L 396.589173 356.660465 
L 398.37355 360.35528 
L 400.157926 361.251916 
L 401.942302 359.229051 
L 403.726679 356.072762 
L 405.511055 353.693666 
L 407.295432 348.312144 
L 409.079808 342.146707 
L 410.864185 338.459225 
L 412.648561 337.764244 
L 414.432937 339.816823 
L 416.217314 343.038275 
L 418.00169 347.920661 
L 419.786067 353.840533 
L 421.570443 358.669561 
L 423.35482 361.372053 
L 425.139196 364.790878 
L 426.923572 369.923191 
L 428.707949 371.0576 
L 430.492325 367.021133 
L 432.276702 356.771164 
L 434.061078 343.249102 
L 435.845455 326.397174 
L 435.845455 326.397174 
" style="fill:none;stroke:#483d8b;stroke-linecap:square;stroke-width:1.5;"/>
   </g>
   <g id="line2d_5">
    <path clip-path="url(#p39a170adee)" d="M 80.754545 328.180971 
L 82.538922 328.093182 
L 84.323298 318.864871 
L 86.107675 350.399086 
L 87.892051 335.709458 
L 89.676428 330.741643 
L 91.460804 336.764329 
L 93.24518 347.934531 
L 95.029557 367.964641 
L 96.813933 358.400594 
L 100.382686 372.889158 
L 102.167063 359.547657 
L 103.951439 340.209716 
L 105.735815 345.683391 
L 107.520192 335.743275 
L 109.304568 343.249108 
L 111.088945 331.973711 
L 112.873321 360.711857 
L 114.657698 369.468476 
L 116.442074 356.447178 
L 118.22645 349.997016 
L 120.010827 361.339199 
L 121.795203 359.103658 
L 123.57958 381.60532 
L 125.363956 339.880947 
L 127.148333 348.248745 
L 128.932709 349.588648 
L 130.717085 381.222207 
L 132.501462 384.833339 
L 134.285838 348.637234 
L 136.070215 343.970858 
L 137.854591 350.937978 
L 139.638968 352.419641 
L 141.423344 348.716802 
L 143.20772 355.508441 
L 144.992097 380.37305 
L 146.776473 369.671039 
L 148.56085 321.50965 
L 150.345226 321.246358 
L 152.129603 331.496454 
L 153.913979 328.979891 
L 155.698355 336.48948 
L 157.482732 363.940223 
L 159.267108 349.384559 
L 161.051485 377.826811 
L 162.835861 328.930389 
L 164.620238 365.734501 
L 166.404614 371.701464 
L 168.18899 365.432945 
L 169.973367 341.946159 
L 171.757743 342.741924 
L 173.54212 373.290626 
L 175.326496 395.27083 
L 177.110873 369.77799 
L 178.895249 355.62627 
L 180.679625 359.280653 
L 182.464002 357.009715 
L 184.248378 361.313652 
L 186.032755 360.688958 
L 187.817131 371.523816 
L 189.601508 379.275387 
L 191.385884 370.923647 
L 193.17026 348.498175 
L 194.954637 359.408141 
L 196.739013 349.741163 
L 198.52339 356.41528 
L 200.307766 360.205233 
L 202.092143 368.900251 
L 203.876519 358.748015 
L 205.660895 357.376942 
L 207.445272 350.211271 
L 209.229648 369.360694 
L 211.014025 363.618644 
L 212.798401 369.194433 
L 214.582778 338.199094 
L 216.367154 335.910472 
L 218.15153 351.87369 
L 221.720283 368.929172 
L 223.50466 372.878571 
L 225.289036 363.816761 
L 227.073413 373.545421 
L 228.857789 373.651424 
L 230.642165 358.562019 
L 232.426542 339.318377 
L 234.210918 347.026499 
L 235.995295 339.200229 
L 237.779671 339.516487 
L 239.564048 337.599981 
L 241.348424 331.00459 
L 243.1328 326.358013 
L 244.917177 354.761594 
L 246.701553 370.216931 
L 248.48593 378.099993 
L 250.270306 365.119901 
L 252.054683 379.29772 
L 253.839059 375.393527 
L 255.623435 383.150483 
L 257.407812 389.442787 
L 259.192188 345.507644 
L 260.976565 332.467135 
L 262.760941 341.96905 
L 264.545317 349.950633 
L 266.329694 337.932425 
L 268.11407 357.147813 
L 269.898447 371.078484 
L 271.682823 361.490313 
L 273.4672 345.416113 
L 275.251576 350.374723 
L 277.035952 334.705328 
L 278.820329 328.811618 
L 280.604705 334.971013 
L 284.173458 366.253207 
L 285.957835 354.149092 
L 287.742211 330.577649 
L 289.526587 323.747285 
L 291.310964 329.891259 
L 293.09534 323.915056 
L 296.664093 371.064154 
L 298.44847 351.393684 
L 300.232846 336.031143 
L 302.017222 333.859203 
L 303.801599 325.944231 
L 305.585975 348.135812 
L 307.370352 339.545391 
L 309.154728 342.399763 
L 310.939105 336.839416 
L 312.723481 346.613456 
L 314.507857 342.22769 
L 316.292234 338.380783 
L 318.07661 347.108029 
L 319.860987 351.04485 
L 321.645363 328.115412 
L 323.42974 344.010758 
L 325.214116 331.869419 
L 326.998492 386.029045 
L 328.782869 349.517396 
L 330.567245 371.626967 
L 332.351622 379.587308 
L 334.135998 372.235724 
L 335.920375 329.414814 
L 337.704751 347.873265 
L 339.489127 345.626124 
L 341.273504 347.337261 
L 343.05788 345.723904 
L 344.842257 345.38923 
L 346.626633 355.01923 
L 348.41101 383.031081 
L 350.195386 384.493767 
L 351.979762 385.401341 
L 353.764139 378.953318 
L 355.548515 349.207843 
L 357.332892 321.389107 
L 359.117268 354.940052 
L 360.901645 356.284465 
L 362.686021 350.752125 
L 364.470397 350.647545 
L 366.254774 353.087637 
L 368.03915 352.254787 
L 369.823527 347.825294 
L 371.607903 341.268629 
L 373.39228 353.825757 
L 375.176656 348.794488 
L 376.961032 338.803322 
L 378.745409 344.621711 
L 380.529785 344.247223 
L 382.314162 350.084814 
L 384.098538 345.071327 
L 385.882915 334.327557 
L 387.667291 329.277861 
L 389.451667 354.824353 
L 391.236044 324.395072 
L 393.02042 349.720184 
L 394.804797 347.378511 
L 396.589173 360.821645 
L 398.37355 358.0082 
L 400.157926 364.857533 
L 401.942302 339.099235 
L 403.726679 349.135113 
L 405.511055 352.710911 
L 407.295432 325.224181 
L 409.079808 320.58782 
L 410.864185 356.197843 
L 412.648561 347.535735 
L 414.432937 350.139448 
L 416.217314 347.847278 
L 418.00169 341.883896 
L 419.786067 340.843602 
L 421.570443 346.118729 
L 423.35482 353.068346 
L 425.139196 353.558827 
L 426.923572 355.047883 
L 428.707949 352.674152 
L 430.492325 332.133354 
L 432.276702 348.25261 
L 434.061078 341.511615 
L 435.845455 340.608013 
L 435.845455 340.608013 
" style="fill:none;stroke:#dc143c;stroke-linecap:square;stroke-opacity:0.7;stroke-width:1.5;"/>
   </g>
   <g id="legend_2">
    <g id="line2d_6">
     <path d="M 72 281.134801 
L 92 281.134801 
" style="fill:none;stroke:#483d8b;stroke-linecap:square;stroke-width:1.5;"/>
    </g>
    <g id="line2d_7"/>
    <g id="text_4">
     <!-- Effect -->
     <g transform="translate(100 284.634801)scale(0.1 -0.1)">
      <defs>
       <path d="M 9.8125 72.90625 
L 55.90625 72.90625 
L 55.90625 64.59375 
L 19.671875 64.59375 
L 19.671875 43.015625 
L 54.390625 43.015625 
L 54.390625 34.71875 
L 19.671875 34.71875 
L 19.671875 8.296875 
L 56.78125 8.296875 
L 56.78125 0 
L 9.8125 0 
z
" id="DejaVuSans-69"/>
       <path d="M 37.109375 75.984375 
L 37.109375 68.5 
L 28.515625 68.5 
Q 23.6875 68.5 21.796875 66.546875 
Q 19.921875 64.59375 19.921875 59.515625 
L 19.921875 54.6875 
L 34.71875 54.6875 
L 34.71875 47.703125 
L 19.921875 47.703125 
L 19.921875 0 
L 10.890625 0 
L 10.890625 47.703125 
L 2.296875 47.703125 
L 2.296875 54.6875 
L 10.890625 54.6875 
L 10.890625 58.5 
Q 10.890625 67.625 15.140625 71.796875 
Q 19.390625 75.984375 28.609375 75.984375 
z
" id="DejaVuSans-102"/>
       <path d="M 18.3125 70.21875 
L 18.3125 54.6875 
L 36.8125 54.6875 
L 36.8125 47.703125 
L 18.3125 47.703125 
L 18.3125 18.015625 
Q 18.3125 11.328125 20.140625 9.421875 
Q 21.96875 7.515625 27.59375 7.515625 
L 36.8125 7.515625 
L 36.8125 0 
L 27.59375 0 
Q 17.1875 0 13.234375 3.875 
Q 9.28125 7.765625 9.28125 18.015625 
L 9.28125 47.703125 
L 2.6875 47.703125 
L 2.6875 54.6875 
L 9.28125 54.6875 
L 9.28125 70.21875 
z
" id="DejaVuSans-116"/>
      </defs>
      <use xlink:href="#DejaVuSans-69"/>
      <use x="63.183594" xlink:href="#DejaVuSans-102"/>
      <use x="98.388672" xlink:href="#DejaVuSans-102"/>
      <use x="133.59375" xlink:href="#DejaVuSans-101"/>
      <use x="195.117188" xlink:href="#DejaVuSans-99"/>
      <use x="250.097656" xlink:href="#DejaVuSans-116"/>
     </g>
    </g>
    <g id="line2d_8">
     <path d="M 72 295.812926 
L 92 295.812926 
" style="fill:none;stroke:#dc143c;stroke-linecap:square;stroke-opacity:0.7;stroke-width:1.5;"/>
    </g>
    <g id="line2d_9"/>
    <g id="text_5">
     <!-- Reconstruction -->
     <g transform="translate(100 299.312926)scale(0.1 -0.1)">
      <defs>
       <path d="M 44.390625 34.1875 
Q 47.5625 33.109375 50.5625 29.59375 
Q 53.5625 26.078125 56.59375 19.921875 
L 66.609375 0 
L 56 0 
L 46.6875 18.703125 
Q 43.0625 26.03125 39.671875 28.421875 
Q 36.28125 30.8125 30.421875 30.8125 
L 19.671875 30.8125 
L 19.671875 0 
L 9.8125 0 
L 9.8125 72.90625 
L 32.078125 72.90625 
Q 44.578125 72.90625 50.734375 67.671875 
Q 56.890625 62.453125 56.890625 51.90625 
Q 56.890625 45.015625 53.6875 40.46875 
Q 50.484375 35.9375 44.390625 34.1875 
z
M 19.671875 64.796875 
L 19.671875 38.921875 
L 32.078125 38.921875 
Q 39.203125 38.921875 42.84375 42.21875 
Q 46.484375 45.515625 46.484375 51.90625 
Q 46.484375 58.296875 42.84375 61.546875 
Q 39.203125 64.796875 32.078125 64.796875 
z
" id="DejaVuSans-82"/>
       <path d="M 30.609375 48.390625 
Q 23.390625 48.390625 19.1875 42.75 
Q 14.984375 37.109375 14.984375 27.296875 
Q 14.984375 17.484375 19.15625 11.84375 
Q 23.34375 6.203125 30.609375 6.203125 
Q 37.796875 6.203125 41.984375 11.859375 
Q 46.1875 17.53125 46.1875 27.296875 
Q 46.1875 37.015625 41.984375 42.703125 
Q 37.796875 48.390625 30.609375 48.390625 
z
M 30.609375 56 
Q 42.328125 56 49.015625 48.375 
Q 55.71875 40.765625 55.71875 27.296875 
Q 55.71875 13.875 49.015625 6.21875 
Q 42.328125 -1.421875 30.609375 -1.421875 
Q 18.84375 -1.421875 12.171875 6.21875 
Q 5.515625 13.875 5.515625 27.296875 
Q 5.515625 40.765625 12.171875 48.375 
Q 18.84375 56 30.609375 56 
z
" id="DejaVuSans-111"/>
       <path d="M 54.890625 33.015625 
L 54.890625 0 
L 45.90625 0 
L 45.90625 32.71875 
Q 45.90625 40.484375 42.875 44.328125 
Q 39.84375 48.1875 33.796875 48.1875 
Q 26.515625 48.1875 22.3125 43.546875 
Q 18.109375 38.921875 18.109375 30.90625 
L 18.109375 0 
L 9.078125 0 
L 9.078125 54.6875 
L 18.109375 54.6875 
L 18.109375 46.1875 
Q 21.34375 51.125 25.703125 53.5625 
Q 30.078125 56 35.796875 56 
Q 45.21875 56 50.046875 50.171875 
Q 54.890625 44.34375 54.890625 33.015625 
z
" id="DejaVuSans-110"/>
       <path d="M 41.109375 46.296875 
Q 39.59375 47.171875 37.8125 47.578125 
Q 36.03125 48 33.890625 48 
Q 26.265625 48 22.1875 43.046875 
Q 18.109375 38.09375 18.109375 28.8125 
L 18.109375 0 
L 9.078125 0 
L 9.078125 54.6875 
L 18.109375 54.6875 
L 18.109375 46.1875 
Q 20.953125 51.171875 25.484375 53.578125 
Q 30.03125 56 36.53125 56 
Q 37.453125 56 38.578125 55.875 
Q 39.703125 55.765625 41.0625 55.515625 
z
" id="DejaVuSans-114"/>
      </defs>
      <use xlink:href="#DejaVuSans-82"/>
      <use x="64.982422" xlink:href="#DejaVuSans-101"/>
      <use x="126.505859" xlink:href="#DejaVuSans-99"/>
      <use x="181.486328" xlink:href="#DejaVuSans-111"/>
      <use x="242.667969" xlink:href="#DejaVuSans-110"/>
      <use x="306.046875" xlink:href="#DejaVuSans-115"/>
      <use x="358.146484" xlink:href="#DejaVuSans-116"/>
      <use x="397.355469" xlink:href="#DejaVuSans-114"/>
      <use x="438.46875" xlink:href="#DejaVuSans-117"/>
      <use x="501.847656" xlink:href="#DejaVuSans-99"/>
      <use x="556.828125" xlink:href="#DejaVuSans-116"/>
      <use x="596.037109" xlink:href="#DejaVuSans-105"/>
      <use x="623.820312" xlink:href="#DejaVuSans-111"/>
      <use x="685.001953" xlink:href="#DejaVuSans-110"/>
     </g>
    </g>
   </g>
  </g>
 </g>
 <defs>
  <clipPath id="p7c8cf0335c">
   <rect height="172.963636" width="390.6" x="63" y="60.48"/>
  </clipPath>
  <clipPath id="p39a170adee">
   <rect height="172.963636" width="390.6" x="63" y="268.036364"/>
  </clipPath>
 </defs>
</svg>
