<?xml version="1.0" encoding="utf-8" standalone="no"?>
<!DOCTYPE svg PUBLIC "-//W3C//DTD SVG 1.1//EN"
  "http://www.w3.org/Graphics/SVG/1.1/DTD/svg11.dtd">
<!-- Created with matplotlib (https://matplotlib.org/) -->
<svg height="288pt" version="1.1" viewBox="0 0 432 288" width="432pt" xmlns="http://www.w3.org/2000/svg" xmlns:xlink="http://www.w3.org/1999/xlink">
 <metadata>
  <rdf:RDF xmlns:cc="http://creativecommons.org/ns#" xmlns:dc="http://purl.org/dc/elements/1.1/" xmlns:rdf="http://www.w3.org/1999/02/22-rdf-syntax-ns#">
   <cc:Work>
    <dc:type rdf:resource="http://purl.org/dc/dcmitype/StillImage"/>
    <dc:date>2021-10-04T16:40:32.774900</dc:date>
    <dc:format>image/svg+xml</dc:format>
    <dc:creator>
     <cc:Agent>
      <dc:title>Matplotlib v3.3.4, https://matplotlib.org/</dc:title>
     </cc:Agent>
    </dc:creator>
   </cc:Work>
  </rdf:RDF>
 </metadata>
 <defs>
  <style type="text/css">*{stroke-linecap:butt;stroke-linejoin:round;}</style>
 </defs>
 <g id="figure_1">
  <g id="patch_1">
   <path d="M 0 288 
L 432 288 
L 432 0 
L 0 0 
z
" style="fill:none;"/>
  </g>
  <g id="axes_1">
   <g id="patch_2">
    <path d="M 54 252 
L 388.8 252 
L 388.8 34.56 
L 54 34.56 
z
" style="fill:#ffffff;"/>
   </g>
   <g id="patch_3">
    <path clip-path="url(#p675225863b)" d="M 57.41496 208.966228 
L 63.97704 208.966228 
L 63.97704 196.141086 
L 57.41496 196.141086 
L 57.41496 208.966228 
z
" style="fill:#394959;stroke:#2c2c2c;stroke-linejoin:miter;stroke-width:1.5;"/>
   </g>
   <g id="patch_4">
    <path clip-path="url(#p675225863b)" d="M 64.11096 207.365104 
L 70.67304 207.365104 
L 70.67304 198.65251 
L 64.11096 198.65251 
L 64.11096 207.365104 
z
" style="fill:#9665aa;stroke:#2c2c2c;stroke-linejoin:miter;stroke-width:1.5;"/>
   </g>
   <g id="patch_5">
    <path clip-path="url(#p675225863b)" d="M 70.80696 214.070266 
L 77.36904 214.070266 
L 77.36904 194.433562 
L 70.80696 194.433562 
L 70.80696 214.070266 
z
" style="fill:#8779dd;stroke:#2c2c2c;stroke-linejoin:miter;stroke-width:1.5;"/>
   </g>
   <g id="patch_6">
    <path clip-path="url(#p675225863b)" d="M 77.50296 241.967349 
L 84.06504 241.967349 
L 84.06504 239.097126 
L 77.50296 239.097126 
L 77.50296 241.967349 
z
" style="fill:#a9a9a9;stroke:#2c2c2c;stroke-linejoin:miter;stroke-width:1.5;"/>
   </g>
   <g id="patch_7">
    <path clip-path="url(#p675225863b)" d="M 90.89496 181.181621 
L 97.45704 181.181621 
L 97.45704 164.085799 
L 90.89496 164.085799 
L 90.89496 181.181621 
z
" style="fill:#394959;stroke:#2c2c2c;stroke-linejoin:miter;stroke-width:1.5;"/>
   </g>
   <g id="patch_8">
    <path clip-path="url(#p675225863b)" d="M 97.59096 176.094524 
L 104.15304 176.094524 
L 104.15304 163.08014 
L 97.59096 163.08014 
L 97.59096 176.094524 
z
" style="fill:#9665aa;stroke:#2c2c2c;stroke-linejoin:miter;stroke-width:1.5;"/>
   </g>
   <g id="patch_9">
    <path clip-path="url(#p675225863b)" d="M 104.28696 184.806212 
L 110.84904 184.806212 
L 110.84904 172.871088 
L 104.28696 172.871088 
L 104.28696 184.806212 
z
" style="fill:#8779dd;stroke:#2c2c2c;stroke-linejoin:miter;stroke-width:1.5;"/>
   </g>
   <g id="patch_10">
    <path clip-path="url(#p675225863b)" d="M 110.98296 239.649615 
L 117.54504 239.649615 
L 117.54504 236.752274 
L 110.98296 236.752274 
L 110.98296 239.649615 
z
" style="fill:#a9a9a9;stroke:#2c2c2c;stroke-linejoin:miter;stroke-width:1.5;"/>
   </g>
   <g id="patch_11">
    <path clip-path="url(#p675225863b)" d="M 124.37496 157.843096 
L 130.93704 157.843096 
L 130.93704 137.61343 
L 124.37496 137.61343 
L 124.37496 157.843096 
z
" style="fill:#394959;stroke:#2c2c2c;stroke-linejoin:miter;stroke-width:1.5;"/>
   </g>
   <g id="patch_12">
    <path clip-path="url(#p675225863b)" d="M 131.07096 149.593441 
L 137.63304 149.593441 
L 137.63304 135.560251 
L 131.07096 135.560251 
L 131.07096 149.593441 
z
" style="fill:#9665aa;stroke:#2c2c2c;stroke-linejoin:miter;stroke-width:1.5;"/>
   </g>
   <g id="patch_13">
    <path clip-path="url(#p675225863b)" d="M 137.76696 159.51076 
L 144.32904 159.51076 
L 144.32904 148.277146 
L 137.76696 148.277146 
L 137.76696 159.51076 
z
" style="fill:#8779dd;stroke:#2c2c2c;stroke-linejoin:miter;stroke-width:1.5;"/>
   </g>
   <g id="patch_14">
    <path clip-path="url(#p675225863b)" d="M 144.46296 237.381277 
L 151.02504 237.381277 
L 151.02504 234.411296 
L 144.46296 234.411296 
L 144.46296 237.381277 
z
" style="fill:#a9a9a9;stroke:#2c2c2c;stroke-linejoin:miter;stroke-width:1.5;"/>
   </g>
   <g id="patch_15">
    <path clip-path="url(#p675225863b)" d="M 157.85496 135.960435 
L 164.41704 135.960435 
L 164.41704 114.420435 
L 157.85496 114.420435 
L 157.85496 135.960435 
z
" style="fill:#394959;stroke:#2c2c2c;stroke-linejoin:miter;stroke-width:1.5;"/>
   </g>
   <g id="patch_16">
    <path clip-path="url(#p675225863b)" d="M 164.55096 129.221879 
L 171.11304 129.221879 
L 171.11304 112.394516 
L 164.55096 112.394516 
L 164.55096 129.221879 
z
" style="fill:#9665aa;stroke:#2c2c2c;stroke-linejoin:miter;stroke-width:1.5;"/>
   </g>
   <g id="patch_17">
    <path clip-path="url(#p675225863b)" d="M 171.24696 136.753008 
L 177.80904 136.753008 
L 177.80904 127.385205 
L 171.24696 127.385205 
L 171.24696 136.753008 
z
" style="fill:#8779dd;stroke:#2c2c2c;stroke-linejoin:miter;stroke-width:1.5;"/>
   </g>
   <g id="patch_18">
    <path clip-path="url(#p675225863b)" d="M 177.94296 235.103318 
L 184.50504 235.103318 
L 184.50504 232.170947 
L 177.94296 232.170947 
L 177.94296 235.103318 
z
" style="fill:#a9a9a9;stroke:#2c2c2c;stroke-linejoin:miter;stroke-width:1.5;"/>
   </g>
   <g id="patch_19">
    <path clip-path="url(#p675225863b)" d="M 191.33496 116.617174 
L 197.89704 116.617174 
L 197.89704 95.113428 
L 191.33496 95.113428 
L 191.33496 116.617174 
z
" style="fill:#394959;stroke:#2c2c2c;stroke-linejoin:miter;stroke-width:1.5;"/>
   </g>
   <g id="patch_20">
    <path clip-path="url(#p675225863b)" d="M 198.03096 112.389881 
L 204.59304 112.389881 
L 204.59304 93.112524 
L 198.03096 93.112524 
L 198.03096 112.389881 
z
" style="fill:#9665aa;stroke:#2c2c2c;stroke-linejoin:miter;stroke-width:1.5;"/>
   </g>
   <g id="patch_21">
    <path clip-path="url(#p675225863b)" d="M 204.72696 118.781756 
L 211.28904 118.781756 
L 211.28904 109.825128 
L 204.72696 109.825128 
L 204.72696 118.781756 
z
" style="fill:#8779dd;stroke:#2c2c2c;stroke-linejoin:miter;stroke-width:1.5;"/>
   </g>
   <g id="patch_22">
    <path clip-path="url(#p675225863b)" d="M 211.42296 232.854784 
L 217.98504 232.854784 
L 217.98504 229.936041 
L 211.42296 229.936041 
L 211.42296 232.854784 
z
" style="fill:#a9a9a9;stroke:#2c2c2c;stroke-linejoin:miter;stroke-width:1.5;"/>
   </g>
   <g id="patch_23">
    <path clip-path="url(#p675225863b)" d="M 224.81496 100.311109 
L 231.37704 100.311109 
L 231.37704 80.230156 
L 224.81496 80.230156 
L 224.81496 100.311109 
z
" style="fill:#394959;stroke:#2c2c2c;stroke-linejoin:miter;stroke-width:1.5;"/>
   </g>
   <g id="patch_24">
    <path clip-path="url(#p675225863b)" d="M 231.51096 97.925931 
L 238.07304 97.925931 
L 238.07304 79.689859 
L 231.51096 79.689859 
L 231.51096 97.925931 
z
" style="fill:#9665aa;stroke:#2c2c2c;stroke-linejoin:miter;stroke-width:1.5;"/>
   </g>
   <g id="patch_25">
    <path clip-path="url(#p675225863b)" d="M 238.20696 101.331968 
L 244.76904 101.331968 
L 244.76904 95.675394 
L 238.20696 95.675394 
L 238.20696 101.331968 
z
" style="fill:#8779dd;stroke:#2c2c2c;stroke-linejoin:miter;stroke-width:1.5;"/>
   </g>
   <g id="patch_26">
    <path clip-path="url(#p675225863b)" d="M 244.90296 230.619649 
L 251.46504 230.619649 
L 251.46504 227.718453 
L 244.90296 227.718453 
L 244.90296 230.619649 
z
" style="fill:#a9a9a9;stroke:#2c2c2c;stroke-linejoin:miter;stroke-width:1.5;"/>
   </g>
   <g id="patch_27">
    <path clip-path="url(#p675225863b)" d="M 258.29496 86.302782 
L 264.85704 86.302782 
L 264.85704 68.169272 
L 258.29496 68.169272 
L 258.29496 86.302782 
z
" style="fill:#394959;stroke:#2c2c2c;stroke-linejoin:miter;stroke-width:1.5;"/>
   </g>
   <g id="patch_28">
    <path clip-path="url(#p675225863b)" d="M 264.99096 85.350278 
L 271.55304 85.350278 
L 271.55304 68.665963 
L 264.99096 68.665963 
L 264.99096 85.350278 
z
" style="fill:#9665aa;stroke:#2c2c2c;stroke-linejoin:miter;stroke-width:1.5;"/>
   </g>
   <g id="patch_29">
    <path clip-path="url(#p675225863b)" d="M 271.68696 86.121293 
L 278.24904 86.121293 
L 278.24904 82.97084 
L 271.68696 82.97084 
L 271.68696 86.121293 
z
" style="fill:#8779dd;stroke:#2c2c2c;stroke-linejoin:miter;stroke-width:1.5;"/>
   </g>
   <g id="patch_30">
    <path clip-path="url(#p675225863b)" d="M 278.38296 228.390057 
L 284.94504 228.390057 
L 284.94504 225.505056 
L 278.38296 225.505056 
L 278.38296 228.390057 
z
" style="fill:#a9a9a9;stroke:#2c2c2c;stroke-linejoin:miter;stroke-width:1.5;"/>
   </g>
   <g id="patch_31">
    <path clip-path="url(#p675225863b)" d="M 291.77496 74.357803 
L 298.33704 74.357803 
L 298.33704 58.791369 
L 291.77496 58.791369 
L 291.77496 74.357803 
z
" style="fill:#394959;stroke:#2c2c2c;stroke-linejoin:miter;stroke-width:1.5;"/>
   </g>
   <g id="patch_32">
    <path clip-path="url(#p675225863b)" d="M 298.47096 74.636513 
L 305.03304 74.636513 
L 305.03304 60.063197 
L 298.47096 60.063197 
L 298.47096 74.636513 
z
" style="fill:#9665aa;stroke:#2c2c2c;stroke-linejoin:miter;stroke-width:1.5;"/>
   </g>
   <g id="patch_33">
    <path clip-path="url(#p675225863b)" d="M 305.16696 74.408697 
L 311.72904 74.408697 
L 311.72904 72.201997 
L 305.16696 72.201997 
L 305.16696 74.408697 
z
" style="fill:#8779dd;stroke:#2c2c2c;stroke-linejoin:miter;stroke-width:1.5;"/>
   </g>
   <g id="patch_34">
    <path clip-path="url(#p675225863b)" d="M 311.86296 226.16283 
L 318.42504 226.16283 
L 318.42504 223.299485 
L 311.86296 223.299485 
L 311.86296 226.16283 
z
" style="fill:#a9a9a9;stroke:#2c2c2c;stroke-linejoin:miter;stroke-width:1.5;"/>
   </g>
   <g id="patch_35">
    <path clip-path="url(#p675225863b)" d="M 325.25496 66.664229 
L 331.81704 66.664229 
L 331.81704 52.405531 
L 325.25496 52.405531 
L 325.25496 66.664229 
z
" style="fill:#394959;stroke:#2c2c2c;stroke-linejoin:miter;stroke-width:1.5;"/>
   </g>
   <g id="patch_36">
    <path clip-path="url(#p675225863b)" d="M 331.95096 66.511315 
L 338.51304 66.511315 
L 338.51304 53.368737 
L 331.95096 53.368737 
L 331.95096 66.511315 
z
" style="fill:#9665aa;stroke:#2c2c2c;stroke-linejoin:miter;stroke-width:1.5;"/>
   </g>
   <g id="patch_37">
    <path clip-path="url(#p675225863b)" d="M 338.64696 65.687452 
L 345.20904 65.687452 
L 345.20904 63.449627 
L 338.64696 63.449627 
L 338.64696 65.687452 
z
" style="fill:#8779dd;stroke:#2c2c2c;stroke-linejoin:miter;stroke-width:1.5;"/>
   </g>
   <g id="patch_38">
    <path clip-path="url(#p675225863b)" d="M 345.34296 223.940626 
L 351.90504 223.940626 
L 351.90504 221.096809 
L 345.34296 221.096809 
L 345.34296 223.940626 
z
" style="fill:#a9a9a9;stroke:#2c2c2c;stroke-linejoin:miter;stroke-width:1.5;"/>
   </g>
   <g id="patch_39">
    <path clip-path="url(#p675225863b)" d="M 358.73496 61.247389 
L 365.29704 61.247389 
L 365.29704 48.497979 
L 358.73496 48.497979 
L 358.73496 61.247389 
z
" style="fill:#394959;stroke:#2c2c2c;stroke-linejoin:miter;stroke-width:1.5;"/>
   </g>
   <g id="patch_40">
    <path clip-path="url(#p675225863b)" d="M 365.43096 60.964448 
L 371.99304 60.964448 
L 371.99304 49.147596 
L 365.43096 49.147596 
L 365.43096 60.964448 
z
" style="fill:#9665aa;stroke:#2c2c2c;stroke-linejoin:miter;stroke-width:1.5;"/>
   </g>
   <g id="patch_41">
    <path clip-path="url(#p675225863b)" d="M 372.12696 60.190898 
L 378.68904 60.190898 
L 378.68904 57.922143 
L 372.12696 57.922143 
L 372.12696 60.190898 
z
" style="fill:#8779dd;stroke:#2c2c2c;stroke-linejoin:miter;stroke-width:1.5;"/>
   </g>
   <g id="patch_42">
    <path clip-path="url(#p675225863b)" d="M 378.82296 221.721161 
L 385.38504 221.721161 
L 385.38504 218.901191 
L 378.82296 218.901191 
L 378.82296 221.721161 
z
" style="fill:#a9a9a9;stroke:#2c2c2c;stroke-linejoin:miter;stroke-width:1.5;"/>
   </g>
   <g id="patch_43">
    <path clip-path="url(#p675225863b)" d="M 70.74 244.349335 
L 70.74 244.349335 
L 70.74 244.349335 
L 70.74 244.349335 
z
" style="fill:#394959;stroke:#2c2c2c;stroke-linejoin:miter;stroke-width:0.75;"/>
   </g>
   <g id="patch_44">
    <path clip-path="url(#p675225863b)" d="M 70.74 244.349335 
L 70.74 244.349335 
L 70.74 244.349335 
L 70.74 244.349335 
z
" style="fill:#9665aa;stroke:#2c2c2c;stroke-linejoin:miter;stroke-width:0.75;"/>
   </g>
   <g id="patch_45">
    <path clip-path="url(#p675225863b)" d="M 70.74 244.349335 
L 70.74 244.349335 
L 70.74 244.349335 
L 70.74 244.349335 
z
" style="fill:#8779dd;stroke:#2c2c2c;stroke-linejoin:miter;stroke-width:0.75;"/>
   </g>
   <g id="patch_46">
    <path clip-path="url(#p675225863b)" d="M 70.74 244.349335 
L 70.74 244.349335 
L 70.74 244.349335 
L 70.74 244.349335 
z
" style="fill:#a9a9a9;stroke:#2c2c2c;stroke-linejoin:miter;stroke-width:0.75;"/>
   </g>
   <g id="matplotlib.axis_1">
    <g id="xtick_1">
     <g id="line2d_1">
      <defs>
       <path d="M 0 0 
L 0 3.5 
" id="mff237a9b0e" style="stroke:#000000;stroke-width:0.8;"/>
      </defs>
      <g>
       <use style="stroke:#000000;stroke-width:0.8;" x="70.74" xlink:href="#mff237a9b0e" y="252"/>
      </g>
     </g>
     <g id="text_1">
      <!-- 1 -->
      <g transform="translate(67.55875 266.598437)scale(0.1 -0.1)">
       <defs>
        <path d="M 12.40625 8.296875 
L 28.515625 8.296875 
L 28.515625 63.921875 
L 10.984375 60.40625 
L 10.984375 69.390625 
L 28.421875 72.90625 
L 38.28125 72.90625 
L 38.28125 8.296875 
L 54.390625 8.296875 
L 54.390625 0 
L 12.40625 0 
z
" id="DejaVuSans-49"/>
       </defs>
       <use xlink:href="#DejaVuSans-49"/>
      </g>
     </g>
    </g>
    <g id="xtick_2">
     <g id="line2d_2">
      <g>
       <use style="stroke:#000000;stroke-width:0.8;" x="104.22" xlink:href="#mff237a9b0e" y="252"/>
      </g>
     </g>
     <g id="text_2">
      <!-- 2 -->
      <g transform="translate(101.03875 266.598437)scale(0.1 -0.1)">
       <defs>
        <path d="M 19.1875 8.296875 
L 53.609375 8.296875 
L 53.609375 0 
L 7.328125 0 
L 7.328125 8.296875 
Q 12.9375 14.109375 22.625 23.890625 
Q 32.328125 33.6875 34.8125 36.53125 
Q 39.546875 41.84375 41.421875 45.53125 
Q 43.3125 49.21875 43.3125 52.78125 
Q 43.3125 58.59375 39.234375 62.25 
Q 35.15625 65.921875 28.609375 65.921875 
Q 23.96875 65.921875 18.8125 64.3125 
Q 13.671875 62.703125 7.8125 59.421875 
L 7.8125 69.390625 
Q 13.765625 71.78125 18.9375 73 
Q 24.125 74.21875 28.421875 74.21875 
Q 39.75 74.21875 46.484375 68.546875 
Q 53.21875 62.890625 53.21875 53.421875 
Q 53.21875 48.921875 51.53125 44.890625 
Q 49.859375 40.875 45.40625 35.40625 
Q 44.1875 33.984375 37.640625 27.21875 
Q 31.109375 20.453125 19.1875 8.296875 
z
" id="DejaVuSans-50"/>
       </defs>
       <use xlink:href="#DejaVuSans-50"/>
      </g>
     </g>
    </g>
    <g id="xtick_3">
     <g id="line2d_3">
      <g>
       <use style="stroke:#000000;stroke-width:0.8;" x="137.7" xlink:href="#mff237a9b0e" y="252"/>
      </g>
     </g>
     <g id="text_3">
      <!-- 3 -->
      <g transform="translate(134.51875 266.598437)scale(0.1 -0.1)">
       <defs>
        <path d="M 40.578125 39.3125 
Q 47.65625 37.796875 51.625 33 
Q 55.609375 28.21875 55.609375 21.1875 
Q 55.609375 10.40625 48.1875 4.484375 
Q 40.765625 -1.421875 27.09375 -1.421875 
Q 22.515625 -1.421875 17.65625 -0.515625 
Q 12.796875 0.390625 7.625 2.203125 
L 7.625 11.71875 
Q 11.71875 9.328125 16.59375 8.109375 
Q 21.484375 6.890625 26.8125 6.890625 
Q 36.078125 6.890625 40.9375 10.546875 
Q 45.796875 14.203125 45.796875 21.1875 
Q 45.796875 27.640625 41.28125 31.265625 
Q 36.765625 34.90625 28.71875 34.90625 
L 20.21875 34.90625 
L 20.21875 43.015625 
L 29.109375 43.015625 
Q 36.375 43.015625 40.234375 45.921875 
Q 44.09375 48.828125 44.09375 54.296875 
Q 44.09375 59.90625 40.109375 62.90625 
Q 36.140625 65.921875 28.71875 65.921875 
Q 24.65625 65.921875 20.015625 65.03125 
Q 15.375 64.15625 9.8125 62.3125 
L 9.8125 71.09375 
Q 15.4375 72.65625 20.34375 73.4375 
Q 25.25 74.21875 29.59375 74.21875 
Q 40.828125 74.21875 47.359375 69.109375 
Q 53.90625 64.015625 53.90625 55.328125 
Q 53.90625 49.265625 50.4375 45.09375 
Q 46.96875 40.921875 40.578125 39.3125 
z
" id="DejaVuSans-51"/>
       </defs>
       <use xlink:href="#DejaVuSans-51"/>
      </g>
     </g>
    </g>
    <g id="xtick_4">
     <g id="line2d_4">
      <g>
       <use style="stroke:#000000;stroke-width:0.8;" x="171.18" xlink:href="#mff237a9b0e" y="252"/>
      </g>
     </g>
     <g id="text_4">
      <!-- 4 -->
      <g transform="translate(167.99875 266.598437)scale(0.1 -0.1)">
       <defs>
        <path d="M 37.796875 64.3125 
L 12.890625 25.390625 
L 37.796875 25.390625 
z
M 35.203125 72.90625 
L 47.609375 72.90625 
L 47.609375 25.390625 
L 58.015625 25.390625 
L 58.015625 17.1875 
L 47.609375 17.1875 
L 47.609375 0 
L 37.796875 0 
L 37.796875 17.1875 
L 4.890625 17.1875 
L 4.890625 26.703125 
z
" id="DejaVuSans-52"/>
       </defs>
       <use xlink:href="#DejaVuSans-52"/>
      </g>
     </g>
    </g>
    <g id="xtick_5">
     <g id="line2d_5">
      <g>
       <use style="stroke:#000000;stroke-width:0.8;" x="204.66" xlink:href="#mff237a9b0e" y="252"/>
      </g>
     </g>
     <g id="text_5">
      <!-- 5 -->
      <g transform="translate(201.47875 266.598437)scale(0.1 -0.1)">
       <defs>
        <path d="M 10.796875 72.90625 
L 49.515625 72.90625 
L 49.515625 64.59375 
L 19.828125 64.59375 
L 19.828125 46.734375 
Q 21.96875 47.46875 24.109375 47.828125 
Q 26.265625 48.1875 28.421875 48.1875 
Q 40.625 48.1875 47.75 41.5 
Q 54.890625 34.8125 54.890625 23.390625 
Q 54.890625 11.625 47.5625 5.09375 
Q 40.234375 -1.421875 26.90625 -1.421875 
Q 22.3125 -1.421875 17.546875 -0.640625 
Q 12.796875 0.140625 7.71875 1.703125 
L 7.71875 11.625 
Q 12.109375 9.234375 16.796875 8.0625 
Q 21.484375 6.890625 26.703125 6.890625 
Q 35.15625 6.890625 40.078125 11.328125 
Q 45.015625 15.765625 45.015625 23.390625 
Q 45.015625 31 40.078125 35.4375 
Q 35.15625 39.890625 26.703125 39.890625 
Q 22.75 39.890625 18.8125 39.015625 
Q 14.890625 38.140625 10.796875 36.28125 
z
" id="DejaVuSans-53"/>
       </defs>
       <use xlink:href="#DejaVuSans-53"/>
      </g>
     </g>
    </g>
    <g id="xtick_6">
     <g id="line2d_6">
      <g>
       <use style="stroke:#000000;stroke-width:0.8;" x="238.14" xlink:href="#mff237a9b0e" y="252"/>
      </g>
     </g>
     <g id="text_6">
      <!-- 6 -->
      <g transform="translate(234.95875 266.598437)scale(0.1 -0.1)">
       <defs>
        <path d="M 33.015625 40.375 
Q 26.375 40.375 22.484375 35.828125 
Q 18.609375 31.296875 18.609375 23.390625 
Q 18.609375 15.53125 22.484375 10.953125 
Q 26.375 6.390625 33.015625 6.390625 
Q 39.65625 6.390625 43.53125 10.953125 
Q 47.40625 15.53125 47.40625 23.390625 
Q 47.40625 31.296875 43.53125 35.828125 
Q 39.65625 40.375 33.015625 40.375 
z
M 52.59375 71.296875 
L 52.59375 62.3125 
Q 48.875 64.0625 45.09375 64.984375 
Q 41.3125 65.921875 37.59375 65.921875 
Q 27.828125 65.921875 22.671875 59.328125 
Q 17.53125 52.734375 16.796875 39.40625 
Q 19.671875 43.65625 24.015625 45.921875 
Q 28.375 48.1875 33.59375 48.1875 
Q 44.578125 48.1875 50.953125 41.515625 
Q 57.328125 34.859375 57.328125 23.390625 
Q 57.328125 12.15625 50.6875 5.359375 
Q 44.046875 -1.421875 33.015625 -1.421875 
Q 20.359375 -1.421875 13.671875 8.265625 
Q 6.984375 17.96875 6.984375 36.375 
Q 6.984375 53.65625 15.1875 63.9375 
Q 23.390625 74.21875 37.203125 74.21875 
Q 40.921875 74.21875 44.703125 73.484375 
Q 48.484375 72.75 52.59375 71.296875 
z
" id="DejaVuSans-54"/>
       </defs>
       <use xlink:href="#DejaVuSans-54"/>
      </g>
     </g>
    </g>
    <g id="xtick_7">
     <g id="line2d_7">
      <g>
       <use style="stroke:#000000;stroke-width:0.8;" x="271.62" xlink:href="#mff237a9b0e" y="252"/>
      </g>
     </g>
     <g id="text_7">
      <!-- 7 -->
      <g transform="translate(268.43875 266.598437)scale(0.1 -0.1)">
       <defs>
        <path d="M 8.203125 72.90625 
L 55.078125 72.90625 
L 55.078125 68.703125 
L 28.609375 0 
L 18.3125 0 
L 43.21875 64.59375 
L 8.203125 64.59375 
z
" id="DejaVuSans-55"/>
       </defs>
       <use xlink:href="#DejaVuSans-55"/>
      </g>
     </g>
    </g>
    <g id="xtick_8">
     <g id="line2d_8">
      <g>
       <use style="stroke:#000000;stroke-width:0.8;" x="305.1" xlink:href="#mff237a9b0e" y="252"/>
      </g>
     </g>
     <g id="text_8">
      <!-- 8 -->
      <g transform="translate(301.91875 266.598437)scale(0.1 -0.1)">
       <defs>
        <path d="M 31.78125 34.625 
Q 24.75 34.625 20.71875 30.859375 
Q 16.703125 27.09375 16.703125 20.515625 
Q 16.703125 13.921875 20.71875 10.15625 
Q 24.75 6.390625 31.78125 6.390625 
Q 38.8125 6.390625 42.859375 10.171875 
Q 46.921875 13.96875 46.921875 20.515625 
Q 46.921875 27.09375 42.890625 30.859375 
Q 38.875 34.625 31.78125 34.625 
z
M 21.921875 38.8125 
Q 15.578125 40.375 12.03125 44.71875 
Q 8.5 49.078125 8.5 55.328125 
Q 8.5 64.0625 14.71875 69.140625 
Q 20.953125 74.21875 31.78125 74.21875 
Q 42.671875 74.21875 48.875 69.140625 
Q 55.078125 64.0625 55.078125 55.328125 
Q 55.078125 49.078125 51.53125 44.71875 
Q 48 40.375 41.703125 38.8125 
Q 48.828125 37.15625 52.796875 32.3125 
Q 56.78125 27.484375 56.78125 20.515625 
Q 56.78125 9.90625 50.3125 4.234375 
Q 43.84375 -1.421875 31.78125 -1.421875 
Q 19.734375 -1.421875 13.25 4.234375 
Q 6.78125 9.90625 6.78125 20.515625 
Q 6.78125 27.484375 10.78125 32.3125 
Q 14.796875 37.15625 21.921875 38.8125 
z
M 18.3125 54.390625 
Q 18.3125 48.734375 21.84375 45.5625 
Q 25.390625 42.390625 31.78125 42.390625 
Q 38.140625 42.390625 41.71875 45.5625 
Q 45.3125 48.734375 45.3125 54.390625 
Q 45.3125 60.0625 41.71875 63.234375 
Q 38.140625 66.40625 31.78125 66.40625 
Q 25.390625 66.40625 21.84375 63.234375 
Q 18.3125 60.0625 18.3125 54.390625 
z
" id="DejaVuSans-56"/>
       </defs>
       <use xlink:href="#DejaVuSans-56"/>
      </g>
     </g>
    </g>
    <g id="xtick_9">
     <g id="line2d_9">
      <g>
       <use style="stroke:#000000;stroke-width:0.8;" x="338.58" xlink:href="#mff237a9b0e" y="252"/>
      </g>
     </g>
     <g id="text_9">
      <!-- 9 -->
      <g transform="translate(335.39875 266.598437)scale(0.1 -0.1)">
       <defs>
        <path d="M 10.984375 1.515625 
L 10.984375 10.5 
Q 14.703125 8.734375 18.5 7.8125 
Q 22.3125 6.890625 25.984375 6.890625 
Q 35.75 6.890625 40.890625 13.453125 
Q 46.046875 20.015625 46.78125 33.40625 
Q 43.953125 29.203125 39.59375 26.953125 
Q 35.25 24.703125 29.984375 24.703125 
Q 19.046875 24.703125 12.671875 31.3125 
Q 6.296875 37.9375 6.296875 49.421875 
Q 6.296875 60.640625 12.9375 67.421875 
Q 19.578125 74.21875 30.609375 74.21875 
Q 43.265625 74.21875 49.921875 64.515625 
Q 56.59375 54.828125 56.59375 36.375 
Q 56.59375 19.140625 48.40625 8.859375 
Q 40.234375 -1.421875 26.421875 -1.421875 
Q 22.703125 -1.421875 18.890625 -0.6875 
Q 15.09375 0.046875 10.984375 1.515625 
z
M 30.609375 32.421875 
Q 37.25 32.421875 41.125 36.953125 
Q 45.015625 41.5 45.015625 49.421875 
Q 45.015625 57.28125 41.125 61.84375 
Q 37.25 66.40625 30.609375 66.40625 
Q 23.96875 66.40625 20.09375 61.84375 
Q 16.21875 57.28125 16.21875 49.421875 
Q 16.21875 41.5 20.09375 36.953125 
Q 23.96875 32.421875 30.609375 32.421875 
z
" id="DejaVuSans-57"/>
       </defs>
       <use xlink:href="#DejaVuSans-57"/>
      </g>
     </g>
    </g>
    <g id="xtick_10">
     <g id="line2d_10">
      <g>
       <use style="stroke:#000000;stroke-width:0.8;" x="372.06" xlink:href="#mff237a9b0e" y="252"/>
      </g>
     </g>
     <g id="text_10">
      <!-- 10 -->
      <g transform="translate(365.6975 266.598437)scale(0.1 -0.1)">
       <defs>
        <path d="M 31.78125 66.40625 
Q 24.171875 66.40625 20.328125 58.90625 
Q 16.5 51.421875 16.5 36.375 
Q 16.5 21.390625 20.328125 13.890625 
Q 24.171875 6.390625 31.78125 6.390625 
Q 39.453125 6.390625 43.28125 13.890625 
Q 47.125 21.390625 47.125 36.375 
Q 47.125 51.421875 43.28125 58.90625 
Q 39.453125 66.40625 31.78125 66.40625 
z
M 31.78125 74.21875 
Q 44.046875 74.21875 50.515625 64.515625 
Q 56.984375 54.828125 56.984375 36.375 
Q 56.984375 17.96875 50.515625 8.265625 
Q 44.046875 -1.421875 31.78125 -1.421875 
Q 19.53125 -1.421875 13.0625 8.265625 
Q 6.59375 17.96875 6.59375 36.375 
Q 6.59375 54.828125 13.0625 64.515625 
Q 19.53125 74.21875 31.78125 74.21875 
z
" id="DejaVuSans-48"/>
       </defs>
       <use xlink:href="#DejaVuSans-49"/>
       <use x="63.623047" xlink:href="#DejaVuSans-48"/>
      </g>
     </g>
    </g>
    <g id="text_11">
     <!-- Dimensions -->
     <g transform="translate(192.21875 280.276563)scale(0.1 -0.1)">
      <defs>
       <path d="M 19.671875 64.796875 
L 19.671875 8.109375 
L 31.59375 8.109375 
Q 46.6875 8.109375 53.6875 14.9375 
Q 60.6875 21.78125 60.6875 36.53125 
Q 60.6875 51.171875 53.6875 57.984375 
Q 46.6875 64.796875 31.59375 64.796875 
z
M 9.8125 72.90625 
L 30.078125 72.90625 
Q 51.265625 72.90625 61.171875 64.09375 
Q 71.09375 55.28125 71.09375 36.53125 
Q 71.09375 17.671875 61.125 8.828125 
Q 51.171875 0 30.078125 0 
L 9.8125 0 
z
" id="DejaVuSans-68"/>
       <path d="M 9.421875 54.6875 
L 18.40625 54.6875 
L 18.40625 0 
L 9.421875 0 
z
M 9.421875 75.984375 
L 18.40625 75.984375 
L 18.40625 64.59375 
L 9.421875 64.59375 
z
" id="DejaVuSans-105"/>
       <path d="M 52 44.1875 
Q 55.375 50.25 60.0625 53.125 
Q 64.75 56 71.09375 56 
Q 79.640625 56 84.28125 50.015625 
Q 88.921875 44.046875 88.921875 33.015625 
L 88.921875 0 
L 79.890625 0 
L 79.890625 32.71875 
Q 79.890625 40.578125 77.09375 44.375 
Q 74.3125 48.1875 68.609375 48.1875 
Q 61.625 48.1875 57.5625 43.546875 
Q 53.515625 38.921875 53.515625 30.90625 
L 53.515625 0 
L 44.484375 0 
L 44.484375 32.71875 
Q 44.484375 40.625 41.703125 44.40625 
Q 38.921875 48.1875 33.109375 48.1875 
Q 26.21875 48.1875 22.15625 43.53125 
Q 18.109375 38.875 18.109375 30.90625 
L 18.109375 0 
L 9.078125 0 
L 9.078125 54.6875 
L 18.109375 54.6875 
L 18.109375 46.1875 
Q 21.1875 51.21875 25.484375 53.609375 
Q 29.78125 56 35.6875 56 
Q 41.65625 56 45.828125 52.96875 
Q 50 49.953125 52 44.1875 
z
" id="DejaVuSans-109"/>
       <path d="M 56.203125 29.59375 
L 56.203125 25.203125 
L 14.890625 25.203125 
Q 15.484375 15.921875 20.484375 11.0625 
Q 25.484375 6.203125 34.421875 6.203125 
Q 39.59375 6.203125 44.453125 7.46875 
Q 49.3125 8.734375 54.109375 11.28125 
L 54.109375 2.78125 
Q 49.265625 0.734375 44.1875 -0.34375 
Q 39.109375 -1.421875 33.890625 -1.421875 
Q 20.796875 -1.421875 13.15625 6.1875 
Q 5.515625 13.8125 5.515625 26.8125 
Q 5.515625 40.234375 12.765625 48.109375 
Q 20.015625 56 32.328125 56 
Q 43.359375 56 49.78125 48.890625 
Q 56.203125 41.796875 56.203125 29.59375 
z
M 47.21875 32.234375 
Q 47.125 39.59375 43.09375 43.984375 
Q 39.0625 48.390625 32.421875 48.390625 
Q 24.90625 48.390625 20.390625 44.140625 
Q 15.875 39.890625 15.1875 32.171875 
z
" id="DejaVuSans-101"/>
       <path d="M 54.890625 33.015625 
L 54.890625 0 
L 45.90625 0 
L 45.90625 32.71875 
Q 45.90625 40.484375 42.875 44.328125 
Q 39.84375 48.1875 33.796875 48.1875 
Q 26.515625 48.1875 22.3125 43.546875 
Q 18.109375 38.921875 18.109375 30.90625 
L 18.109375 0 
L 9.078125 0 
L 9.078125 54.6875 
L 18.109375 54.6875 
L 18.109375 46.1875 
Q 21.34375 51.125 25.703125 53.5625 
Q 30.078125 56 35.796875 56 
Q 45.21875 56 50.046875 50.171875 
Q 54.890625 44.34375 54.890625 33.015625 
z
" id="DejaVuSans-110"/>
       <path d="M 44.28125 53.078125 
L 44.28125 44.578125 
Q 40.484375 46.53125 36.375 47.5 
Q 32.28125 48.484375 27.875 48.484375 
Q 21.1875 48.484375 17.84375 46.4375 
Q 14.5 44.390625 14.5 40.28125 
Q 14.5 37.15625 16.890625 35.375 
Q 19.28125 33.59375 26.515625 31.984375 
L 29.59375 31.296875 
Q 39.15625 29.25 43.1875 25.515625 
Q 47.21875 21.78125 47.21875 15.09375 
Q 47.21875 7.46875 41.1875 3.015625 
Q 35.15625 -1.421875 24.609375 -1.421875 
Q 20.21875 -1.421875 15.453125 -0.5625 
Q 10.6875 0.296875 5.421875 2 
L 5.421875 11.28125 
Q 10.40625 8.6875 15.234375 7.390625 
Q 20.0625 6.109375 24.8125 6.109375 
Q 31.15625 6.109375 34.5625 8.28125 
Q 37.984375 10.453125 37.984375 14.40625 
Q 37.984375 18.0625 35.515625 20.015625 
Q 33.0625 21.96875 24.703125 23.78125 
L 21.578125 24.515625 
Q 13.234375 26.265625 9.515625 29.90625 
Q 5.8125 33.546875 5.8125 39.890625 
Q 5.8125 47.609375 11.28125 51.796875 
Q 16.75 56 26.8125 56 
Q 31.78125 56 36.171875 55.265625 
Q 40.578125 54.546875 44.28125 53.078125 
z
" id="DejaVuSans-115"/>
       <path d="M 30.609375 48.390625 
Q 23.390625 48.390625 19.1875 42.75 
Q 14.984375 37.109375 14.984375 27.296875 
Q 14.984375 17.484375 19.15625 11.84375 
Q 23.34375 6.203125 30.609375 6.203125 
Q 37.796875 6.203125 41.984375 11.859375 
Q 46.1875 17.53125 46.1875 27.296875 
Q 46.1875 37.015625 41.984375 42.703125 
Q 37.796875 48.390625 30.609375 48.390625 
z
M 30.609375 56 
Q 42.328125 56 49.015625 48.375 
Q 55.71875 40.765625 55.71875 27.296875 
Q 55.71875 13.875 49.015625 6.21875 
Q 42.328125 -1.421875 30.609375 -1.421875 
Q 18.84375 -1.421875 12.171875 6.21875 
Q 5.515625 13.875 5.515625 27.296875 
Q 5.515625 40.765625 12.171875 48.375 
Q 18.84375 56 30.609375 56 
z
" id="DejaVuSans-111"/>
      </defs>
      <use xlink:href="#DejaVuSans-68"/>
      <use x="77.001953" xlink:href="#DejaVuSans-105"/>
      <use x="104.785156" xlink:href="#DejaVuSans-109"/>
      <use x="202.197266" xlink:href="#DejaVuSans-101"/>
      <use x="263.720703" xlink:href="#DejaVuSans-110"/>
      <use x="327.099609" xlink:href="#DejaVuSans-115"/>
      <use x="379.199219" xlink:href="#DejaVuSans-105"/>
      <use x="406.982422" xlink:href="#DejaVuSans-111"/>
      <use x="468.164062" xlink:href="#DejaVuSans-110"/>
      <use x="531.542969" xlink:href="#DejaVuSans-115"/>
     </g>
    </g>
   </g>
   <g id="matplotlib.axis_2">
    <g id="ytick_1">
     <g id="line2d_11">
      <defs>
       <path d="M 0 0 
L -3.5 0 
" id="mb605060b88" style="stroke:#000000;stroke-width:0.8;"/>
      </defs>
      <g>
       <use style="stroke:#000000;stroke-width:0.8;" x="54" xlink:href="#mb605060b88" y="244.349335"/>
      </g>
     </g>
     <g id="text_12">
      <!-- 0.0 -->
      <g transform="translate(31.096875 248.148554)scale(0.1 -0.1)">
       <defs>
        <path d="M 10.6875 12.40625 
L 21 12.40625 
L 21 0 
L 10.6875 0 
z
" id="DejaVuSans-46"/>
       </defs>
       <use xlink:href="#DejaVuSans-48"/>
       <use x="63.623047" xlink:href="#DejaVuSans-46"/>
       <use x="95.410156" xlink:href="#DejaVuSans-48"/>
      </g>
     </g>
    </g>
    <g id="ytick_2">
     <g id="line2d_12">
      <g>
       <use style="stroke:#000000;stroke-width:0.8;" x="54" xlink:href="#mb605060b88" y="203.263656"/>
      </g>
     </g>
     <g id="text_13">
      <!-- 0.2 -->
      <g transform="translate(31.096875 207.062875)scale(0.1 -0.1)">
       <use xlink:href="#DejaVuSans-48"/>
       <use x="63.623047" xlink:href="#DejaVuSans-46"/>
       <use x="95.410156" xlink:href="#DejaVuSans-50"/>
      </g>
     </g>
    </g>
    <g id="ytick_3">
     <g id="line2d_13">
      <g>
       <use style="stroke:#000000;stroke-width:0.8;" x="54" xlink:href="#mb605060b88" y="162.177978"/>
      </g>
     </g>
     <g id="text_14">
      <!-- 0.4 -->
      <g transform="translate(31.096875 165.977197)scale(0.1 -0.1)">
       <use xlink:href="#DejaVuSans-48"/>
       <use x="63.623047" xlink:href="#DejaVuSans-46"/>
       <use x="95.410156" xlink:href="#DejaVuSans-52"/>
      </g>
     </g>
    </g>
    <g id="ytick_4">
     <g id="line2d_14">
      <g>
       <use style="stroke:#000000;stroke-width:0.8;" x="54" xlink:href="#mb605060b88" y="121.0923"/>
      </g>
     </g>
     <g id="text_15">
      <!-- 0.6 -->
      <g transform="translate(31.096875 124.891518)scale(0.1 -0.1)">
       <use xlink:href="#DejaVuSans-48"/>
       <use x="63.623047" xlink:href="#DejaVuSans-46"/>
       <use x="95.410156" xlink:href="#DejaVuSans-54"/>
      </g>
     </g>
    </g>
    <g id="ytick_5">
     <g id="line2d_15">
      <g>
       <use style="stroke:#000000;stroke-width:0.8;" x="54" xlink:href="#mb605060b88" y="80.006621"/>
      </g>
     </g>
     <g id="text_16">
      <!-- 0.8 -->
      <g transform="translate(31.096875 83.80584)scale(0.1 -0.1)">
       <use xlink:href="#DejaVuSans-48"/>
       <use x="63.623047" xlink:href="#DejaVuSans-46"/>
       <use x="95.410156" xlink:href="#DejaVuSans-56"/>
      </g>
     </g>
    </g>
    <g id="ytick_6">
     <g id="line2d_16">
      <g>
       <use style="stroke:#000000;stroke-width:0.8;" x="54" xlink:href="#mb605060b88" y="38.920943"/>
      </g>
     </g>
     <g id="text_17">
      <!-- 1.0 -->
      <g transform="translate(31.096875 42.720161)scale(0.1 -0.1)">
       <use xlink:href="#DejaVuSans-49"/>
       <use x="63.623047" xlink:href="#DejaVuSans-46"/>
       <use x="95.410156" xlink:href="#DejaVuSans-48"/>
      </g>
     </g>
    </g>
    <g id="text_18">
     <!-- cumulative fraction of information -->
     <g transform="translate(25.017187 228.725313)rotate(-90)scale(0.1 -0.1)">
      <defs>
       <path d="M 48.78125 52.59375 
L 48.78125 44.1875 
Q 44.96875 46.296875 41.140625 47.34375 
Q 37.3125 48.390625 33.40625 48.390625 
Q 24.65625 48.390625 19.8125 42.84375 
Q 14.984375 37.3125 14.984375 27.296875 
Q 14.984375 17.28125 19.8125 11.734375 
Q 24.65625 6.203125 33.40625 6.203125 
Q 37.3125 6.203125 41.140625 7.25 
Q 44.96875 8.296875 48.78125 10.40625 
L 48.78125 2.09375 
Q 45.015625 0.34375 40.984375 -0.53125 
Q 36.96875 -1.421875 32.421875 -1.421875 
Q 20.0625 -1.421875 12.78125 6.34375 
Q 5.515625 14.109375 5.515625 27.296875 
Q 5.515625 40.671875 12.859375 48.328125 
Q 20.21875 56 33.015625 56 
Q 37.15625 56 41.109375 55.140625 
Q 45.0625 54.296875 48.78125 52.59375 
z
" id="DejaVuSans-99"/>
       <path d="M 8.5 21.578125 
L 8.5 54.6875 
L 17.484375 54.6875 
L 17.484375 21.921875 
Q 17.484375 14.15625 20.5 10.265625 
Q 23.53125 6.390625 29.59375 6.390625 
Q 36.859375 6.390625 41.078125 11.03125 
Q 45.3125 15.671875 45.3125 23.6875 
L 45.3125 54.6875 
L 54.296875 54.6875 
L 54.296875 0 
L 45.3125 0 
L 45.3125 8.40625 
Q 42.046875 3.421875 37.71875 1 
Q 33.40625 -1.421875 27.6875 -1.421875 
Q 18.265625 -1.421875 13.375 4.4375 
Q 8.5 10.296875 8.5 21.578125 
z
M 31.109375 56 
z
" id="DejaVuSans-117"/>
       <path d="M 9.421875 75.984375 
L 18.40625 75.984375 
L 18.40625 0 
L 9.421875 0 
z
" id="DejaVuSans-108"/>
       <path d="M 34.28125 27.484375 
Q 23.390625 27.484375 19.1875 25 
Q 14.984375 22.515625 14.984375 16.5 
Q 14.984375 11.71875 18.140625 8.90625 
Q 21.296875 6.109375 26.703125 6.109375 
Q 34.1875 6.109375 38.703125 11.40625 
Q 43.21875 16.703125 43.21875 25.484375 
L 43.21875 27.484375 
z
M 52.203125 31.203125 
L 52.203125 0 
L 43.21875 0 
L 43.21875 8.296875 
Q 40.140625 3.328125 35.546875 0.953125 
Q 30.953125 -1.421875 24.3125 -1.421875 
Q 15.921875 -1.421875 10.953125 3.296875 
Q 6 8.015625 6 15.921875 
Q 6 25.140625 12.171875 29.828125 
Q 18.359375 34.515625 30.609375 34.515625 
L 43.21875 34.515625 
L 43.21875 35.40625 
Q 43.21875 41.609375 39.140625 45 
Q 35.0625 48.390625 27.6875 48.390625 
Q 23 48.390625 18.546875 47.265625 
Q 14.109375 46.140625 10.015625 43.890625 
L 10.015625 52.203125 
Q 14.9375 54.109375 19.578125 55.046875 
Q 24.21875 56 28.609375 56 
Q 40.484375 56 46.34375 49.84375 
Q 52.203125 43.703125 52.203125 31.203125 
z
" id="DejaVuSans-97"/>
       <path d="M 18.3125 70.21875 
L 18.3125 54.6875 
L 36.8125 54.6875 
L 36.8125 47.703125 
L 18.3125 47.703125 
L 18.3125 18.015625 
Q 18.3125 11.328125 20.140625 9.421875 
Q 21.96875 7.515625 27.59375 7.515625 
L 36.8125 7.515625 
L 36.8125 0 
L 27.59375 0 
Q 17.1875 0 13.234375 3.875 
Q 9.28125 7.765625 9.28125 18.015625 
L 9.28125 47.703125 
L 2.6875 47.703125 
L 2.6875 54.6875 
L 9.28125 54.6875 
L 9.28125 70.21875 
z
" id="DejaVuSans-116"/>
       <path d="M 2.984375 54.6875 
L 12.5 54.6875 
L 29.59375 8.796875 
L 46.6875 54.6875 
L 56.203125 54.6875 
L 35.6875 0 
L 23.484375 0 
z
" id="DejaVuSans-118"/>
       <path id="DejaVuSans-32"/>
       <path d="M 37.109375 75.984375 
L 37.109375 68.5 
L 28.515625 68.5 
Q 23.6875 68.5 21.796875 66.546875 
Q 19.921875 64.59375 19.921875 59.515625 
L 19.921875 54.6875 
L 34.71875 54.6875 
L 34.71875 47.703125 
L 19.921875 47.703125 
L 19.921875 0 
L 10.890625 0 
L 10.890625 47.703125 
L 2.296875 47.703125 
L 2.296875 54.6875 
L 10.890625 54.6875 
L 10.890625 58.5 
Q 10.890625 67.625 15.140625 71.796875 
Q 19.390625 75.984375 28.609375 75.984375 
z
" id="DejaVuSans-102"/>
       <path d="M 41.109375 46.296875 
Q 39.59375 47.171875 37.8125 47.578125 
Q 36.03125 48 33.890625 48 
Q 26.265625 48 22.1875 43.046875 
Q 18.109375 38.09375 18.109375 28.8125 
L 18.109375 0 
L 9.078125 0 
L 9.078125 54.6875 
L 18.109375 54.6875 
L 18.109375 46.1875 
Q 20.953125 51.171875 25.484375 53.578125 
Q 30.03125 56 36.53125 56 
Q 37.453125 56 38.578125 55.875 
Q 39.703125 55.765625 41.0625 55.515625 
z
" id="DejaVuSans-114"/>
      </defs>
      <use xlink:href="#DejaVuSans-99"/>
      <use x="54.980469" xlink:href="#DejaVuSans-117"/>
      <use x="118.359375" xlink:href="#DejaVuSans-109"/>
      <use x="215.771484" xlink:href="#DejaVuSans-117"/>
      <use x="279.150391" xlink:href="#DejaVuSans-108"/>
      <use x="306.933594" xlink:href="#DejaVuSans-97"/>
      <use x="368.212891" xlink:href="#DejaVuSans-116"/>
      <use x="407.421875" xlink:href="#DejaVuSans-105"/>
      <use x="435.205078" xlink:href="#DejaVuSans-118"/>
      <use x="494.384766" xlink:href="#DejaVuSans-101"/>
      <use x="555.908203" xlink:href="#DejaVuSans-32"/>
      <use x="587.695312" xlink:href="#DejaVuSans-102"/>
      <use x="622.900391" xlink:href="#DejaVuSans-114"/>
      <use x="664.013672" xlink:href="#DejaVuSans-97"/>
      <use x="725.292969" xlink:href="#DejaVuSans-99"/>
      <use x="780.273438" xlink:href="#DejaVuSans-116"/>
      <use x="819.482422" xlink:href="#DejaVuSans-105"/>
      <use x="847.265625" xlink:href="#DejaVuSans-111"/>
      <use x="908.447266" xlink:href="#DejaVuSans-110"/>
      <use x="971.826172" xlink:href="#DejaVuSans-32"/>
      <use x="1003.613281" xlink:href="#DejaVuSans-111"/>
      <use x="1064.794922" xlink:href="#DejaVuSans-102"/>
      <use x="1100" xlink:href="#DejaVuSans-32"/>
      <use x="1131.787109" xlink:href="#DejaVuSans-105"/>
      <use x="1159.570312" xlink:href="#DejaVuSans-110"/>
      <use x="1222.949219" xlink:href="#DejaVuSans-102"/>
      <use x="1258.154297" xlink:href="#DejaVuSans-111"/>
      <use x="1319.335938" xlink:href="#DejaVuSans-114"/>
      <use x="1358.699219" xlink:href="#DejaVuSans-109"/>
      <use x="1456.111328" xlink:href="#DejaVuSans-97"/>
      <use x="1517.390625" xlink:href="#DejaVuSans-116"/>
      <use x="1556.599609" xlink:href="#DejaVuSans-105"/>
      <use x="1584.382812" xlink:href="#DejaVuSans-111"/>
      <use x="1645.564453" xlink:href="#DejaVuSans-110"/>
     </g>
    </g>
   </g>
   <g id="line2d_17">
    <path clip-path="url(#p675225863b)" d="M 60.696 208.966228 
L 60.696 214.720979 
" style="fill:none;stroke:#2c2c2c;stroke-linecap:square;stroke-width:1.5;"/>
   </g>
   <g id="line2d_18">
    <path clip-path="url(#p675225863b)" d="M 60.696 196.141086 
L 60.696 180.770494 
" style="fill:none;stroke:#2c2c2c;stroke-linecap:square;stroke-width:1.5;"/>
   </g>
   <g id="line2d_19">
    <path clip-path="url(#p675225863b)" d="M 59.05548 214.720979 
L 62.33652 214.720979 
" style="fill:none;stroke:#2c2c2c;stroke-linecap:square;stroke-width:1.5;"/>
   </g>
   <g id="line2d_20">
    <path clip-path="url(#p675225863b)" d="M 59.05548 180.770494 
L 62.33652 180.770494 
" style="fill:none;stroke:#2c2c2c;stroke-linecap:square;stroke-width:1.5;"/>
   </g>
   <g id="line2d_21">
    <path clip-path="url(#p675225863b)" d="M 67.392 207.365104 
L 67.392 213.779388 
" style="fill:none;stroke:#2c2c2c;stroke-linecap:square;stroke-width:1.5;"/>
   </g>
   <g id="line2d_22">
    <path clip-path="url(#p675225863b)" d="M 67.392 198.65251 
L 67.392 188.372958 
" style="fill:none;stroke:#2c2c2c;stroke-linecap:square;stroke-width:1.5;"/>
   </g>
   <g id="line2d_23">
    <path clip-path="url(#p675225863b)" d="M 65.75148 213.779388 
L 69.03252 213.779388 
" style="fill:none;stroke:#2c2c2c;stroke-linecap:square;stroke-width:1.5;"/>
   </g>
   <g id="line2d_24">
    <path clip-path="url(#p675225863b)" d="M 65.75148 188.372958 
L 69.03252 188.372958 
" style="fill:none;stroke:#2c2c2c;stroke-linecap:square;stroke-width:1.5;"/>
   </g>
   <g id="line2d_25">
    <path clip-path="url(#p675225863b)" d="M 74.088 214.070266 
L 74.088 215.082329 
" style="fill:none;stroke:#2c2c2c;stroke-linecap:square;stroke-width:1.5;"/>
   </g>
   <g id="line2d_26">
    <path clip-path="url(#p675225863b)" d="M 74.088 194.433562 
L 74.088 189.127362 
" style="fill:none;stroke:#2c2c2c;stroke-linecap:square;stroke-width:1.5;"/>
   </g>
   <g id="line2d_27">
    <path clip-path="url(#p675225863b)" d="M 72.44748 215.082329 
L 75.72852 215.082329 
" style="fill:none;stroke:#2c2c2c;stroke-linecap:square;stroke-width:1.5;"/>
   </g>
   <g id="line2d_28">
    <path clip-path="url(#p675225863b)" d="M 72.44748 189.127362 
L 75.72852 189.127362 
" style="fill:none;stroke:#2c2c2c;stroke-linecap:square;stroke-width:1.5;"/>
   </g>
   <g id="line2d_29">
    <path clip-path="url(#p675225863b)" d="M 80.784 241.967349 
L 80.784 242.116364 
" style="fill:none;stroke:#2c2c2c;stroke-linecap:square;stroke-width:1.5;"/>
   </g>
   <g id="line2d_30">
    <path clip-path="url(#p675225863b)" d="M 80.784 239.097126 
L 80.784 235.429602 
" style="fill:none;stroke:#2c2c2c;stroke-linecap:square;stroke-width:1.5;"/>
   </g>
   <g id="line2d_31">
    <path clip-path="url(#p675225863b)" d="M 79.14348 242.116364 
L 82.42452 242.116364 
" style="fill:none;stroke:#2c2c2c;stroke-linecap:square;stroke-width:1.5;"/>
   </g>
   <g id="line2d_32">
    <path clip-path="url(#p675225863b)" d="M 79.14348 235.429602 
L 82.42452 235.429602 
" style="fill:none;stroke:#2c2c2c;stroke-linecap:square;stroke-width:1.5;"/>
   </g>
   <g id="line2d_33">
    <path clip-path="url(#p675225863b)" d="M 94.176 181.181621 
L 94.176 191.058989 
" style="fill:none;stroke:#2c2c2c;stroke-linecap:square;stroke-width:1.5;"/>
   </g>
   <g id="line2d_34">
    <path clip-path="url(#p675225863b)" d="M 94.176 164.085799 
L 94.176 148.347082 
" style="fill:none;stroke:#2c2c2c;stroke-linecap:square;stroke-width:1.5;"/>
   </g>
   <g id="line2d_35">
    <path clip-path="url(#p675225863b)" d="M 92.53548 191.058989 
L 95.81652 191.058989 
" style="fill:none;stroke:#2c2c2c;stroke-linecap:square;stroke-width:1.5;"/>
   </g>
   <g id="line2d_36">
    <path clip-path="url(#p675225863b)" d="M 92.53548 148.347082 
L 95.81652 148.347082 
" style="fill:none;stroke:#2c2c2c;stroke-linecap:square;stroke-width:1.5;"/>
   </g>
   <g id="line2d_37">
    <path clip-path="url(#p675225863b)" d="M 100.872 176.094524 
L 100.872 188.908187 
" style="fill:none;stroke:#2c2c2c;stroke-linecap:square;stroke-width:1.5;"/>
   </g>
   <g id="line2d_38">
    <path clip-path="url(#p675225863b)" d="M 100.872 163.08014 
L 100.872 152.22198 
" style="fill:none;stroke:#2c2c2c;stroke-linecap:square;stroke-width:1.5;"/>
   </g>
   <g id="line2d_39">
    <path clip-path="url(#p675225863b)" d="M 99.23148 188.908187 
L 102.51252 188.908187 
" style="fill:none;stroke:#2c2c2c;stroke-linecap:square;stroke-width:1.5;"/>
   </g>
   <g id="line2d_40">
    <path clip-path="url(#p675225863b)" d="M 99.23148 152.22198 
L 102.51252 152.22198 
" style="fill:none;stroke:#2c2c2c;stroke-linecap:square;stroke-width:1.5;"/>
   </g>
   <g id="line2d_41">
    <path clip-path="url(#p675225863b)" d="M 107.568 184.806212 
L 107.568 186.381734 
" style="fill:none;stroke:#2c2c2c;stroke-linecap:square;stroke-width:1.5;"/>
   </g>
   <g id="line2d_42">
    <path clip-path="url(#p675225863b)" d="M 107.568 172.871088 
L 107.568 161.14726 
" style="fill:none;stroke:#2c2c2c;stroke-linecap:square;stroke-width:1.5;"/>
   </g>
   <g id="line2d_43">
    <path clip-path="url(#p675225863b)" d="M 105.92748 186.381734 
L 109.20852 186.381734 
" style="fill:none;stroke:#2c2c2c;stroke-linecap:square;stroke-width:1.5;"/>
   </g>
   <g id="line2d_44">
    <path clip-path="url(#p675225863b)" d="M 105.92748 161.14726 
L 109.20852 161.14726 
" style="fill:none;stroke:#2c2c2c;stroke-linecap:square;stroke-width:1.5;"/>
   </g>
   <g id="line2d_45">
    <path clip-path="url(#p675225863b)" d="M 114.264 239.649615 
L 114.264 239.884711 
" style="fill:none;stroke:#2c2c2c;stroke-linecap:square;stroke-width:1.5;"/>
   </g>
   <g id="line2d_46">
    <path clip-path="url(#p675225863b)" d="M 114.264 236.752274 
L 114.264 233.123827 
" style="fill:none;stroke:#2c2c2c;stroke-linecap:square;stroke-width:1.5;"/>
   </g>
   <g id="line2d_47">
    <path clip-path="url(#p675225863b)" d="M 112.62348 239.884711 
L 115.90452 239.884711 
" style="fill:none;stroke:#2c2c2c;stroke-linecap:square;stroke-width:1.5;"/>
   </g>
   <g id="line2d_48">
    <path clip-path="url(#p675225863b)" d="M 112.62348 233.123827 
L 115.90452 233.123827 
" style="fill:none;stroke:#2c2c2c;stroke-linecap:square;stroke-width:1.5;"/>
   </g>
   <g id="line2d_49">
    <path clip-path="url(#p675225863b)" d="M 127.656 157.843096 
L 127.656 169.555642 
" style="fill:none;stroke:#2c2c2c;stroke-linecap:square;stroke-width:1.5;"/>
   </g>
   <g id="line2d_50">
    <path clip-path="url(#p675225863b)" d="M 127.656 137.61343 
L 127.656 124.401093 
" style="fill:none;stroke:#2c2c2c;stroke-linecap:square;stroke-width:1.5;"/>
   </g>
   <g id="line2d_51">
    <path clip-path="url(#p675225863b)" d="M 126.01548 169.555642 
L 129.29652 169.555642 
" style="fill:none;stroke:#2c2c2c;stroke-linecap:square;stroke-width:1.5;"/>
   </g>
   <g id="line2d_52">
    <path clip-path="url(#p675225863b)" d="M 126.01548 124.401093 
L 129.29652 124.401093 
" style="fill:none;stroke:#2c2c2c;stroke-linecap:square;stroke-width:1.5;"/>
   </g>
   <g id="line2d_53">
    <path clip-path="url(#p675225863b)" d="M 134.352 149.593441 
L 134.352 167.383153 
" style="fill:none;stroke:#2c2c2c;stroke-linecap:square;stroke-width:1.5;"/>
   </g>
   <g id="line2d_54">
    <path clip-path="url(#p675225863b)" d="M 134.352 135.560251 
L 134.352 125.47929 
" style="fill:none;stroke:#2c2c2c;stroke-linecap:square;stroke-width:1.5;"/>
   </g>
   <g id="line2d_55">
    <path clip-path="url(#p675225863b)" d="M 132.71148 167.383153 
L 135.99252 167.383153 
" style="fill:none;stroke:#2c2c2c;stroke-linecap:square;stroke-width:1.5;"/>
   </g>
   <g id="line2d_56">
    <path clip-path="url(#p675225863b)" d="M 132.71148 125.47929 
L 135.99252 125.47929 
" style="fill:none;stroke:#2c2c2c;stroke-linecap:square;stroke-width:1.5;"/>
   </g>
   <g id="line2d_57">
    <path clip-path="url(#p675225863b)" d="M 141.048 159.51076 
L 141.048 160.786836 
" style="fill:none;stroke:#2c2c2c;stroke-linecap:square;stroke-width:1.5;"/>
   </g>
   <g id="line2d_58">
    <path clip-path="url(#p675225863b)" d="M 141.048 148.277146 
L 141.048 139.39776 
" style="fill:none;stroke:#2c2c2c;stroke-linecap:square;stroke-width:1.5;"/>
   </g>
   <g id="line2d_59">
    <path clip-path="url(#p675225863b)" d="M 139.40748 160.786836 
L 142.68852 160.786836 
" style="fill:none;stroke:#2c2c2c;stroke-linecap:square;stroke-width:1.5;"/>
   </g>
   <g id="line2d_60">
    <path clip-path="url(#p675225863b)" d="M 139.40748 139.39776 
L 142.68852 139.39776 
" style="fill:none;stroke:#2c2c2c;stroke-linecap:square;stroke-width:1.5;"/>
   </g>
   <g id="line2d_61">
    <path clip-path="url(#p675225863b)" d="M 147.744 237.381277 
L 147.744 237.653649 
" style="fill:none;stroke:#2c2c2c;stroke-linecap:square;stroke-width:1.5;"/>
   </g>
   <g id="line2d_62">
    <path clip-path="url(#p675225863b)" d="M 147.744 234.411296 
L 147.744 230.821377 
" style="fill:none;stroke:#2c2c2c;stroke-linecap:square;stroke-width:1.5;"/>
   </g>
   <g id="line2d_63">
    <path clip-path="url(#p675225863b)" d="M 146.10348 237.653649 
L 149.38452 237.653649 
" style="fill:none;stroke:#2c2c2c;stroke-linecap:square;stroke-width:1.5;"/>
   </g>
   <g id="line2d_64">
    <path clip-path="url(#p675225863b)" d="M 146.10348 230.821377 
L 149.38452 230.821377 
" style="fill:none;stroke:#2c2c2c;stroke-linecap:square;stroke-width:1.5;"/>
   </g>
   <g id="line2d_65">
    <path clip-path="url(#p675225863b)" d="M 161.136 135.960435 
L 161.136 151.124326 
" style="fill:none;stroke:#2c2c2c;stroke-linecap:square;stroke-width:1.5;"/>
   </g>
   <g id="line2d_66">
    <path clip-path="url(#p675225863b)" d="M 161.136 114.420435 
L 161.136 105.499862 
" style="fill:none;stroke:#2c2c2c;stroke-linecap:square;stroke-width:1.5;"/>
   </g>
   <g id="line2d_67">
    <path clip-path="url(#p675225863b)" d="M 159.49548 151.124326 
L 162.77652 151.124326 
" style="fill:none;stroke:#2c2c2c;stroke-linecap:square;stroke-width:1.5;"/>
   </g>
   <g id="line2d_68">
    <path clip-path="url(#p675225863b)" d="M 159.49548 105.499862 
L 162.77652 105.499862 
" style="fill:none;stroke:#2c2c2c;stroke-linecap:square;stroke-width:1.5;"/>
   </g>
   <g id="line2d_69">
    <path clip-path="url(#p675225863b)" d="M 167.832 129.221879 
L 167.832 148.333637 
" style="fill:none;stroke:#2c2c2c;stroke-linecap:square;stroke-width:1.5;"/>
   </g>
   <g id="line2d_70">
    <path clip-path="url(#p675225863b)" d="M 167.832 112.394516 
L 167.832 104.860956 
" style="fill:none;stroke:#2c2c2c;stroke-linecap:square;stroke-width:1.5;"/>
   </g>
   <g id="line2d_71">
    <path clip-path="url(#p675225863b)" d="M 166.19148 148.333637 
L 169.47252 148.333637 
" style="fill:none;stroke:#2c2c2c;stroke-linecap:square;stroke-width:1.5;"/>
   </g>
   <g id="line2d_72">
    <path clip-path="url(#p675225863b)" d="M 166.19148 104.860956 
L 169.47252 104.860956 
" style="fill:none;stroke:#2c2c2c;stroke-linecap:square;stroke-width:1.5;"/>
   </g>
   <g id="line2d_73">
    <path clip-path="url(#p675225863b)" d="M 174.528 136.753008 
L 174.528 138.404982 
" style="fill:none;stroke:#2c2c2c;stroke-linecap:square;stroke-width:1.5;"/>
   </g>
   <g id="line2d_74">
    <path clip-path="url(#p675225863b)" d="M 174.528 127.385205 
L 174.528 121.517143 
" style="fill:none;stroke:#2c2c2c;stroke-linecap:square;stroke-width:1.5;"/>
   </g>
   <g id="line2d_75">
    <path clip-path="url(#p675225863b)" d="M 172.88748 138.404982 
L 176.16852 138.404982 
" style="fill:none;stroke:#2c2c2c;stroke-linecap:square;stroke-width:1.5;"/>
   </g>
   <g id="line2d_76">
    <path clip-path="url(#p675225863b)" d="M 172.88748 121.517143 
L 176.16852 121.517143 
" style="fill:none;stroke:#2c2c2c;stroke-linecap:square;stroke-width:1.5;"/>
   </g>
   <g id="line2d_77">
    <path clip-path="url(#p675225863b)" d="M 181.224 235.103318 
L 181.224 235.434549 
" style="fill:none;stroke:#2c2c2c;stroke-linecap:square;stroke-width:1.5;"/>
   </g>
   <g id="line2d_78">
    <path clip-path="url(#p675225863b)" d="M 181.224 232.170947 
L 181.224 228.572084 
" style="fill:none;stroke:#2c2c2c;stroke-linecap:square;stroke-width:1.5;"/>
   </g>
   <g id="line2d_79">
    <path clip-path="url(#p675225863b)" d="M 179.58348 235.434549 
L 182.86452 235.434549 
" style="fill:none;stroke:#2c2c2c;stroke-linecap:square;stroke-width:1.5;"/>
   </g>
   <g id="line2d_80">
    <path clip-path="url(#p675225863b)" d="M 179.58348 228.572084 
L 182.86452 228.572084 
" style="fill:none;stroke:#2c2c2c;stroke-linecap:square;stroke-width:1.5;"/>
   </g>
   <g id="line2d_81">
    <path clip-path="url(#p675225863b)" d="M 194.616 116.617174 
L 194.616 134.24205 
" style="fill:none;stroke:#2c2c2c;stroke-linecap:square;stroke-width:1.5;"/>
   </g>
   <g id="line2d_82">
    <path clip-path="url(#p675225863b)" d="M 194.616 95.113428 
L 194.616 87.766757 
" style="fill:none;stroke:#2c2c2c;stroke-linecap:square;stroke-width:1.5;"/>
   </g>
   <g id="line2d_83">
    <path clip-path="url(#p675225863b)" d="M 192.97548 134.24205 
L 196.25652 134.24205 
" style="fill:none;stroke:#2c2c2c;stroke-linecap:square;stroke-width:1.5;"/>
   </g>
   <g id="line2d_84">
    <path clip-path="url(#p675225863b)" d="M 192.97548 87.766757 
L 196.25652 87.766757 
" style="fill:none;stroke:#2c2c2c;stroke-linecap:square;stroke-width:1.5;"/>
   </g>
   <g id="line2d_85">
    <path clip-path="url(#p675225863b)" d="M 201.312 112.389881 
L 201.312 129.349441 
" style="fill:none;stroke:#2c2c2c;stroke-linecap:square;stroke-width:1.5;"/>
   </g>
   <g id="line2d_86">
    <path clip-path="url(#p675225863b)" d="M 201.312 93.112524 
L 201.312 90.572418 
" style="fill:none;stroke:#2c2c2c;stroke-linecap:square;stroke-width:1.5;"/>
   </g>
   <g id="line2d_87">
    <path clip-path="url(#p675225863b)" d="M 199.67148 129.349441 
L 202.95252 129.349441 
" style="fill:none;stroke:#2c2c2c;stroke-linecap:square;stroke-width:1.5;"/>
   </g>
   <g id="line2d_88">
    <path clip-path="url(#p675225863b)" d="M 199.67148 90.572418 
L 202.95252 90.572418 
" style="fill:none;stroke:#2c2c2c;stroke-linecap:square;stroke-width:1.5;"/>
   </g>
   <g id="line2d_89">
    <path clip-path="url(#p675225863b)" d="M 208.008 118.781756 
L 208.008 119.690865 
" style="fill:none;stroke:#2c2c2c;stroke-linecap:square;stroke-width:1.5;"/>
   </g>
   <g id="line2d_90">
    <path clip-path="url(#p675225863b)" d="M 208.008 109.825128 
L 208.008 103.637968 
" style="fill:none;stroke:#2c2c2c;stroke-linecap:square;stroke-width:1.5;"/>
   </g>
   <g id="line2d_91">
    <path clip-path="url(#p675225863b)" d="M 206.36748 119.690865 
L 209.64852 119.690865 
" style="fill:none;stroke:#2c2c2c;stroke-linecap:square;stroke-width:1.5;"/>
   </g>
   <g id="line2d_92">
    <path clip-path="url(#p675225863b)" d="M 206.36748 103.637968 
L 209.64852 103.637968 
" style="fill:none;stroke:#2c2c2c;stroke-linecap:square;stroke-width:1.5;"/>
   </g>
   <g id="line2d_93">
    <path clip-path="url(#p675225863b)" d="M 214.704 232.854784 
L 214.704 233.221476 
" style="fill:none;stroke:#2c2c2c;stroke-linecap:square;stroke-width:1.5;"/>
   </g>
   <g id="line2d_94">
    <path clip-path="url(#p675225863b)" d="M 214.704 229.936041 
L 214.704 226.32905 
" style="fill:none;stroke:#2c2c2c;stroke-linecap:square;stroke-width:1.5;"/>
   </g>
   <g id="line2d_95">
    <path clip-path="url(#p675225863b)" d="M 213.06348 233.221476 
L 216.34452 233.221476 
" style="fill:none;stroke:#2c2c2c;stroke-linecap:square;stroke-width:1.5;"/>
   </g>
   <g id="line2d_96">
    <path clip-path="url(#p675225863b)" d="M 213.06348 226.32905 
L 216.34452 226.32905 
" style="fill:none;stroke:#2c2c2c;stroke-linecap:square;stroke-width:1.5;"/>
   </g>
   <g id="line2d_97">
    <path clip-path="url(#p675225863b)" d="M 228.096 100.311109 
L 228.096 117.377985 
" style="fill:none;stroke:#2c2c2c;stroke-linecap:square;stroke-width:1.5;"/>
   </g>
   <g id="line2d_98">
    <path clip-path="url(#p675225863b)" d="M 228.096 80.230156 
L 228.096 72.91693 
" style="fill:none;stroke:#2c2c2c;stroke-linecap:square;stroke-width:1.5;"/>
   </g>
   <g id="line2d_99">
    <path clip-path="url(#p675225863b)" d="M 226.45548 117.377985 
L 229.73652 117.377985 
" style="fill:none;stroke:#2c2c2c;stroke-linecap:square;stroke-width:1.5;"/>
   </g>
   <g id="line2d_100">
    <path clip-path="url(#p675225863b)" d="M 226.45548 72.91693 
L 229.73652 72.91693 
" style="fill:none;stroke:#2c2c2c;stroke-linecap:square;stroke-width:1.5;"/>
   </g>
   <g id="line2d_101">
    <path clip-path="url(#p675225863b)" d="M 234.792 97.925931 
L 234.792 110.416931 
" style="fill:none;stroke:#2c2c2c;stroke-linecap:square;stroke-width:1.5;"/>
   </g>
   <g id="line2d_102">
    <path clip-path="url(#p675225863b)" d="M 234.792 79.689859 
L 234.792 75.447164 
" style="fill:none;stroke:#2c2c2c;stroke-linecap:square;stroke-width:1.5;"/>
   </g>
   <g id="line2d_103">
    <path clip-path="url(#p675225863b)" d="M 233.15148 110.416931 
L 236.43252 110.416931 
" style="fill:none;stroke:#2c2c2c;stroke-linecap:square;stroke-width:1.5;"/>
   </g>
   <g id="line2d_104">
    <path clip-path="url(#p675225863b)" d="M 233.15148 75.447164 
L 236.43252 75.447164 
" style="fill:none;stroke:#2c2c2c;stroke-linecap:square;stroke-width:1.5;"/>
   </g>
   <g id="line2d_105">
    <path clip-path="url(#p675225863b)" d="M 241.488 101.331968 
L 241.488 101.490565 
" style="fill:none;stroke:#2c2c2c;stroke-linecap:square;stroke-width:1.5;"/>
   </g>
   <g id="line2d_106">
    <path clip-path="url(#p675225863b)" d="M 241.488 95.675394 
L 241.488 88.477134 
" style="fill:none;stroke:#2c2c2c;stroke-linecap:square;stroke-width:1.5;"/>
   </g>
   <g id="line2d_107">
    <path clip-path="url(#p675225863b)" d="M 239.84748 101.490565 
L 243.12852 101.490565 
" style="fill:none;stroke:#2c2c2c;stroke-linecap:square;stroke-width:1.5;"/>
   </g>
   <g id="line2d_108">
    <path clip-path="url(#p675225863b)" d="M 239.84748 88.477134 
L 243.12852 88.477134 
" style="fill:none;stroke:#2c2c2c;stroke-linecap:square;stroke-width:1.5;"/>
   </g>
   <g id="line2d_109">
    <path clip-path="url(#p675225863b)" d="M 248.184 230.619649 
L 248.184 231.008414 
" style="fill:none;stroke:#2c2c2c;stroke-linecap:square;stroke-width:1.5;"/>
   </g>
   <g id="line2d_110">
    <path clip-path="url(#p675225863b)" d="M 248.184 227.718453 
L 248.184 224.137905 
" style="fill:none;stroke:#2c2c2c;stroke-linecap:square;stroke-width:1.5;"/>
   </g>
   <g id="line2d_111">
    <path clip-path="url(#p675225863b)" d="M 246.54348 231.008414 
L 249.82452 231.008414 
" style="fill:none;stroke:#2c2c2c;stroke-linecap:square;stroke-width:1.5;"/>
   </g>
   <g id="line2d_112">
    <path clip-path="url(#p675225863b)" d="M 246.54348 224.137905 
L 249.82452 224.137905 
" style="fill:none;stroke:#2c2c2c;stroke-linecap:square;stroke-width:1.5;"/>
   </g>
   <g id="line2d_113">
    <path clip-path="url(#p675225863b)" d="M 261.576 86.302782 
L 261.576 101.385355 
" style="fill:none;stroke:#2c2c2c;stroke-linecap:square;stroke-width:1.5;"/>
   </g>
   <g id="line2d_114">
    <path clip-path="url(#p675225863b)" d="M 261.576 68.169272 
L 261.576 61.660223 
" style="fill:none;stroke:#2c2c2c;stroke-linecap:square;stroke-width:1.5;"/>
   </g>
   <g id="line2d_115">
    <path clip-path="url(#p675225863b)" d="M 259.93548 101.385355 
L 263.21652 101.385355 
" style="fill:none;stroke:#2c2c2c;stroke-linecap:square;stroke-width:1.5;"/>
   </g>
   <g id="line2d_116">
    <path clip-path="url(#p675225863b)" d="M 259.93548 61.660223 
L 263.21652 61.660223 
" style="fill:none;stroke:#2c2c2c;stroke-linecap:square;stroke-width:1.5;"/>
   </g>
   <g id="line2d_117">
    <path clip-path="url(#p675225863b)" d="M 268.272 85.350278 
L 268.272 93.140271 
" style="fill:none;stroke:#2c2c2c;stroke-linecap:square;stroke-width:1.5;"/>
   </g>
   <g id="line2d_118">
    <path clip-path="url(#p675225863b)" d="M 268.272 68.665963 
L 268.272 63.900648 
" style="fill:none;stroke:#2c2c2c;stroke-linecap:square;stroke-width:1.5;"/>
   </g>
   <g id="line2d_119">
    <path clip-path="url(#p675225863b)" d="M 266.63148 93.140271 
L 269.91252 93.140271 
" style="fill:none;stroke:#2c2c2c;stroke-linecap:square;stroke-width:1.5;"/>
   </g>
   <g id="line2d_120">
    <path clip-path="url(#p675225863b)" d="M 266.63148 63.900648 
L 269.91252 63.900648 
" style="fill:none;stroke:#2c2c2c;stroke-linecap:square;stroke-width:1.5;"/>
   </g>
   <g id="line2d_121">
    <path clip-path="url(#p675225863b)" d="M 274.968 86.121293 
L 274.968 87.519202 
" style="fill:none;stroke:#2c2c2c;stroke-linecap:square;stroke-width:1.5;"/>
   </g>
   <g id="line2d_122">
    <path clip-path="url(#p675225863b)" d="M 274.968 82.97084 
L 274.968 81.929166 
" style="fill:none;stroke:#2c2c2c;stroke-linecap:square;stroke-width:1.5;"/>
   </g>
   <g id="line2d_123">
    <path clip-path="url(#p675225863b)" d="M 273.32748 87.519202 
L 276.60852 87.519202 
" style="fill:none;stroke:#2c2c2c;stroke-linecap:square;stroke-width:1.5;"/>
   </g>
   <g id="line2d_124">
    <path clip-path="url(#p675225863b)" d="M 273.32748 81.929166 
L 276.60852 81.929166 
" style="fill:none;stroke:#2c2c2c;stroke-linecap:square;stroke-width:1.5;"/>
   </g>
   <g id="line2d_125">
    <path clip-path="url(#p675225863b)" d="M 281.664 228.390057 
L 281.664 228.796397 
" style="fill:none;stroke:#2c2c2c;stroke-linecap:square;stroke-width:1.5;"/>
   </g>
   <g id="line2d_126">
    <path clip-path="url(#p675225863b)" d="M 281.664 225.505056 
L 281.664 221.9502 
" style="fill:none;stroke:#2c2c2c;stroke-linecap:square;stroke-width:1.5;"/>
   </g>
   <g id="line2d_127">
    <path clip-path="url(#p675225863b)" d="M 280.02348 228.796397 
L 283.30452 228.796397 
" style="fill:none;stroke:#2c2c2c;stroke-linecap:square;stroke-width:1.5;"/>
   </g>
   <g id="line2d_128">
    <path clip-path="url(#p675225863b)" d="M 280.02348 221.9502 
L 283.30452 221.9502 
" style="fill:none;stroke:#2c2c2c;stroke-linecap:square;stroke-width:1.5;"/>
   </g>
   <g id="line2d_129">
    <path clip-path="url(#p675225863b)" d="M 295.056 74.357803 
L 295.056 87.096657 
" style="fill:none;stroke:#2c2c2c;stroke-linecap:square;stroke-width:1.5;"/>
   </g>
   <g id="line2d_130">
    <path clip-path="url(#p675225863b)" d="M 295.056 58.791369 
L 295.056 53.613763 
" style="fill:none;stroke:#2c2c2c;stroke-linecap:square;stroke-width:1.5;"/>
   </g>
   <g id="line2d_131">
    <path clip-path="url(#p675225863b)" d="M 293.41548 87.096657 
L 296.69652 87.096657 
" style="fill:none;stroke:#2c2c2c;stroke-linecap:square;stroke-width:1.5;"/>
   </g>
   <g id="line2d_132">
    <path clip-path="url(#p675225863b)" d="M 293.41548 53.613763 
L 296.69652 53.613763 
" style="fill:none;stroke:#2c2c2c;stroke-linecap:square;stroke-width:1.5;"/>
   </g>
   <g id="line2d_133">
    <path clip-path="url(#p675225863b)" d="M 301.752 74.636513 
L 301.752 80.582485 
" style="fill:none;stroke:#2c2c2c;stroke-linecap:square;stroke-width:1.5;"/>
   </g>
   <g id="line2d_134">
    <path clip-path="url(#p675225863b)" d="M 301.752 60.063197 
L 301.752 55.904999 
" style="fill:none;stroke:#2c2c2c;stroke-linecap:square;stroke-width:1.5;"/>
   </g>
   <g id="line2d_135">
    <path clip-path="url(#p675225863b)" d="M 300.11148 80.582485 
L 303.39252 80.582485 
" style="fill:none;stroke:#2c2c2c;stroke-linecap:square;stroke-width:1.5;"/>
   </g>
   <g id="line2d_136">
    <path clip-path="url(#p675225863b)" d="M 300.11148 55.904999 
L 303.39252 55.904999 
" style="fill:none;stroke:#2c2c2c;stroke-linecap:square;stroke-width:1.5;"/>
   </g>
   <g id="line2d_137">
    <path clip-path="url(#p675225863b)" d="M 308.448 74.408697 
L 308.448 76.977462 
" style="fill:none;stroke:#2c2c2c;stroke-linecap:square;stroke-width:1.5;"/>
   </g>
   <g id="line2d_138">
    <path clip-path="url(#p675225863b)" d="M 308.448 72.201997 
L 308.448 72.018586 
" style="fill:none;stroke:#2c2c2c;stroke-linecap:square;stroke-width:1.5;"/>
   </g>
   <g id="line2d_139">
    <path clip-path="url(#p675225863b)" d="M 306.80748 76.977462 
L 310.08852 76.977462 
" style="fill:none;stroke:#2c2c2c;stroke-linecap:square;stroke-width:1.5;"/>
   </g>
   <g id="line2d_140">
    <path clip-path="url(#p675225863b)" d="M 306.80748 72.018586 
L 310.08852 72.018586 
" style="fill:none;stroke:#2c2c2c;stroke-linecap:square;stroke-width:1.5;"/>
   </g>
   <g id="line2d_141">
    <path clip-path="url(#p675225863b)" d="M 315.144 226.16283 
L 315.144 226.584637 
" style="fill:none;stroke:#2c2c2c;stroke-linecap:square;stroke-width:1.5;"/>
   </g>
   <g id="line2d_142">
    <path clip-path="url(#p675225863b)" d="M 315.144 223.299485 
L 315.144 219.766823 
" style="fill:none;stroke:#2c2c2c;stroke-linecap:square;stroke-width:1.5;"/>
   </g>
   <g id="line2d_143">
    <path clip-path="url(#p675225863b)" d="M 313.50348 226.584637 
L 316.78452 226.584637 
" style="fill:none;stroke:#2c2c2c;stroke-linecap:square;stroke-width:1.5;"/>
   </g>
   <g id="line2d_144">
    <path clip-path="url(#p675225863b)" d="M 313.50348 219.766823 
L 316.78452 219.766823 
" style="fill:none;stroke:#2c2c2c;stroke-linecap:square;stroke-width:1.5;"/>
   </g>
   <g id="line2d_145">
    <path clip-path="url(#p675225863b)" d="M 328.536 66.664229 
L 328.536 77.225291 
" style="fill:none;stroke:#2c2c2c;stroke-linecap:square;stroke-width:1.5;"/>
   </g>
   <g id="line2d_146">
    <path clip-path="url(#p675225863b)" d="M 328.536 52.405531 
L 328.536 47.728407 
" style="fill:none;stroke:#2c2c2c;stroke-linecap:square;stroke-width:1.5;"/>
   </g>
   <g id="line2d_147">
    <path clip-path="url(#p675225863b)" d="M 326.89548 77.225291 
L 330.17652 77.225291 
" style="fill:none;stroke:#2c2c2c;stroke-linecap:square;stroke-width:1.5;"/>
   </g>
   <g id="line2d_148">
    <path clip-path="url(#p675225863b)" d="M 326.89548 47.728407 
L 330.17652 47.728407 
" style="fill:none;stroke:#2c2c2c;stroke-linecap:square;stroke-width:1.5;"/>
   </g>
   <g id="line2d_149">
    <path clip-path="url(#p675225863b)" d="M 335.232 66.511315 
L 335.232 71.606245 
" style="fill:none;stroke:#2c2c2c;stroke-linecap:square;stroke-width:1.5;"/>
   </g>
   <g id="line2d_150">
    <path clip-path="url(#p675225863b)" d="M 335.232 53.368737 
L 335.232 50.554521 
" style="fill:none;stroke:#2c2c2c;stroke-linecap:square;stroke-width:1.5;"/>
   </g>
   <g id="line2d_151">
    <path clip-path="url(#p675225863b)" d="M 333.59148 71.606245 
L 336.87252 71.606245 
" style="fill:none;stroke:#2c2c2c;stroke-linecap:square;stroke-width:1.5;"/>
   </g>
   <g id="line2d_152">
    <path clip-path="url(#p675225863b)" d="M 333.59148 50.554521 
L 336.87252 50.554521 
" style="fill:none;stroke:#2c2c2c;stroke-linecap:square;stroke-width:1.5;"/>
   </g>
   <g id="line2d_153">
    <path clip-path="url(#p675225863b)" d="M 341.928 65.687452 
L 341.928 68.207265 
" style="fill:none;stroke:#2c2c2c;stroke-linecap:square;stroke-width:1.5;"/>
   </g>
   <g id="line2d_154">
    <path clip-path="url(#p675225863b)" d="M 341.928 63.449627 
L 341.928 61.832374 
" style="fill:none;stroke:#2c2c2c;stroke-linecap:square;stroke-width:1.5;"/>
   </g>
   <g id="line2d_155">
    <path clip-path="url(#p675225863b)" d="M 340.28748 68.207265 
L 343.56852 68.207265 
" style="fill:none;stroke:#2c2c2c;stroke-linecap:square;stroke-width:1.5;"/>
   </g>
   <g id="line2d_156">
    <path clip-path="url(#p675225863b)" d="M 340.28748 61.832374 
L 343.56852 61.832374 
" style="fill:none;stroke:#2c2c2c;stroke-linecap:square;stroke-width:1.5;"/>
   </g>
   <g id="line2d_157">
    <path clip-path="url(#p675225863b)" d="M 348.624 223.940626 
L 348.624 224.374166 
" style="fill:none;stroke:#2c2c2c;stroke-linecap:square;stroke-width:1.5;"/>
   </g>
   <g id="line2d_158">
    <path clip-path="url(#p675225863b)" d="M 348.624 221.096809 
L 348.624 217.585877 
" style="fill:none;stroke:#2c2c2c;stroke-linecap:square;stroke-width:1.5;"/>
   </g>
   <g id="line2d_159">
    <path clip-path="url(#p675225863b)" d="M 346.98348 224.374166 
L 350.26452 224.374166 
" style="fill:none;stroke:#2c2c2c;stroke-linecap:square;stroke-width:1.5;"/>
   </g>
   <g id="line2d_160">
    <path clip-path="url(#p675225863b)" d="M 346.98348 217.585877 
L 350.26452 217.585877 
" style="fill:none;stroke:#2c2c2c;stroke-linecap:square;stroke-width:1.5;"/>
   </g>
   <g id="line2d_161">
    <path clip-path="url(#p675225863b)" d="M 362.016 61.247389 
L 362.016 71.168751 
" style="fill:none;stroke:#2c2c2c;stroke-linecap:square;stroke-width:1.5;"/>
   </g>
   <g id="line2d_162">
    <path clip-path="url(#p675225863b)" d="M 362.016 48.497979 
L 362.016 44.443636 
" style="fill:none;stroke:#2c2c2c;stroke-linecap:square;stroke-width:1.5;"/>
   </g>
   <g id="line2d_163">
    <path clip-path="url(#p675225863b)" d="M 360.37548 71.168751 
L 363.65652 71.168751 
" style="fill:none;stroke:#2c2c2c;stroke-linecap:square;stroke-width:1.5;"/>
   </g>
   <g id="line2d_164">
    <path clip-path="url(#p675225863b)" d="M 360.37548 44.443636 
L 363.65652 44.443636 
" style="fill:none;stroke:#2c2c2c;stroke-linecap:square;stroke-width:1.5;"/>
   </g>
   <g id="line2d_165">
    <path clip-path="url(#p675225863b)" d="M 368.712 60.964448 
L 368.712 66.123976 
" style="fill:none;stroke:#2c2c2c;stroke-linecap:square;stroke-width:1.5;"/>
   </g>
   <g id="line2d_166">
    <path clip-path="url(#p675225863b)" d="M 368.712 49.147596 
L 368.712 47.081843 
" style="fill:none;stroke:#2c2c2c;stroke-linecap:square;stroke-width:1.5;"/>
   </g>
   <g id="line2d_167">
    <path clip-path="url(#p675225863b)" d="M 367.07148 66.123976 
L 370.35252 66.123976 
" style="fill:none;stroke:#2c2c2c;stroke-linecap:square;stroke-width:1.5;"/>
   </g>
   <g id="line2d_168">
    <path clip-path="url(#p675225863b)" d="M 367.07148 47.081843 
L 370.35252 47.081843 
" style="fill:none;stroke:#2c2c2c;stroke-linecap:square;stroke-width:1.5;"/>
   </g>
   <g id="line2d_169">
    <path clip-path="url(#p675225863b)" d="M 375.408 60.190898 
L 375.408 61.745224 
" style="fill:none;stroke:#2c2c2c;stroke-linecap:square;stroke-width:1.5;"/>
   </g>
   <g id="line2d_170">
    <path clip-path="url(#p675225863b)" d="M 375.408 57.922143 
L 375.408 57.276141 
" style="fill:none;stroke:#2c2c2c;stroke-linecap:square;stroke-width:1.5;"/>
   </g>
   <g id="line2d_171">
    <path clip-path="url(#p675225863b)" d="M 373.76748 61.745224 
L 377.04852 61.745224 
" style="fill:none;stroke:#2c2c2c;stroke-linecap:square;stroke-width:1.5;"/>
   </g>
   <g id="line2d_172">
    <path clip-path="url(#p675225863b)" d="M 373.76748 57.276141 
L 377.04852 57.276141 
" style="fill:none;stroke:#2c2c2c;stroke-linecap:square;stroke-width:1.5;"/>
   </g>
   <g id="line2d_173">
    <path clip-path="url(#p675225863b)" d="M 382.104 221.721161 
L 382.104 222.167992 
" style="fill:none;stroke:#2c2c2c;stroke-linecap:square;stroke-width:1.5;"/>
   </g>
   <g id="line2d_174">
    <path clip-path="url(#p675225863b)" d="M 382.104 218.901191 
L 382.104 215.449689 
" style="fill:none;stroke:#2c2c2c;stroke-linecap:square;stroke-width:1.5;"/>
   </g>
   <g id="line2d_175">
    <path clip-path="url(#p675225863b)" d="M 380.46348 222.167992 
L 383.74452 222.167992 
" style="fill:none;stroke:#2c2c2c;stroke-linecap:square;stroke-width:1.5;"/>
   </g>
   <g id="line2d_176">
    <path clip-path="url(#p675225863b)" d="M 380.46348 215.449689 
L 383.74452 215.449689 
" style="fill:none;stroke:#2c2c2c;stroke-linecap:square;stroke-width:1.5;"/>
   </g>
   <g id="line2d_177">
    <path clip-path="url(#p675225863b)" d="M 57.41496 203.355962 
L 63.97704 203.355962 
" style="fill:none;stroke:#2c2c2c;stroke-linecap:square;stroke-width:1.5;"/>
   </g>
   <g id="line2d_178">
    <path clip-path="url(#p675225863b)" d="M 64.11096 203.978255 
L 70.67304 203.978255 
" style="fill:none;stroke:#2c2c2c;stroke-linecap:square;stroke-width:1.5;"/>
   </g>
   <g id="line2d_179">
    <path clip-path="url(#p675225863b)" d="M 70.80696 206.72003 
L 77.36904 206.72003 
" style="fill:none;stroke:#2c2c2c;stroke-linecap:square;stroke-width:1.5;"/>
   </g>
   <g id="line2d_180">
    <path clip-path="url(#p675225863b)" d="M 77.50296 241.809115 
L 84.06504 241.809115 
" style="fill:none;stroke:#2c2c2c;stroke-linecap:square;stroke-width:1.5;"/>
   </g>
   <g id="line2d_181">
    <path clip-path="url(#p675225863b)" d="M 90.89496 172.950535 
L 97.45704 172.950535 
" style="fill:none;stroke:#2c2c2c;stroke-linecap:square;stroke-width:1.5;"/>
   </g>
   <g id="line2d_182">
    <path clip-path="url(#p675225863b)" d="M 97.59096 172.785193 
L 104.15304 172.785193 
" style="fill:none;stroke:#2c2c2c;stroke-linecap:square;stroke-width:1.5;"/>
   </g>
   <g id="line2d_183">
    <path clip-path="url(#p675225863b)" d="M 104.28696 178.376367 
L 110.84904 178.376367 
" style="fill:none;stroke:#2c2c2c;stroke-linecap:square;stroke-width:1.5;"/>
   </g>
   <g id="line2d_184">
    <path clip-path="url(#p675225863b)" d="M 110.98296 239.491375 
L 117.54504 239.491375 
" style="fill:none;stroke:#2c2c2c;stroke-linecap:square;stroke-width:1.5;"/>
   </g>
   <g id="line2d_185">
    <path clip-path="url(#p675225863b)" d="M 124.37496 149.373524 
L 130.93704 149.373524 
" style="fill:none;stroke:#2c2c2c;stroke-linecap:square;stroke-width:1.5;"/>
   </g>
   <g id="line2d_186">
    <path clip-path="url(#p675225863b)" d="M 131.07096 147.742876 
L 137.63304 147.742876 
" style="fill:none;stroke:#2c2c2c;stroke-linecap:square;stroke-width:1.5;"/>
   </g>
   <g id="line2d_187">
    <path clip-path="url(#p675225863b)" d="M 137.76696 156.601842 
L 144.32904 156.601842 
" style="fill:none;stroke:#2c2c2c;stroke-linecap:square;stroke-width:1.5;"/>
   </g>
   <g id="line2d_188">
    <path clip-path="url(#p675225863b)" d="M 144.46296 237.179149 
L 151.02504 237.179149 
" style="fill:none;stroke:#2c2c2c;stroke-linecap:square;stroke-width:1.5;"/>
   </g>
   <g id="line2d_189">
    <path clip-path="url(#p675225863b)" d="M 157.85496 128.680623 
L 164.41704 128.680623 
" style="fill:none;stroke:#2c2c2c;stroke-linecap:square;stroke-width:1.5;"/>
   </g>
   <g id="line2d_190">
    <path clip-path="url(#p675225863b)" d="M 164.55096 123.052474 
L 171.11304 123.052474 
" style="fill:none;stroke:#2c2c2c;stroke-linecap:square;stroke-width:1.5;"/>
   </g>
   <g id="line2d_191">
    <path clip-path="url(#p675225863b)" d="M 171.24696 135.524359 
L 177.80904 135.524359 
" style="fill:none;stroke:#2c2c2c;stroke-linecap:square;stroke-width:1.5;"/>
   </g>
   <g id="line2d_192">
    <path clip-path="url(#p675225863b)" d="M 177.94296 234.875438 
L 184.50504 234.875438 
" style="fill:none;stroke:#2c2c2c;stroke-linecap:square;stroke-width:1.5;"/>
   </g>
   <g id="line2d_193">
    <path clip-path="url(#p675225863b)" d="M 191.33496 110.449321 
L 197.89704 110.449321 
" style="fill:none;stroke:#2c2c2c;stroke-linecap:square;stroke-width:1.5;"/>
   </g>
   <g id="line2d_194">
    <path clip-path="url(#p675225863b)" d="M 198.03096 102.292915 
L 204.59304 102.292915 
" style="fill:none;stroke:#2c2c2c;stroke-linecap:square;stroke-width:1.5;"/>
   </g>
   <g id="line2d_195">
    <path clip-path="url(#p675225863b)" d="M 204.72696 117.022004 
L 211.28904 117.022004 
" style="fill:none;stroke:#2c2c2c;stroke-linecap:square;stroke-width:1.5;"/>
   </g>
   <g id="line2d_196">
    <path clip-path="url(#p675225863b)" d="M 211.42296 232.584851 
L 217.98504 232.584851 
" style="fill:none;stroke:#2c2c2c;stroke-linecap:square;stroke-width:1.5;"/>
   </g>
   <g id="line2d_197">
    <path clip-path="url(#p675225863b)" d="M 224.81496 93.56053 
L 231.37704 93.56053 
" style="fill:none;stroke:#2c2c2c;stroke-linecap:square;stroke-width:1.5;"/>
   </g>
   <g id="line2d_198">
    <path clip-path="url(#p675225863b)" d="M 231.51096 85.82455 
L 238.07304 85.82455 
" style="fill:none;stroke:#2c2c2c;stroke-linecap:square;stroke-width:1.5;"/>
   </g>
   <g id="line2d_199">
    <path clip-path="url(#p675225863b)" d="M 238.20696 100.568349 
L 244.76904 100.568349 
" style="fill:none;stroke:#2c2c2c;stroke-linecap:square;stroke-width:1.5;"/>
   </g>
   <g id="line2d_200">
    <path clip-path="url(#p675225863b)" d="M 244.90296 230.286365 
L 251.46504 230.286365 
" style="fill:none;stroke:#2c2c2c;stroke-linecap:square;stroke-width:1.5;"/>
   </g>
   <g id="line2d_201">
    <path clip-path="url(#p675225863b)" d="M 258.29496 79.132712 
L 264.85704 79.132712 
" style="fill:none;stroke:#2c2c2c;stroke-linecap:square;stroke-width:1.5;"/>
   </g>
   <g id="line2d_202">
    <path clip-path="url(#p675225863b)" d="M 264.99096 72.729822 
L 271.55304 72.729822 
" style="fill:none;stroke:#2c2c2c;stroke-linecap:square;stroke-width:1.5;"/>
   </g>
   <g id="line2d_203">
    <path clip-path="url(#p675225863b)" d="M 271.68696 86.102477 
L 278.24904 86.102477 
" style="fill:none;stroke:#2c2c2c;stroke-linecap:square;stroke-width:1.5;"/>
   </g>
   <g id="line2d_204">
    <path clip-path="url(#p675225863b)" d="M 278.38296 228.009888 
L 284.94504 228.009888 
" style="fill:none;stroke:#2c2c2c;stroke-linecap:square;stroke-width:1.5;"/>
   </g>
   <g id="line2d_205">
    <path clip-path="url(#p675225863b)" d="M 291.77496 68.34655 
L 298.33704 68.34655 
" style="fill:none;stroke:#2c2c2c;stroke-linecap:square;stroke-width:1.5;"/>
   </g>
   <g id="line2d_206">
    <path clip-path="url(#p675225863b)" d="M 298.47096 63.213569 
L 305.03304 63.213569 
" style="fill:none;stroke:#2c2c2c;stroke-linecap:square;stroke-width:1.5;"/>
   </g>
   <g id="line2d_207">
    <path clip-path="url(#p675225863b)" d="M 305.16696 73.327811 
L 311.72904 73.327811 
" style="fill:none;stroke:#2c2c2c;stroke-linecap:square;stroke-width:1.5;"/>
   </g>
   <g id="line2d_208">
    <path clip-path="url(#p675225863b)" d="M 311.86296 225.734984 
L 318.42504 225.734984 
" style="fill:none;stroke:#2c2c2c;stroke-linecap:square;stroke-width:1.5;"/>
   </g>
   <g id="line2d_209">
    <path clip-path="url(#p675225863b)" d="M 325.25496 60.713854 
L 331.81704 60.713854 
" style="fill:none;stroke:#2c2c2c;stroke-linecap:square;stroke-width:1.5;"/>
   </g>
   <g id="line2d_210">
    <path clip-path="url(#p675225863b)" d="M 331.95096 56.78141 
L 338.51304 56.78141 
" style="fill:none;stroke:#2c2c2c;stroke-linecap:square;stroke-width:1.5;"/>
   </g>
   <g id="line2d_211">
    <path clip-path="url(#p675225863b)" d="M 338.64696 64.42717 
L 345.20904 64.42717 
" style="fill:none;stroke:#2c2c2c;stroke-linecap:square;stroke-width:1.5;"/>
   </g>
   <g id="line2d_212">
    <path clip-path="url(#p675225863b)" d="M 345.34296 223.463491 
L 351.90504 223.463491 
" style="fill:none;stroke:#2c2c2c;stroke-linecap:square;stroke-width:1.5;"/>
   </g>
   <g id="line2d_213">
    <path clip-path="url(#p675225863b)" d="M 358.73496 55.711136 
L 365.29704 55.711136 
" style="fill:none;stroke:#2c2c2c;stroke-linecap:square;stroke-width:1.5;"/>
   </g>
   <g id="line2d_214">
    <path clip-path="url(#p675225863b)" d="M 365.43096 52.629964 
L 371.99304 52.629964 
" style="fill:none;stroke:#2c2c2c;stroke-linecap:square;stroke-width:1.5;"/>
   </g>
   <g id="line2d_215">
    <path clip-path="url(#p675225863b)" d="M 372.12696 58.623625 
L 378.68904 58.623625 
" style="fill:none;stroke:#2c2c2c;stroke-linecap:square;stroke-width:1.5;"/>
   </g>
   <g id="line2d_216">
    <path clip-path="url(#p675225863b)" d="M 378.82296 221.201454 
L 385.38504 221.201454 
" style="fill:none;stroke:#2c2c2c;stroke-linecap:square;stroke-width:1.5;"/>
   </g>
   <g id="patch_47">
    <path d="M 54 252 
L 54 34.56 
" style="fill:none;stroke:#000000;stroke-linecap:square;stroke-linejoin:miter;stroke-width:0.8;"/>
   </g>
   <g id="patch_48">
    <path d="M 54 252 
L 388.8 252 
" style="fill:none;stroke:#000000;stroke-linecap:square;stroke-linejoin:miter;stroke-width:0.8;"/>
   </g>
   <g id="legend_1">
    <g id="patch_49">
     <path d="M 63 51.158437 
L 83 51.158437 
L 83 44.158437 
L 63 44.158437 
z
" style="fill:#394959;stroke:#2c2c2c;stroke-linejoin:miter;stroke-width:0.75;"/>
    </g>
    <g id="text_19">
     <!-- LES -->
     <g transform="translate(91 51.158437)scale(0.1 -0.1)">
      <defs>
       <path d="M 9.8125 72.90625 
L 19.671875 72.90625 
L 19.671875 8.296875 
L 55.171875 8.296875 
L 55.171875 0 
L 9.8125 0 
z
" id="DejaVuSans-76"/>
       <path d="M 9.8125 72.90625 
L 55.90625 72.90625 
L 55.90625 64.59375 
L 19.671875 64.59375 
L 19.671875 43.015625 
L 54.390625 43.015625 
L 54.390625 34.71875 
L 19.671875 34.71875 
L 19.671875 8.296875 
L 56.78125 8.296875 
L 56.78125 0 
L 9.8125 0 
z
" id="DejaVuSans-69"/>
       <path d="M 53.515625 70.515625 
L 53.515625 60.890625 
Q 47.90625 63.578125 42.921875 64.890625 
Q 37.9375 66.21875 33.296875 66.21875 
Q 25.25 66.21875 20.875 63.09375 
Q 16.5 59.96875 16.5 54.203125 
Q 16.5 49.359375 19.40625 46.890625 
Q 22.3125 44.4375 30.421875 42.921875 
L 36.375 41.703125 
Q 47.40625 39.59375 52.65625 34.296875 
Q 57.90625 29 57.90625 20.125 
Q 57.90625 9.515625 50.796875 4.046875 
Q 43.703125 -1.421875 29.984375 -1.421875 
Q 24.8125 -1.421875 18.96875 -0.25 
Q 13.140625 0.921875 6.890625 3.21875 
L 6.890625 13.375 
Q 12.890625 10.015625 18.65625 8.296875 
Q 24.421875 6.59375 29.984375 6.59375 
Q 38.421875 6.59375 43.015625 9.90625 
Q 47.609375 13.234375 47.609375 19.390625 
Q 47.609375 24.75 44.3125 27.78125 
Q 41.015625 30.8125 33.5 32.328125 
L 27.484375 33.5 
Q 16.453125 35.6875 11.515625 40.375 
Q 6.59375 45.0625 6.59375 53.421875 
Q 6.59375 63.09375 13.40625 68.65625 
Q 20.21875 74.21875 32.171875 74.21875 
Q 37.3125 74.21875 42.625 73.28125 
Q 47.953125 72.359375 53.515625 70.515625 
z
" id="DejaVuSans-83"/>
      </defs>
      <use xlink:href="#DejaVuSans-76"/>
      <use x="55.712891" xlink:href="#DejaVuSans-69"/>
      <use x="118.896484" xlink:href="#DejaVuSans-83"/>
     </g>
    </g>
    <g id="patch_50">
     <path d="M 63 65.836562 
L 83 65.836562 
L 83 58.836562 
L 63 58.836562 
z
" style="fill:#9665aa;stroke:#2c2c2c;stroke-linejoin:miter;stroke-width:0.75;"/>
    </g>
    <g id="text_20">
     <!-- SHM -->
     <g transform="translate(91 65.836562)scale(0.1 -0.1)">
      <defs>
       <path d="M 9.8125 72.90625 
L 19.671875 72.90625 
L 19.671875 43.015625 
L 55.515625 43.015625 
L 55.515625 72.90625 
L 65.375 72.90625 
L 65.375 0 
L 55.515625 0 
L 55.515625 34.71875 
L 19.671875 34.71875 
L 19.671875 0 
L 9.8125 0 
z
" id="DejaVuSans-72"/>
       <path d="M 9.8125 72.90625 
L 24.515625 72.90625 
L 43.109375 23.296875 
L 61.8125 72.90625 
L 76.515625 72.90625 
L 76.515625 0 
L 66.890625 0 
L 66.890625 64.015625 
L 48.09375 14.015625 
L 38.1875 14.015625 
L 19.390625 64.015625 
L 19.390625 0 
L 9.8125 0 
z
" id="DejaVuSans-77"/>
      </defs>
      <use xlink:href="#DejaVuSans-83"/>
      <use x="63.476562" xlink:href="#DejaVuSans-72"/>
      <use x="138.671875" xlink:href="#DejaVuSans-77"/>
     </g>
    </g>
    <g id="patch_51">
     <path d="M 63 80.514687 
L 83 80.514687 
L 83 73.514687 
L 63 73.514687 
z
" style="fill:#8779dd;stroke:#2c2c2c;stroke-linejoin:miter;stroke-width:0.75;"/>
    </g>
    <g id="text_21">
     <!-- LID -->
     <g transform="translate(91 80.514687)scale(0.1 -0.1)">
      <defs>
       <path d="M 9.8125 72.90625 
L 19.671875 72.90625 
L 19.671875 0 
L 9.8125 0 
z
" id="DejaVuSans-73"/>
      </defs>
      <use xlink:href="#DejaVuSans-76"/>
      <use x="55.712891" xlink:href="#DejaVuSans-73"/>
      <use x="85.205078" xlink:href="#DejaVuSans-68"/>
     </g>
    </g>
    <g id="patch_52">
     <path d="M 63 95.192813 
L 83 95.192813 
L 83 88.192813 
L 63 88.192813 
z
" style="fill:#a9a9a9;stroke:#2c2c2c;stroke-linejoin:miter;stroke-width:0.75;"/>
    </g>
    <g id="text_22">
     <!-- Shuffle -->
     <g transform="translate(91 95.192813)scale(0.1 -0.1)">
      <defs>
       <path d="M 54.890625 33.015625 
L 54.890625 0 
L 45.90625 0 
L 45.90625 32.71875 
Q 45.90625 40.484375 42.875 44.328125 
Q 39.84375 48.1875 33.796875 48.1875 
Q 26.515625 48.1875 22.3125 43.546875 
Q 18.109375 38.921875 18.109375 30.90625 
L 18.109375 0 
L 9.078125 0 
L 9.078125 75.984375 
L 18.109375 75.984375 
L 18.109375 46.1875 
Q 21.34375 51.125 25.703125 53.5625 
Q 30.078125 56 35.796875 56 
Q 45.21875 56 50.046875 50.171875 
Q 54.890625 44.34375 54.890625 33.015625 
z
" id="DejaVuSans-104"/>
      </defs>
      <use xlink:href="#DejaVuSans-83"/>
      <use x="63.476562" xlink:href="#DejaVuSans-104"/>
      <use x="126.855469" xlink:href="#DejaVuSans-117"/>
      <use x="190.234375" xlink:href="#DejaVuSans-102"/>
      <use x="225.439453" xlink:href="#DejaVuSans-102"/>
      <use x="260.644531" xlink:href="#DejaVuSans-108"/>
      <use x="288.427734" xlink:href="#DejaVuSans-101"/>
     </g>
    </g>
   </g>
  </g>
 </g>
 <defs>
  <clipPath id="p675225863b">
   <rect height="217.44" width="334.8" x="54" y="34.56"/>
  </clipPath>
 </defs>
</svg>
