<?xml version="1.0" encoding="utf-8" standalone="no"?>
<!DOCTYPE svg PUBLIC "-//W3C//DTD SVG 1.1//EN"
  "http://www.w3.org/Graphics/SVG/1.1/DTD/svg11.dtd">
<!-- Created with matplotlib (https://matplotlib.org/) -->
<svg height="504pt" version="1.1" viewBox="0 0 504 504" width="504pt" xmlns="http://www.w3.org/2000/svg" xmlns:xlink="http://www.w3.org/1999/xlink">
 <metadata>
  <rdf:RDF xmlns:cc="http://creativecommons.org/ns#" xmlns:dc="http://purl.org/dc/elements/1.1/" xmlns:rdf="http://www.w3.org/1999/02/22-rdf-syntax-ns#">
   <cc:Work>
    <dc:type rdf:resource="http://purl.org/dc/dcmitype/StillImage"/>
    <dc:date>2021-08-15T15:14:35.249734</dc:date>
    <dc:format>image/svg+xml</dc:format>
    <dc:creator>
     <cc:Agent>
      <dc:title>Matplotlib v3.3.4, https://matplotlib.org/</dc:title>
     </cc:Agent>
    </dc:creator>
   </cc:Work>
  </rdf:RDF>
 </metadata>
 <defs>
  <style type="text/css">*{stroke-linecap:butt;stroke-linejoin:round;}</style>
 </defs>
 <g id="figure_1">
  <g id="patch_1">
   <path d="M 0 504 
L 504 504 
L 504 0 
L 0 0 
z
" style="fill:none;"/>
  </g>
  <g id="axes_1">
   <g id="patch_2">
    <path d="M 63 233.443636 
L 453.6 233.443636 
L 453.6 60.48 
L 63 60.48 
z
" style="fill:#ffffff;"/>
   </g>
   <g id="matplotlib.axis_1"/>
   <g id="matplotlib.axis_2"/>
   <g id="line2d_1">
    <path clip-path="url(#p6e484301bd)" d="M 80.754545 223.063272 
L 81.46615 221.734311 
L 82.889361 221.171684 
L 83.600966 221.317299 
L 85.024176 220.974494 
L 85.735781 221.108281 
L 86.447386 219.729855 
L 87.158991 215.683825 
L 87.870596 213.535498 
L 88.582201 210.921578 
L 89.293806 205.73034 
L 90.005411 205.501719 
L 90.717016 205.107849 
L 92.851831 201.108606 
L 93.563436 201.946829 
L 95.698251 212.674453 
L 96.409856 217.768689 
L 97.121461 217.842425 
L 97.833066 218.028078 
L 99.256276 220.97825 
L 99.967881 221.888946 
L 101.391091 223.316187 
L 102.102696 223.23269 
L 102.814301 222.847837 
L 103.525906 222.702697 
L 104.949116 222.973538 
L 105.660721 223.227158 
L 109.218747 225.085104 
L 109.930352 225.384689 
L 110.641957 225.415734 
L 112.776772 225.156897 
L 117.758007 225.309814 
L 118.469612 225.400023 
L 119.181217 225.361785 
L 120.604427 224.538523 
L 122.027637 223.653973 
L 122.739242 223.296731 
L 123.450847 223.181951 
L 125.585662 223.317223 
L 126.297267 222.366785 
L 128.432082 207.890125 
L 129.143687 203.862066 
L 129.855292 198.921611 
L 133.413318 170.957521 
L 134.124923 173.663696 
L 134.836528 178.218149 
L 135.548133 178.642246 
L 136.259738 176.89112 
L 136.971343 175.505312 
L 137.682948 175.31379 
L 138.394553 174.537626 
L 139.106158 173.527885 
L 139.817763 173.90231 
L 140.529368 175.481869 
L 141.240973 173.993532 
L 141.952578 169.445586 
L 142.664183 173.063414 
L 144.798998 190.586947 
L 146.222208 192.460179 
L 146.933813 190.06401 
L 148.357023 175.429106 
L 149.068628 173.74589 
L 150.491838 164.387874 
L 151.915048 153.327336 
L 152.626653 153.362814 
L 153.338258 152.580735 
L 154.049863 152.450572 
L 154.761468 158.387488 
L 155.473073 166.647452 
L 156.184678 168.091625 
L 156.896283 164.348844 
L 157.607889 162.699646 
L 158.319494 164.264734 
L 159.031099 166.311886 
L 159.742704 167.357615 
L 160.454309 167.276858 
L 161.165914 168.249544 
L 161.877519 164.81705 
L 162.589124 157.463953 
L 163.300729 153.379432 
L 164.012334 152.401577 
L 164.723939 147.152123 
L 166.147149 134.749952 
L 166.858754 132.017111 
L 167.570359 133.102258 
L 168.281964 134.939805 
L 168.993569 139.237907 
L 169.705174 144.785868 
L 170.416779 147.137708 
L 171.128384 147.362641 
L 172.551594 155.008852 
L 173.263199 154.571813 
L 173.974804 149.310812 
L 174.686409 142.376476 
L 175.398014 136.583556 
L 176.821224 145.727118 
L 177.532829 152.304312 
L 178.956039 168.705734 
L 180.379249 182.080466 
L 181.802459 202.33316 
L 182.514064 210.605646 
L 183.22567 209.916632 
L 183.937275 209.907369 
L 184.64888 210.482753 
L 185.360485 211.217078 
L 186.07209 211.330075 
L 186.783695 212.303487 
L 187.4953 216.341772 
L 188.206905 219.180048 
L 189.630115 221.783478 
L 190.34172 222.513484 
L 191.053325 222.565915 
L 191.76493 222.870702 
L 193.18814 223.988407 
L 193.899745 224.383609 
L 195.322955 224.887486 
L 196.03456 225.299022 
L 196.746165 225.531229 
L 197.45777 225.581653 
L 198.169375 224.965453 
L 199.592585 224.172426 
L 200.30419 222.113221 
L 201.7274 213.946644 
L 202.439005 211.579671 
L 203.15061 210.755769 
L 203.862215 208.910033 
L 204.57382 205.837766 
L 205.285425 203.470632 
L 205.99703 199.201637 
L 208.843451 170.191783 
L 209.555056 161.10722 
L 211.689871 127.363543 
L 213.113081 104.856339 
L 213.824686 97.289701 
L 215.247896 87.760983 
L 216.671106 79.043946 
L 217.382711 75.026024 
L 218.094316 72.438113 
L 218.805921 71.963938 
L 220.229131 71.726146 
L 220.940736 71.704633 
L 222.363946 71.923724 
L 223.075551 71.794568 
L 223.787156 71.912843 
L 225.210366 72.669642 
L 225.921971 72.747938 
L 227.345181 72.557886 
L 228.056786 72.311665 
L 228.768391 71.740361 
L 229.479996 71.014193 
L 230.191601 70.582122 
L 232.326416 68.627808 
L 233.038021 68.341983 
L 233.749627 68.562867 
L 235.172837 96.085953 
L 238.019257 153.53216 
L 240.865677 214.329982 
L 241.577282 216.44423 
L 242.288887 217.312849 
L 243.712097 221.519606 
L 244.423702 222.550703 
L 245.135307 222.857091 
L 245.846912 222.824819 
L 246.558517 222.421764 
L 247.270122 221.765656 
L 247.981727 220.762756 
L 249.404937 218.00657 
L 250.116542 217.542545 
L 251.539752 217.89412 
L 252.251357 218.486242 
L 253.674567 217.471607 
L 255.097777 215.426123 
L 255.809382 215.745133 
L 256.520987 216.926063 
L 257.232592 217.321758 
L 257.944197 217.359424 
L 258.655803 217.741382 
L 259.367408 217.939173 
L 260.790618 220.694588 
L 262.213828 224.707011 
L 262.925433 225.295062 
L 263.637038 224.482187 
L 264.348643 222.752947 
L 265.060248 218.349954 
L 265.771853 215.962373 
L 266.483458 215.610599 
L 267.195063 214.872443 
L 267.906668 213.596712 
L 268.618273 212.884747 
L 269.329878 212.990505 
L 270.041483 213.556929 
L 270.753088 214.493432 
L 271.464693 216.373866 
L 272.176298 220.804885 
L 272.887903 222.905417 
L 273.599508 222.873414 
L 274.311113 223.346715 
L 275.022718 224.381237 
L 275.734323 224.849601 
L 276.445928 224.779528 
L 277.869138 224.112458 
L 278.580743 223.741753 
L 279.292348 222.961813 
L 280.003953 221.075727 
L 281.427163 219.031362 
L 282.138768 216.654388 
L 282.850373 214.829905 
L 283.561979 211.797775 
L 284.273584 209.709093 
L 284.985189 209.537271 
L 285.696794 208.910431 
L 286.408399 207.603539 
L 287.120004 208.625435 
L 287.831609 209.876825 
L 288.543214 210.881587 
L 289.254819 213.110593 
L 289.966424 214.59477 
L 290.678029 217.23409 
L 291.389634 219.251434 
L 292.101239 219.711906 
L 292.812844 220.725568 
L 293.524449 222.819121 
L 294.236054 221.939627 
L 294.947659 221.277034 
L 295.659264 221.441395 
L 297.082474 222.177173 
L 297.794079 222.613997 
L 298.505684 222.476677 
L 299.217289 222.190537 
L 299.928894 221.440665 
L 300.640499 221.05646 
L 301.352104 222.874858 
L 302.063709 223.469373 
L 303.486919 223.549188 
L 304.198524 223.700391 
L 304.910129 223.632633 
L 305.621734 223.768945 
L 306.333339 223.786019 
L 307.044944 224.238259 
L 307.756549 224.387009 
L 312.02618 224.279789 
L 312.737785 224.500873 
L 313.44939 224.849007 
L 314.160995 224.973517 
L 315.584205 224.157831 
L 317.007415 224.119259 
L 317.71902 223.531057 
L 318.430625 222.39773 
L 319.14223 221.620034 
L 319.853835 221.44844 
L 320.56544 219.997367 
L 321.277045 217.603196 
L 322.700255 214.683865 
L 323.41186 213.820897 
L 324.123465 213.194072 
L 324.83507 213.426363 
L 326.25828 215.563861 
L 326.969885 215.818891 
L 327.68149 217.318947 
L 328.393095 219.871303 
L 329.1047 221.840883 
L 329.816305 223.074651 
L 331.239515 224.190407 
L 331.95112 224.509714 
L 334.797541 224.000035 
L 337.643961 222.764648 
L 338.355566 222.177066 
L 339.067171 221.371138 
L 339.778776 220.944616 
L 341.913591 221.233072 
L 342.625196 221.458461 
L 344.048406 222.657088 
L 344.760011 222.959966 
L 345.471616 222.126579 
L 346.183221 221.081792 
L 346.894826 219.801076 
L 349.029641 214.180859 
L 349.741246 212.017643 
L 351.876061 200.075392 
L 354.722481 190.073062 
L 355.434086 188.512771 
L 356.857296 183.327218 
L 357.568901 185.254627 
L 358.992111 192.700547 
L 360.415322 201.122029 
L 361.126927 205.513202 
L 361.838532 208.509828 
L 362.550137 210.265152 
L 363.261742 212.409012 
L 363.973347 215.050537 
L 364.684952 216.387176 
L 365.396557 216.360616 
L 366.108162 215.592273 
L 366.819767 213.150682 
L 367.531372 209.653888 
L 368.242977 207.224863 
L 368.954582 205.661187 
L 369.666187 203.603911 
L 370.377792 201.177699 
L 371.089397 197.661705 
L 373.224212 183.225379 
L 373.935817 179.366573 
L 374.647422 176.533221 
L 375.359027 170.972555 
L 376.070632 161.235113 
L 376.782237 153.051527 
L 378.917052 133.470212 
L 380.340262 117.724077 
L 381.763472 102.500597 
L 382.475077 96.823624 
L 383.186682 98.091734 
L 383.898287 104.677102 
L 386.033103 129.533282 
L 388.167918 150.38352 
L 389.591128 163.887991 
L 390.302733 165.910862 
L 391.014338 158.361568 
L 391.725943 146.750979 
L 392.437548 136.974972 
L 393.860758 124.497941 
L 395.995573 105.462822 
L 397.418783 96.27432 
L 398.130388 94.752364 
L 398.841993 94.100273 
L 400.265203 91.001382 
L 400.976808 88.773209 
L 401.688413 87.247483 
L 402.400018 85.341312 
L 403.823228 80.672247 
L 404.534833 81.707979 
L 405.958043 95.319114 
L 406.669648 99.136769 
L 407.381253 99.992896 
L 408.804463 102.913155 
L 409.516069 103.265356 
L 410.227674 103.405478 
L 410.939279 103.340498 
L 411.650884 99.97943 
L 412.362489 91.696555 
L 413.074094 85.164576 
L 413.785699 80.591902 
L 414.497304 85.28031 
L 417.343724 136.439327 
L 420.190144 191.863809 
L 420.901749 206.605217 
L 421.613354 213.690098 
L 423.036564 215.007831 
L 423.748169 217.069001 
L 424.459774 219.624002 
L 425.882984 223.219135 
L 426.594589 224.549312 
L 427.306194 225.144981 
L 428.017799 225.171213 
L 428.729404 225.048449 
L 429.441009 224.233475 
L 430.152614 222.853772 
L 430.864219 222.180938 
L 431.575824 222.038727 
L 432.287429 219.479242 
L 432.999034 213.892402 
L 433.710639 207.172303 
L 434.422244 204.844683 
L 435.13385 201.091871 
L 435.845455 198.748009 
L 435.845455 198.748009 
" style="fill:none;stroke:#9400d3;stroke-linecap:square;stroke-width:1.5;"/>
   </g>
  </g>
  <g id="axes_2">
   <g id="patch_3">
    <path d="M 63 441 
L 453.6 441 
L 453.6 268.036364 
L 63 268.036364 
z
" style="fill:#ffffff;"/>
   </g>
   <g id="matplotlib.axis_3"/>
   <g id="matplotlib.axis_4"/>
   <g id="line2d_2">
    <path clip-path="url(#peb32ee16cd)" d="M 80.754545 412.754302 
L 81.46615 410.338311 
L 82.177756 404.573771 
L 82.889361 404.932563 
L 83.600966 406.840577 
L 84.312571 406.096215 
L 85.024176 404.001325 
L 85.735781 406.873725 
L 86.447386 413.376575 
L 87.158991 411.237223 
L 87.870596 409.660513 
L 88.582201 419.055061 
L 89.293806 411.872386 
L 91.428621 351.738906 
L 92.140226 343.59623 
L 92.851831 330.804895 
L 93.563436 309.354624 
L 94.275041 299.154287 
L 94.986646 293.902637 
L 95.698251 286.697315 
L 96.409856 302.762999 
L 97.121461 322.538109 
L 98.544671 350.766951 
L 99.256276 358.121366 
L 101.391091 386.52786 
L 102.102696 392.938427 
L 102.814301 397.461921 
L 103.525906 398.902918 
L 104.949116 395.433172 
L 105.660721 396.12452 
L 106.372326 397.323134 
L 107.083931 396.897269 
L 107.795537 396.050516 
L 109.218747 395.995084 
L 109.930352 395.468579 
L 110.641957 395.941137 
L 112.065167 399.630579 
L 112.776772 400.786529 
L 113.488377 400.721985 
L 114.199982 400.932606 
L 114.911587 402.862701 
L 115.623192 403.281777 
L 116.334797 403.004757 
L 117.046402 403.055919 
L 117.758007 405.475022 
L 118.469612 406.109106 
L 119.181217 401.31867 
L 119.892822 398.752937 
L 120.604427 399.526022 
L 121.316032 400.741674 
L 122.027637 401.021371 
L 123.450847 403.29458 
L 124.162452 405.01536 
L 124.874057 402.491489 
L 125.585662 405.215463 
L 126.297267 422.29748 
L 127.008872 429.850909 
L 127.720477 428.196483 
L 128.432082 425.067639 
L 129.143687 424.055465 
L 129.855292 426.737173 
L 130.566897 428.339911 
L 132.701713 421.176202 
L 134.124923 392.659817 
L 134.836528 397.560699 
L 135.548133 407.826205 
L 136.259738 408.826719 
L 136.971343 404.774034 
L 137.682948 402.262509 
L 138.394553 404.624667 
L 139.106158 405.904689 
L 139.817763 403.51971 
L 140.529368 405.693662 
L 141.240973 415.846781 
L 141.952578 403.900728 
L 142.664183 386.858514 
L 143.375788 385.679681 
L 144.087393 383.114831 
L 144.798998 393.410123 
L 145.510603 399.871961 
L 146.222208 400.42041 
L 147.645418 414.540721 
L 148.357023 410.609209 
L 149.068628 414.607887 
L 149.780233 421.27189 
L 150.491838 421.046656 
L 151.203443 423.327285 
L 151.915048 411.66432 
L 152.626653 404.240351 
L 153.338258 405.604072 
L 154.049863 402.298707 
L 154.761468 393.687066 
L 155.473073 394.655453 
L 156.184678 403.444475 
L 156.896283 405.075564 
L 157.607889 399.415706 
L 158.319494 395.678046 
L 159.031099 397.358705 
L 159.742704 402.809293 
L 160.454309 402.841971 
L 161.165914 403.543556 
L 161.877519 413.724282 
L 162.589124 415.913075 
L 163.300729 408.5753 
L 164.012334 411.260308 
L 164.723939 416.477055 
L 165.435544 415.851982 
L 166.147149 412.532312 
L 166.858754 404.954245 
L 168.993569 394.890521 
L 169.705174 396.318804 
L 170.416779 401.030267 
L 171.839989 395.979135 
L 172.551594 400.64884 
L 173.263199 410.010307 
L 173.974804 414.673514 
L 174.686409 418.328517 
L 175.398014 401.863497 
L 176.109619 377.919259 
L 176.821224 361.971146 
L 177.532829 340.768762 
L 178.244434 332.365823 
L 178.956039 327.367992 
L 180.379249 286.318199 
L 181.090854 280.369619 
L 181.802459 275.898347 
L 183.22567 309.889416 
L 183.937275 318.211367 
L 184.64888 330.940921 
L 185.360485 335.243385 
L 186.07209 342.806394 
L 186.783695 361.454952 
L 187.4953 373.299526 
L 188.91851 386.95921 
L 189.630115 390.4866 
L 190.34172 393.413995 
L 191.053325 395.785224 
L 191.76493 396.098183 
L 193.18814 395.251958 
L 193.899745 394.612558 
L 194.61135 395.173412 
L 195.322955 394.88373 
L 196.03456 393.276844 
L 196.746165 393.91531 
L 197.45777 398.454134 
L 198.169375 401.297869 
L 198.88098 401.040874 
L 199.592585 404.46205 
L 200.30419 410.521649 
L 201.015795 415.012426 
L 201.7274 415.525105 
L 202.439005 411.85801 
L 203.15061 412.043218 
L 203.862215 416.34888 
L 204.57382 413.590287 
L 205.285425 411.794796 
L 205.99703 416.46866 
L 206.708635 419.369677 
L 207.42024 418.641937 
L 208.131846 417.152465 
L 208.843451 418.790754 
L 209.555056 424.669109 
L 210.266661 425.621708 
L 210.978266 425.176417 
L 211.689871 428.2917 
L 212.401476 429.07556 
L 213.113081 425.94745 
L 213.824686 420.346453 
L 214.536291 416.607485 
L 215.959501 416.31784 
L 216.671106 415.278609 
L 217.382711 413.806877 
L 218.094316 408.343165 
L 218.805921 405.083098 
L 219.517526 404.841181 
L 220.229131 404.76391 
L 220.940736 404.474015 
L 221.652341 403.18371 
L 222.363946 403.021892 
L 223.075551 403.022787 
L 223.787156 402.057718 
L 224.498761 401.623611 
L 225.210366 402.912251 
L 225.921971 404.482164 
L 226.633576 404.638153 
L 227.345181 405.183345 
L 228.768391 409.424868 
L 229.479996 408.628833 
L 230.191601 408.23269 
L 230.903206 408.424317 
L 231.614811 406.979443 
L 233.038021 405.777074 
L 233.749627 399.353365 
L 234.461232 389.157297 
L 235.172837 375.486031 
L 235.884442 359.03728 
L 236.596047 347.369525 
L 237.307652 339.776867 
L 238.019257 334.871037 
L 238.730862 332.225482 
L 239.442467 330.150227 
L 240.154072 330.047255 
L 240.865677 337.777019 
L 241.577282 348.184082 
L 243.000492 373.915514 
L 243.712097 379.514255 
L 245.135307 385.096302 
L 245.846912 385.734198 
L 246.558517 382.909491 
L 247.270122 376.708811 
L 248.693332 357.441327 
L 249.404937 349.399487 
L 250.116542 344.703835 
L 250.828147 345.337136 
L 251.539752 351.661427 
L 252.251357 352.544301 
L 252.962962 338.482362 
L 253.674567 331.792888 
L 254.386172 331.220713 
L 255.809382 327.967784 
L 256.520987 328.485783 
L 257.232592 329.287617 
L 257.944197 328.76149 
L 258.655803 324.793778 
L 259.367408 329.80134 
L 260.079013 350.496936 
L 260.790618 363.927585 
L 262.213828 384.114927 
L 262.925433 389.361921 
L 263.637038 392.588852 
L 264.348643 397.824015 
L 265.060248 401.020006 
L 265.771853 394.276815 
L 266.483458 383.792288 
L 267.195063 368.358477 
L 267.906668 349.218291 
L 268.618273 336.252459 
L 269.329878 331.002749 
L 270.041483 327.219429 
L 270.753088 322.8038 
L 271.464693 316.489687 
L 272.176298 314.66068 
L 272.887903 325.392486 
L 274.311113 357.016831 
L 275.022718 373.152408 
L 275.734323 382.815038 
L 277.157533 391.436843 
L 277.869138 389.169221 
L 279.292348 366.557915 
L 280.003953 357.483141 
L 280.715558 353.48311 
L 281.427163 356.88586 
L 282.138768 362.968573 
L 282.850373 366.262108 
L 283.561979 371.218874 
L 284.273584 371.988577 
L 284.985189 361.243425 
L 285.696794 357.765232 
L 286.408399 355.373316 
L 287.120004 349.046184 
L 287.831609 340.839819 
L 288.543214 330.780439 
L 289.254819 322.3467 
L 289.966424 318.815966 
L 290.678029 317.004078 
L 291.389634 324.604688 
L 292.101239 343.7375 
L 292.812844 354.332835 
L 294.236054 369.430693 
L 294.947659 370.003832 
L 295.659264 369.336667 
L 296.370869 372.192668 
L 297.082474 374.121351 
L 299.217289 359.163356 
L 301.352104 334.301345 
L 302.063709 333.776311 
L 302.775314 334.777992 
L 303.486919 334.247275 
L 304.198524 337.717628 
L 304.910129 346.87228 
L 305.621734 354.337086 
L 306.333339 363.905852 
L 307.044944 376.473574 
L 307.756549 383.252894 
L 308.468154 385.52809 
L 309.17976 387.137235 
L 309.891365 387.081084 
L 310.60297 386.434639 
L 312.02618 391.720799 
L 312.737785 392.235793 
L 313.44939 395.005433 
L 314.8726 403.446952 
L 315.584205 402.765225 
L 316.29581 401.775001 
L 317.007415 398.416798 
L 317.71902 385.579952 
L 318.430625 369.949699 
L 319.14223 362.628819 
L 319.853835 354.016582 
L 320.56544 332.954517 
L 321.277045 316.13822 
L 321.98865 306.390154 
L 322.700255 301.432841 
L 323.41186 298.743149 
L 324.123465 304.625447 
L 324.83507 319.029092 
L 325.546675 330.675564 
L 326.25828 335.800948 
L 326.969885 346.691775 
L 327.68149 365.416343 
L 328.393095 376.46023 
L 329.1047 383.757393 
L 329.816305 389.592008 
L 330.52791 391.713075 
L 331.239515 391.360026 
L 331.95112 390.747086 
L 332.662725 391.83063 
L 333.37433 394.125353 
L 334.085936 395.452927 
L 335.509146 394.503718 
L 336.220751 395.155915 
L 338.355566 398.064493 
L 339.067171 399.711166 
L 339.778776 400.931215 
L 340.490381 401.766842 
L 341.201986 402.318808 
L 341.913591 402.2413 
L 342.625196 402.73401 
L 343.336801 403.627364 
L 344.048406 405.854705 
L 344.760011 411.230504 
L 345.471616 415.257035 
L 346.183221 415.280076 
L 347.606431 414.485345 
L 348.318036 413.58429 
L 349.029641 414.473405 
L 349.741246 418.036026 
L 350.452851 420.309544 
L 351.164456 416.101552 
L 351.876061 409.935365 
L 352.587666 408.773994 
L 353.299271 411.498496 
L 354.010876 411.404447 
L 354.722481 408.144532 
L 355.434086 408.751314 
L 356.145691 410.745589 
L 356.857296 405.162538 
L 357.568901 397.027353 
L 358.280506 396.253347 
L 358.992111 396.308226 
L 359.703717 391.840804 
L 360.415322 389.165419 
L 361.126927 391.61719 
L 361.838532 396.16645 
L 362.550137 396.881947 
L 363.261742 395.964587 
L 363.973347 397.880509 
L 364.684952 400.12962 
L 365.396557 401.79785 
L 366.108162 406.704629 
L 366.819767 414.819688 
L 367.531372 415.871122 
L 368.242977 410.562913 
L 368.954582 409.301882 
L 369.666187 410.550107 
L 370.377792 412.586221 
L 371.089397 416.731472 
L 371.801002 418.615637 
L 372.512607 415.635092 
L 373.224212 411.530793 
L 373.935817 408.387625 
L 374.647422 409.388213 
L 375.359027 418.003524 
L 376.070632 421.63218 
L 377.493842 414.98736 
L 378.205447 414.180904 
L 378.917052 418.781631 
L 379.628657 420.805116 
L 380.340262 418.560695 
L 381.051867 417.203431 
L 381.763472 416.745382 
L 382.475077 409.037325 
L 383.186682 397.882773 
L 383.898287 390.786768 
L 384.609893 386.575966 
L 385.321498 386.803154 
L 386.744708 391.26238 
L 388.167918 389.256559 
L 388.879523 391.793326 
L 389.591128 397.896487 
L 391.014338 425.058114 
L 391.725943 426.685144 
L 392.437548 418.747256 
L 393.149153 413.251441 
L 393.860758 414.920444 
L 394.572363 418.170822 
L 395.283968 417.416266 
L 395.995573 413.643658 
L 396.707178 411.01181 
L 398.130388 406.249863 
L 398.841993 407.983694 
L 399.553598 407.601825 
L 400.265203 407.89962 
L 400.976808 408.340026 
L 401.688413 407.985307 
L 403.111623 410.975956 
L 403.823228 407.841917 
L 404.534833 394.159059 
L 405.246438 386.855223 
L 405.958043 391.351347 
L 406.669648 399.228901 
L 407.381253 400.163705 
L 408.092858 397.917125 
L 408.804463 400.901033 
L 409.516069 404.944632 
L 410.227674 406.320277 
L 410.939279 411.004985 
L 411.650884 420.870989 
L 412.362489 421.94834 
L 413.074094 417.863787 
L 413.785699 407.326505 
L 414.497304 376.200187 
L 415.208909 353.043139 
L 416.632119 314.786976 
L 417.343724 304.184034 
L 418.766934 289.498576 
L 420.190144 282.197164 
L 420.901749 290.297467 
L 421.613354 318.286802 
L 422.324959 336.078428 
L 423.748169 360.861505 
L 424.459774 366.480927 
L 427.306194 385.424265 
L 428.017799 388.196074 
L 428.729404 381.088864 
L 430.152614 354.975137 
L 430.864219 348.838109 
L 431.575824 349.168699 
L 432.287429 354.180819 
L 432.999034 363.000986 
L 433.710639 356.090021 
L 434.422244 333.173489 
L 435.13385 325.932953 
L 435.845455 327.324155 
L 435.845455 327.324155 
" style="fill:none;stroke:#1f77b4;stroke-linecap:square;stroke-width:1.5;"/>
   </g>
   <g id="line2d_3">
    <path clip-path="url(#peb32ee16cd)" d="M 80.754545 395.183846 
L 81.46615 382.123933 
L 82.177756 359.887058 
L 82.889361 355.526954 
L 83.600966 349.984808 
L 84.312571 351.436042 
L 85.024176 353.195457 
L 85.735781 376.809567 
L 86.447386 368.73345 
L 87.158991 404.009767 
L 87.870596 402.169836 
L 88.582201 415.356621 
L 89.293806 420.23918 
L 90.005411 365.901656 
L 90.717016 361.12301 
L 91.428621 371.723363 
L 92.140226 358.82992 
L 92.851831 354.981606 
L 93.563436 355.139232 
L 94.986646 343.648004 
L 95.698251 316.464059 
L 96.409856 374.500703 
L 97.121461 377.652308 
L 97.833066 356.607166 
L 98.544671 353.355006 
L 99.256276 369.367696 
L 99.967881 360.388926 
L 100.679486 365.062621 
L 101.391091 402.212777 
L 102.102696 399.472392 
L 102.814301 398.738458 
L 103.525906 398.7921 
L 104.237511 399.405716 
L 104.949116 399.135621 
L 105.660721 398.105734 
L 106.372326 398.194799 
L 107.083931 396.560871 
L 108.507142 395.969509 
L 109.218747 397.556672 
L 109.930352 401.122478 
L 110.641957 400.921009 
L 111.353562 399.981286 
L 112.065167 400.447312 
L 112.776772 399.293204 
L 113.488377 399.969239 
L 114.199982 402.346087 
L 114.911587 401.735159 
L 115.623192 402.357949 
L 116.334797 402.591492 
L 117.758007 400.819321 
L 118.469612 398.751313 
L 119.181217 398.492769 
L 119.892822 397.949113 
L 120.604427 399.75519 
L 121.316032 400.429494 
L 122.027637 397.850676 
L 122.739242 398.197995 
L 123.450847 398.67083 
L 124.162452 400.136704 
L 124.874057 399.515387 
L 125.585662 397.217278 
L 126.297267 382.722515 
L 127.008872 402.814627 
L 129.143687 415.965439 
L 129.855292 409.621705 
L 130.566897 411.461631 
L 131.278502 418.330185 
L 131.990107 418.249321 
L 132.701713 416.308772 
L 133.413318 402.555378 
L 134.124923 399.344018 
L 134.836528 393.95622 
L 135.548133 400.656626 
L 136.259738 405.136201 
L 136.971343 402.981086 
L 137.682948 403.630529 
L 138.394553 408.393454 
L 139.106158 402.962407 
L 139.817763 402.218721 
L 140.529368 416.56062 
L 141.240973 412.281254 
L 141.952578 405.347175 
L 142.664183 395.212371 
L 143.375788 394.460925 
L 144.087393 389.957883 
L 144.798998 382.895622 
L 145.510603 377.420534 
L 146.222208 408.33566 
L 146.933813 408.078993 
L 148.357023 417.913295 
L 149.068628 420.205462 
L 149.780233 413.465864 
L 150.491838 411.153539 
L 151.203443 407.546529 
L 151.915048 401.494269 
L 152.626653 404.090629 
L 153.338258 401.782679 
L 154.049863 398.290529 
L 154.761468 401.937252 
L 155.473073 398.799415 
L 156.184678 405.069448 
L 156.896283 404.879203 
L 157.607889 401.795584 
L 158.319494 396.843316 
L 159.031099 405.218003 
L 159.742704 403.631305 
L 160.454309 401.260412 
L 161.165914 402.099131 
L 161.877519 410.297912 
L 163.300729 405.250667 
L 164.012334 409.953402 
L 164.723939 416.686817 
L 165.435544 416.550702 
L 166.147149 411.948375 
L 166.858754 406.409379 
L 167.570359 398.425107 
L 168.281964 392.377097 
L 168.993569 401.337656 
L 169.705174 401.542434 
L 170.416779 399.279705 
L 171.128384 399.786477 
L 171.839989 403.267641 
L 172.551594 402.905395 
L 173.263199 410.49663 
L 173.974804 416.232956 
L 174.686409 416.071899 
L 175.398014 412.852378 
L 176.821224 378.538997 
L 177.532829 364.413028 
L 178.244434 362.071179 
L 178.956039 362.415713 
L 179.667644 342.902891 
L 180.379249 334.715856 
L 181.090854 330.758843 
L 181.802459 325.865428 
L 182.514064 373.231593 
L 183.22567 364.402654 
L 184.64888 318.766768 
L 185.360485 329.786578 
L 186.07209 330.125411 
L 186.783695 352.546186 
L 187.4953 368.233075 
L 188.206905 372.237355 
L 188.91851 373.700713 
L 189.630115 396.750605 
L 190.34172 398.993191 
L 191.053325 397.393218 
L 191.76493 397.542136 
L 192.476535 396.536129 
L 193.18814 397.020805 
L 194.61135 395.984933 
L 195.322955 397.746818 
L 196.03456 402.037778 
L 196.746165 404.764439 
L 197.45777 403.872465 
L 198.169375 398.751475 
L 198.88098 400.132725 
L 199.592585 400.879977 
L 200.30419 380.01522 
L 201.015795 412.888581 
L 201.7274 404.064386 
L 202.439005 401.21943 
L 203.15061 343.980082 
L 203.862215 342.631372 
L 204.57382 362.870888 
L 205.285425 391.00043 
L 205.99703 414.583937 
L 206.708635 413.778554 
L 207.42024 414.752293 
L 208.131846 417.637517 
L 208.843451 422.352149 
L 209.555056 422.796748 
L 210.266661 417.817624 
L 210.978266 418.109104 
L 211.689871 418.939433 
L 212.401476 425.508357 
L 213.113081 421.843266 
L 213.824686 419.621466 
L 215.247896 416.024946 
L 215.959501 415.840016 
L 216.671106 415.075385 
L 217.382711 405.892418 
L 218.094316 404.402403 
L 218.805921 405.898069 
L 219.517526 404.959356 
L 220.229131 404.819481 
L 220.940736 404.901154 
L 221.652341 404.344081 
L 222.363946 405.218867 
L 223.075551 404.844007 
L 224.498761 405.122446 
L 225.210366 404.978191 
L 225.921971 405.07335 
L 226.633576 405.325782 
L 227.345181 405.765451 
L 228.056786 405.767429 
L 228.768391 404.850919 
L 229.479996 404.79927 
L 231.614811 404.331818 
L 233.749627 403.903772 
L 234.461232 384.402048 
L 235.172837 385.103998 
L 235.884442 363.981996 
L 236.596047 352.474726 
L 237.307652 351.396778 
L 238.730862 300.633525 
L 239.442467 287.058974 
L 240.154072 290.405544 
L 240.865677 329.259565 
L 241.577282 331.739568 
L 242.288887 340.066272 
L 243.000492 351.519363 
L 243.712097 360.597416 
L 244.423702 394.314694 
L 245.135307 383.769353 
L 245.846912 398.80183 
L 246.558517 398.502581 
L 247.270122 375.203959 
L 247.981727 367.159846 
L 248.693332 364.428262 
L 249.404937 356.227824 
L 250.116542 353.417174 
L 250.828147 385.397818 
L 251.539752 352.858373 
L 252.251357 396.112438 
L 252.962962 378.086398 
L 253.674567 368.571861 
L 254.386172 377.741011 
L 255.097777 332.415405 
L 255.809382 351.756576 
L 256.520987 388.750301 
L 257.232592 382.324191 
L 257.944197 357.036765 
L 258.655803 348.271123 
L 260.079013 342.168047 
L 260.790618 372.602305 
L 261.502223 369.676352 
L 262.213828 364.734363 
L 262.925433 399.128876 
L 263.637038 399.720613 
L 264.348643 410.285956 
L 265.060248 413.192862 
L 265.771853 401.372816 
L 266.483458 364.296694 
L 267.195063 337.827419 
L 267.906668 342.389401 
L 268.618273 334.10137 
L 269.329878 335.098443 
L 270.041483 336.629735 
L 270.753088 346.189088 
L 271.464693 359.760059 
L 272.176298 363.023765 
L 272.887903 402.892277 
L 273.599508 380.685473 
L 274.311113 377.720044 
L 275.022718 395.994175 
L 275.734323 398.931466 
L 276.445928 399.724485 
L 277.157533 399.535937 
L 277.869138 396.490788 
L 278.580743 397.266359 
L 279.292348 392.907504 
L 280.003953 406.909053 
L 280.715558 408.524255 
L 282.138768 371.63999 
L 282.850373 357.605939 
L 283.561979 355.592213 
L 284.273584 380.68318 
L 284.985189 339.570256 
L 285.696794 324.676105 
L 286.408399 367.918272 
L 287.120004 342.567036 
L 287.831609 338.064589 
L 288.543214 347.621081 
L 289.254819 346.348477 
L 289.966424 347.202255 
L 290.678029 337.689257 
L 291.389634 378.198952 
L 292.101239 365.610605 
L 293.524449 395.539271 
L 294.236054 413.649378 
L 294.947659 406.832672 
L 296.370869 401.368258 
L 297.082474 402.411698 
L 297.794079 400.933108 
L 298.505684 399.10703 
L 299.217289 396.388854 
L 299.928894 383.76711 
L 300.640499 374.083221 
L 301.352104 386.526405 
L 302.063709 401.33435 
L 302.775314 400.500702 
L 303.486919 399.292209 
L 304.198524 399.68341 
L 304.910129 396.639595 
L 305.621734 395.324927 
L 306.333339 385.770046 
L 307.044944 386.521026 
L 307.756549 401.619496 
L 309.17976 405.013942 
L 309.891365 402.491394 
L 310.60297 405.215324 
L 311.314575 397.020134 
L 312.02618 396.328112 
L 312.737785 395.949061 
L 313.44939 397.664269 
L 314.160995 397.635132 
L 314.8726 399.173798 
L 315.584205 400.31174 
L 316.29581 401.174213 
L 317.007415 361.50838 
L 317.71902 392.775031 
L 318.430625 395.155915 
L 319.14223 409.939441 
L 319.853835 403.775609 
L 320.56544 391.876898 
L 321.277045 360.220051 
L 321.98865 363.777409 
L 322.700255 368.109826 
L 323.41186 335.520546 
L 324.123465 334.527791 
L 324.83507 334.013023 
L 325.546675 317.666997 
L 326.25828 327.296467 
L 326.969885 341.97184 
L 327.68149 343.274946 
L 329.1047 358.923646 
L 329.816305 395.368846 
L 330.52791 373.40195 
L 331.239515 382.82539 
L 331.95112 400.753853 
L 332.662725 391.328826 
L 333.37433 390.308113 
L 334.085936 383.784459 
L 334.797541 394.513687 
L 335.509146 378.430323 
L 336.220751 386.487459 
L 336.932356 392.412742 
L 337.643961 397.215353 
L 338.355566 396.582798 
L 339.067171 391.172641 
L 339.778776 395.626903 
L 340.490381 397.367702 
L 341.201986 395.853031 
L 342.625196 395.813555 
L 343.336801 395.612351 
L 344.048406 396.692698 
L 344.760011 394.712191 
L 345.471616 410.508157 
L 346.183221 409.514495 
L 346.894826 405.927 
L 347.606431 363.669875 
L 348.318036 356.806621 
L 349.029641 362.248657 
L 349.741246 365.932877 
L 350.452851 395.731284 
L 351.164456 398.248248 
L 351.876061 412.162454 
L 352.587666 412.47651 
L 353.299271 411.031836 
L 354.010876 411.655262 
L 354.722481 411.205922 
L 355.434086 408.852839 
L 356.145691 412.940841 
L 357.568901 401.060575 
L 358.280506 399.139876 
L 358.992111 391.946735 
L 359.703717 360.452365 
L 360.415322 362.657976 
L 361.126927 336.918621 
L 361.838532 339.510099 
L 362.550137 324.234472 
L 363.261742 373.495233 
L 363.973347 339.448233 
L 364.684952 346.139699 
L 365.396557 329.191878 
L 366.108162 334.184421 
L 366.819767 361.292607 
L 367.531372 406.241073 
L 368.242977 402.154156 
L 368.954582 391.111871 
L 369.666187 411.031653 
L 370.377792 412.189915 
L 371.089397 412.659278 
L 371.801002 411.321902 
L 372.512607 411.148782 
L 373.224212 410.022741 
L 373.935817 408.379815 
L 374.647422 416.453144 
L 375.359027 416.134679 
L 376.070632 415.994562 
L 376.782237 415.247332 
L 377.493842 410.651437 
L 378.205447 411.103061 
L 378.917052 417.322585 
L 379.628657 417.3685 
L 380.340262 427.849718 
L 381.051867 426.647196 
L 381.763472 422.338284 
L 382.475077 406.486838 
L 383.186682 408.000921 
L 383.898287 396.733888 
L 384.609893 382.658923 
L 385.321498 366.335639 
L 386.033103 357.34684 
L 386.744708 371.364002 
L 388.167918 392.746895 
L 388.879523 399.359757 
L 390.302733 409.06163 
L 391.014338 417.110745 
L 391.725943 417.092295 
L 392.437548 413.065067 
L 393.149153 411.120607 
L 393.860758 412.009447 
L 394.572363 426.852204 
L 395.283968 427.258873 
L 395.995573 416.306653 
L 396.707178 413.082862 
L 397.418783 406.550385 
L 398.130388 408.396504 
L 398.841993 408.434887 
L 399.553598 409.818952 
L 400.265203 407.169406 
L 400.976808 407.916621 
L 401.688413 409.3834 
L 402.400018 409.358037 
L 403.111623 414.478713 
L 404.534833 403.065825 
L 405.246438 392.299003 
L 405.958043 393.622651 
L 407.381253 405.680469 
L 408.092858 406.351101 
L 408.804463 406.724628 
L 409.516069 412.832757 
L 410.227674 414.181346 
L 410.939279 418.574758 
L 411.650884 420.127276 
L 412.362489 417.016173 
L 413.785699 415.164001 
L 414.497304 393.761933 
L 415.208909 383.909249 
L 415.920514 368.060118 
L 416.632119 356.226273 
L 417.343724 349.492442 
L 418.055329 337.392246 
L 418.766934 322.832862 
L 419.478539 315.296963 
L 420.190144 310.084112 
L 420.901749 291.3854 
L 421.613354 312.82237 
L 423.036564 340.934959 
L 423.748169 355.854096 
L 424.459774 356.538298 
L 425.171379 364.880237 
L 425.882984 377.666429 
L 426.594589 395.956384 
L 427.306194 402.256392 
L 428.017799 402.578921 
L 428.729404 401.73202 
L 429.441009 399.08885 
L 430.152614 410.261769 
L 430.864219 406.419029 
L 431.575824 404.659268 
L 432.287429 369.369963 
L 432.999034 414.847818 
L 433.710639 416.461396 
L 434.422244 415.816362 
L 435.13385 403.402534 
L 435.845455 396.877489 
L 435.845455 396.877489 
" style="fill:none;stroke:#dc143c;stroke-linecap:square;stroke-opacity:0.7;stroke-width:1.5;"/>
   </g>
   <g id="line2d_4">
    <path clip-path="url(#peb32ee16cd)" d="M 80.754545 433.138017 
L 151.772727 433.138017 
" style="fill:none;stroke:#000000;stroke-linecap:square;stroke-width:1.5;"/>
   </g>
   <g id="text_1">
    <!-- 1 Sec -->
    <g transform="translate(84.305455 447.79357)scale(0.1 -0.1)">
     <defs>
      <path d="M 12.40625 8.296875 
L 28.515625 8.296875 
L 28.515625 63.921875 
L 10.984375 60.40625 
L 10.984375 69.390625 
L 28.421875 72.90625 
L 38.28125 72.90625 
L 38.28125 8.296875 
L 54.390625 8.296875 
L 54.390625 0 
L 12.40625 0 
z
" id="DejaVuSans-49"/>
      <path id="DejaVuSans-32"/>
      <path d="M 53.515625 70.515625 
L 53.515625 60.890625 
Q 47.90625 63.578125 42.921875 64.890625 
Q 37.9375 66.21875 33.296875 66.21875 
Q 25.25 66.21875 20.875 63.09375 
Q 16.5 59.96875 16.5 54.203125 
Q 16.5 49.359375 19.40625 46.890625 
Q 22.3125 44.4375 30.421875 42.921875 
L 36.375 41.703125 
Q 47.40625 39.59375 52.65625 34.296875 
Q 57.90625 29 57.90625 20.125 
Q 57.90625 9.515625 50.796875 4.046875 
Q 43.703125 -1.421875 29.984375 -1.421875 
Q 24.8125 -1.421875 18.96875 -0.25 
Q 13.140625 0.921875 6.890625 3.21875 
L 6.890625 13.375 
Q 12.890625 10.015625 18.65625 8.296875 
Q 24.421875 6.59375 29.984375 6.59375 
Q 38.421875 6.59375 43.015625 9.90625 
Q 47.609375 13.234375 47.609375 19.390625 
Q 47.609375 24.75 44.3125 27.78125 
Q 41.015625 30.8125 33.5 32.328125 
L 27.484375 33.5 
Q 16.453125 35.6875 11.515625 40.375 
Q 6.59375 45.0625 6.59375 53.421875 
Q 6.59375 63.09375 13.40625 68.65625 
Q 20.21875 74.21875 32.171875 74.21875 
Q 37.3125 74.21875 42.625 73.28125 
Q 47.953125 72.359375 53.515625 70.515625 
z
" id="DejaVuSans-83"/>
      <path d="M 56.203125 29.59375 
L 56.203125 25.203125 
L 14.890625 25.203125 
Q 15.484375 15.921875 20.484375 11.0625 
Q 25.484375 6.203125 34.421875 6.203125 
Q 39.59375 6.203125 44.453125 7.46875 
Q 49.3125 8.734375 54.109375 11.28125 
L 54.109375 2.78125 
Q 49.265625 0.734375 44.1875 -0.34375 
Q 39.109375 -1.421875 33.890625 -1.421875 
Q 20.796875 -1.421875 13.15625 6.1875 
Q 5.515625 13.8125 5.515625 26.8125 
Q 5.515625 40.234375 12.765625 48.109375 
Q 20.015625 56 32.328125 56 
Q 43.359375 56 49.78125 48.890625 
Q 56.203125 41.796875 56.203125 29.59375 
z
M 47.21875 32.234375 
Q 47.125 39.59375 43.09375 43.984375 
Q 39.0625 48.390625 32.421875 48.390625 
Q 24.90625 48.390625 20.390625 44.140625 
Q 15.875 39.890625 15.1875 32.171875 
z
" id="DejaVuSans-101"/>
      <path d="M 48.78125 52.59375 
L 48.78125 44.1875 
Q 44.96875 46.296875 41.140625 47.34375 
Q 37.3125 48.390625 33.40625 48.390625 
Q 24.65625 48.390625 19.8125 42.84375 
Q 14.984375 37.3125 14.984375 27.296875 
Q 14.984375 17.28125 19.8125 11.734375 
Q 24.65625 6.203125 33.40625 6.203125 
Q 37.3125 6.203125 41.140625 7.25 
Q 44.96875 8.296875 48.78125 10.40625 
L 48.78125 2.09375 
Q 45.015625 0.34375 40.984375 -0.53125 
Q 36.96875 -1.421875 32.421875 -1.421875 
Q 20.0625 -1.421875 12.78125 6.34375 
Q 5.515625 14.109375 5.515625 27.296875 
Q 5.515625 40.671875 12.859375 48.328125 
Q 20.21875 56 33.015625 56 
Q 37.15625 56 41.109375 55.140625 
Q 45.0625 54.296875 48.78125 52.59375 
z
" id="DejaVuSans-99"/>
     </defs>
     <use xlink:href="#DejaVuSans-49"/>
     <use x="63.623047" xlink:href="#DejaVuSans-32"/>
     <use x="95.410156" xlink:href="#DejaVuSans-83"/>
     <use x="158.886719" xlink:href="#DejaVuSans-101"/>
     <use x="220.410156" xlink:href="#DejaVuSans-99"/>
    </g>
   </g>
  </g>
 </g>
 <defs>
  <clipPath id="p6e484301bd">
   <rect height="172.963636" width="390.6" x="63" y="60.48"/>
  </clipPath>
  <clipPath id="peb32ee16cd">
   <rect height="172.963636" width="390.6" x="63" y="268.036364"/>
  </clipPath>
 </defs>
</svg>
