<?xml version="1.0" encoding="utf-8" standalone="no"?>
<!DOCTYPE svg PUBLIC "-//W3C//DTD SVG 1.1//EN"
  "http://www.w3.org/Graphics/SVG/1.1/DTD/svg11.dtd">
<!-- Created with matplotlib (https://matplotlib.org/) -->
<svg height="288pt" version="1.1" viewBox="0 0 432 288" width="432pt" xmlns="http://www.w3.org/2000/svg" xmlns:xlink="http://www.w3.org/1999/xlink">
 <metadata>
  <rdf:RDF xmlns:cc="http://creativecommons.org/ns#" xmlns:dc="http://purl.org/dc/elements/1.1/" xmlns:rdf="http://www.w3.org/1999/02/22-rdf-syntax-ns#">
   <cc:Work>
    <dc:type rdf:resource="http://purl.org/dc/dcmitype/StillImage"/>
    <dc:date>2021-08-20T16:04:30.813961</dc:date>
    <dc:format>image/svg+xml</dc:format>
    <dc:creator>
     <cc:Agent>
      <dc:title>Matplotlib v3.3.4, https://matplotlib.org/</dc:title>
     </cc:Agent>
    </dc:creator>
   </cc:Work>
  </rdf:RDF>
 </metadata>
 <defs>
  <style type="text/css">*{stroke-linecap:butt;stroke-linejoin:round;}</style>
 </defs>
 <g id="figure_1">
  <g id="patch_1">
   <path d="M 0 288 
L 432 288 
L 432 0 
L 0 0 
z
" style="fill:none;"/>
  </g>
  <g id="axes_1">
   <g id="patch_2">
    <path d="M 54 252 
L 388.8 252 
L 388.8 34.56 
L 54 34.56 
z
" style="fill:#ffffff;"/>
   </g>
   <g id="PolyCollection_1">
    <defs>
     <path d="M 59.58 -243.305835 
L 59.58 -230.21126 
L 65.16 -221.09961 
L 70.74 -215.616399 
L 76.32 -210.25567 
L 81.9 -203.993481 
L 87.48 -202.522595 
L 93.06 -198.128701 
L 98.64 -193.09945 
L 104.22 -182.814929 
L 109.8 -172.118752 
L 115.38 -159.962764 
L 120.96 -143.894591 
L 126.54 -130.050309 
L 132.12 -129.711771 
L 137.7 -123.549651 
L 143.28 -120.058313 
L 148.86 -114.238644 
L 154.44 -104.741345 
L 160.02 -109.339919 
L 165.6 -99.302848 
L 171.18 -93.379957 
L 176.76 -92.32897 
L 182.34 -92.836601 
L 187.92 -86.484579 
L 193.5 -83.737483 
L 199.08 -88.089058 
L 204.66 -81.56763 
L 210.24 -76.92293 
L 215.82 -72.460456 
L 221.4 -68.366649 
L 226.98 -69.909508 
L 232.56 -63.815772 
L 238.14 -70.869167 
L 243.72 -67.564054 
L 249.3 -68.126825 
L 254.88 -62.63736 
L 260.46 -60.579728 
L 266.04 -58.167222 
L 271.62 -54.821381 
L 277.2 -56.594198 
L 282.78 -57.156473 
L 288.36 -57.394989 
L 293.94 -55.185145 
L 299.52 -56.358082 
L 305.1 -53.523016 
L 310.68 -54.547562 
L 316.26 -47.46631 
L 321.84 -48.684828 
L 327.42 -51.083436 
L 333 -50.837765 
L 338.58 -45.883636 
L 344.16 -52.808221 
L 349.74 -50.410876 
L 355.32 -51.778739 
L 360.9 -50.306199 
L 366.48 -49.881836 
L 372.06 -51.530106 
L 377.64 -48.791599 
L 383.22 -49.356603 
L 383.22 -80.517672 
L 383.22 -80.517672 
L 377.64 -79.067547 
L 372.06 -84.848521 
L 366.48 -83.41019 
L 360.9 -83.739132 
L 355.32 -81.167544 
L 349.74 -84.585223 
L 344.16 -87.620976 
L 338.58 -85.893506 
L 333 -86.026872 
L 327.42 -85.275094 
L 321.84 -82.69165 
L 316.26 -83.654824 
L 310.68 -87.034946 
L 305.1 -85.141085 
L 299.52 -87.073083 
L 293.94 -88.979532 
L 288.36 -90.689836 
L 282.78 -90.550376 
L 277.2 -90.889756 
L 271.62 -93.929043 
L 266.04 -97.176764 
L 260.46 -97.754966 
L 254.88 -98.827319 
L 249.3 -101.397467 
L 243.72 -99.851133 
L 238.14 -104.446647 
L 232.56 -100.750834 
L 226.98 -102.005011 
L 221.4 -108.467167 
L 215.82 -106.113225 
L 210.24 -108.004532 
L 204.66 -109.89088 
L 199.08 -113.501223 
L 193.5 -111.453548 
L 187.92 -117.690105 
L 182.34 -119.792487 
L 176.76 -121.596408 
L 171.18 -122.870398 
L 165.6 -127.648929 
L 160.02 -134.501604 
L 154.44 -129.460982 
L 148.86 -134.749175 
L 143.28 -143.602936 
L 137.7 -146.066327 
L 132.12 -148.751417 
L 126.54 -153.748469 
L 120.96 -161.590136 
L 115.38 -170.812004 
L 109.8 -183.703413 
L 104.22 -193.857722 
L 98.64 -202.191108 
L 93.06 -208.084591 
L 87.48 -213.655336 
L 81.9 -216.282399 
L 76.32 -219.26738 
L 70.74 -227.465336 
L 65.16 -232.696208 
L 59.58 -243.305835 
z
" id="m511ee4b5d0" style="stroke:#696969;stroke-opacity:0.2;"/>
    </defs>
    <g clip-path="url(#p7f875a9c36)">
     <use style="fill:#696969;fill-opacity:0.2;stroke:#696969;stroke-opacity:0.2;" x="0" xlink:href="#m511ee4b5d0" y="288"/>
    </g>
   </g>
   <g id="PolyCollection_2">
    <defs>
     <path d="M 59.58 -231.609346 
L 59.58 -223.439539 
L 65.16 -210.672321 
L 70.74 -197.361463 
L 76.32 -188.958227 
L 81.9 -185.612609 
L 87.48 -178.986433 
L 93.06 -170.352782 
L 98.64 -170.622781 
L 104.22 -161.276866 
L 109.8 -152.763557 
L 115.38 -143.200967 
L 120.96 -135.485981 
L 126.54 -130.973301 
L 132.12 -132.718179 
L 137.7 -133.2838 
L 143.28 -124.842984 
L 148.86 -117.577218 
L 154.44 -116.284869 
L 160.02 -116.46671 
L 165.6 -113.0526 
L 171.18 -107.902717 
L 176.76 -105.483889 
L 182.34 -100.089391 
L 187.92 -104.609414 
L 193.5 -100.267183 
L 199.08 -98.513911 
L 204.66 -93.938598 
L 210.24 -93.773816 
L 215.82 -96.555879 
L 221.4 -95.610985 
L 226.98 -90.077377 
L 232.56 -87.001492 
L 238.14 -84.971167 
L 243.72 -86.627651 
L 249.3 -88.288038 
L 254.88 -72.732236 
L 260.46 -83.74946 
L 266.04 -82.94234 
L 271.62 -81.032367 
L 277.2 -79.344327 
L 282.78 -77.732571 
L 288.36 -72.306255 
L 293.94 -74.014363 
L 299.52 -72.49932 
L 305.1 -77.660517 
L 310.68 -75.057471 
L 316.26 -73.640514 
L 321.84 -76.258478 
L 327.42 -77.770054 
L 333 -73.194263 
L 338.58 -65.098558 
L 344.16 -67.280496 
L 349.74 -73.132385 
L 355.32 -72.980253 
L 360.9 -64.435578 
L 366.48 -64.69261 
L 372.06 -69.853128 
L 377.64 -67.668366 
L 383.22 -60.261706 
L 383.22 -104.607884 
L 383.22 -104.607884 
L 377.64 -107.829831 
L 372.06 -108.436697 
L 366.48 -107.999124 
L 360.9 -107.262743 
L 355.32 -110.14006 
L 349.74 -109.091297 
L 344.16 -111.221908 
L 338.58 -114.382888 
L 333 -116.796816 
L 327.42 -116.057094 
L 321.84 -114.25727 
L 316.26 -113.910735 
L 310.68 -117.705024 
L 305.1 -117.623116 
L 299.52 -117.91897 
L 293.94 -114.596247 
L 288.36 -117.696381 
L 282.78 -120.463129 
L 277.2 -118.810507 
L 271.62 -117.493598 
L 266.04 -118.692436 
L 260.46 -121.135608 
L 254.88 -120.050003 
L 249.3 -121.950661 
L 243.72 -125.793843 
L 238.14 -122.828262 
L 232.56 -120.717622 
L 226.98 -126.118532 
L 221.4 -132.561944 
L 215.82 -135.439977 
L 210.24 -132.434689 
L 204.66 -131.336568 
L 199.08 -131.943735 
L 193.5 -135.883286 
L 187.92 -136.45817 
L 182.34 -137.717979 
L 176.76 -138.171935 
L 171.18 -142.093452 
L 165.6 -146.776228 
L 160.02 -146.681396 
L 154.44 -149.624251 
L 148.86 -145.453666 
L 143.28 -148.733252 
L 137.7 -155.713472 
L 132.12 -155.567532 
L 126.54 -157.135403 
L 120.96 -160.769217 
L 115.38 -165.864541 
L 109.8 -173.509231 
L 104.22 -178.617502 
L 98.64 -185.282675 
L 93.06 -188.518059 
L 87.48 -193.470601 
L 81.9 -198.202622 
L 76.32 -200.56777 
L 70.74 -207.284954 
L 65.16 -220.320144 
L 59.58 -231.609346 
z
" id="me261e50025" style="stroke:#006400;stroke-opacity:0.2;"/>
    </defs>
    <g clip-path="url(#p7f875a9c36)">
     <use style="fill:#006400;fill-opacity:0.2;stroke:#006400;stroke-opacity:0.2;" x="0" xlink:href="#me261e50025" y="288"/>
    </g>
   </g>
   <g id="PolyCollection_3">
    <defs>
     <path d="M 59.58 -243.556364 
L 59.58 -231.522921 
L 65.16 -220.345033 
L 70.74 -216.762926 
L 76.32 -213.602388 
L 81.9 -203.107052 
L 87.48 -207.091874 
L 93.06 -199.015643 
L 98.64 -195.982518 
L 104.22 -190.096214 
L 109.8 -188.337323 
L 115.38 -183.773118 
L 120.96 -174.565314 
L 126.54 -173.887087 
L 132.12 -167.380378 
L 137.7 -166.404555 
L 143.28 -163.248324 
L 148.86 -158.642994 
L 154.44 -156.151155 
L 160.02 -154.597276 
L 165.6 -144.401188 
L 171.18 -143.418627 
L 176.76 -137.037693 
L 182.34 -133.144112 
L 187.92 -125.503877 
L 193.5 -125.91032 
L 199.08 -124.755829 
L 204.66 -125.43632 
L 210.24 -127.257717 
L 215.82 -122.177555 
L 221.4 -111.231305 
L 226.98 -113.568901 
L 232.56 -116.147182 
L 238.14 -108.232958 
L 243.72 -113.642483 
L 249.3 -108.439282 
L 254.88 -104.598095 
L 260.46 -109.130765 
L 266.04 -99.110558 
L 271.62 -93.744047 
L 277.2 -100.916251 
L 282.78 -93.96517 
L 288.36 -84.699798 
L 293.94 -93.862522 
L 299.52 -94.460139 
L 305.1 -105.969513 
L 310.68 -89.800799 
L 316.26 -97.28572 
L 321.84 -89.169392 
L 327.42 -87.739059 
L 333 -84.198009 
L 338.58 -83.607881 
L 344.16 -84.550995 
L 349.74 -80.07219 
L 355.32 -86.501082 
L 360.9 -79.373763 
L 366.48 -79.072993 
L 372.06 -77.134483 
L 377.64 -71.218595 
L 383.22 -65.236714 
L 383.22 -107.361127 
L 383.22 -107.361127 
L 377.64 -107.538257 
L 372.06 -109.036933 
L 366.48 -112.137618 
L 360.9 -109.635013 
L 355.32 -113.764604 
L 349.74 -112.989342 
L 344.16 -112.430422 
L 338.58 -117.617248 
L 333 -116.563289 
L 327.42 -115.157246 
L 321.84 -116.1129 
L 316.26 -122.963811 
L 310.68 -122.947175 
L 305.1 -123.98032 
L 299.52 -120.435218 
L 293.94 -123.986325 
L 288.36 -123.137358 
L 282.78 -126.599789 
L 277.2 -128.357093 
L 271.62 -127.583012 
L 266.04 -129.275916 
L 260.46 -133.152933 
L 254.88 -129.865203 
L 249.3 -130.410638 
L 243.72 -137.360527 
L 238.14 -133.080492 
L 232.56 -139.144453 
L 226.98 -141.415093 
L 221.4 -138.133856 
L 215.82 -144.521831 
L 210.24 -144.090274 
L 204.66 -148.058948 
L 199.08 -148.492838 
L 193.5 -148.166275 
L 187.92 -151.648011 
L 182.34 -154.262482 
L 176.76 -155.637122 
L 171.18 -158.805892 
L 165.6 -159.726336 
L 160.02 -166.52162 
L 154.44 -171.208366 
L 148.86 -171.0457 
L 143.28 -172.61405 
L 137.7 -176.72558 
L 132.12 -182.087483 
L 126.54 -185.122917 
L 120.96 -186.566847 
L 115.38 -195.637611 
L 109.8 -197.828686 
L 104.22 -201.686523 
L 98.64 -204.27831 
L 93.06 -209.695491 
L 87.48 -215.441751 
L 81.9 -215.813747 
L 76.32 -220.172459 
L 70.74 -228.327696 
L 65.16 -232.668736 
L 59.58 -243.556364 
z
" id="m369ea8a808" style="stroke:#9400d3;stroke-opacity:0.2;"/>
    </defs>
    <g clip-path="url(#p7f875a9c36)">
     <use style="fill:#9400d3;fill-opacity:0.2;stroke:#9400d3;stroke-opacity:0.2;" x="0" xlink:href="#m369ea8a808" y="288"/>
    </g>
   </g>
   <g id="matplotlib.axis_1">
    <g id="xtick_1">
     <g id="line2d_1">
      <defs>
       <path d="M 0 0 
L 0 3.5 
" id="m5bcebd4ae1" style="stroke:#000000;stroke-width:0.8;"/>
      </defs>
      <g>
       <use style="stroke:#000000;stroke-width:0.8;" x="54" xlink:href="#m5bcebd4ae1" y="252"/>
      </g>
     </g>
     <g id="text_1">
      <!-- 0 -->
      <g transform="translate(50.81875 266.598437)scale(0.1 -0.1)">
       <defs>
        <path d="M 31.78125 66.40625 
Q 24.171875 66.40625 20.328125 58.90625 
Q 16.5 51.421875 16.5 36.375 
Q 16.5 21.390625 20.328125 13.890625 
Q 24.171875 6.390625 31.78125 6.390625 
Q 39.453125 6.390625 43.28125 13.890625 
Q 47.125 21.390625 47.125 36.375 
Q 47.125 51.421875 43.28125 58.90625 
Q 39.453125 66.40625 31.78125 66.40625 
z
M 31.78125 74.21875 
Q 44.046875 74.21875 50.515625 64.515625 
Q 56.984375 54.828125 56.984375 36.375 
Q 56.984375 17.96875 50.515625 8.265625 
Q 44.046875 -1.421875 31.78125 -1.421875 
Q 19.53125 -1.421875 13.0625 8.265625 
Q 6.59375 17.96875 6.59375 36.375 
Q 6.59375 54.828125 13.0625 64.515625 
Q 19.53125 74.21875 31.78125 74.21875 
z
" id="DejaVuSans-48"/>
       </defs>
       <use xlink:href="#DejaVuSans-48"/>
      </g>
     </g>
    </g>
    <g id="xtick_2">
     <g id="line2d_2">
      <g>
       <use style="stroke:#000000;stroke-width:0.8;" x="109.8" xlink:href="#m5bcebd4ae1" y="252"/>
      </g>
     </g>
     <g id="text_2">
      <!-- 10 -->
      <g transform="translate(103.4375 266.598437)scale(0.1 -0.1)">
       <defs>
        <path d="M 12.40625 8.296875 
L 28.515625 8.296875 
L 28.515625 63.921875 
L 10.984375 60.40625 
L 10.984375 69.390625 
L 28.421875 72.90625 
L 38.28125 72.90625 
L 38.28125 8.296875 
L 54.390625 8.296875 
L 54.390625 0 
L 12.40625 0 
z
" id="DejaVuSans-49"/>
       </defs>
       <use xlink:href="#DejaVuSans-49"/>
       <use x="63.623047" xlink:href="#DejaVuSans-48"/>
      </g>
     </g>
    </g>
    <g id="xtick_3">
     <g id="line2d_3">
      <g>
       <use style="stroke:#000000;stroke-width:0.8;" x="165.6" xlink:href="#m5bcebd4ae1" y="252"/>
      </g>
     </g>
     <g id="text_3">
      <!-- 20 -->
      <g transform="translate(159.2375 266.598437)scale(0.1 -0.1)">
       <defs>
        <path d="M 19.1875 8.296875 
L 53.609375 8.296875 
L 53.609375 0 
L 7.328125 0 
L 7.328125 8.296875 
Q 12.9375 14.109375 22.625 23.890625 
Q 32.328125 33.6875 34.8125 36.53125 
Q 39.546875 41.84375 41.421875 45.53125 
Q 43.3125 49.21875 43.3125 52.78125 
Q 43.3125 58.59375 39.234375 62.25 
Q 35.15625 65.921875 28.609375 65.921875 
Q 23.96875 65.921875 18.8125 64.3125 
Q 13.671875 62.703125 7.8125 59.421875 
L 7.8125 69.390625 
Q 13.765625 71.78125 18.9375 73 
Q 24.125 74.21875 28.421875 74.21875 
Q 39.75 74.21875 46.484375 68.546875 
Q 53.21875 62.890625 53.21875 53.421875 
Q 53.21875 48.921875 51.53125 44.890625 
Q 49.859375 40.875 45.40625 35.40625 
Q 44.1875 33.984375 37.640625 27.21875 
Q 31.109375 20.453125 19.1875 8.296875 
z
" id="DejaVuSans-50"/>
       </defs>
       <use xlink:href="#DejaVuSans-50"/>
       <use x="63.623047" xlink:href="#DejaVuSans-48"/>
      </g>
     </g>
    </g>
    <g id="xtick_4">
     <g id="line2d_4">
      <g>
       <use style="stroke:#000000;stroke-width:0.8;" x="221.4" xlink:href="#m5bcebd4ae1" y="252"/>
      </g>
     </g>
     <g id="text_4">
      <!-- 30 -->
      <g transform="translate(215.0375 266.598437)scale(0.1 -0.1)">
       <defs>
        <path d="M 40.578125 39.3125 
Q 47.65625 37.796875 51.625 33 
Q 55.609375 28.21875 55.609375 21.1875 
Q 55.609375 10.40625 48.1875 4.484375 
Q 40.765625 -1.421875 27.09375 -1.421875 
Q 22.515625 -1.421875 17.65625 -0.515625 
Q 12.796875 0.390625 7.625 2.203125 
L 7.625 11.71875 
Q 11.71875 9.328125 16.59375 8.109375 
Q 21.484375 6.890625 26.8125 6.890625 
Q 36.078125 6.890625 40.9375 10.546875 
Q 45.796875 14.203125 45.796875 21.1875 
Q 45.796875 27.640625 41.28125 31.265625 
Q 36.765625 34.90625 28.71875 34.90625 
L 20.21875 34.90625 
L 20.21875 43.015625 
L 29.109375 43.015625 
Q 36.375 43.015625 40.234375 45.921875 
Q 44.09375 48.828125 44.09375 54.296875 
Q 44.09375 59.90625 40.109375 62.90625 
Q 36.140625 65.921875 28.71875 65.921875 
Q 24.65625 65.921875 20.015625 65.03125 
Q 15.375 64.15625 9.8125 62.3125 
L 9.8125 71.09375 
Q 15.4375 72.65625 20.34375 73.4375 
Q 25.25 74.21875 29.59375 74.21875 
Q 40.828125 74.21875 47.359375 69.109375 
Q 53.90625 64.015625 53.90625 55.328125 
Q 53.90625 49.265625 50.4375 45.09375 
Q 46.96875 40.921875 40.578125 39.3125 
z
" id="DejaVuSans-51"/>
       </defs>
       <use xlink:href="#DejaVuSans-51"/>
       <use x="63.623047" xlink:href="#DejaVuSans-48"/>
      </g>
     </g>
    </g>
    <g id="xtick_5">
     <g id="line2d_5">
      <g>
       <use style="stroke:#000000;stroke-width:0.8;" x="277.2" xlink:href="#m5bcebd4ae1" y="252"/>
      </g>
     </g>
     <g id="text_5">
      <!-- 40 -->
      <g transform="translate(270.8375 266.598437)scale(0.1 -0.1)">
       <defs>
        <path d="M 37.796875 64.3125 
L 12.890625 25.390625 
L 37.796875 25.390625 
z
M 35.203125 72.90625 
L 47.609375 72.90625 
L 47.609375 25.390625 
L 58.015625 25.390625 
L 58.015625 17.1875 
L 47.609375 17.1875 
L 47.609375 0 
L 37.796875 0 
L 37.796875 17.1875 
L 4.890625 17.1875 
L 4.890625 26.703125 
z
" id="DejaVuSans-52"/>
       </defs>
       <use xlink:href="#DejaVuSans-52"/>
       <use x="63.623047" xlink:href="#DejaVuSans-48"/>
      </g>
     </g>
    </g>
    <g id="xtick_6">
     <g id="line2d_6">
      <g>
       <use style="stroke:#000000;stroke-width:0.8;" x="333" xlink:href="#m5bcebd4ae1" y="252"/>
      </g>
     </g>
     <g id="text_6">
      <!-- 50 -->
      <g transform="translate(326.6375 266.598437)scale(0.1 -0.1)">
       <defs>
        <path d="M 10.796875 72.90625 
L 49.515625 72.90625 
L 49.515625 64.59375 
L 19.828125 64.59375 
L 19.828125 46.734375 
Q 21.96875 47.46875 24.109375 47.828125 
Q 26.265625 48.1875 28.421875 48.1875 
Q 40.625 48.1875 47.75 41.5 
Q 54.890625 34.8125 54.890625 23.390625 
Q 54.890625 11.625 47.5625 5.09375 
Q 40.234375 -1.421875 26.90625 -1.421875 
Q 22.3125 -1.421875 17.546875 -0.640625 
Q 12.796875 0.140625 7.71875 1.703125 
L 7.71875 11.625 
Q 12.109375 9.234375 16.796875 8.0625 
Q 21.484375 6.890625 26.703125 6.890625 
Q 35.15625 6.890625 40.078125 11.328125 
Q 45.015625 15.765625 45.015625 23.390625 
Q 45.015625 31 40.078125 35.4375 
Q 35.15625 39.890625 26.703125 39.890625 
Q 22.75 39.890625 18.8125 39.015625 
Q 14.890625 38.140625 10.796875 36.28125 
z
" id="DejaVuSans-53"/>
       </defs>
       <use xlink:href="#DejaVuSans-53"/>
       <use x="63.623047" xlink:href="#DejaVuSans-48"/>
      </g>
     </g>
    </g>
    <g id="xtick_7">
     <g id="line2d_7">
      <g>
       <use style="stroke:#000000;stroke-width:0.8;" x="388.8" xlink:href="#m5bcebd4ae1" y="252"/>
      </g>
     </g>
     <g id="text_7">
      <!-- 60 -->
      <g transform="translate(382.4375 266.598437)scale(0.1 -0.1)">
       <defs>
        <path d="M 33.015625 40.375 
Q 26.375 40.375 22.484375 35.828125 
Q 18.609375 31.296875 18.609375 23.390625 
Q 18.609375 15.53125 22.484375 10.953125 
Q 26.375 6.390625 33.015625 6.390625 
Q 39.65625 6.390625 43.53125 10.953125 
Q 47.40625 15.53125 47.40625 23.390625 
Q 47.40625 31.296875 43.53125 35.828125 
Q 39.65625 40.375 33.015625 40.375 
z
M 52.59375 71.296875 
L 52.59375 62.3125 
Q 48.875 64.0625 45.09375 64.984375 
Q 41.3125 65.921875 37.59375 65.921875 
Q 27.828125 65.921875 22.671875 59.328125 
Q 17.53125 52.734375 16.796875 39.40625 
Q 19.671875 43.65625 24.015625 45.921875 
Q 28.375 48.1875 33.59375 48.1875 
Q 44.578125 48.1875 50.953125 41.515625 
Q 57.328125 34.859375 57.328125 23.390625 
Q 57.328125 12.15625 50.6875 5.359375 
Q 44.046875 -1.421875 33.015625 -1.421875 
Q 20.359375 -1.421875 13.671875 8.265625 
Q 6.984375 17.96875 6.984375 36.375 
Q 6.984375 53.65625 15.1875 63.9375 
Q 23.390625 74.21875 37.203125 74.21875 
Q 40.921875 74.21875 44.703125 73.484375 
Q 48.484375 72.75 52.59375 71.296875 
z
" id="DejaVuSans-54"/>
       </defs>
       <use xlink:href="#DejaVuSans-54"/>
       <use x="63.623047" xlink:href="#DejaVuSans-48"/>
      </g>
     </g>
    </g>
    <g id="text_8">
     <!-- dimension -->
     <g transform="translate(195.499219 280.276563)scale(0.1 -0.1)">
      <defs>
       <path d="M 45.40625 46.390625 
L 45.40625 75.984375 
L 54.390625 75.984375 
L 54.390625 0 
L 45.40625 0 
L 45.40625 8.203125 
Q 42.578125 3.328125 38.25 0.953125 
Q 33.9375 -1.421875 27.875 -1.421875 
Q 17.96875 -1.421875 11.734375 6.484375 
Q 5.515625 14.40625 5.515625 27.296875 
Q 5.515625 40.1875 11.734375 48.09375 
Q 17.96875 56 27.875 56 
Q 33.9375 56 38.25 53.625 
Q 42.578125 51.265625 45.40625 46.390625 
z
M 14.796875 27.296875 
Q 14.796875 17.390625 18.875 11.75 
Q 22.953125 6.109375 30.078125 6.109375 
Q 37.203125 6.109375 41.296875 11.75 
Q 45.40625 17.390625 45.40625 27.296875 
Q 45.40625 37.203125 41.296875 42.84375 
Q 37.203125 48.484375 30.078125 48.484375 
Q 22.953125 48.484375 18.875 42.84375 
Q 14.796875 37.203125 14.796875 27.296875 
z
" id="DejaVuSans-100"/>
       <path d="M 9.421875 54.6875 
L 18.40625 54.6875 
L 18.40625 0 
L 9.421875 0 
z
M 9.421875 75.984375 
L 18.40625 75.984375 
L 18.40625 64.59375 
L 9.421875 64.59375 
z
" id="DejaVuSans-105"/>
       <path d="M 52 44.1875 
Q 55.375 50.25 60.0625 53.125 
Q 64.75 56 71.09375 56 
Q 79.640625 56 84.28125 50.015625 
Q 88.921875 44.046875 88.921875 33.015625 
L 88.921875 0 
L 79.890625 0 
L 79.890625 32.71875 
Q 79.890625 40.578125 77.09375 44.375 
Q 74.3125 48.1875 68.609375 48.1875 
Q 61.625 48.1875 57.5625 43.546875 
Q 53.515625 38.921875 53.515625 30.90625 
L 53.515625 0 
L 44.484375 0 
L 44.484375 32.71875 
Q 44.484375 40.625 41.703125 44.40625 
Q 38.921875 48.1875 33.109375 48.1875 
Q 26.21875 48.1875 22.15625 43.53125 
Q 18.109375 38.875 18.109375 30.90625 
L 18.109375 0 
L 9.078125 0 
L 9.078125 54.6875 
L 18.109375 54.6875 
L 18.109375 46.1875 
Q 21.1875 51.21875 25.484375 53.609375 
Q 29.78125 56 35.6875 56 
Q 41.65625 56 45.828125 52.96875 
Q 50 49.953125 52 44.1875 
z
" id="DejaVuSans-109"/>
       <path d="M 56.203125 29.59375 
L 56.203125 25.203125 
L 14.890625 25.203125 
Q 15.484375 15.921875 20.484375 11.0625 
Q 25.484375 6.203125 34.421875 6.203125 
Q 39.59375 6.203125 44.453125 7.46875 
Q 49.3125 8.734375 54.109375 11.28125 
L 54.109375 2.78125 
Q 49.265625 0.734375 44.1875 -0.34375 
Q 39.109375 -1.421875 33.890625 -1.421875 
Q 20.796875 -1.421875 13.15625 6.1875 
Q 5.515625 13.8125 5.515625 26.8125 
Q 5.515625 40.234375 12.765625 48.109375 
Q 20.015625 56 32.328125 56 
Q 43.359375 56 49.78125 48.890625 
Q 56.203125 41.796875 56.203125 29.59375 
z
M 47.21875 32.234375 
Q 47.125 39.59375 43.09375 43.984375 
Q 39.0625 48.390625 32.421875 48.390625 
Q 24.90625 48.390625 20.390625 44.140625 
Q 15.875 39.890625 15.1875 32.171875 
z
" id="DejaVuSans-101"/>
       <path d="M 54.890625 33.015625 
L 54.890625 0 
L 45.90625 0 
L 45.90625 32.71875 
Q 45.90625 40.484375 42.875 44.328125 
Q 39.84375 48.1875 33.796875 48.1875 
Q 26.515625 48.1875 22.3125 43.546875 
Q 18.109375 38.921875 18.109375 30.90625 
L 18.109375 0 
L 9.078125 0 
L 9.078125 54.6875 
L 18.109375 54.6875 
L 18.109375 46.1875 
Q 21.34375 51.125 25.703125 53.5625 
Q 30.078125 56 35.796875 56 
Q 45.21875 56 50.046875 50.171875 
Q 54.890625 44.34375 54.890625 33.015625 
z
" id="DejaVuSans-110"/>
       <path d="M 44.28125 53.078125 
L 44.28125 44.578125 
Q 40.484375 46.53125 36.375 47.5 
Q 32.28125 48.484375 27.875 48.484375 
Q 21.1875 48.484375 17.84375 46.4375 
Q 14.5 44.390625 14.5 40.28125 
Q 14.5 37.15625 16.890625 35.375 
Q 19.28125 33.59375 26.515625 31.984375 
L 29.59375 31.296875 
Q 39.15625 29.25 43.1875 25.515625 
Q 47.21875 21.78125 47.21875 15.09375 
Q 47.21875 7.46875 41.1875 3.015625 
Q 35.15625 -1.421875 24.609375 -1.421875 
Q 20.21875 -1.421875 15.453125 -0.5625 
Q 10.6875 0.296875 5.421875 2 
L 5.421875 11.28125 
Q 10.40625 8.6875 15.234375 7.390625 
Q 20.0625 6.109375 24.8125 6.109375 
Q 31.15625 6.109375 34.5625 8.28125 
Q 37.984375 10.453125 37.984375 14.40625 
Q 37.984375 18.0625 35.515625 20.015625 
Q 33.0625 21.96875 24.703125 23.78125 
L 21.578125 24.515625 
Q 13.234375 26.265625 9.515625 29.90625 
Q 5.8125 33.546875 5.8125 39.890625 
Q 5.8125 47.609375 11.28125 51.796875 
Q 16.75 56 26.8125 56 
Q 31.78125 56 36.171875 55.265625 
Q 40.578125 54.546875 44.28125 53.078125 
z
" id="DejaVuSans-115"/>
       <path d="M 30.609375 48.390625 
Q 23.390625 48.390625 19.1875 42.75 
Q 14.984375 37.109375 14.984375 27.296875 
Q 14.984375 17.484375 19.15625 11.84375 
Q 23.34375 6.203125 30.609375 6.203125 
Q 37.796875 6.203125 41.984375 11.859375 
Q 46.1875 17.53125 46.1875 27.296875 
Q 46.1875 37.015625 41.984375 42.703125 
Q 37.796875 48.390625 30.609375 48.390625 
z
M 30.609375 56 
Q 42.328125 56 49.015625 48.375 
Q 55.71875 40.765625 55.71875 27.296875 
Q 55.71875 13.875 49.015625 6.21875 
Q 42.328125 -1.421875 30.609375 -1.421875 
Q 18.84375 -1.421875 12.171875 6.21875 
Q 5.515625 13.875 5.515625 27.296875 
Q 5.515625 40.765625 12.171875 48.375 
Q 18.84375 56 30.609375 56 
z
" id="DejaVuSans-111"/>
      </defs>
      <use xlink:href="#DejaVuSans-100"/>
      <use x="63.476562" xlink:href="#DejaVuSans-105"/>
      <use x="91.259766" xlink:href="#DejaVuSans-109"/>
      <use x="188.671875" xlink:href="#DejaVuSans-101"/>
      <use x="250.195312" xlink:href="#DejaVuSans-110"/>
      <use x="313.574219" xlink:href="#DejaVuSans-115"/>
      <use x="365.673828" xlink:href="#DejaVuSans-105"/>
      <use x="393.457031" xlink:href="#DejaVuSans-111"/>
      <use x="454.638672" xlink:href="#DejaVuSans-110"/>
     </g>
    </g>
   </g>
   <g id="matplotlib.axis_2">
    <g id="ytick_1">
     <g id="line2d_8">
      <defs>
       <path d="M 0 0 
L -3.5 0 
" id="me2141409ba" style="stroke:#000000;stroke-width:0.8;"/>
      </defs>
      <g>
       <use style="stroke:#000000;stroke-width:0.8;" x="54" xlink:href="#me2141409ba" y="229.210592"/>
      </g>
     </g>
     <g id="text_9">
      <!-- −15.0 -->
      <g transform="translate(16.354687 233.009811)scale(0.1 -0.1)">
       <defs>
        <path d="M 10.59375 35.5 
L 73.1875 35.5 
L 73.1875 27.203125 
L 10.59375 27.203125 
z
" id="DejaVuSans-8722"/>
        <path d="M 10.6875 12.40625 
L 21 12.40625 
L 21 0 
L 10.6875 0 
z
" id="DejaVuSans-46"/>
       </defs>
       <use xlink:href="#DejaVuSans-8722"/>
       <use x="83.789062" xlink:href="#DejaVuSans-49"/>
       <use x="147.412109" xlink:href="#DejaVuSans-53"/>
       <use x="211.035156" xlink:href="#DejaVuSans-46"/>
       <use x="242.822266" xlink:href="#DejaVuSans-48"/>
      </g>
     </g>
    </g>
    <g id="ytick_2">
     <g id="line2d_9">
      <g>
       <use style="stroke:#000000;stroke-width:0.8;" x="54" xlink:href="#me2141409ba" y="202.416329"/>
      </g>
     </g>
     <g id="text_10">
      <!-- −12.5 -->
      <g transform="translate(16.354687 206.215548)scale(0.1 -0.1)">
       <use xlink:href="#DejaVuSans-8722"/>
       <use x="83.789062" xlink:href="#DejaVuSans-49"/>
       <use x="147.412109" xlink:href="#DejaVuSans-50"/>
       <use x="211.035156" xlink:href="#DejaVuSans-46"/>
       <use x="242.822266" xlink:href="#DejaVuSans-53"/>
      </g>
     </g>
    </g>
    <g id="ytick_3">
     <g id="line2d_10">
      <g>
       <use style="stroke:#000000;stroke-width:0.8;" x="54" xlink:href="#me2141409ba" y="175.622067"/>
      </g>
     </g>
     <g id="text_11">
      <!-- −10.0 -->
      <g transform="translate(16.354687 179.421285)scale(0.1 -0.1)">
       <use xlink:href="#DejaVuSans-8722"/>
       <use x="83.789062" xlink:href="#DejaVuSans-49"/>
       <use x="147.412109" xlink:href="#DejaVuSans-48"/>
       <use x="211.035156" xlink:href="#DejaVuSans-46"/>
       <use x="242.822266" xlink:href="#DejaVuSans-48"/>
      </g>
     </g>
    </g>
    <g id="ytick_4">
     <g id="line2d_11">
      <g>
       <use style="stroke:#000000;stroke-width:0.8;" x="54" xlink:href="#me2141409ba" y="148.827804"/>
      </g>
     </g>
     <g id="text_12">
      <!-- −7.5 -->
      <g transform="translate(22.717187 152.627022)scale(0.1 -0.1)">
       <defs>
        <path d="M 8.203125 72.90625 
L 55.078125 72.90625 
L 55.078125 68.703125 
L 28.609375 0 
L 18.3125 0 
L 43.21875 64.59375 
L 8.203125 64.59375 
z
" id="DejaVuSans-55"/>
       </defs>
       <use xlink:href="#DejaVuSans-8722"/>
       <use x="83.789062" xlink:href="#DejaVuSans-55"/>
       <use x="147.412109" xlink:href="#DejaVuSans-46"/>
       <use x="179.199219" xlink:href="#DejaVuSans-53"/>
      </g>
     </g>
    </g>
    <g id="ytick_5">
     <g id="line2d_12">
      <g>
       <use style="stroke:#000000;stroke-width:0.8;" x="54" xlink:href="#me2141409ba" y="122.033541"/>
      </g>
     </g>
     <g id="text_13">
      <!-- −5.0 -->
      <g transform="translate(22.717187 125.83276)scale(0.1 -0.1)">
       <use xlink:href="#DejaVuSans-8722"/>
       <use x="83.789062" xlink:href="#DejaVuSans-53"/>
       <use x="147.412109" xlink:href="#DejaVuSans-46"/>
       <use x="179.199219" xlink:href="#DejaVuSans-48"/>
      </g>
     </g>
    </g>
    <g id="ytick_6">
     <g id="line2d_13">
      <g>
       <use style="stroke:#000000;stroke-width:0.8;" x="54" xlink:href="#me2141409ba" y="95.239278"/>
      </g>
     </g>
     <g id="text_14">
      <!-- −2.5 -->
      <g transform="translate(22.717187 99.038497)scale(0.1 -0.1)">
       <use xlink:href="#DejaVuSans-8722"/>
       <use x="83.789062" xlink:href="#DejaVuSans-50"/>
       <use x="147.412109" xlink:href="#DejaVuSans-46"/>
       <use x="179.199219" xlink:href="#DejaVuSans-53"/>
      </g>
     </g>
    </g>
    <g id="ytick_7">
     <g id="line2d_14">
      <g>
       <use style="stroke:#000000;stroke-width:0.8;" x="54" xlink:href="#me2141409ba" y="68.445015"/>
      </g>
     </g>
     <g id="text_15">
      <!-- 0.0 -->
      <g transform="translate(31.096875 72.244234)scale(0.1 -0.1)">
       <use xlink:href="#DejaVuSans-48"/>
       <use x="63.623047" xlink:href="#DejaVuSans-46"/>
       <use x="95.410156" xlink:href="#DejaVuSans-48"/>
      </g>
     </g>
    </g>
    <g id="ytick_8">
     <g id="line2d_15">
      <g>
       <use style="stroke:#000000;stroke-width:0.8;" x="54" xlink:href="#me2141409ba" y="41.650752"/>
      </g>
     </g>
     <g id="text_16">
      <!-- 2.5 -->
      <g transform="translate(31.096875 45.449971)scale(0.1 -0.1)">
       <use xlink:href="#DejaVuSans-50"/>
       <use x="63.623047" xlink:href="#DejaVuSans-46"/>
       <use x="95.410156" xlink:href="#DejaVuSans-53"/>
      </g>
     </g>
    </g>
    <g id="text_17">
     <!-- Log(F.N.N.) -->
     <g transform="translate(10.275 170.431562)rotate(-90)scale(0.1 -0.1)">
      <defs>
       <path d="M 9.8125 72.90625 
L 19.671875 72.90625 
L 19.671875 8.296875 
L 55.171875 8.296875 
L 55.171875 0 
L 9.8125 0 
z
" id="DejaVuSans-76"/>
       <path d="M 45.40625 27.984375 
Q 45.40625 37.75 41.375 43.109375 
Q 37.359375 48.484375 30.078125 48.484375 
Q 22.859375 48.484375 18.828125 43.109375 
Q 14.796875 37.75 14.796875 27.984375 
Q 14.796875 18.265625 18.828125 12.890625 
Q 22.859375 7.515625 30.078125 7.515625 
Q 37.359375 7.515625 41.375 12.890625 
Q 45.40625 18.265625 45.40625 27.984375 
z
M 54.390625 6.78125 
Q 54.390625 -7.171875 48.1875 -13.984375 
Q 42 -20.796875 29.203125 -20.796875 
Q 24.46875 -20.796875 20.265625 -20.09375 
Q 16.0625 -19.390625 12.109375 -17.921875 
L 12.109375 -9.1875 
Q 16.0625 -11.328125 19.921875 -12.34375 
Q 23.78125 -13.375 27.78125 -13.375 
Q 36.625 -13.375 41.015625 -8.765625 
Q 45.40625 -4.15625 45.40625 5.171875 
L 45.40625 9.625 
Q 42.625 4.78125 38.28125 2.390625 
Q 33.9375 0 27.875 0 
Q 17.828125 0 11.671875 7.65625 
Q 5.515625 15.328125 5.515625 27.984375 
Q 5.515625 40.671875 11.671875 48.328125 
Q 17.828125 56 27.875 56 
Q 33.9375 56 38.28125 53.609375 
Q 42.625 51.21875 45.40625 46.390625 
L 45.40625 54.6875 
L 54.390625 54.6875 
z
" id="DejaVuSans-103"/>
       <path d="M 31 75.875 
Q 24.46875 64.65625 21.28125 53.65625 
Q 18.109375 42.671875 18.109375 31.390625 
Q 18.109375 20.125 21.3125 9.0625 
Q 24.515625 -2 31 -13.1875 
L 23.1875 -13.1875 
Q 15.875 -1.703125 12.234375 9.375 
Q 8.59375 20.453125 8.59375 31.390625 
Q 8.59375 42.28125 12.203125 53.3125 
Q 15.828125 64.359375 23.1875 75.875 
z
" id="DejaVuSans-40"/>
       <path d="M 9.8125 72.90625 
L 51.703125 72.90625 
L 51.703125 64.59375 
L 19.671875 64.59375 
L 19.671875 43.109375 
L 48.578125 43.109375 
L 48.578125 34.8125 
L 19.671875 34.8125 
L 19.671875 0 
L 9.8125 0 
z
" id="DejaVuSans-70"/>
       <path d="M 9.8125 72.90625 
L 23.09375 72.90625 
L 55.421875 11.921875 
L 55.421875 72.90625 
L 64.984375 72.90625 
L 64.984375 0 
L 51.703125 0 
L 19.390625 60.984375 
L 19.390625 0 
L 9.8125 0 
z
" id="DejaVuSans-78"/>
       <path d="M 8.015625 75.875 
L 15.828125 75.875 
Q 23.140625 64.359375 26.78125 53.3125 
Q 30.421875 42.28125 30.421875 31.390625 
Q 30.421875 20.453125 26.78125 9.375 
Q 23.140625 -1.703125 15.828125 -13.1875 
L 8.015625 -13.1875 
Q 14.5 -2 17.703125 9.0625 
Q 20.90625 20.125 20.90625 31.390625 
Q 20.90625 42.671875 17.703125 53.65625 
Q 14.5 64.65625 8.015625 75.875 
z
" id="DejaVuSans-41"/>
      </defs>
      <use xlink:href="#DejaVuSans-76"/>
      <use x="53.962891" xlink:href="#DejaVuSans-111"/>
      <use x="115.144531" xlink:href="#DejaVuSans-103"/>
      <use x="178.621094" xlink:href="#DejaVuSans-40"/>
      <use x="217.634766" xlink:href="#DejaVuSans-70"/>
      <use x="259.029297" xlink:href="#DejaVuSans-46"/>
      <use x="290.816406" xlink:href="#DejaVuSans-78"/>
      <use x="365.621094" xlink:href="#DejaVuSans-46"/>
      <use x="397.408203" xlink:href="#DejaVuSans-78"/>
      <use x="472.212891" xlink:href="#DejaVuSans-46"/>
      <use x="504" xlink:href="#DejaVuSans-41"/>
     </g>
    </g>
   </g>
   <g id="line2d_16">
    <path clip-path="url(#p7f875a9c36)" d="M 59.58 51.403787 
L 65.16 60.852398 
L 70.74 66.386037 
L 76.32 73.251748 
L 81.9 77.616739 
L 87.48 80.162606 
L 93.06 85.25862 
L 98.64 90.885447 
L 104.22 99.961026 
L 109.8 110.319333 
L 115.38 122.576415 
L 120.96 136.330098 
L 126.54 147.223649 
L 132.12 149.367688 
L 137.7 154.801345 
L 143.28 156.910985 
L 148.86 163.858766 
L 154.44 171.869881 
L 160.02 166.888745 
L 165.6 176.309204 
L 171.18 180.204412 
L 176.76 181.863054 
L 182.34 182.885121 
L 187.92 187.015017 
L 193.5 191.376739 
L 199.08 188.063519 
L 204.66 193.393522 
L 210.24 196.422613 
L 215.82 200.79882 
L 221.4 202.668538 
L 226.98 202.711039 
L 232.56 206.592682 
L 238.14 201.781099 
L 243.72 205.08585 
L 249.3 204.615093 
L 254.88 208.764002 
L 260.46 209.956044 
L 266.04 212.832309 
L 271.62 214.633392 
L 277.2 215.807923 
L 282.78 215.760282 
L 288.36 214.84727 
L 293.94 216.517994 
L 299.52 216.856305 
L 305.1 219.141858 
L 310.68 218.053097 
L 316.26 222.605798 
L 321.84 222.397089 
L 327.42 220.849154 
L 333 221.205074 
L 338.58 224.441233 
L 344.16 219.251811 
L 349.74 222.144388 
L 355.32 221.922148 
L 360.9 221.750467 
L 366.48 222.519515 
L 372.06 221.289691 
L 377.64 224.697545 
L 383.22 223.185992 
" style="fill:none;stroke:#696969;stroke-linecap:square;stroke-width:1.5;"/>
   </g>
   <g id="line2d_17">
    <path clip-path="url(#p7f875a9c36)" d="M 59.58 60.43914 
L 65.16 72.536039 
L 70.74 86.093007 
L 76.32 93.087577 
L 81.9 96.285872 
L 87.48 101.8805 
L 93.06 108.869952 
L 98.64 109.953319 
L 104.22 117.478824 
L 109.8 125.060005 
L 115.38 133.591685 
L 120.96 138.91477 
L 126.54 143.276428 
L 132.12 143.59324 
L 137.7 143.385194 
L 143.28 151.222381 
L 148.86 156.170672 
L 154.44 155.00974 
L 160.02 155.708927 
L 165.6 157.760944 
L 171.18 162.141791 
L 176.76 166.69147 
L 182.34 169.369361 
L 187.92 166.943762 
L 193.5 170.31139 
L 199.08 172.418034 
L 204.66 174.806254 
L 210.24 174.520633 
L 215.82 171.353036 
L 221.4 174.23729 
L 226.98 179.344291 
L 232.56 184.370919 
L 238.14 184.474521 
L 243.72 180.500317 
L 249.3 183.316123 
L 254.88 190.538312 
L 260.46 184.805114 
L 266.04 187.336909 
L 271.62 188.332196 
L 277.2 188.073828 
L 282.78 187.731694 
L 288.36 193.115864 
L 293.94 192.064144 
L 299.52 192.097579 
L 305.1 189.750561 
L 310.68 190.387117 
L 316.26 193.134996 
L 321.84 191.600215 
L 327.42 190.885456 
L 333 193.59113 
L 338.58 197.753858 
L 344.16 199.144762 
L 349.74 195.698095 
L 355.32 196.747358 
L 360.9 201.780329 
L 366.48 202.015711 
L 372.06 199.103763 
L 377.64 199.222844 
L 383.22 204.248452 
" style="fill:none;stroke:#006400;stroke-linecap:square;stroke-width:1.5;"/>
   </g>
   <g id="line2d_18">
    <path clip-path="url(#p7f875a9c36)" d="M 59.58 50.290243 
L 65.16 61.279463 
L 70.74 65.26684 
L 76.32 70.89042 
L 81.9 78.632058 
L 87.48 76.56122 
L 93.06 84.261772 
L 98.64 87.740589 
L 104.22 92.492892 
L 109.8 94.903394 
L 115.38 97.606916 
L 120.96 106.994202 
L 126.54 108.829724 
L 132.12 113.562634 
L 137.7 116.538675 
L 143.28 119.688737 
L 148.86 122.90732 
L 154.44 124.948699 
L 160.02 127.899846 
L 165.6 135.659853 
L 171.18 136.496957 
L 176.76 140.996828 
L 182.34 143.706965 
L 187.92 149.833825 
L 193.5 151.059538 
L 199.08 151.25721 
L 204.66 151.034923 
L 210.24 152.317405 
L 215.82 154.395602 
L 221.4 163.160125 
L 226.98 160.159571 
L 232.56 160.346721 
L 238.14 167.093881 
L 243.72 161.817986 
L 249.3 168.682732 
L 254.88 170.720929 
L 260.46 166.203626 
L 266.04 174.099004 
L 271.62 177.017006 
L 277.2 173.150356 
L 282.78 177.337172 
L 288.36 183.899002 
L 293.94 178.433728 
L 299.52 180.844818 
L 305.1 173.127248 
L 310.68 181.460778 
L 316.26 177.352272 
L 321.84 185.353346 
L 327.42 186.314377 
L 333 187.85339 
L 338.58 186.912555 
L 344.16 189.423243 
L 349.74 191.222298 
L 355.32 187.989614 
L 360.9 194.21379 
L 366.48 193.010976 
L 372.06 194.678602 
L 377.64 198.418765 
L 383.22 200.38115 
" style="fill:none;stroke:#9400d3;stroke-linecap:square;stroke-width:1.5;"/>
   </g>
   <g id="line2d_19"/>
   <g id="line2d_20"/>
   <g id="line2d_21"/>
   <g id="patch_3">
    <path d="M 54 252 
L 54 34.56 
" style="fill:none;stroke:#000000;stroke-linecap:square;stroke-linejoin:miter;stroke-width:0.8;"/>
   </g>
   <g id="patch_4">
    <path d="M 54 252 
L 388.8 252 
" style="fill:none;stroke:#000000;stroke-linecap:square;stroke-linejoin:miter;stroke-width:0.8;"/>
   </g>
   <g id="legend_1">
    <g id="line2d_22">
     <path d="M 300.992188 47.658438 
L 320.992188 47.658438 
" style="fill:none;stroke:#696969;stroke-linecap:square;stroke-width:1.5;"/>
    </g>
    <g id="line2d_23"/>
    <g id="text_18">
     <!-- body -->
     <g transform="translate(328.992188 51.158438)scale(0.1 -0.1)">
      <defs>
       <path d="M 48.6875 27.296875 
Q 48.6875 37.203125 44.609375 42.84375 
Q 40.53125 48.484375 33.40625 48.484375 
Q 26.265625 48.484375 22.1875 42.84375 
Q 18.109375 37.203125 18.109375 27.296875 
Q 18.109375 17.390625 22.1875 11.75 
Q 26.265625 6.109375 33.40625 6.109375 
Q 40.53125 6.109375 44.609375 11.75 
Q 48.6875 17.390625 48.6875 27.296875 
z
M 18.109375 46.390625 
Q 20.953125 51.265625 25.265625 53.625 
Q 29.59375 56 35.59375 56 
Q 45.5625 56 51.78125 48.09375 
Q 58.015625 40.1875 58.015625 27.296875 
Q 58.015625 14.40625 51.78125 6.484375 
Q 45.5625 -1.421875 35.59375 -1.421875 
Q 29.59375 -1.421875 25.265625 0.953125 
Q 20.953125 3.328125 18.109375 8.203125 
L 18.109375 0 
L 9.078125 0 
L 9.078125 75.984375 
L 18.109375 75.984375 
z
" id="DejaVuSans-98"/>
       <path d="M 32.171875 -5.078125 
Q 28.375 -14.84375 24.75 -17.8125 
Q 21.140625 -20.796875 15.09375 -20.796875 
L 7.90625 -20.796875 
L 7.90625 -13.28125 
L 13.1875 -13.28125 
Q 16.890625 -13.28125 18.9375 -11.515625 
Q 21 -9.765625 23.484375 -3.21875 
L 25.09375 0.875 
L 2.984375 54.6875 
L 12.5 54.6875 
L 29.59375 11.921875 
L 46.6875 54.6875 
L 56.203125 54.6875 
z
" id="DejaVuSans-121"/>
      </defs>
      <use xlink:href="#DejaVuSans-98"/>
      <use x="63.476562" xlink:href="#DejaVuSans-111"/>
      <use x="124.658203" xlink:href="#DejaVuSans-100"/>
      <use x="188.134766" xlink:href="#DejaVuSans-121"/>
     </g>
    </g>
    <g id="line2d_24">
     <path d="M 300.992188 62.336563 
L 320.992188 62.336563 
" style="fill:none;stroke:#006400;stroke-linecap:square;stroke-width:1.5;"/>
    </g>
    <g id="line2d_25"/>
    <g id="text_19">
     <!-- head -->
     <g transform="translate(328.992188 65.836563)scale(0.1 -0.1)">
      <defs>
       <path d="M 54.890625 33.015625 
L 54.890625 0 
L 45.90625 0 
L 45.90625 32.71875 
Q 45.90625 40.484375 42.875 44.328125 
Q 39.84375 48.1875 33.796875 48.1875 
Q 26.515625 48.1875 22.3125 43.546875 
Q 18.109375 38.921875 18.109375 30.90625 
L 18.109375 0 
L 9.078125 0 
L 9.078125 75.984375 
L 18.109375 75.984375 
L 18.109375 46.1875 
Q 21.34375 51.125 25.703125 53.5625 
Q 30.078125 56 35.796875 56 
Q 45.21875 56 50.046875 50.171875 
Q 54.890625 44.34375 54.890625 33.015625 
z
" id="DejaVuSans-104"/>
       <path d="M 34.28125 27.484375 
Q 23.390625 27.484375 19.1875 25 
Q 14.984375 22.515625 14.984375 16.5 
Q 14.984375 11.71875 18.140625 8.90625 
Q 21.296875 6.109375 26.703125 6.109375 
Q 34.1875 6.109375 38.703125 11.40625 
Q 43.21875 16.703125 43.21875 25.484375 
L 43.21875 27.484375 
z
M 52.203125 31.203125 
L 52.203125 0 
L 43.21875 0 
L 43.21875 8.296875 
Q 40.140625 3.328125 35.546875 0.953125 
Q 30.953125 -1.421875 24.3125 -1.421875 
Q 15.921875 -1.421875 10.953125 3.296875 
Q 6 8.015625 6 15.921875 
Q 6 25.140625 12.171875 29.828125 
Q 18.359375 34.515625 30.609375 34.515625 
L 43.21875 34.515625 
L 43.21875 35.40625 
Q 43.21875 41.609375 39.140625 45 
Q 35.0625 48.390625 27.6875 48.390625 
Q 23 48.390625 18.546875 47.265625 
Q 14.109375 46.140625 10.015625 43.890625 
L 10.015625 52.203125 
Q 14.9375 54.109375 19.578125 55.046875 
Q 24.21875 56 28.609375 56 
Q 40.484375 56 46.34375 49.84375 
Q 52.203125 43.703125 52.203125 31.203125 
z
" id="DejaVuSans-97"/>
      </defs>
      <use xlink:href="#DejaVuSans-104"/>
      <use x="63.378906" xlink:href="#DejaVuSans-101"/>
      <use x="124.902344" xlink:href="#DejaVuSans-97"/>
      <use x="186.181641" xlink:href="#DejaVuSans-100"/>
     </g>
    </g>
    <g id="line2d_26">
     <path d="M 300.992188 77.014688 
L 320.992188 77.014688 
" style="fill:none;stroke:#9400d3;stroke-linecap:square;stroke-width:1.5;"/>
    </g>
    <g id="line2d_27"/>
    <g id="text_20">
     <!-- Combined -->
     <g transform="translate(328.992188 80.514688)scale(0.1 -0.1)">
      <defs>
       <path d="M 64.40625 67.28125 
L 64.40625 56.890625 
Q 59.421875 61.53125 53.78125 63.8125 
Q 48.140625 66.109375 41.796875 66.109375 
Q 29.296875 66.109375 22.65625 58.46875 
Q 16.015625 50.828125 16.015625 36.375 
Q 16.015625 21.96875 22.65625 14.328125 
Q 29.296875 6.6875 41.796875 6.6875 
Q 48.140625 6.6875 53.78125 8.984375 
Q 59.421875 11.28125 64.40625 15.921875 
L 64.40625 5.609375 
Q 59.234375 2.09375 53.4375 0.328125 
Q 47.65625 -1.421875 41.21875 -1.421875 
Q 24.65625 -1.421875 15.125 8.703125 
Q 5.609375 18.84375 5.609375 36.375 
Q 5.609375 53.953125 15.125 64.078125 
Q 24.65625 74.21875 41.21875 74.21875 
Q 47.75 74.21875 53.53125 72.484375 
Q 59.328125 70.75 64.40625 67.28125 
z
" id="DejaVuSans-67"/>
      </defs>
      <use xlink:href="#DejaVuSans-67"/>
      <use x="69.824219" xlink:href="#DejaVuSans-111"/>
      <use x="131.005859" xlink:href="#DejaVuSans-109"/>
      <use x="228.417969" xlink:href="#DejaVuSans-98"/>
      <use x="291.894531" xlink:href="#DejaVuSans-105"/>
      <use x="319.677734" xlink:href="#DejaVuSans-110"/>
      <use x="383.056641" xlink:href="#DejaVuSans-101"/>
      <use x="444.580078" xlink:href="#DejaVuSans-100"/>
     </g>
    </g>
   </g>
  </g>
 </g>
 <defs>
  <clipPath id="p7f875a9c36">
   <rect height="217.44" width="334.8" x="54" y="34.56"/>
  </clipPath>
 </defs>
</svg>
